<svg xmlns="http://www.w3.org/2000/svg" width="200" height="200" viewBox="0 0 200 200">
  <g id="Group_260" data-name="Group 260" transform="translate(-6997 6450)">
    <rect id="Rectangle_24" data-name="Rectangle 24" width="200" height="200" rx="100" transform="translate(6997 -6450)" fill="#73a942"/>
    <path id="Path_560" data-name="Path 560" d="M44,155.56l-1.11-43.87-.56-21.94c-.18-7.15-.64-14.34-.49-21.48.06-2.91.44-6,2.27-8.4a6.2,6.2,0,0,1,6.31-2.54c2.47.48,4.89,1.56,7.44,1.56a5.45,5.45,0,0,0,5.51-4.33c.6-3.26-1.49-6.19-3.15-8.77l-5.9-9.19-5.89-9.19c-1.56-2.43-3.11-6-6.05-7S36.66,21.49,35,23.88c-2,2.86-3.11,6.47-4.47,9.66l-9.8,22.93A2,2,0,0,0,21.39,59,1.89,1.89,0,0,0,24,58.36L32.19,39.1l4.11-9.63c.76-1.78,1.91-4.93,4-5.53,1-.28,1.7.51,2.25,1.26,1,1.31,1.77,2.74,2.65,4.11l5.63,8.77,5.62,8.76A37.66,37.66,0,0,1,59,51c.51,1,1.19,2.53.4,3.55-1.09,1.41-3.91.24-5.23-.12-2.43-.67-5-1.36-7.49-.68-5.84,1.58-8.2,7.76-8.53,13.22-.2,3.27,0,6.57.11,9.84l.26,10.47.54,21,1.2,47.36c.07,2.41,3.82,2.42,3.75,0Z" transform="translate(7055.53 -6439.153)" fill="#231f20"/>
  </g>
</svg>
