<svg xmlns="http://www.w3.org/2000/svg" width="200" height="200" viewBox="0 0 200 200">
  <g id="Group_172" data-name="Group 172" transform="translate(-6703 6450)">
    <rect id="Rectangle_23" data-name="Rectangle 23" width="200" height="200" rx="100" transform="translate(6703 -6450)" fill="#a7c957"/>
    <g id="Group_169" data-name="Group 169" transform="translate(-462 503)">
      <path id="Path_556" data-name="Path 556" d="M36.34,32.47v86.97c0,1.63.32,3.7-.42,5.22-1.09,2.27-4.61,2-6.64,1.62-3.7-.79-7.46-2.31-11.21-.85a1.91,1.91,0,0,0-1.31,2.31,73.79,73.79,0,0,0,23,30.9,1.9,1.9,0,0,0,2.65,0q10.14-11.46,19.2-23.81a1.89,1.89,0,0,0-.67-2.56,1.92,1.92,0,0,0-2.57.67q-8.77,11.94-18.61,23h2.65a70.24,70.24,0,0,1-22.07-29.25L19.14,129c3.4-1.33,6.79.51,10.17,1,2.64.4,5.61.32,7.88-1.26,3-2.08,3-5.56,3-8.86V32.39a1.88,1.88,0,0,0-3.75,0Z" transform="translate(7191.301 -6947.35)" fill="#231f20"/>
      <path id="Path_557" data-name="Path 557" d="M107.5,161.61l-1.12-43.88-.56-21.94c-.18-7.14-.63-14.34-.49-21.48.06-2.9.45-6,2.27-8.39a6.24,6.24,0,0,1,6.32-2.55c2.47.49,4.89,1.57,7.44,1.56a5.43,5.43,0,0,0,5.5-4.33c.6-3.25-1.49-6.18-3.15-8.77l-5.89-9.18-5.9-9.19c-1.56-2.43-3.1-6-6-7s-5.75,1.08-7.43,3.47c-2,2.86-3.1,6.46-4.47,9.66L84.19,62.52a1.93,1.93,0,0,0,.67,2.56,1.88,1.88,0,0,0,2.56-.67l8.23-19.26,4.12-9.63c.76-1.78,1.9-4.93,4-5.53,1-.28,1.7.5,2.24,1.25,1,1.32,1.78,2.75,2.66,4.11l5.62,8.77,5.63,8.77c.87,1.35,1.81,2.69,2.55,4.12.5,1,1.18,2.54.39,3.56-1.08,1.41-3.9.24-5.22-.13-2.44-.67-5-1.35-7.5-.67-5.83,1.57-8.2,7.76-8.53,13.22-.19,3.27,0,6.57.11,9.84L102,93.3l.53,20.94,1.21,47.37c.06,2.41,3.81,2.42,3.75,0Z" transform="translate(7191.301 -6947.35)" fill="#231f20"/>
    </g>
  </g>
</svg>
