<svg xmlns="http://www.w3.org/2000/svg" width="200" height="200" viewBox="0 0 200 200">
  <g id="Group_257" data-name="Group 257" transform="translate(-6703 6953)">
    <rect id="Rectangle_14" data-name="Rectangle 14" width="200" height="200" rx="100" transform="translate(6703 -6953)" fill="#73a942"/>
    <path id="Path_554" data-name="Path 554" d="M45.07,118.09A55.28,55.28,0,0,1,31.22,36.52a39.27,39.27,0,0,1,9-8.36,37.26,37.26,0,0,1,11.79-4.77,115.268,115.268,0,0,1,13.3-2.21,85,85,0,0,1,14.44-.58,50,50,0,0,1,38,21.43,49.84,49.84,0,0,1,4.91,46c-5.83,14.66-18.59,25.32-31.38,33.84q-2.49,1.65-5,3.25c-1.09.68-3.49,2.43-4.54.7a3.05,3.05,0,0,1-.16-1.67c.07-1,.24-2,.39-3.06q.52-3.5,1.29-7c.51-2.3,1.1-4.59,1.77-6.85.53-1.79,1.25-3.65-.27-5.19-1.77-1.77-4.25-1.12-5.58.75-4.15,5.85-8.13,11.82-12.19,17.73-3.93,5.73-7.89,11.45-11.81,17.19A10.39,10.39,0,0,0,54,139.94a4.82,4.82,0,0,0,1.81,5.63c1.84,1.34,4.35,1.29,6.52,1.51q3.68.39,7.35.66a230.163,230.163,0,0,0,29,.29q7.11-.37,14.21-1.19a1.94,1.94,0,0,0,1.87-1.88,1.88,1.88,0,0,0-1.87-1.87,233.913,233.913,0,0,1-29.7,1.49q-7.38-.11-14.74-.68c-2.45-.19-4.9-.43-7.35-.7-1.62-.18-4.62-.35-3.24-2.66,1.1-1.86,2.44-3.6,3.66-5.38L69,124.28,82.27,105c0-.06.35-.41.33-.48.11.4-.5.1-.52.1-.37.08.3-.62-.12,0a8.551,8.551,0,0,0-.62,2,100.809,100.809,0,0,0-3,13.83c-.27,1.85-.75,3.88-.33,5.74A5.09,5.09,0,0,0,81.78,130c2.2.58,4.11-.24,5.94-1.39s3.37-2.13,5-3.23C106,116.65,119,105.84,125.53,91A52.793,52.793,0,0,0,86.66,17.65c-9.44-1.68-19-.7-28.42.76-8.8,1.37-17.17,3.76-24.06,9.65C21.62,38.8,15,56.2,15.31,72.51a59.42,59.42,0,0,0,27.87,48.82c2,1.28,3.93-2,1.89-3.24Z" transform="translate(6730.7 -6935.768)" fill="#231f20"/>
  </g>
</svg>
