<svg xmlns="http://www.w3.org/2000/svg" width="554.743" height="333.836" viewBox="0 0 554.743 333.836">
  <g id="Group_47" data-name="Group 47" transform="translate(-3555 -1758.911)">
    <path id="Path_359" data-name="Path 359" d="M134.2,223s-16.55-8.35-24.45,5.54,1.4,18.27,8.79,15.63S145.48,225.47,134.2,223Z" transform="translate(3537.932 1741.084)" fill="#a9d767"/>
    <path id="Path_360" data-name="Path 360" d="M113.74,199.3s15.39-12.94,7.16-30.11-16.62-9.71-17.94,0S106,210.1,113.74,199.3Z" transform="translate(3537.932 1741.084)" fill="#a9d767"/>
    <path id="Path_361" data-name="Path 361" d="M77.2,269.91s2.22-27.63-25.33-51.54C51.87,218.37,49.34,286.22,77.2,269.91Z" transform="translate(3537.932 1741.084)" fill="#a9d767"/>
    <path id="Path_362" data-name="Path 362" d="M107,307.38S70.77,328.29,75.12,339c0,0,30.64-5,46.51-19.06S107,307.38,107,307.38Z" transform="translate(3537.932 1741.084)" fill="#a9d767"/>
    <path id="Path_363" data-name="Path 363" d="M156.13,318.14c-10-2.63-18.54-9.14-28.62-11.58a27.76,27.76,0,0,0-14.53.27,39,39,0,0,0-12.45,6.76A106.76,106.76,0,0,0,87.8,325.75a.63.63,0,0,0,.13,1c7.24,3.65,15.86,2.61,22.94-.94,7.74-3.88,13.66-10.51,19.11-17.06a.63.63,0,0,0-.13-1c-10.38-5.62-21.09-11.45-29-20.38-7-7.86-11.07-18.44-9.28-29a22.77,22.77,0,0,1,7.93-14.15l-1-.13a84.22,84.22,0,0,1,15.3,55.55l.79-.61c-6.08-1.85-10.63-6.47-15.63-10.13a45.07,45.07,0,0,0-14.46-6.95,50.65,50.65,0,0,0-31.58,1.61,45.909,45.909,0,0,0-15.07,9.55.63.63,0,0,0,.28,1A50.91,50.91,0,0,0,80.2,281.62a.63.63,0,0,0-.28-1C64,273.93,59.6,255.12,57.18,239.85c-.83-5.23-1.59-10.47-2.75-15.64l-1,.6a76.78,76.78,0,0,1,16.1,50.92.625.625,0,0,0,1.25,0A78.09,78.09,0,0,0,61,234a77.888,77.888,0,0,0-6.73-10.08c-.41-.53-1.17.06-1,.61,3.79,17,3.52,36.38,16,50a29.46,29.46,0,0,0,10.31,7.29l-.27-1a49.61,49.61,0,0,1-40.86,12.17l.28,1c15.46-14.82,41.41-16.85,58.93-4.48,5.39,3.81,10.11,8.76,16.58,10.73a.64.64,0,0,0,.8-.6,86.13,86.13,0,0,0-8.65-44.78,83.788,83.788,0,0,0-6.82-11.4.64.64,0,0,0-1-.13c-8.16,6.64-10,17.94-7.8,27.77,2.57,11.42,10.76,20.14,20,26.76a175.538,175.538,0,0,0,18.41,11l-.12-1c-5.14,6.18-10.64,12.37-17.78,16.29-6.86,3.77-15.56,5.14-22.76,1.51l.12,1c6.6-7.12,13.83-14.76,23.19-18.11a26.23,26.23,0,0,1,14.55-.93c4.89,1.07,9.45,3.22,13.93,5.39,5,2.43,10,4.95,15.45,6.37a.63.63,0,0,0,.33-1.21Z" transform="translate(3537.932 1741.084)" fill="#231f20"/>
    <path id="Path_364" data-name="Path 364" d="M70,275.37A71.71,71.71,0,0,1,26.66,252.8a69.64,69.64,0,0,1-8.41-11.28l-.7.92a98.491,98.491,0,0,1,21.66,10.25,98.088,98.088,0,0,1,9.93,7.17c3,2.46,5.72,5.18,8.62,7.72A30.2,30.2,0,0,0,68,273.92c.76.25,1.09-.95.33-1.21C60.94,270.27,55.83,263.77,50,259a99.78,99.78,0,0,0-19.9-12.78,100.521,100.521,0,0,0-12.24-5,.63.63,0,0,0-.71.92A73,73,0,0,0,56,273.39a70.24,70.24,0,0,0,14,3.23c.8.1.79-1.15,0-1.25Z" transform="translate(3537.932 1741.084)" fill="#231f20"/>
    <path id="Path_365" data-name="Path 365" d="M182.58,164.26l16.86,58.88c.55,1.92.87,4.36,2.1,6a5.3,5.3,0,0,0,4.39,1.75c2.41,0,4.84-.23,7.25-.34s4.94-.23,7.41-.33q15.18-.6,30.39-.66,30.41-.12,60.76,1.93,15,1,30.05,2.56,7.62.79,15.23,1.71c3.89.47,7.84.91,10.36-2.69a42.47,42.47,0,0,0,3.1-6l3.34-6.94,6.57-13.65,13.24-27.53,3.23-6.72-1.14-.48q-5,26-8.77,52.29-3.79,26.07-6.48,52.29t-4.24,52.6q-.39,6.62-.71,13.24c-.08,1.86.1,4.19-1,5.8s-3.22,1.76-5,1.77c-4.31,0-8.64-.33-12.94-.48q-6.7-.24-13.42-.42-26.85-.75-53.72-.71T236,349q-13.43.42-26.85,1l-6.7.32a18.812,18.812,0,0,1-5.3-.18c-4.56-1.09-4.21-6-4.34-9.74q-1-26.94-2.12-53.88t-2.46-53.88q-1.31-26.81-2.78-53.61-.36-6.6-.74-13.21c0-.8-1.29-.8-1.25,0q1.56,27.42,2.93,54.85T189,275.52q1.2,27.44,2.23,54.88c.17,4.48.24,9,.5,13.45.19,3.18,1.18,6.18,4.45,7.28a13.61,13.61,0,0,0,4.84.49c2.14-.07,4.29-.21,6.43-.31q6.84-.31,13.67-.58,27.35-1.08,54.7-1.33t54.72.33q13.67.28,27.34.77l7,.27a54.005,54.005,0,0,0,5.83.13c3.2-.22,5.46-1.85,5.91-5.14.29-2.09.27-4.24.38-6.34s.23-4.41.35-6.62q.38-6.74.83-13.47.89-13.47,2.09-26.92,2.4-26.9,6-53.67,3.6-26.93,8.38-53.67,1.17-6.52,2.41-13c.12-.65-.82-1.16-1.15-.48l-25.73,53.5c-1,2-1.89,4.09-2.95,6.07a6.339,6.339,0,0,1-5.16,3.74,36.161,36.161,0,0,1-6.64-.56q-3.68-.45-7.37-.85-14.61-1.62-29.28-2.73-29.46-2.22-59-2.41-14.7-.09-29.41.32-7.29.21-14.57.54c-2.47.11-4.94.24-7.41.37-2.1.11-4.86.52-6-1.69a16.138,16.138,0,0,1-1-3.13l-1.09-3.83-2.3-7.22-4-14.12-8.16-28.48-2.05-7.18a.63.63,0,0,0-1.21.33Z" transform="translate(3537.932 1741.084)" fill="#231f20"/>
    <path id="Path_366" data-name="Path 366" d="M276.46,311.26a26.71,26.71,0,0,1-6.65-39.36,17.84,17.84,0,0,1,6.14-5,28.229,28.229,0,0,1,8-2.06c5.64-.84,11.42-1.08,16.81,1.1a24.2,24.2,0,0,1,11.09,9.12,23.86,23.86,0,0,1,3.67,14.83,24.87,24.87,0,0,1-6,14.07,51.482,51.482,0,0,1-12.91,10.55,4.22,4.22,0,0,1-1.61.67c-1.35.14-1.24-1-1.11-2a42.719,42.719,0,0,1,.9-4.88,48.469,48.469,0,0,1,3.29-9.37.63.63,0,0,0-1.08-.63l-8.92,13-4.46,6.49c-.73,1.05-1.56,2.09-2.19,3.2a2.24,2.24,0,0,0-.26,2.09c.69,1.5,2.88,1.47,4.25,1.61q3.92.39,7.85.51a111.576,111.576,0,0,0,15.72-.69c.79-.08.8-1.34,0-1.25a110.719,110.719,0,0,1-13.75.72c-2.29,0-4.59-.12-6.88-.28-1.14-.09-2.29-.19-3.43-.31s-3-.05-2.42-1.77a14.531,14.531,0,0,1,1.91-2.79l2-2.84,3.9-5.68,7.81-11.35-1.08-.63a50.18,50.18,0,0,0-3.31,9.22c-.37,1.49-.67,3-.9,4.51-.16,1.08-.56,2.51.08,3.51,1.28,2,4,.3,5.37-.59a73.287,73.287,0,0,0,6.62-4.75,33.637,33.637,0,0,0,10.15-12.77,25.39,25.39,0,0,0,.78-16.85c-3.29-10.9-13.76-17.8-24.94-17.63a57.227,57.227,0,0,0-9.59,1.07,20.77,20.77,0,0,0-8.23,3.15c-4.53,3.19-7.64,8.34-9.19,13.59a28.2,28.2,0,0,0,12,31.59c.69.43,1.31-.65.63-1.08Z" transform="translate(3537.932 1741.084)" fill="#231f20"/>
    <g id="Group_46" data-name="Group 46">
      <circle id="Ellipse_57" data-name="Ellipse 57" cx="58.5" cy="58.5" r="58.5" transform="translate(3777.563 1813.604)" fill="#f9e76f"/>
      <path id="Path_367" data-name="Path 367" d="M313.28,73.69c-4.49,2-7.08,6.63-7.74,11.35-.87,6.14,1.48,12.18,3.77,17.75l.28-.7q-8.44,4.62-16.54,9.84l.92.37c-1.22-6.73-2.42-13.52-3.16-20.32-.35-3.23.08-6.1,2.39-8.52a33.65,33.65,0,0,1,6.91-5,30.189,30.189,0,0,1,8.44-3.87,19.27,19.27,0,0,1,9.24.25c6,1.51,11.41,4.76,17.25,6.79a55.54,55.54,0,0,0,21.44,2.92l-.32-1.16a92.35,92.35,0,0,1-24,13.41A92,92,0,0,1,319,100.68c-1.12.24-2.24.46-3.36.65a15.76,15.76,0,0,0-3,.58c-1.69.66-1.77,2.15-1.55,3.75a31.58,31.58,0,0,0,4.56,12.4c.77,1.22,1.84,3.24,3.59,2.93a4.48,4.48,0,0,0,2-1.16c1-.82,2-1.63,3-2.4a79,79,0,0,1,24.2-12.35c2.39-.74,4.82-1.31,7.26-1.86,1.65-.37,3.56-.92,4.67-2.29,1.41-1.75.56-3.92.06-5.85l-2.26-8.67-.77.77c2.46.8,2.46,4.32,2.78,6.43a13.31,13.31,0,0,0,3.41,7.06,19.45,19.45,0,0,0,7.3,4.77,38.708,38.708,0,0,0,4.7,1.46c1.54.38,3.36.5,4.78,1.24,2.18,1.14.38,2.81-.67,4.08s-2.36,2.79-3.57,4.16c-2.32,2.64-4.69,5.22-7,7.87a137.651,137.651,0,0,0-12.37,16.83,127.829,127.829,0,0,1-12.07,16.46c-4.23,4.76-8.79,9.22-13.21,13.8a125.368,125.368,0,0,0-12.32,14.42c-1.79,2.53-3.25,5.4-5.38,7.67a9.54,9.54,0,0,1-9.17,2.81c-3.81-.74-7.25-2.75-10.64-4.54l-11.25-5.94-22.93-12.12.22.86c9.75-22.58,31.52-36.23,47.15-54.27,2-2.31,4.32-5,4.36-8.24,0-2.55-1.57-5.28-4.25-5.68a.64.64,0,0,0-.7.28,266.519,266.519,0,0,1-23.33,28.9q-6.19,6.67-12.85,12.91c-4.3,4-8.88,7.75-13.23,11.72-4.06,3.69-8.22,8.48-7.55,14.35l.79-.6c-5.63-1-10.62-3.8-15.55-6.54l-16.12-8.94c-2.62-1.45-5.24-2.88-7.85-4.35-1-.58-2.41-1.32-2.52-2.63s1.29-2.46,2.28-3.19a37.56,37.56,0,0,0,4.91-4.08,44,44,0,0,0,4.16-5.17c2.66-3.82,4.91-7.92,7.62-11.71,3.09-4.3,7-7.61,11-11,8.3-6.92,14.92-15.37,21.58-23.81,1.84-2.33,3.69-4.66,5.6-6.94a68.488,68.488,0,0,1,5.79-6.48c1.2-1.11,2.61-2,4.29-1.56a22.73,22.73,0,0,1,4.54,2.09l9.3,4.63c.72.36,1.35-.72.63-1.08l-8.85-4.41c-2.15-1.06-4.8-3-7.33-2.53-2.29.42-3.93,2.39-5.41,4-1.95,2.15-3.81,4.37-5.64,6.62-7.21,8.85-13.86,18.26-22.36,26-4.19,3.79-8.87,7-12.46,11.46-3.09,3.82-5.48,8.12-8.17,12.21a49.941,49.941,0,0,1-4.46,6,39.108,39.108,0,0,1-5.7,4.9c-1.52,1.15-3.12,2.81-2.45,4.88s3.42,3.13,5.16,4.1l19.39,10.75c5.79,3.22,11.62,6.87,18.25,8,.36.06.84-.16.79-.61-.63-5.56,3.35-10,7.18-13.47,4.25-3.86,8.71-7.48,12.91-11.41a267.731,267.731,0,0,0,24.56-26.28q6.36-7.82,12.14-16.08l-.71.28c3,.46,3.81,4,2.94,6.49-1,2.85-3.41,5.18-5.4,7.37-3.83,4.23-7.92,8.22-12.06,12.14-8.23,7.79-16.74,15.39-23.76,24.33a73.089,73.089,0,0,0-9.73,16,.63.63,0,0,0,.23.85l21.61,11.42,10.59,5.59a84.7,84.7,0,0,0,9.65,4.76c2.9,1.09,6.19,1.75,9.22.76s4.9-3.22,6.56-5.65c1.94-2.84,3.73-5.73,5.85-8.43s4.28-5.14,6.55-7.6c4.57-4.92,9.41-9.59,14-14.51a118.36,118.36,0,0,0,12.9-16.61,160.842,160.842,0,0,1,13-18.28c2.38-2.78,4.85-5.48,7.28-8.22q1.82-2,3.59-4.14c.89-1.06,2.27-2.29,2.67-3.66.93-3.2-3.87-3.79-5.87-4.25-3.89-.9-7.88-2.17-11-4.81a13.32,13.32,0,0,1-4.58-8.76c-.35-2.49-.78-5.47-3.52-6.35a.63.63,0,0,0-.77.76l1.78,6.8c.26,1,.53,2,.79,3,.32,1.24.73,2.61-.23,3.67s-2.79,1.5-4.24,1.82c-2,.44-4,.92-5.94,1.49a79.91,79.91,0,0,0-21.53,10q-2.46,1.62-4.78,3.41c-.78.6-1.54,1.22-2.3,1.85-.53.43-.87.81-1.59.81s-1.15-.66-1.6-1.3A30.56,30.56,0,0,1,312.63,107c-.17-.87-.72-2.59-.21-3.41s2.12-.81,2.94-1c2-.32,3.93-.72,5.87-1.18a90.918,90.918,0,0,0,11.84-3.64,93.531,93.531,0,0,0,23.72-13.31c.44-.34.38-1.21-.31-1.17a54.46,54.46,0,0,1-20.89-2.8c-6.18-2.11-11.87-5.65-18.29-7.06a20.29,20.29,0,0,0-8.67-.15,29.23,29.23,0,0,0-8.78,3.87c-4.54,2.73-10,5.82-10.41,11.72a27.518,27.518,0,0,0,.44,5.5q.39,2.88.82,5.76.93,6.24,2.06,12.45a.63.63,0,0,0,.92.38q8.1-5.22,16.54-9.84a.63.63,0,0,0,.29-.71c-2.12-5.18-4.34-10.73-3.84-16.44.42-4.65,2.84-9.3,7.24-11.25.74-.33.1-1.4-.63-1.08Z" transform="translate(3537.932 1741.084)" fill="#231f20"/>
      <path id="Path_368" data-name="Path 368" d="M140.64,83.4l46.08,32.38c.66.47,1.29-.62.63-1.08L141.27,82.32C140.61,81.86,139.98,82.94,140.64,83.4Z" transform="translate(3537.932 1741.084)" fill="#231f20"/>
      <path id="Path_369" data-name="Path 369" d="M184.15,74.9,195.45,86a.622.622,0,0,0,.88-.88L185,74a.63.63,0,0,0-.89.88Z" transform="translate(3537.932 1741.084)" fill="#231f20"/>
      <path id="Path_370" data-name="Path 370" d="M201.51,27.17A375.835,375.835,0,0,0,226.62,75.5c.42.68,1.5,0,1.07-.63a378.382,378.382,0,0,1-25.11-48.33C202.27,25.8,201.19,26.44,201.51,27.17Z" transform="translate(3537.932 1741.084)" fill="#231f20"/>
      <path id="Path_371" data-name="Path 371" d="M246.93,43.92l2.89,9.73a.63.63,0,0,0,1.21-.33l-2.89-9.74a.63.63,0,0,0-1.21.34Z" transform="translate(3537.932 1741.084)" fill="#231f20"/>
      <path id="Path_372" data-name="Path 372" d="M294.3,18.43l1,31.35c0,.8,1.28.8,1.25,0l-1-31.35c0-.8-1.28-.81-1.25,0Z" transform="translate(3537.932 1741.084)" fill="#231f20"/>
      <path id="Path_373" data-name="Path 373" d="M339.19,44.33l-4.42,10.48a.63.63,0,0,0,1.21.33l4.42-10.48a.62.62,0,0,0-.44-.76.63.63,0,0,0-.77.43Z" transform="translate(3537.932 1741.084)" fill="#231f20"/>
      <path id="Path_374" data-name="Path 374" d="M407,41.57q-16.25,13.11-31.17,27.72c-.57.57.31,1.45.89.89q14.91-14.61,31.16-27.73C408.51,41.95,407.62,41.07,407,41.57Z" transform="translate(3537.932 1741.084)" fill="#231f20"/>
      <path id="Path_375" data-name="Path 375" d="M390.19,89.78l11.25-6.63a.63.63,0,0,0-.63-1.08L389.56,88.7a.63.63,0,0,0,.63,1.08Z" transform="translate(3537.932 1741.084)" fill="#231f20"/>
      <path id="Path_376" data-name="Path 376" d="M403.06,125.23q27-12.11,54.87-22.17c.75-.27.42-1.48-.33-1.2q-28,10.11-55.17,22.29c-.73.33-.1,1.4.63,1.08Z" transform="translate(3537.932 1741.084)" fill="#231f20"/>
      <path id="Path_377" data-name="Path 377" d="M184.61,136.22q-19,2-38,2.71c-.8,0-.8,1.28,0,1.25q19.06-.7,38-2.71C185.4,137.38,185.41,136.13,184.61,136.22Z" transform="translate(3537.932 1741.084)" fill="#231f20"/>
      <path id="Path_378" data-name="Path 378" d="M400.21,146.77a329.443,329.443,0,0,0,44.28,6.74c.81.06.8-1.19,0-1.25a326.154,326.154,0,0,1-43.95-6.7.627.627,0,0,0-.33,1.21Z" transform="translate(3537.932 1741.084)" fill="#231f20"/>
    </g>
    <path id="Path_379" data-name="Path 379" d="M147.17,245.24a61.7,61.7,0,0,0-21.94-31.51c-3.56-2.74-7.33-5.23-10.61-8.32a25.63,25.63,0,0,1-7.31-11.54,36.81,36.81,0,0,1-1-13.55,64.361,64.361,0,0,1,1-7c.4-2,.7-4.39,1.74-6.21,1.29-2.23,3.69-2.17,5.6-.79a11,11,0,0,1,3.73,5.8c3.39,10.58-2.28,21.84-7.15,31l1-.12c-4.61-3.89-10.41-8.71-16.91-7.6-4.7.8-9.68,5.15-8.3,10.34,1.21,4.56,6.57,6.11,10.75,5.3,2.59-.5,4.38-2,6.32-3.68a7.29,7.29,0,0,1,4.67-2.19,9.1,9.1,0,0,1,5,1.76c3.35,2.19,6,5.32,9.18,7.78A54.879,54.879,0,0,0,133,220.87a.63.63,0,0,0,.85-.85,24,24,0,0,1-1.41-14.82c1-4.23,3.39-10,8.18-10.95a4.22,4.22,0,0,1,4.88,2.74,8.25,8.25,0,0,1-.21,5.17c-1.32,4.07-5.07,6.54-7.67,9.76a12.83,12.83,0,0,0-2.62,5,14.21,14.21,0,0,1-.81,3.36c-.74,1.42-2.44,1.58-3.87,1.74-4.74.53-9.94,0-14.34,2.2-3.21,1.62-6.17,5-5.95,8.83a6.81,6.81,0,0,0,6.12,6.19,12.78,12.78,0,0,0,10.4-3.49c3.82-3.58,6.13-8.45,10-11.95.6-.53-.29-1.41-.88-.88-5.9,5.27-9.87,16.86-19.65,15-4.43-.82-6-5.34-3.58-9,3-4.68,8.72-5.12,13.78-5.38,2.28-.12,5.07,0,7.19-.95s2.27-2.89,2.64-4.82c.88-4.58,4.86-7.37,7.74-10.7,2.24-2.57,3.77-6.18,3.08-9.65a5.57,5.57,0,0,0-7.62-4.1c-4.69,1.81-7.1,7.12-8.09,11.71a25.36,25.36,0,0,0,1.57,15.59l.86-.86a54.9,54.9,0,0,1-8.59-5.07,93.047,93.047,0,0,1-7.32-6.27c-2-1.8-4.32-3.66-7-4.33a7.66,7.66,0,0,0-6.92,1.79c-2,1.67-3.69,3.36-6.38,3.88a9.48,9.48,0,0,1-6.52-1,5.6,5.6,0,0,1-2.78-5.87,8.25,8.25,0,0,1,4.79-5.5c6.76-3.21,13.53,2.29,18.43,6.42a.63.63,0,0,0,1-.13c4.57-8.58,9.53-18.5,8.06-28.54-.6-4.06-2.35-9-6.44-10.71a4.52,4.52,0,0,0-4.92.68c-1.5,1.37-2,3.51-2.39,5.41-2.08,9.14-3.14,19.42,1.21,28.09S121.5,211.74,128.5,218A60.78,60.78,0,0,1,146,245.57c.23.77,1.44.44,1.2-.33Z" transform="translate(3537.932 1741.084)" fill="#231f20"/>
    <path id="Path_380" data-name="Path 380" d="M454.71,224.42s16.54-8.36,24.44,5.53-1.39,18.27-8.79,15.63S443.43,226.9,454.71,224.42Z" transform="translate(3537.932 1741.084)" fill="#a9d767"/>
    <path id="Path_381" data-name="Path 381" d="M475.17,200.74s-15.4-13-7.17-30.12,16.62-9.71,17.94,0S482.86,211.54,475.17,200.74Z" transform="translate(3537.932 1741.084)" fill="#a9d767"/>
    <path id="Path_382" data-name="Path 382" d="M511.71,271.35S509.49,243.71,537,219.8C537,219.8,539.56,287.65,511.71,271.35Z" transform="translate(3537.932 1741.084)" fill="#a9d767"/>
    <path id="Path_383" data-name="Path 383" d="M481.92,308.81s36.21,20.91,31.86,31.57c0,0-30.63-5-46.5-19.06S481.92,308.81,481.92,308.81Z" transform="translate(3537.932 1741.084)" fill="#a9d767"/>
    <path id="Path_384" data-name="Path 384" d="M433.1,320.78c9.66-2.54,17.89-8.63,27.49-11.29a26.869,26.869,0,0,1,14.64-.13,37.91,37.91,0,0,1,12.89,7,110.133,110.133,0,0,1,12.1,11.66l.13-1c-7.21,3.63-15.9,2.27-22.77-1.51-7.13-3.92-12.63-10.11-17.77-16.29l-.13,1c10.92-5.91,22.27-12.1,30.34-21.78,6.77-8.11,10.41-18.81,8.51-29.37a23.8,23.8,0,0,0-8.2-14.39.64.64,0,0,0-1,.13,86,86,0,0,0-15.48,42.89,84.233,84.233,0,0,0,0,13.29.63.63,0,0,0,.79.6c5.8-1.77,10.23-5.95,15-9.53a44.619,44.619,0,0,1,14.11-7.26A49.37,49.37,0,0,1,535,285.91a44.361,44.361,0,0,1,15.18,9.47l.27-1a49.6,49.6,0,0,1-40.85-12.17l-.28,1c7.1-3,12.42-8.73,16-15.4,4.24-7.81,6-16.57,7.4-25.26.89-5.54,1.67-11.1,2.9-16.58.12-.55-.63-1.14-1-.61a78.22,78.22,0,0,0-16.1,39.43,76.311,76.311,0,0,0-.37,12.37c0,.8,1.29.81,1.25,0a76.8,76.8,0,0,1,16.11-50.91l-1-.61c-3.69,16.5-3.38,35.44-15.2,48.84A28.39,28.39,0,0,1,509,282a.63.63,0,0,0-.28,1,51,51,0,0,0,42.07,12.5.63.63,0,0,0,.28-1.05c-15.49-14.85-41.31-17.28-59.28-5.47-5.8,3.81-10.64,9.32-17.45,11.4l.79.6a84.85,84.85,0,0,1,8.66-44.52,83.3,83.3,0,0,1,6.63-11l-1,.13c8,6.51,9.68,17.62,7.33,27.22-2.75,11.2-11.09,19.64-20.31,26a182.409,182.409,0,0,1-17.42,10.31.64.64,0,0,0-.13,1c5.45,6.55,11.37,13.18,19.11,17.06,7.08,3.55,15.7,4.59,23,.94a.64.64,0,0,0,.13-1c-6.69-7.21-14-14.79-23.38-18.31a27.39,27.39,0,0,0-14.43-1.28c-4.88.88-9.47,2.91-13.92,5-5.42,2.59-10.77,5.41-16.61,6.94a.63.63,0,0,0,.33,1.21Z" transform="translate(3537.932 1741.084)" fill="#231f20"/>
    <path id="Path_385" data-name="Path 385" d="M518.89,278.05a73,73,0,0,0,44.24-22.94,70.129,70.129,0,0,0,8.6-11.53.63.63,0,0,0-.7-.92,100.222,100.222,0,0,0-21.24,9.92c-6.7,4.15-12.51,9.19-18.32,14.47-3.23,2.93-6.68,5.7-10.86,7.1-.76.25-.44,1.46.33,1.2,7.08-2.36,12-8.25,17.52-13a97.809,97.809,0,0,1,20.19-13.3,98.924,98.924,0,0,1,12.71-5.22l-.71-.92a71.67,71.67,0,0,1-38.06,30.67,69.337,69.337,0,0,1-13.7,3.18c-.79.1-.8,1.35,0,1.25Z" transform="translate(3537.932 1741.084)" fill="#231f20"/>
    <path id="Path_386" data-name="Path 386" d="M442.94,247a60.779,60.779,0,0,1,14.85-25,95.922,95.922,0,0,1,11.37-9.33c3.69-2.76,7.35-5.67,10-9.46,5.67-8,5.51-18.32,3.82-27.56-.61-3.35-1.11-9.61-5.51-10.14-4.21-.51-7,4.14-8.14,7.52-3.64,11,2.16,22.66,7.21,32.15a.64.64,0,0,0,1,.12c4.44-3.75,10.39-8.76,16.68-7.06a9.47,9.47,0,0,1,6,4.55,5.58,5.58,0,0,1-1,6.51c-3.42,3.4-9.17,2.44-12.5-.48-2-1.79-4.06-3.6-7-3.47-2.65.11-5,1.63-7,3.23-2.84,2.25-5.3,4.92-8.21,7.09a54.158,54.158,0,0,1-9.3,5.6l.86.85a25.38,25.38,0,0,0,1.93-13.8c-.63-4.4-2.36-9.2-5.93-12.07-2.77-2.22-7.05-2.86-9.26.49-1.88,2.84-.94,6.87.63,9.61,2.11,3.69,6,6,8.15,9.68a10,10,0,0,1,1.15,3,13.489,13.489,0,0,0,.78,3.14c.95,2,3.05,2.31,5,2.53,5.09.55,11.05-.21,15.39,3.06,3.28,2.46,5.55,7.95,1.29,10.71-3.57,2.31-8.8.72-11.73-1.92-4-3.59-6.32-8.62-10.33-12.21-.6-.53-1.49.35-.88.89,6,5.33,8.95,14.82,18.06,15.51,3.05.23,6.39-.84,7.82-3.74,1.73-3.51-.14-7.43-2.91-9.78-3.65-3.09-8.54-3.27-13.1-3.51-1.21-.07-2.41-.13-3.61-.26-1.43-.16-3.12-.33-3.87-1.75a12.3,12.3,0,0,1-.76-3.18,10.65,10.65,0,0,0-1.07-2.83c-2-3.71-5.76-6-8-9.47-1.73-2.69-3.11-7.8.17-10,2.33-1.53,5.1-.21,6.91,1.5a16,16,0,0,1,4,7.07,24,24,0,0,1-.93,16.61.63.63,0,0,0,.86.85,53.769,53.769,0,0,0,9.29-5.59c2.77-2.07,5.17-4.54,7.82-6.76s6.25-4.54,9.73-2.73c2.48,1.3,4,3.72,6.73,4.73,4,1.49,9.7.67,11.87-3.41,2.52-4.75-1.38-9.6-5.8-11.23-7.06-2.61-13.79,2.8-18.86,7.07l1,.12c-4.38-8.22-9.19-17.72-8-27.34a17.69,17.69,0,0,1,2.28-7c1-1.66,2.94-3.55,5-3.51,2.55,0,3.36,2.8,3.85,4.83s.95,4.31,1.28,6.49c1.41,9.18.82,19.11-5.54,26.43-2.94,3.39-6.61,6-10.21,8.68a77.183,77.183,0,0,0-9.92,8.4,62.18,62.18,0,0,0-14.76,25.16.63.63,0,0,0,1.21.33Z" transform="translate(3537.932 1741.084)" fill="#231f20"/>
  </g>
</svg>
