<svg id="Group_35" data-name="Group 35" xmlns="http://www.w3.org/2000/svg" width="138.658" height="129.79" viewBox="0 0 138.658 129.79">
  <path id="Path_110" data-name="Path 110" d="M761.585,178.83s5.38-28.92-21.07-57.18C740.515,121.65,730.4,193,761.585,178.83Z" transform="translate(-701.286 -121.65)" fill="#a9d767"/>
  <g id="Group_4" data-name="Group 4" transform="translate(0 5.985)">
    <path id="Path_111" data-name="Path 111" d="M729.7,221.63s-40.5,18.08-37.08,29.81c0,0,32.87-1.95,51.16-15S729.7,221.63,729.7,221.63Z" transform="translate(-642.087 -127.635)" fill="#a9d767"/>
    <path id="Path_112" data-name="Path 112" d="M782.826,239.61c-9.52-3.59-17.3-10.46-26.62-14.46a29.41,29.41,0,0,0-15-2.48,37.74,37.74,0,0,0-15.15,5.73,111.262,111.262,0,0,0-14.85,11.46l-.12-1c7,4.53,16.06,4.21,23.63,1.22,8.23-3.25,14.91-9.38,21.15-15.48l.13,1c-10.95-7.49-22.29-15.31-29.78-26.5-6.24-9.33-8.87-21.2-5.53-32.11a25.24,25.24,0,0,1,10.19-13.94.64.64,0,0,1,.86.22,90.67,90.67,0,0,1,10.15,61.12.62.62,0,0,1-.77.43c-5.65-2.38-9.77-6.91-14.11-11.06a48.59,48.59,0,0,0-14.23-9.63,52.27,52.27,0,0,0-33.47-2.6,47.08,47.08,0,0,0-17.24,8.35l-.28-1a52.76,52.76,0,0,0,44.63-8.4v1.08c-7.08-3.85-12-10.51-15.07-17.84-3.68-8.77-4.57-18.29-5.1-27.7-.33-5.93-.54-11.88-1.23-17.79-.08-.65.86-.79,1.16-.31a82,82,0,0,1,11.61,56.46c-.12.8-1.33.46-1.2-.33a81.31,81.31,0,0,0-5.64-44.38,79.083,79.083,0,0,0-5.85-11.12l1.17-.32c2.09,17.91-.3,37.87,10.83,53.34a29.94,29.94,0,0,0,10,8.91.64.64,0,0,1,0,1.08,53.92,53.92,0,0,1-45.59,8.52c-.41-.11-.66-.75-.27-1,18.06-14,45.56-13.72,63.27.8,5.63,4.61,10.11,10.92,17,13.82l-.77.44a90,90,0,0,0-4.2-47.66,88.147,88.147,0,0,0-5.82-12.5l.85.23c-9.08,5.92-12,17.41-10.69,27.68,1.59,12.1,9.36,21.92,18.32,29.7a188.269,188.269,0,0,0,17.49,13,.63.63,0,0,1,.12,1c-9.69,9.47-21.51,19.38-36,17.94a23.119,23.119,0,0,1-10.4-3.53.63.63,0,0,1-.13-1c8.13-7.13,17.11-14.77,28-17.09a29,29,0,0,1,15.27.91,66,66,0,0,1,13.76,7c5.13,3.16,10.21,6.49,15.88,8.62.74.28.42,1.49-.34,1.21Z" transform="translate(-644.947 -127.635)" fill="#231f20"/>
    <path id="Path_113" data-name="Path 113" d="M798.914,185.06a77.44,77.44,0,0,1-43.94-28.92A74.265,74.265,0,0,1,747.1,143a.64.64,0,0,1,.86-.86,105.35,105.35,0,0,1,30.85,21.19c2.9,2.86,5.52,5.95,8.24,9,3.08,3.42,6.41,6.67,10.65,8.59.74.33.1,1.41-.63,1.08-7.33-3.31-11.94-10.33-17.36-16a103.875,103.875,0,0,0-19.7-16,107.2,107.2,0,0,0-12.68-6.79l.85-.85a76.26,76.26,0,0,0,36.73,36.56,73.222,73.222,0,0,0,14.34,4.94c.78.18.45,1.39-.34,1.21Z" transform="translate(-747.035 -127.635)" fill="#231f20"/>
  </g>
</svg>
