<svg xmlns="http://www.w3.org/2000/svg" width="350" height="350" viewBox="0 0 350 350">
  <g id="Group_73" data-name="Group 73" transform="translate(-7652 6952)">
    <g id="Rectangle_18" data-name="Rectangle 18" transform="translate(7652 -6952)" fill="none" stroke="#202124" stroke-width="5">
      <rect width="350" height="350" rx="175" stroke="none"/>
      <rect x="2.5" y="2.5" width="345" height="345" rx="172.5" fill="none"/>
    </g>
    <g id="cotton" transform="translate(7705 -6892)">
      <path id="Path_558" data-name="Path 558" d="M155.842,250.854l-.687-35.8c-.229-11.827-.7-23.693-.675-35.533a11.369,11.369,0,0,1,1.731-6.828,29.108,29.108,0,0,1,4.938-4.846,94.419,94.419,0,0,0,10.882-11.252c2.978-3.657,6.364-7.672,8.082-12.07,1.273-3.312,1.744-7.966-1.4-10.408-4.62-3.58-10.908,1.394-14.7,4.1a66.071,66.071,0,0,0-12.6,11.7l4.073,1.7L153.652,135c-.445-4.13-.458-9.372-3.818-12.377-3.144-2.826-7.56-2.007-10.259.985-2.991,3.312-3.907,7.608-4.175,11.955a43.733,43.733,0,0,0,2.647,17.645l4.366-1.841c-4.7-8.95-15.986-17.185-26.512-14.065-5.091,1.483-8.489,6.112-7.268,11.508,1.375,6.048,7.357,9.948,12.142,13.17a128.477,128.477,0,0,0,19.7,10.907V168.74c-12.83,6.585-27.3,8.771-41.556,9.181-13.771.384-28-.153-41.225-4.578-11.926-4.015-22.3-11.738-27.9-23.246-5.193-10.677-4.531-23.271,3.22-32.541,10.08-12.019,26.576-14.64,41.124-10.664a2.412,2.412,0,0,0,2.519-.881,2.439,2.439,0,0,0,.18-2.673c-7.331-11.712-7.42-26.442-2.546-39.1,5.091-13.144,15.91-23.015,28.447-28.846A76.232,76.232,0,0,1,143.394,29c13,1.522,26.092,6.828,34.849,16.865,11.264,12.889,12.321,31.16,11.455,47.476a2.405,2.405,0,0,0,3.589,2.071A34.021,34.021,0,0,1,221.212,93.2a43.312,43.312,0,0,1,21.294,17.121c5.257,7.889,8.909,17.9,7.178,27.529s-8.909,15.663-17.272,19.6c-10.819,5.115-23.279,7.442-35.141,8.094-3.055.166-3.067,4.961,0,4.795a105.076,105.076,0,0,0,34.989-7.608c9.38-3.964,18.073-10.434,21.268-20.56,3.309-10.536.216-22.248-5.18-31.506a49.829,49.829,0,0,0-22.21-20.624c-11.213-4.987-24.488-4.961-35.256,1.279l3.589,2.071c.9-15.906-.153-33.245-9.584-46.773-8.3-11.866-21.726-18.86-35.638-21.494C120.586,19.69,85.215,30.66,71.762,58.471c-7.14,14.768-7.84,33.1,1.056,47.31l2.7-3.516c-14.446-3.9-30.407-2.059-41.951,7.876a34.121,34.121,0,0,0-10.615,35.482c3.729,13,13.657,23.437,25.659,29.191,13.53,6.521,28.739,7.876,43.5,7.966,17.348.1,35.1-1.867,50.746-9.9a2.422,2.422,0,0,0,0-4.143,131.735,131.735,0,0,1-14.815-7.761c-4.442-2.724-9.482-5.575-12.842-9.666a7.039,7.039,0,0,1-1.96-5.7,4.8,4.8,0,0,1,2.953-3.324c3.589-1.573,7.828-.652,11.213.985a23.952,23.952,0,0,1,10.882,10.562c1.273,2.365,5.307.729,4.366-1.841a39.97,39.97,0,0,1-2.482-16.111,17.292,17.292,0,0,1,1.273-6.47c.624-1.279,1.68-3.184,3.195-3.67,3.7-1.2,3.907,6.393,4.124,8.337l1.9,17.543c.191,1.816,2.546,3.465,4.073,1.7a59.657,59.657,0,0,1,15.884-13.745c1.082-.639,3.818-2.749,5.091-1.688.789.639.547,2.225.382,3.107a13.072,13.072,0,0,1-2.113,4.769,87,87,0,0,1-8.909,11.508c-3.258,3.567-6.975,6.572-10.424,9.935a16.621,16.621,0,0,0-3.971,5.588,18.965,18.965,0,0,0-1.069,7.058c0,11.111.42,22.235.636,33.36l.725,37.694c0,3.082,4.824,3.094,4.773,0Z" transform="translate(-21.595 -23.776)" fill="#231f20"/>
      <path id="Path_559" data-name="Path 559" d="M168.8,123.94a108.651,108.651,0,0,0-13.28,11.71,1.92,1.92,0,0,0,0,2.66,64.06,64.06,0,0,0,18,11.61,1.94,1.94,0,0,0,2.57-.67,1.89,1.89,0,0,0-.67-2.56,61,61,0,0,1-17.24-11v2.66a101.83,101.83,0,0,1,12.53-11.13,1.94,1.94,0,0,0,.67-2.57,1.9,1.9,0,0,0-2.57-.67Z" transform="translate(19.59 8.885)" fill="#231f20"/>
    </g>
  </g>
</svg>
