<svg xmlns="http://www.w3.org/2000/svg" width="200" height="200" viewBox="0 0 200 200">
  <g id="Group_71" data-name="Group 71" transform="translate(-7652 6952)">
    <rect id="Rectangle_18" data-name="Rectangle 18" width="200" height="200" transform="translate(7652 -6952)" fill="none"/>
    <g id="cotton" transform="translate(7638.405 -6965.776)">
      <path id="Path_558" data-name="Path 558" d="M127.07,201.37l-.54-28c-.18-9.25-.55-18.53-.53-27.79a8.86,8.86,0,0,1,1.36-5.34,22.821,22.821,0,0,1,3.88-3.79,74,74,0,0,0,8.55-8.8c2.34-2.86,5-6,6.35-9.44,1-2.59,1.37-6.23-1.1-8.14-3.63-2.8-8.57,1.09-11.55,3.21a51.819,51.819,0,0,0-9.9,9.15l3.2,1.33-1.44-13c-.35-3.23-.36-7.33-3-9.68-2.47-2.21-5.94-1.57-8.06.77-2.35,2.59-3.07,5.95-3.28,9.35a34.06,34.06,0,0,0,2.08,13.8l3.43-1.44c-3.69-7-12.56-13.44-20.83-11-4,1.16-6.67,4.78-5.71,9,1.08,4.73,5.78,7.78,9.54,10.3A101.08,101.08,0,0,0,115,140.39v-3.24c-10.08,5.15-21.45,6.86-32.65,7.18-10.82.3-22-.12-32.39-3.58-9.37-3.14-17.52-9.18-21.92-18.18-4.08-8.35-3.56-18.2,2.53-25.45,7.92-9.4,20.88-11.45,32.31-8.34A1.9,1.9,0,0,0,65,86c-5.76-9.16-5.83-20.68-2-30.58,4-10.28,12.5-18,22.35-22.56a60.14,60.14,0,0,1,31.94-5c10.21,1.19,20.5,5.34,27.38,13.19,8.85,10.08,9.68,24.37,9,37.13a1.89,1.89,0,0,0,2.82,1.62,26.84,26.84,0,0,1,21.94-1.73,34,34,0,0,1,16.73,13.39c4.13,6.17,7,14,5.64,21.53s-7,12.25-13.57,15.33c-8.5,4-18.29,5.82-27.61,6.33-2.4.13-2.41,3.88,0,3.75a82.879,82.879,0,0,0,27.49-5.95c7.37-3.1,14.2-8.16,16.71-16.08,2.6-8.24.17-17.4-4.07-24.64A39.08,39.08,0,0,0,182.3,75.6c-8.81-3.9-19.24-3.88-27.7,1l2.82,1.62c.71-12.44-.12-26-7.53-36.58-6.52-9.28-17.07-14.75-28-16.81-22.52-4.25-50.31,4.33-60.88,26.08-5.61,11.55-6.16,25.89.83,37l2.12-2.75C52.61,82.11,40.07,83.55,31,91.32a26.61,26.61,0,0,0-8.34,27.75c2.93,10.17,10.73,18.33,20.16,22.83C53.45,147,65.4,148.06,77,148.13c13.63.08,27.58-1.46,39.87-7.74a1.89,1.89,0,0,0,0-3.24,103.671,103.671,0,0,1-11.64-6.07c-3.49-2.13-7.45-4.36-10.09-7.56a5.49,5.49,0,0,1-1.54-4.46,3.76,3.76,0,0,1,2.32-2.6c2.82-1.23,6.15-.51,8.81.77a18.78,18.78,0,0,1,8.55,8.26c1,1.85,4.17.57,3.43-1.44a31.13,31.13,0,0,1-1.95-12.6,13.47,13.47,0,0,1,1-5.06c.49-1,1.32-2.49,2.51-2.87,2.91-.94,3.07,5,3.24,6.52L123,123.76c.15,1.42,2,2.71,3.2,1.33a46.81,46.81,0,0,1,12.48-10.75c.85-.5,3-2.15,4-1.32.62.5.43,1.74.3,2.43a10.2,10.2,0,0,1-1.66,3.73,68.081,68.081,0,0,1-7,9c-2.56,2.79-5.48,5.14-8.19,7.77a13,13,0,0,0-3.12,4.37,14.77,14.77,0,0,0-.84,5.52c0,8.69.33,17.39.5,26.09l.57,29.48c0,2.41,3.79,2.42,3.75,0Z" fill="#231f20"/>
      <path id="Path_559" data-name="Path 559" d="M168.8,123.94a108.651,108.651,0,0,0-13.28,11.71,1.92,1.92,0,0,0,0,2.66,64.06,64.06,0,0,0,18,11.61,1.94,1.94,0,0,0,2.57-.67,1.89,1.89,0,0,0-.67-2.56,61,61,0,0,1-17.24-11v2.66a101.83,101.83,0,0,1,12.53-11.13,1.94,1.94,0,0,0,.67-2.57,1.9,1.9,0,0,0-2.57-.67Z" fill="#231f20"/>
    </g>
  </g>
</svg>
