<svg xmlns="http://www.w3.org/2000/svg" width="750" height="750" viewBox="0 0 750 750">
  <g id="Group_50" data-name="Group 50" transform="translate(-4329 -717)">
    <rect id="Rectangle_10" data-name="Rectangle 10" width="750" height="750" transform="translate(4329 717)" fill="none"/>
    <path id="Path_465" data-name="Path 465" d="M318.82.119,244.86,0C161.768,0,108.07,55.092,108.07,140.361v64.716H33.707a11.631,11.631,0,0,0-11.63,11.635v93.766a11.629,11.629,0,0,0,11.63,11.63H108.07v236.6a11.626,11.626,0,0,0,11.63,11.63h97.023a11.629,11.629,0,0,0,11.63-11.63v-236.6H315.3a11.626,11.626,0,0,0,11.63-11.63l.036-93.766a11.638,11.638,0,0,0-11.635-11.635H228.353V150.217c0-26.368,6.283-39.754,40.632-39.754l49.823-.018a11.628,11.628,0,0,0,11.624-11.63V11.748A11.633,11.633,0,0,0,318.82.119Z" transform="translate(4551.923 827.567)" fill="none" stroke="#202124" stroke-width="10"/>
  </g>
</svg>
