<svg xmlns="http://www.w3.org/2000/svg" width="1255.646" height="1348.484" viewBox="0 0 1255.646 1348.484">
  <g id="Group_45" data-name="Group 45" transform="translate(-6274 -950.903)">
    <g id="Group_38" data-name="Group 38" transform="translate(3715 925.474)">
      <rect id="Rectangle_5" data-name="Rectangle 5" width="836" height="836" transform="translate(2559 84.526)" fill="none"/>
      <path id="Path_177" data-name="Path 177" d="M710.779,491.148c-20.391-4.195-30.823,18.529-20.334,32.683,12.263,16.49,39.512,13.963,47.539-.771,8.54-17.823-1.5-40.047-22.784-50.446-19.125-7.777-40.419-4.923-53.409,7.159-15.04,13.761-14.519,35.973-5,54.306,9.559,19.61,30.151,34.371,53.691,38.489,26.415,3.54,51.614-4.261,67.443-20.878,19-18.406,29.492-42.878,47.3-62.371,19.229-21.02,42.358-38.906,65.071-57.154L964.91,371.6l72.731-59.211,37.3-30.283a149.389,149.389,0,0,0,29.124-26.7c11.094-16.9,9.38-38.991-4.426-57.017-14.086-19.738-38.756-32.342-64.085-32.74-62.277-1.8-98.215,49.869-132.593,84.692A1863.811,1863.811,0,0,1,637.995,475.779q-17.7,12.446-35.712,24.485l5.666.947a572.908,572.908,0,0,0-43-58.912,360.676,360.676,0,0,0-49.66-50.865c-36.81-29.575-82.685-39.609-128.574-39.331-50.427.319-98.234,11.825-148.976,8.964a200.239,200.239,0,0,1-73.147-17.529,236.8,236.8,0,0,1-52.925-34.409C73.925,277.216,45.47,238.034,19,199.206l-.969,4.13a1988.045,1988.045,0,0,0,197.39-88.2q47.865-24.639,93.836-51.717c15.721-9.248,31.2-18.7,46.622-28.307,7.057-4.474,13.97-8.566,23.6-7.838A68.688,68.688,0,0,1,405,35.4c27.3,14.113,46.127,38.556,67.681,58.334a178.019,178.019,0,0,0,82.956,43.857c31.28,6.512,62.929,3.861,89.82-7.524,29.613-12.029,54.875-30.72,86.356-39.824,84.307-24.516,169.579,38.052,234.108,86.531,3.593,2.729,8.326-1.29,4.676-4.022C912.366,129,844.365,77.944,766.9,78.758c-70.959.932-112.61,59.676-185.091,56.1a164.535,164.535,0,0,1-95.5-37.449c-23.2-19.286-41.267-43.2-66.75-60.423a87.532,87.532,0,0,0-40.255-15.95c-18.085-1.44-32.266,11.736-45.208,19.727q-46.449,28.365-94.9,54.333A1972.361,1972.361,0,0,1,14.31,197.729a2.744,2.744,0,0,0-.97,4.13c43.3,63.6,99.5,139.588,186.264,159.769,51.206,11.886,101.069,2.732,150.34-1.64,46.206-4.1,97.692-3.634,140.83,21.476,24.8,14.461,44.356,35.393,62.206,55.987a569.817,569.817,0,0,1,49.53,66.376,4.18,4.18,0,0,0,2.74,1.658,3.531,3.531,0,0,0,2.922-.761A1881.059,1881.059,0,0,0,846.136,316.318q27.611-25.809,54.091-52.655c17.163-17.389,33.316-35.661,51.007-52.68s37.194-31.992,63.255-37.31c24.055-5.137,51.9-.918,71.038,16.975,16.042,15.094,24.839,37.862,16.552,55.549a78.872,78.872,0,0,1-23,24.265l-32.561,26.411-128.277,104c-20.519,16.619-41.16,33.086-61.372,50.111a293.136,293.136,0,0,0-50.6,51.1c-13.094,17.906-22.848,38.965-41.988,52.6-18.175,12.954-45.854,17.5-69.747,6.739-39.993-17.978-54.671-80.185-5.04-86.824a42.409,42.409,0,0,1,30.268,7.567c8.78,6.281,14.242,15.375,14.842,24.706.936,10.268-4.3,20.437-16.529,22.046a21.86,21.86,0,0,1-15.487-3.1,18.267,18.267,0,0,1-8.577-12.1c-.843-7.928,5-19.182,15.74-16.835,4.487.93,6.023-4.871,1.535-5.8Z" transform="translate(2574.218 385.865) rotate(-20)" fill="#231f20"/>
    </g>
    <g id="HAND" transform="translate(6883.123 1882.629) rotate(71)">
      <path id="Path_289" data-name="Path 289" d="M2743.94,1007.785A150,150,0,0,0,2686,902.415c-43.34-33.33-99.51-75.16-109.42-76-12-1-31.49,48.89-41.37,76.51a26.34,26.34,0,0,0,8.33,29.41l20.66,14.5,5.49,208.52,4.84,181.66h220.32Z" transform="translate(-2533.674 -826.4)" fill="#fff" stroke="#231f20" stroke-miterlimit="10" stroke-width="5"/>
    </g>
    <line id="Line_9" data-name="Line 9" x1="449.46" y1="639.14" transform="translate(7145.146 1529.775) rotate(71)" fill="none" stroke="#231f20" stroke-linecap="round" stroke-miterlimit="10" stroke-width="8"/>
    <g id="FINGERS" transform="translate(6883.044 1882.614) rotate(71)">
      <path id="Path_294" data-name="Path 294" d="M2689,1296.035a19.91,19.91,0,0,0-28.57,8.31L2648.24,1330a10.91,10.91,0,0,1-15.8,4.45l-84.64-56.22a30.34,30.34,0,0,1-11-37.57l26.61-61.81a17.53,17.53,0,0,1,26.94-6.85l114.09,93.84Z" transform="translate(-2533.634 -1167.51)" fill="#fff"/>
      <path id="Path_295" data-name="Path 295" d="M2689,1296.769a19.91,19.91,0,0,0-28.57,8.31l-12.19,25.65a10.91,10.91,0,0,1-15.8,4.45l-88.94-61a26.34,26.34,0,0,1-8.33-29.41c9.88-27.62,29.41-77.51,41.37-76.51,9.91.82,66.08,42.65,109.42,76" transform="translate(-2533.634 -1168.244)" fill="none" stroke="#231f20" stroke-linecap="round" stroke-miterlimit="10" stroke-width="5"/>
      <path id="Path_296" data-name="Path 296" d="M2606.43,1213.41c-17.2,0-37.5,44.32-45.31,76.53-2.65,10.92-.44,22.38,8.33,29.41" transform="translate(-2533.634 -1195.815)" fill="none" stroke="#231f20" stroke-linecap="round" stroke-miterlimit="10" stroke-width="5"/>
      <path id="Path_297" data-name="Path 297" d="M2632.89,1194.766c-12-1-35.06,43.46-44.81,76.78-3.15,10.79-.43,22.38,8.33,29.41" transform="translate(-2533.634 -1158.762)" fill="none" stroke="#231f20" stroke-linecap="round" stroke-miterlimit="10" stroke-width="5"/>
      <path id="Path_298" data-name="Path 298" d="M2664.71,1170.027c-12-1-31.82,43.07-41.37,76.51-3.09,10.8.36,23.26,9.12,30.29" transform="translate(-2533.634 -1109.892)" fill="none" stroke="#231f20" stroke-linecap="round" stroke-miterlimit="10" stroke-width="5"/>
    </g>
  </g>
</svg>
