<svg id="Layer_1" data-name="Layer 1" xmlns="http://www.w3.org/2000/svg" viewBox="0 0 818.26 373.1"><defs><style>.cls-1{fill:#f9e76f;}.cls-2{fill:#b9ddd5;}.cls-3{fill:#a9d767;}.cls-4{fill:#231f20;}</style></defs><circle class="cls-1" cx="315.71" cy="292.68" r="20.98"/><ellipse class="cls-1" cx="191.17" cy="112.59" rx="31.93" ry="31.84" transform="translate(7.54 237.1) rotate(-64.64)"/><circle class="cls-2" cx="582.86" cy="264.96" r="38.1"/><circle class="cls-3" cx="386.42" cy="163.34" r="63.74"/><path class="cls-4" d="M220.22,239.74c-4.3,2-9.08.19-13.05-1.76-4.42-2.17-8.74-4.58-13.1-6.88l-26.54-14,.22.86c10-23.16,32.27-37.21,48.36-55.66,2.14-2.46,4.69-5.3,4.72-8.76,0-2.62-1.61-5.42-4.36-5.84a.66.66,0,0,0-.7.29,276.22,276.22,0,0,1-24,29.73q-6.42,6.92-13.31,13.37c-4.49,4.22-9.29,8.08-13.82,12.24-4.1,3.77-8.26,8.65-7.58,14.61l.79-.6c-5.8-1-10.93-3.91-16-6.73l-16.7-9.26c-2.72-1.52-5.47-3-8.18-4.54-1.09-.63-2.54-1.49-2.45-2.94.07-1.23,1.27-2.19,2.18-2.88a41.48,41.48,0,0,0,5.35-4.46,44.16,44.16,0,0,0,4.24-5.3c2.71-3.91,5-8.09,7.78-12,3.2-4.46,7.27-7.88,11.45-11.37,8.46-7.06,15.22-15.67,22-24.28,1.92-2.43,3.85-4.85,5.83-7.23a72.57,72.57,0,0,1,6.07-6.8c1.24-1.15,2.7-2,4.44-1.62a23.53,23.53,0,0,1,4.59,2.12l9.68,4.81c.71.36,1.35-.72.63-1.07l-9.24-4.6c-2.18-1.09-4.85-3-7.42-2.56s-4.24,2.66-5.83,4.43c-2,2.25-4,4.56-5.86,6.91-7.32,9-14.12,18.58-22.78,26.41-4.33,3.92-9.17,7.28-12.86,11.86-3.14,3.9-5.59,8.28-8.32,12.46a51.73,51.73,0,0,1-4.67,6.24,39.76,39.76,0,0,1-5.78,5c-1.47,1.1-3.12,2.69-2.67,4.72.54,2.43,3.63,3.55,5.54,4.62l19.74,10.95c6,3.33,12,7.12,18.91,8.29.35.06.84-.16.79-.6-.65-5.64,3.34-10.16,7.22-13.72,4.42-4.07,9.1-7.84,13.49-11.94A276.23,276.23,0,0,0,204.46,165q6.49-8,12.38-16.43l-.7.29c3.45.52,4,4.65,2.8,7.32s-3.61,5.11-5.64,7.34c-4,4.36-8.22,8.47-12.5,12.52-8.4,8-17.09,15.73-24.23,24.88a74.89,74.89,0,0,0-9.9,16.35.65.65,0,0,0,.23.86l21.93,11.58L200,235.65a88.68,88.68,0,0,0,10.07,5c3.51,1.32,7.27,1.84,10.76.21.73-.33.1-1.41-.63-1.08Z"/><path class="cls-4" d="M222.63,114.06c-4.63,2.06-7.29,6.84-8,11.7-.89,6.32,1.53,12.54,3.89,18.28l.29-.71q-8.7,4.77-17.05,10.14l.92.38c-1.27-7-2.55-14.09-3.28-21.18-.35-3.35.22-6.27,2.65-8.72a36.45,36.45,0,0,1,7.27-5.14,30.26,30.26,0,0,1,8.43-3.82,20.08,20.08,0,0,1,9.77.34c6.14,1.6,11.66,4.92,17.64,7a57.25,57.25,0,0,0,22,3l-.32-1.17a94.66,94.66,0,0,1-38,17.72c-2.12.46-4.41.6-6.48,1.23-1.9.57-2.17,2.07-1.92,3.85a32.44,32.44,0,0,0,4.51,12.55c.79,1.29,1.89,3.51,3.71,3.35a3.92,3.92,0,0,0,2-1.08c1-.82,2-1.64,3-2.42a81.49,81.49,0,0,1,24.73-12.78c2.51-.78,5.05-1.43,7.62-2,1.73-.38,3.69-.86,4.94-2.2,1.62-1.74.83-4,.31-6l-2.4-9.17-.77.76c1.83.59,2.25,2.61,2.54,4.29a26.13,26.13,0,0,0,1.08,5.26,16.28,16.28,0,0,0,8,8.25,32.73,32.73,0,0,0,6.6,2.39c1.08.28,2.17.52,3.26.75a6.49,6.49,0,0,1,2.8,1c1.29,1.06,0,2.34-.81,3.28s-1.66,2-2.5,3c-1.59,1.84-3.21,3.65-4.84,5.46-3.68,4.12-7.36,8.25-10.64,12.7-.48.65.61,1.28,1.08.63,3.26-4.42,6.93-8.52,10.6-12.61,1.77-2,3.55-4,5.28-6,.84-1,1.67-2,2.48-3a4.21,4.21,0,0,0,1.19-2.44c0-1.63-1.62-2.52-3-2.95-2.42-.77-5-1.08-7.38-1.89-4.58-1.53-9.24-4.4-11-9.13-1.23-3.26-.28-8.9-4.43-10.24a.62.62,0,0,0-.76.77l1.82,7c.32,1.21.64,2.42,1,3.63s.49,2.45-.47,3.42c-1.2,1.2-3.11,1.52-4.69,1.86q-3,.66-6,1.54a82.56,82.56,0,0,0-22.25,10.43q-2.46,1.63-4.8,3.45c-.79.61-1.55,1.24-2.32,1.87-.57.47-1.19,1-2,.7-.5-.18-1-1.07-1.25-1.51a31.38,31.38,0,0,1-4.82-11.77c-.19-1-.71-2.66.08-3.48.64-.66,2.12-.65,3-.8q3.17-.54,6.3-1.29a94.62,94.62,0,0,0,11.86-3.69,96.19,96.19,0,0,0,24.35-13.68c.44-.34.38-1.2-.31-1.16A56.4,56.4,0,0,1,246,121.25c-6.41-2.15-12.29-5.8-18.91-7.33a21.07,21.07,0,0,0-9.18-.23,29.82,29.82,0,0,0-8.78,3.81c-4.75,2.84-10.61,6.07-11,12.24a28.06,28.06,0,0,0,.44,5.64q.42,3.15.9,6.28.94,6.27,2.08,12.52a.63.63,0,0,0,.92.37q8.34-5.37,17.05-10.14a.61.61,0,0,0,.28-.7c-2.2-5.37-4.52-11.16-3.94-17.08.46-4.76,2.95-9.49,7.46-11.49.73-.32.1-1.4-.63-1.08Z"/><path class="cls-4" d="M233.09,209.64c-6.61,15.2.72,31.81,7.36,45.63a469.64,469.64,0,0,0,25.26,45.79q3.46,5.54,7.1,11c2.18,3.28,4.31,6.63,6.74,9.73,2,2.51,4.46,5,7.69,5.73a10,10,0,0,0,8.43-2.41c2.8-2.26,4.81-5.35,6.84-8.29l7.94-11.5,15.9-23,7.94-11.5c1.28-1.85,2.59-3.67,3.81-5.55a14.43,14.43,0,0,0,2.32-5.09c.74-4-1.92-7-4.15-10L327.94,239l-33.19-44.47c-4.5-6-8.92-12.53-15.23-16.84a25.23,25.23,0,0,0-20.39-3.53,24.31,24.31,0,0,0-15.61,12.6c-2.93,5.79-3.86,13-1.29,19.11,2.12,5,7.81,10.1,13.42,6.8a8.69,8.69,0,0,0,4.25-6.11c.37-2.84-1.38-4.95-3.89-6-1.55-.67-3.21-1-4.73-1.8a15.35,15.35,0,0,1-3.39-2.3,27.72,27.72,0,0,1-5.13-6.47c-2.89-4.75-5.1-9.95-8.62-14.3a20,20,0,0,0-5.95-5.08c-.71-.39-1.34.69-.63,1.08,9.41,5.12,11.26,17.22,18.32,24.57a17.38,17.38,0,0,0,5.85,4.07c2.7,1.11,6.93,1.74,7,5.45,0,2.65-2.06,5.19-4.4,6.23-2.84,1.26-6-.07-8-2.14-4.61-4.62-5.06-12.08-3.38-18.05a23.51,23.51,0,0,1,12.67-15,24,24,0,0,1,20.57.39c6.38,3.29,10.89,9.14,15.1,14.76q15.45,20.67,30.87,41.37c5.06,6.78,10.29,13.45,15.18,20.35a8.71,8.71,0,0,1,2,5.38,11.42,11.42,0,0,1-2.17,5.46c-2.28,3.56-4.79,7-7.19,10.45l-29.37,42.51c-3.57,5.15-9.25,12.11-16.07,7.52-2.91-2-4.88-5.07-6.83-7.91q-3.44-5-6.75-10.09a468.68,468.68,0,0,1-24.2-41.83c-3.65-7.12-7.32-14.31-10.26-21.76-2.77-7-4.95-14.49-4.71-22.09a29.84,29.84,0,0,1,2.41-11c.32-.73-.76-1.37-1.08-.63Z"/><path class="cls-4" d="M293.65,260.54c-5,6.18-14.3,6.08-20.38,1.69-6.74-4.87-11.17-14.15-10.06-22.45a19,19,0,0,1,4.89-10.3,18.49,18.49,0,0,1,11.16-5.63c8.26-1.21,18.45.36,23.78,7.44,2.54,3.39,3.87,8.14,2.26,12.21-.76,1.94-2.44,3.91-4.66,4-1.79.1-4.26-1.1-3.65-3.23h-1.2L301,259.68a.64.64,0,0,0,1,.28,29.45,29.45,0,0,0,8.82-13c.25-.77-1-1.09-1.2-.33a28.21,28.21,0,0,1-8.51,12.47l1.05.28L297,244a.63.63,0,0,0-1.2,0c-1,3.59,3.5,5.55,6.38,4.51,3.95-1.44,5.37-6.23,5-10.05-.95-9.81-10.45-15.08-19.37-16-5-.52-10.62-.18-15.22,2.1a19.65,19.65,0,0,0-9,9.57c-4,8.88-.69,19.3,5.68,26.18a18.71,18.71,0,0,0,12.81,6.36,15.28,15.28,0,0,0,12.48-5.24c.5-.62-.37-1.51-.88-.88Z"/><path class="cls-4" d="M417.08,279.69c4.37,6.78,12.36,9.43,19.88,11,10.34,2.12,20.84,3.58,31.25,5.33,21.61,3.63,43.26,7.05,64.83,10.92,11,2,22,4.56,31.71,10.21a.62.62,0,0,0,.85-.22l1.91-4.39c.32-.73-.75-1.36-1.08-.63l-1.91,4.39.86-.23c-8.32-4.84-17.63-7.49-27-9.38-10.26-2.07-20.64-3.61-30.95-5.34l-65.23-11c-8.64-1.45-18.91-3.34-24-11.29-.43-.67-1.52,0-1.08.63Z"/><path class="cls-4" d="M567.88,310a122.29,122.29,0,0,1,22.46-66.25,120.17,120.17,0,0,1,25.14-26.05c5.21-4,10.64-7.67,15.75-11.77a82.55,82.55,0,0,0,13.42-13.46c7.62-9.75,13.05-21,17.84-32.3q1.78-4.24,3.5-8.54c.94-2.35,2.68-5.3,2-7.91-.8-2.88-4.77-3.45-7.16-4.25L650.38,136,565.7,107.54l-21.29-7.16L534,96.88c-2.71-.91-5.91-2.11-8.68-.77-2.4,1.15-3.37,3.78-4.29,6.09-1.27,3.18-2.59,6.35-4,9.48a171.26,171.26,0,0,1-9.26,18.16q-2.54,4.29-5.4,8.37c-.46.66.62,1.29,1.08.63,7.6-10.83,13.32-22.8,18.26-35,1.14-2.84,2.2-6.73,5.84-7a11.56,11.56,0,0,1,4.35.72c1.85.58,3.69,1.23,5.53,1.85l20.34,6.84L640.59,134l20.81,7c1.48.5,3.68.87,4.78,2s.53,3.33,0,4.8c-1.07,2.86-2.26,5.68-3.42,8.51-4.66,11.32-9.79,22.58-17,32.55a79.35,79.35,0,0,1-12.5,13.71c-5,4.37-10.55,8.16-15.91,12.13a126.35,126.35,0,0,0-25,24.2,124,124,0,0,0-25.15,62.62q-.44,4.21-.57,8.44a.63.63,0,0,0,1.25,0Z"/><path class="cls-4" d="M503,138.19c10.38-4.26,21.14-8,32.32-9.4a60.88,60.88,0,0,1,32.5,4.21c10.13,4,19.67,9.28,30,12.83a159,159,0,0,0,31.33,6.92c10,1.29,21,2.78,28.25,10.52l.61-1.05q-28.86-4.16-57.35-10.49t-56.37-14.82c-4.15-1.26-8.41-3.12-12.78-3.36-3.06-.18-6.41.62-7.46,3.84a.63.63,0,0,0,.43.77q45.31,14,91.7,24c3.74.81,7.51,1.53,11.24,2.38,1.54.35,3.34.85,4.24,2.27a4,4,0,0,1-.71,4.55c-2.55,3-6.93,2.09-10.25,1.11-3.81-1.11-7.59-2.31-11.39-3.46L563,154.93c-16.49-5-33.4-9.93-50.82-9.23a.64.64,0,0,0-.32,1.17c12.65,7.91,27.18,11.75,41.7,14.48,14.81,2.78,29.85,4.54,44.37,8.67A83.75,83.75,0,0,1,610,174.17c3.18,1.46,7.9,4.71,6.18,8.79l.77-.44L568.34,169.4c-16.17-4.37-32.3-8.91-48.51-13.08a87.55,87.55,0,0,0-11.56-2.3,44.5,44.5,0,0,0-6-.31,6.19,6.19,0,0,0-2.4.16,2.09,2.09,0,0,0-.76,1.29c-.73,2.59,1.37,4.87,3.29,6.29,2.78,2.06,6.33,3.06,9.54,4.26a306.36,306.36,0,0,0,46.25,13.14c7.57,1.54,15.24,3,22.43,5.9a53.52,53.52,0,0,1,18,12c1.22,1.24,2.37,2.55,3.47,3.89l.44-1.06a251,251,0,0,1-40.44-7.16q-9.87-2.59-19.5-6c-6.32-2.24-12.47-5-18.86-7-6.74-2.16-14-3.37-20.83-1a.63.63,0,0,0,0,1.21,438,438,0,0,1,70,22.44q9.66,4,19.11,8.52l.31-1.16c-27.46.31-53.55-9.52-80.39-13.8a144,144,0,0,0-22.61-2,.62.62,0,0,0-.16,1.22q31.86,11.7,64.39,21.47,9.21,2.76,18.46,5.37a.63.63,0,0,0,.34-1.21q-32.69-9.19-64.76-20.36-9.07-3.15-18.1-6.47l-.17,1.23c27.46,0,53.51,9.93,80.4,14a140.23,140.23,0,0,0,22.6,1.74c.59,0,.9-.89.32-1.17a438,438,0,0,0-69-25.87q-10.14-2.85-20.43-5.22v1.21c6.35-2.17,13-1.18,19.29.75s12.4,4.67,18.64,6.91a249.19,249.19,0,0,0,38.91,10.49c7.43,1.38,14.93,2.4,22.46,3.11.6.05.75-.7.44-1.07a54.79,54.79,0,0,0-15.84-13.3c-6.58-3.66-13.84-5.7-21.15-7.3-7.74-1.68-15.51-3.15-23.19-5.11s-15.5-4.3-23.1-6.91q-6.33-2.17-12.55-4.63c-2.69-1.06-8.58-4-6.49-7.78l-.54.31c7.81-.54,15.42,1.38,22.9,3.39l22.85,6.17,45.26,12.22,25.51,6.89a.64.64,0,0,0,.77-.44c1.26-3-.52-5.82-2.79-7.72-2.76-2.29-6.18-3.45-9.51-4.61a162.2,162.2,0,0,0-22.77-5.86c-15.28-2.95-30.84-4.66-45.83-9a93.46,93.46,0,0,1-24-10.35l-.31,1.16c16.41-.66,32.4,3.71,48,8.42q24,7.26,48.06,14.63c4,1.23,8.06,2.5,12.11,3.69,3.08.9,6.88,1.77,9.82,0,2.05-1.26,3.68-3.83,3-6.3-.76-3-4.08-3.73-6.68-4.27q-24.16-5-48.1-11.08t-47.79-13.28c-2-.58-3.9-1.18-5.84-1.78l.43.77c1-3.2,5.09-3.19,7.84-2.75a35,35,0,0,1,5.11,1.37c2.22.69,4.45,1.38,6.68,2q13.36,4.05,26.89,7.61,27.15,7.16,54.76,12.29,15.53,2.9,31.14,5.14a.63.63,0,0,0,.61-1.05c-6.32-6.77-15.58-8.94-24.41-10.24-5-.73-9.92-1.24-14.85-2.12a136.93,136.93,0,0,1-16.46-4,138.81,138.81,0,0,1-16.25-6.11c-5-2.22-9.88-4.65-14.91-6.8A78.32,78.32,0,0,0,556,128.08a62.2,62.2,0,0,0-16.57-.94c-12.74.9-25,5-36.76,9.84-.73.3-.41,1.51.34,1.21Z"/><path class="cls-3" d="M739.4,178.83s-5.38-28.92,21.07-57.18C760.47,121.65,770.58,193,739.4,178.83Z"/><path class="cls-3" d="M712.09,221.63s40.5,18.08,37.08,29.81c0,0-32.87-1.95-51.16-15S712.09,221.63,712.09,221.63Z"/><path class="cls-4" d="M661.82,239.61c9.52-3.59,17.3-10.46,26.62-14.46a29.41,29.41,0,0,1,15-2.48,37.74,37.74,0,0,1,15.15,5.73,111.26,111.26,0,0,1,14.85,11.46l.12-1c-7,4.53-16.06,4.21-23.63,1.22-8.23-3.25-14.91-9.38-21.15-15.48l-.13,1c10.95-7.49,22.29-15.31,29.78-26.5,6.24-9.33,8.87-21.2,5.53-32.11a25.24,25.24,0,0,0-10.19-13.94.64.64,0,0,0-.86.22,90.67,90.67,0,0,0-10.15,61.12.62.62,0,0,0,.77.43c5.65-2.38,9.77-6.91,14.11-11.06a48.59,48.59,0,0,1,14.23-9.63,52.27,52.27,0,0,1,33.47-2.6,47.08,47.08,0,0,1,17.24,8.35l.28-1a52.76,52.76,0,0,1-44.63-8.4v1.08c7.08-3.85,12-10.51,15.07-17.84,3.68-8.77,4.57-18.29,5.1-27.7.33-5.93.54-11.88,1.23-17.79.08-.65-.86-.79-1.16-.31a82,82,0,0,0-11.61,56.46c.12.8,1.33.46,1.2-.33a81.31,81.31,0,0,1,5.64-44.38,79.09,79.09,0,0,1,5.85-11.12l-1.17-.32c-2.09,17.91.3,37.87-10.83,53.34a29.94,29.94,0,0,1-10,8.91.64.64,0,0,0,0,1.08,53.92,53.92,0,0,0,45.59,8.52c.41-.11.66-.75.27-1-18.06-14-45.56-13.72-63.27.8-5.63,4.61-10.11,10.92-17,13.82l.77.44a90,90,0,0,1,4.2-47.66,88.14,88.14,0,0,1,5.82-12.5l-.85.23c9.08,5.92,12,17.41,10.69,27.68-1.59,12.1-9.36,21.92-18.32,29.7a188.27,188.27,0,0,1-17.49,13,.63.63,0,0,0-.12,1c9.69,9.47,21.51,19.38,36,17.94A23.12,23.12,0,0,0,734.24,240a.63.63,0,0,0,.13-1c-8.13-7.13-17.11-14.77-28-17.09a29,29,0,0,0-15.27.91,66,66,0,0,0-13.76,7c-5.13,3.16-10.21,6.49-15.88,8.62-.74.28-.42,1.49.34,1.21Z"/><path class="cls-4" d="M747.82,185.06a77.44,77.44,0,0,0,43.94-28.92A74.27,74.27,0,0,0,799.63,143a.64.64,0,0,0-.86-.86,105.35,105.35,0,0,0-30.85,21.19c-2.9,2.86-5.52,5.95-8.24,9-3.08,3.42-6.41,6.67-10.65,8.59-.74.33-.1,1.41.63,1.08,7.33-3.31,11.94-10.33,17.36-16a103.88,103.88,0,0,1,19.7-16,107.19,107.19,0,0,1,12.68-6.79l-.85-.85a76.26,76.26,0,0,1-36.73,36.56,73.22,73.22,0,0,1-14.34,4.94c-.78.18-.45,1.39.34,1.21Z"/><path class="cls-3" d="M146.84,275.58s-12.55,17.91,2.34,29.48,21.57,1.44,19.73-7.64S151.64,262.83,146.84,275.58Z"/><path class="cls-3" d="M115.75,295.49s-12.52-20.16-33.95-13.44-14.13,17.76-3,20.94S127.06,306.29,115.75,295.49Z"/><path class="cls-4" d="M174.93,264.31a73.13,73.13,0,0,0-29.29,11.27,78,78,0,0,0-11.84,9.77c-3.62,3.6-7.08,7.4-11.12,10.55a30,30,0,0,1-14.87,6.36,45.19,45.19,0,0,1-16.68-1.46c-2.69-.69-5.35-1.54-8-2.49-2.33-.85-5.6-1.68-7-3.91-1.59-2.48.31-5.16,2.34-6.66A15.5,15.5,0,0,1,86,285.17c12.58-1.38,24.22,6.77,33.83,13.83l-.12-1c-5.24,4.66-11.85,10.64-11.61,18.32.17,5.56,4.32,12.06,10.57,11.31,5.67-.67,8.37-7.06,7.83-12.17a12.05,12.05,0,0,0-1.1-4c-.82-1.72-2.09-3.18-3-4.86-2-3.77-.35-7.38,2.33-10.28,3-3.28,6.82-5.74,10.05-8.81a64.92,64.92,0,0,0,9.28-11.1.63.63,0,0,0-.71-.91,28.36,28.36,0,0,1-16.69-.47c-4.91-1.66-10.6-4.92-12.18-10.22a5.37,5.37,0,0,1,2.32-6.46c2-1.05,4.42-.66,6.43.1,4.84,1.85,7.26,6.42,10.44,10.18a16.55,16.55,0,0,0,5.47,4.51c2.37,1.11,5.5,1.2,5.92,4.36s-.26,6.36-.5,9.42a27.75,27.75,0,0,0,.41,9.09c1.09,4.25,4.55,8.64,9.13,9.26,3.93.52,7.19-2,8.4-5.65a14.77,14.77,0,0,0-2.07-12.77c-3.53-5.13-8.9-8.66-12.35-13.86-.44-.67-1.52,0-1.08.63,5.18,7.82,17.43,13.93,14.49,25a7.34,7.34,0,0,1-3.36,4.7,6.79,6.79,0,0,1-7.08-.56c-5.48-3.63-5.7-10.41-5.2-16.31.25-3,.86-6.19.43-9.2-.35-2.5-2.08-3.64-4.33-4.4a14.94,14.94,0,0,1-6.55-4.15c-1.77-1.9-3.22-4.06-4.85-6.08-2.73-3.4-6.71-6.34-11.3-6.14a6.48,6.48,0,0,0-6.06,8.33c1.43,5.62,7.11,9.17,12.19,11.09a29.53,29.53,0,0,0,18.3.8l-.7-.92a64.26,64.26,0,0,1-7.69,9.48c-2.63,2.66-5.56,4.9-8.41,7.31-2.4,2-4.87,4.39-6,7.38s-.42,6,1.28,8.63a22.23,22.23,0,0,1,2.55,4.43,11.41,11.41,0,0,1,.62,4,10.79,10.79,0,0,1-2.94,7.43,6.64,6.64,0,0,1-7.57,1.27,10.38,10.38,0,0,1-5.1-6.93c-2.07-8.3,5.33-15,10.88-20a.63.63,0,0,0-.13-1c-9.1-6.68-19.64-14-31.39-14.14-4.89-.07-10.94,1.06-13.82,5.48a5.3,5.3,0,0,0-.23,5.78c1.31,2.06,3.78,2.95,6,3.79,10.58,4.07,22.9,7.14,33.94,3,10.41-4,16.87-13.63,25.14-20.53a71.82,71.82,0,0,1,35.17-15.74c.8-.12.46-1.33-.33-1.21Z"/><path class="cls-3" d="M91.89,113.13s39.79,2.62,16.5-82.43C108.39,30.7,78.55,58,91.89,113.13Z"/><path class="cls-4" d="M113.27,147c0-11-10.2-19.05-20.2-21.16-6.78-1.43-13.77-.89-20.56.21-7.22,1.17-14.37,2.8-21.53,4.25l-24.71,5a.63.63,0,0,0-.15,1.14c18.22,10,41.2,9.82,59.76.76a60.47,60.47,0,0,0,14.44-9.84.63.63,0,0,0-.28-1A23.37,23.37,0,0,1,87,115.81a33.82,33.82,0,0,1-4.58-18.07c.06-7.38,1.8-14.62,3.73-21.69s4.11-13.91,6.59-20.72q4.24-11.73,9.59-23h-1.08A54.67,54.67,0,0,1,111.6,62a53.83,53.83,0,0,1-7.39,29.33,56.56,56.56,0,0,1-9.29,11.88,54.68,54.68,0,0,1-5.87,5,9.21,9.21,0,0,1-3.39,1.88c-1.61.32-2.82-.72-3.86-1.81a37.83,37.83,0,0,0-11.55-8.6,44.75,44.75,0,0,0-13.84-3.82c-12.85-1.49-25.66,2.21-37.48,6.91a.63.63,0,0,0-.15,1.14,37.95,37.95,0,0,0,28.72,2.85c2.75-.83,6.19-1.94,8.36-3.9s1.71-4.9.16-7C54.17,93.4,51,92.57,48.23,91.5A27.56,27.56,0,0,1,34.87,80.19,27.21,27.21,0,0,1,31.11,61l-.92.37A70,70,0,0,1,55.11,98.12a.62.62,0,0,0,1.2-.34,71.37,71.37,0,0,0-25.49-37.5.62.62,0,0,0-.91.37c-2,10.56,2.6,21.68,11.07,28.18a27.69,27.69,0,0,0,6.92,3.88c2.89,1.12,6.61,2,7.85,5.25a3.51,3.51,0,0,1-1.3,4.43,23.15,23.15,0,0,1-4.61,2.25,36,36,0,0,1-9.25,2.27,36.38,36.38,0,0,1-21.18-4.07L19.26,104c11.19-4.44,23.2-8,35.36-7a43.67,43.67,0,0,1,15.35,4,35,35,0,0,1,6.81,4.24c1.92,1.56,3.41,3.6,5.34,5.12a4.9,4.9,0,0,0,5.89.16,39.6,39.6,0,0,0,6.08-4.72,57.9,57.9,0,0,0,9.76-11.42,55,55,0,0,0-1.53-62.63.64.64,0,0,0-1.08,0,270.24,270.24,0,0,0-16,43.13c-3.64,13.12-6.89,28.1.17,40.69a25,25,0,0,0,14.35,12l-.28-1c-15,13.76-36.87,19.06-56.62,14.83a59.39,59.39,0,0,1-16.06-5.95l-.15,1.14c13.68-2.78,27.35-5.67,41.06-8.35,12.11-2.36,26.05-4.05,36.46,4.1C108.69,135.83,112,141,112,147a.63.63,0,0,0,1.25,0Z"/><path class="cls-4" d="M273.48,88.31l11.29,11.1a.63.63,0,0,0,.89-.88l-11.3-11.1c-.57-.57-1.46.32-.88.88Z"/><path class="cls-4" d="M290.83,40.58a377.1,377.1,0,0,0,25.11,48.33.63.63,0,0,0,1.08-.63A377.1,377.1,0,0,1,291.91,40c-.32-.74-1.39-.1-1.08.63Z"/><path class="cls-4" d="M336.26,57.33l2.89,9.73a.62.62,0,0,0,1.2-.33L337.46,57a.62.62,0,0,0-1.2.33Z"/><path class="cls-4" d="M383.63,31.84l1,31.35a.63.63,0,0,0,1.25,0l-1-31.35c0-.8-1.28-.8-1.25,0Z"/><path class="cls-4" d="M428.52,57.75,424.1,68.22a.62.62,0,0,0,.44.77.64.64,0,0,0,.76-.44l4.43-10.47a.63.63,0,0,0-.44-.77.65.65,0,0,0-.77.44Z"/><path class="cls-4" d="M496.36,55Q480.11,68.09,465.19,82.7c-.58.57.31,1.45.88.89Q481,69,497.24,55.87c.63-.51-.26-1.39-.88-.89Z"/><path class="cls-4" d="M479.52,103.19l11.25-6.63a.63.63,0,0,0-.63-1.08l-11.25,6.63a.63.63,0,0,0,.63,1.08Z"/><path class="cls-4" d="M418.89,278.62c8.87-20,23.52-36.7,33.87-55.91a109.38,109.38,0,0,0,7.33-16.58c.25-.76-.95-1.09-1.21-.33-7,20.68-21.31,37.61-32.51,56.05A140.67,140.67,0,0,0,417.81,278c-.33.73.75,1.37,1.08.63Z"/><path class="cls-4" d="M392.49,242.8a92.19,92.19,0,0,1-52.89-22.45c-14.53-12.73-25.35-30.43-27.33-49.87a77.78,77.78,0,0,1,11.29-48c8.84-14.41,22.35-25.68,38.55-30.8s33.87-4.29,49.74,1.41c16.1,5.79,30.24,16.78,38.88,31.66,8.91,15.33,11.91,33.8,9.3,51.26-2.68,18-11.35,34.91-25.3,46.71a55.71,55.71,0,0,1-27.3,12.72,62.49,62.49,0,0,1-29.68-2.79c-18.57-6.35-33-21.08-41.8-38.35a95.47,95.47,0,0,1-5.4-13l-1,.61,22.82,21.41c1.47,1.38,3,3.31,5.07,3.87,1.81.49,3.44-.46,4.75-1.63,3.81-3.39,7.26-7.27,10.85-10.88L417.41,150l24.92-25.09-1-.75a188.94,188.94,0,0,1-23.75,38.94A370.85,370.85,0,0,1,387,197.2c-6.12,6.16-12.37,12.2-18.62,18.23-.58.56.31,1.44.89.89,11.12-10.74,22.23-21.51,32.69-32.9a261.36,261.36,0,0,0,28.24-36,171.54,171.54,0,0,0,12.25-22.68c.27-.61-.45-1.3-1-.76l-42.83,43.11-21.24,21.37-10.7,10.78c-1.7,1.71-3.36,3.48-5.12,5.14a5,5,0,0,1-2.93,1.65c-1.4.08-2.5-.89-3.46-1.78-8.33-7.68-16.52-15.51-24.78-23.26-.43-.4-1.25,0-1,.61,6.12,18.47,17.86,35.49,34.56,45.86,17.1,10.61,39.53,13.4,58.08,4.91,17.45-8,30.18-24.62,36.07-42.6a83.2,83.2,0,0,0-.49-53.21,72.83,72.83,0,0,0-33.32-39.21,81.57,81.57,0,0,0-49.92-9.65A70.63,70.63,0,0,0,330,111.57a80.13,80.13,0,0,0-19.2,46.69,70.62,70.62,0,0,0,2.78,25.2,80.22,80.22,0,0,0,15.06,27.41,93.18,93.18,0,0,0,49.62,30.91,92.22,92.22,0,0,0,14.21,2.27c.8.06.8-1.19,0-1.25Z"/></svg>