<svg xmlns="http://www.w3.org/2000/svg" width="2275" height="844" viewBox="0 0 2275 844">
  <g id="Group_256" data-name="Group 256" transform="translate(-4472 -16432)">
    <rect id="Rectangle_21" data-name="Rectangle 21" width="2275" height="844" transform="translate(4472 16432)" fill="#fff"/>
    <g id="Group_210" data-name="Group 210" transform="translate(-48 -1639)">
      <path id="Path_729" data-name="Path 729" d="M73.46,269.11s-14.29,10.45-16,0,5-10.12,0-14.32-7.16-3.24-5-6.64,3.81-4.87,2.17-6.34-2.9-8.56,0-7.36-2-12.41,2.81-15.34,7.71-2.13,7.08-8.75,4.19-9.2,3.41-3.52S77.17,232,78.42,237.28s2.88,3.26,5.6,7.92-4.9,2.07-3.27,9.59,5.44,2.4,1.64,7.52a20.16,20.16,0,0,1-8.93,6.8Z" transform="translate(5192.448 18459.713)" fill="#f9e76f"/>
      <path id="Path_730" data-name="Path 730" d="M116.43,236.44s-32.21-4.95-32.7-21.8-2.75-35.24,0-49.35,6.33-20.87,7.38-36.13,2.66-24.68,13.18-24.21,23.47-14,29.14,0S148,139.3,148,155s6.47,22.78,0,29.4-6.49,17.64-4.86,24.42S135.86,249.68,116.43,236.44Z" transform="translate(5192.448 18459.713)" fill="#a9d767"/>
      <path id="Path_731" data-name="Path 731" d="M172,281q-1.27-33.5-1.1-67,.09-16.56.55-33.12.22-8.46.54-16.91c.1-2.89.22-5.78.34-8.67a43,43,0,0,1,.56-7.35,6.32,6.32,0,0,1,4.19-5.06c2.28-.75,4.81-.66,7.18-.77q8.59-.39,17.18-.74,17.07-.71,34.13-1.29,34.26-1.16,68.52-1.81t68.54-.78c2.36,0,5-.25,7.23.61s3.38,3,3.82,5.33a47.95,47.95,0,0,1,.48,7.58l.27,8.47q.51,17.06.81,34.13.6,34.28.37,68.54c0,2.91-.05,5.82-.07,8.73,0,2.12.62,6-1.67,7.15a7.941,7.941,0,0,1-3.28.56l-4.39.21q-4.15.17-8.31.29c-11.26.33-22.52.34-33.78.21-22.38-.25-44.74-1.08-67.12-1.21s-44.75.44-67,3q-8,.92-15.89,2.19l.79.6q-1-18.3-.62-36.65c.13-5.89.13-11.88.7-17.74.13-1.24.42-2.68,1.6-3.36a3.62,3.62,0,0,1,3.49.21c2.34,1.29,2.86,4.26,3.15,6.68.37,3.06.81,6.39-.23,9.37-.94,2.67-3.65,5.06-6.62,4.36l-.17,1.22,20.53,1a.64.64,0,0,0,.54-.31c1.48-3.4.78-7,.06-10.47-.69-3.31-1.59-7.94,1.28-10.51a5.21,5.21,0,0,1,4-1.39c2,.25,2.66,2,3,3.76a26.109,26.109,0,0,1,.51,8.36c-.36,3-1.63,6.06-4.77,7a.63.63,0,0,0,.17,1.23l16,.88a.6.6,0,0,0,.54-.31c2-4,.44-8.35-.31-12.48-.56-3.15.15-8.37,3.82-9.48,4.42-1.34,5.22,5.15,5.42,8,.17,2.34.29,5-1,7.06a4.43,4.43,0,0,1-5.3,2.08l-.34,1.2,17.45,3.8a.62.62,0,0,0,.61-.16c3.43-3.86,1.21-9.42,1.16-14,0-2.57.86-5.39,3.65-6.09s5.94,1.07,7.43,3.4c2.36,3.67,1.66,8.57,1.1,12.64l.6-.46-6.5.79a.63.63,0,0,0,0,1.25l17.32.65a.62.62,0,0,0,.62-.62l-.34-11.67c0-1.36-.27-3.31.75-4.4,1.37-1.46,3.76-.21,5,.86a7.74,7.74,0,0,1,2.4,7.94,7.84,7.84,0,0,1-6.91,5.37c-.66,0-.91,1.11-.17,1.23l14.19,2.2c.82.13,1.27.37,1.82-.29a5.39,5.39,0,0,0,1-2,10.16,10.16,0,0,0-.1-4.84c-.68-3.16-2.5-6.72-1-10a3.3,3.3,0,0,1,4.28-1.76,7,7,0,0,1,3.59,4.22c.75,2.1.5,4.46.49,6.66a15.61,15.61,0,0,0,1,6.46l.54-.94-4.63-.58c-.76-.09-.76,1-.17,1.23,2.94,1.16,6.41,2.15,9.57,1.37,3.52-.86,4.93-4.08,4.52-7.47-.25-2.07-1.13-4.2-1-6.29.1-1.67,1-3.86,2.63-4.57s3.12.79,4,1.88a8.94,8.94,0,0,1,1.85,4.08c.65,3.43-.48,7.28-3.53,9.2a.65.65,0,0,0-.13,1c1.86,2,4.69,1.93,7,.76,2.9-1.48,4.29-4.3,4.61-7.44a28.791,28.791,0,0,0-.22-6.08c-.16-1.44-1.14-5.26.94-5.74,1.7-.38,3.53,1.8,4.31,3a22.09,22.09,0,0,1,2.7,5.78c.64,2.24.62,4.68-1,6.51-1.29,1.46-3.34,2.39-5.15,1.33l-.32,1.16,15.36-.21a.61.61,0,0,0,.54-.31c1.63-3.28.53-6.75.45-10.22-.05-2.57,2.52-8.33,5.84-5.61,1.38,1.14,2.21,3.33,3,4.91a14,14,0,0,1,1.55,6c-.06,3.14-3.16,7.24-6.68,5.66L346,244.5l12.36.11a40.392,40.392,0,0,0,5.39,0,3.47,3.47,0,0,0,2.79-1.76,9.44,9.44,0,0,0,.67-4.18,58.169,58.169,0,0,0-.18-6.19c-.29-3.71-.85-7.4-1.4-11.08-.59-3.89-1.17-7.79-1.39-11.72a94.864,94.864,0,0,1,.21-12.39c.57-7.94,1.47-15.87,2.22-23.8q4.57-48.42,8.31-96.9.54-7,1.05-13.93c.16-2.08.35-4.17.46-6.26a7.72,7.72,0,0,0-.95-4.81,7.83,7.83,0,0,0-3.89-2.6,57.93,57.93,0,0,0-5.74-1.82A69.18,69.18,0,0,0,353.3,45a.63.63,0,0,0-.62.63q-1.86,34-2.17,68.05-.09,9.61-.06,19.21a.66.66,0,0,0,.63.63q7.49,1,15,1.33c2.6.12,5.19.18,7.79.18,2,0,4.37.31,6.23-.47a4.19,4.19,0,0,0,2.34-3.72,51,51,0,0,0-.11-7q-.24-7.69-.62-15.38-.74-15.37-2-30.72-.63-7.8-1.39-15.58c-.22-2.25-.36-4.54-.71-6.77a5.51,5.51,0,0,0-2.84-4.36c-3.53-1.8-8.5-1.34-12.19-.34a22.65,22.65,0,0,0-10.94,6.71.64.64,0,0,0,.13,1c7.93,4.73,17.78.24,25.66,4.94a.63.63,0,0,0,.64-1.08c-7.94-4.73-17.79-.24-25.67-4.94l.12,1c4.88-5.45,12.95-8.47,20.18-6.68,2.36.59,3.43,2.07,3.74,4.42s.48,4.58.7,6.87q.69,7,1.26,14.1,1.14,13.85,1.87,27.74c.24,4.63.45,9.25.62,13.89q.13,3.59.25,7.19c.05,1.89.45,4.2-.18,6-.86,2.52-4.52,1.92-6.61,1.92q-3.9,0-7.79-.16c-5.19-.22-10.37-.68-15.52-1.35l.62.62q-.12-34.05,1.3-68.08.4-9.6.93-19.18l-.63.62a67.469,67.469,0,0,1,11.39,1.86c1.67.42,3.32.91,4.95,1.45s3.75,1.12,4.84,2.63c.94,1.31.85,3,.76,4.58-.13,1.95-.29,3.91-.44,5.86q-.42,5.72-.86,11.44-1.77,23.13-3.73,46.23t-4.11,46.21q-1.07,11.41-2.18,22.84c-.75,7.7-1.43,15.42-.69,23.16.79,8.25,2.77,16.38,2.77,24.7,0,1.6.35,4.44-1,5.6a4,4,0,0,1-2.66.58h-3.21l-13.1-.12c-.58,0-.9.9-.31,1.16,2.61,1.17,5.34,0,7-2.21,2.17-2.82,1.74-6.47.51-9.6a34.7,34.7,0,0,0-2.47-5,5,5,0,0,0-3.28-2.67c-2.74-.48-4.82,2.24-5.62,4.53-1.41,4.08,1.27,8.54-.71,12.51l.54-.31-15.36.21A.63.63,0,0,0,326,243c2.92,1.7,6.4-.35,7.75-3.14,1.88-3.88-.44-8.55-2.44-11.91-1.24-2.1-5-5.78-7.32-2.94-1.28,1.54-.65,4-.45,5.79a24.16,24.16,0,0,1,.07,7.4,7.22,7.22,0,0,1-3.68,5.19c-1.84,1-4.1,1.13-5.61-.5l-.13,1c5.35-3.37,5.8-12,1.07-16.13-1.08-.93-2.48-1.83-4-1.47a5.33,5.33,0,0,0-3.24,3.08,8.45,8.45,0,0,0-.46,5.41c.47,2.48,1.53,5.41.2,7.78-2.32,4.11-8.58,2.18-12,.85l-.17,1.22,4.63.58c.53.06.7-.57.54-.94-1.8-4.2.13-9-1.51-13.16-1.1-2.82-4-6-7.34-4.84-3.12,1.07-3.62,4.67-3.25,7.52.47,3.63,3.41,8.35.65,11.69l.61-.16-15.17-2.36-.16,1.23c5.7-.35,9.91-6.07,8-11.59A8.63,8.63,0,0,0,277,227c-2.9-.71-4.58,1.35-4.77,4-.15,2.17.08,4.4.14,6.58l.21,7.2.63-.63-17.32-.65v1.25l6.5-.79a.613.613,0,0,0,.61-.45c.54-3.94,1.1-8.16-.41-12a9.19,9.19,0,0,0-6.52-5.63,6.08,6.08,0,0,0-6.73,2.77c-1.37,2.39-1,5.36-.69,8,.39,3.13,1.23,7.05-1.09,9.65l.61-.16-17.44-3.8a.624.624,0,1,0-.34,1.2c3.28,1.36,6.54-1.36,7.5-4.39a17.24,17.24,0,0,0,.36-6.6,17.78,17.78,0,0,0-.93-4.9c-1-2.64-3.72-4.7-6.59-3.42s-4.13,4.64-4.37,7.47c-.43,5,3.12,10,.68,14.85l.54-.31-16-.88.16,1.23c6.48-1.95,6.27-10.4,5.35-15.77-.29-1.72-.62-3.63-2-4.82a4.66,4.66,0,0,0-3.81-.95c-3.57.56-5.55,3.62-5.82,7-.41,5.28,3,10.78.75,15.9l.54-.3-20.53-1a.63.63,0,0,0-.16,1.23,6.57,6.57,0,0,0,6.4-2.26,11,11,0,0,0,2.42-7.66,27.31,27.31,0,0,0-1.24-9.08,6.29,6.29,0,0,0-4.93-4.37,4.11,4.11,0,0,0-4.66,3.14,16.109,16.109,0,0,0-.41,3.66q-.17,3-.28,5.94-.45,10.89-.41,21.8.06,12.39.72,24.76a.65.65,0,0,0,.8.61c22.75-3.66,45.81-4.92,68.84-5.13s45.86.58,68.79,1c11.51.21,23,.34,34.54.2,5.7-.07,11.41-.2,17.11-.42,2.74-.11,5.5-.13,8.22-.4,1.77-.17,3.49-.75,4.25-2.49,1-2.19.55-5.06.58-7.38,0-2.82.05-5.65.06-8.47q.06-8.85.06-17.7,0-17.56-.21-35.14t-.65-34.89q-.21-8.73-.48-17.44c-.09-3-.18-6-.29-9a19.188,19.188,0,0,0-.93-6.07c-1.66-4.38-5.8-5-10-5q-8.85,0-17.7.1-17.44.13-34.89.39-35.15.52-70.28,1.6c-23.31.71-46.63,1.52-69.93,2.66-4.08.2-8.09,1.11-9.56,5.4a22.78,22.78,0,0,0-.84,6.42c-.12,3-.25,6-.36,8.94q-.65,17.08-1,34.17-.6,34.13.34,68.26.22,8.42.55,16.84c0,.8,1.28.8,1.25,0Z" transform="translate(5192.448 18459.713)" fill="#231f20"/>
      <path id="Path_733" data-name="Path 733" d="M170.79,280.81c-.55,1.89.44,4.2,1.09,5.94s1.28,4.05,2.39,5.53c1.47,1.94,5.31,2.44,7.55,2.72,4.56.57,9.25.44,13.84.55q29.43.75,58.86.85,58.44.23,116.86-2c22.133-.933-9.213-.657-47.06.17q-56.32,1.23-112.67.14-8-.15-16-.36c-5.07-.13-10.41.18-15.41-.8-1.45-.28-3.93-.74-4.9-1.85a10.69,10.69,0,0,1-1.23-2.68c-.89-2.05-2.79-5.52-2.13-7.83a.622.622,0,1,0-1.2-.33Z" transform="translate(5192.448 18459.713)" fill="#231f20"/>
      <path id="Path_735" data-name="Path 735" d="M127.3,298.05l-4.2-45.53c-1.38-15-3.06-30-3.81-45a210.008,210.008,0,0,1,0-22.72c.44-7.5,1.22-15,1.61-22.48a126.461,126.461,0,0,0-.54-21.84,177.7,177.7,0,0,0-4-21.12c-1.38-5.64-3.6-11.69-9-14.6-4.27-2.29-9.67-1.89-12.72,2.16-2.73,3.61-2.77,8.67-2.82,13,0,2.51,0,5-.21,7.55a38,38,0,0,1-2.16,9.15c-1.94,5.68-4.63,11.47-4.36,17.61a26.05,26.05,0,0,0,2.38,8.63c1.16,2.85,2.3,6,.92,9-2,4.26-7,6.07-10,9.5A9.74,9.74,0,0,0,76,187.7a18.92,18.92,0,0,0,2.1,7.7c1.24,2.78,2.71,5.51,3.33,8.51.68,3.28.18,6.67-.07,10a20.81,20.81,0,0,0,.93,9.24,16.2,16.2,0,0,0,4.3,6c4.05,3.64,9.39,5.53,14.72,6.28,6.37.9,13.8.76,18.47,5.93a8.68,8.68,0,0,1,2.34,8,.63.63,0,0,0,1,.61,140,140,0,0,0,13.53-16,110.152,110.152,0,0,0,10.91-17.74c1.31-2.8,2.1-5.81,1.11-8.85a26.35,26.35,0,0,0-3.64-6.48c-1.25-1.81-2.76-3.78-3.16-6-.54-3,1.86-4.62,4.2-5.84,2.51-1.3,4.44-2.81,5.18-5.67.79-3,.52-6.36.57-9.46q.16-11.88.33-23.75a30.78,30.78,0,0,0-.82-9.23c-.95-3.15-3-5.35-5.3-7.61a23.68,23.68,0,0,1-5.58-8.57c-1.12-2.94-1.88-6-2.82-9-1.75-5.57-4.67-12.14-10.64-14.2-4.66-1.61-10.94,0-12.54,5.08-.24.77,1,1.1,1.21.34,1.5-4.81,7.9-5.8,11.95-3.82,5.27,2.56,7.59,8.81,9.15,14,1.68,5.6,3.12,11.42,7.22,15.81,2.3,2.47,4.92,4.54,6,7.86,1,3,.94,6.19.9,9.29-.09,7.42-.21,14.84-.31,22.26-.05,3.24.23,6.7-.39,9.89a6.91,6.91,0,0,1-1.91,3.87,15.62,15.62,0,0,1-3.48,2.11c-2,1-3.75,2.46-4.18,4.74a8.13,8.13,0,0,0,1.3,5.35c2.41,4.31,6.89,8.34,5.76,13.73-.76,3.68-3.07,7.12-5,10.31s-3.88,6.27-6,9.28a137.809,137.809,0,0,1-14.49,17.32l1,.61c1.41-5.25-2.44-10.26-7-12.5-5.74-2.83-12.39-2.16-18.46-3.7-5.09-1.29-10.3-3.94-13.21-8.47-3.71-5.77-1.36-12.37-1.7-18.7-.31-6-4.26-10.66-5.48-16.38a8.66,8.66,0,0,1,1.68-7.49,28.8,28.8,0,0,1,5.3-4.36,18.9,18.9,0,0,0,4.59-4.42,9.08,9.08,0,0,0,1.21-7c-.61-3-2.24-5.75-3.1-8.72a19,19,0,0,1-.11-9.17c1.25-5.95,4.11-11.41,5.42-17.34,1.09-5,.61-10.11.93-15.17.28-4.42,1.36-9.61,6.07-11.29,6.18-2.2,11.71,3.29,14,8.48a52.25,52.25,0,0,1,2.66,9.19c.8,3.6,1.55,7.22,2.18,10.85A119,119,0,0,1,119.92,155c-.14,14.66-2.38,29.19-2.17,43.86s1.87,29.56,3.23,44.28l4.07,44,1,10.89c.08.79,1.33.8,1.25,0Z" transform="translate(5192.448 18459.713)" fill="#231f20"/>
      <path id="Path_736" data-name="Path 736" d="M68.3,299.11l.07-11v-5.24a18.36,18.36,0,0,0-.14-4.57c-.73-2.76-4.27-2.4-6.49-2.59l-10.75-1,.32,1.16A39,39,0,0,1,62,271.79a.63.63,0,0,0-.16-1.23c-3.22-.14-8.36-.63-8.35-4.93,0-2,1.44-2.76,3.29-2.68,1.62.06,3.17.41,4.64-.49a2.62,2.62,0,0,0,1.41-2.8c-.33-1.32-1.68-1.83-2.86-2.17-4.39-1.28-8.82-2.44-13.23-3.66l.37.92c2.23-4.27,9.81-1.88,11.4-7,.71-2.29-1-4.1-2.72-5.32-2.84-2-5.82-3.83-8.72-5.74l.29.71c.29-1.38,1.65-1.54,2.86-1.65a29.928,29.928,0,0,0,3.9-.37,4.21,4.21,0,0,0,3.6-4.75c-.32-2.73-2.14-5.25-2-8,.12-1.91,1.72-3,2.78-4.39a12.13,12.13,0,0,0,2-4.4c1-3.93.47-8.07-.11-12l-1.15.48c4,5.68,5.29,12.52,5.71,19.32.43,7.14.13,14.32.45,21.48a225.41,225.41,0,0,0,2.39,24c.41,2.7.34,6.46,3.78,6.83a49.443,49.443,0,0,0,5.58,0c1.94,0,3.93.12,5.86-.06a3.84,3.84,0,0,0,3.15-1.55c.86-1.5-.14-3.12-1-4.33a43.289,43.289,0,0,0-8.34-8.6l-.44,1.07a5.55,5.55,0,0,0,5.16-4.5,4.93,4.93,0,0,0-.48-3.43c-.74-1.31-2.44-2.42-2.7-3.95s1.74-2.51,2-4a3.07,3.07,0,0,0-1.29-2.87c-1.07-.91-2.46-1.49-3.38-2.58-1.24-1.46-1.28-3.59-1.46-5.4-.27-2.83-1.37-6.39-4.71-6.67-.8-.06-.79,1.19,0,1.25,3.9.32,3.3,6.27,3.92,8.9A6.41,6.41,0,0,0,75.9,241c1,.77,3.36,1.72,3.27,3.23,0,.91-.93,1.51-1.42,2.19a3.19,3.19,0,0,0-.67,1.78c0,1.43,1,2.59,1.89,3.62,1.14,1.38,1.84,2.77,1.18,4.56a4.21,4.21,0,0,1-3.76,2.87c-.49,0-.89.71-.44,1.07a43.21,43.21,0,0,1,7.17,7.07c.8,1,3.07,3.33,1.74,4.65-1,1-3.45.67-4.72.67H75.22c-1.71,0-4.72.6-5.41-1.5a30.37,30.37,0,0,1-.85-4.94q-.43-2.82-.78-5.66-1.35-10.81-1.64-21.72c-.17-6.32.1-12.65-.42-19-.53-6.47-2-12.93-5.76-18.32a.63.63,0,0,0-1.14.48c.53,3.6,1,7.4.2,11a11.15,11.15,0,0,1-2.37,4.9c-1,1.17-2.17,2.15-2.48,3.74-.52,2.61.89,5.15,1.58,7.58.33,1.18.63,2.63-.21,3.68s-2.39,1.25-3.67,1.35c-2.2.17-5.55-.09-6.15,2.7a.65.65,0,0,0,.29.7l7.49,4.93c2,1.3,5,3.54,2.53,6-2.93,2.84-8.34,1.48-10.42,5.48a.63.63,0,0,0,.37.92c4.41,1.22,8.84,2.36,13.23,3.65.92.27,2.5.79,1.83,2.07-.46.89-1.78,1.1-2.66,1.09-1.66,0-3.39-.51-4.9.43-2.15,1.35-2,4.51-.74,6.41,1.85,2.76,5.68,3,8.67,3.12l-.17-1.23a39.88,39.88,0,0,0-10.93,4.29A.63.63,0,0,0,51,276l9,.8c1.55.13,3.1.23,4.64.41a2.53,2.53,0,0,1,2.12.91,4.06,4.06,0,0,1,.35,2.24c0,6.24-.08,12.48-.12,18.72a.63.63,0,0,0,1.25,0Z" transform="translate(5192.448 18459.713)" fill="#231f20"/>
      <path id="Path_751" data-name="Path 751" d="M125.36,296.16c-3.74-1.62-7.78-1.06-11.64-.19s-8.31,2.46-12.44,1.66c-2.26-.44-3.69-1.84-5.53-3.08-1.49-1-3.43-1.34-4.62.3-.88,1.21-.82,4.19-2.47,4.62-1.41.37-2.6-1.75-3.34-2.64-1-1.24-2.36-2.56-4.13-2.32-1.33.19-2.29,1.14-3.36,1.85-.8.52-2.78,1.11-3-.33-.07-.52-.73-.53-1-.27a39.34,39.34,0,0,1-11.56,6.11,83.655,83.655,0,0,1-11.38,3.31c-3.57.71-7.31.55-9.21-3-1.24-2.29-2-5.33-5-5.73a.64.64,0,0,0-.61.46,142.52,142.52,0,0,0-2.94,20.14l.79-.61c-6.95-2.36-15.35-4.81-22.08-.52-.67.43-.05,1.51.64,1.08,6.42-4.1,14.48-1.6,21.11.65a.64.64,0,0,0,.79-.6,139.329,139.329,0,0,1,2.9-19.81l-.6.46c1.71.23,2.46,2.08,3.11,3.45a11.77,11.77,0,0,0,2.34,3.77c2.52,2.36,6.33,2.05,9.45,1.39a86.75,86.75,0,0,0,12.22-3.67,39.71,39.71,0,0,0,10.92-6l-1-.28c.24,1.69,2.21,2.06,3.61,1.66,2-.57,3.64-3.42,5.88-1.66,1.8,1.41,3.84,6.05,6.75,3.88,1.48-1.11,1.24-3.13,2.19-4.55,1.56-2.34,4.87,1.57,6.5,2.35,3.57,1.72,7.69,1,11.39.11,4.71-1.09,10.06-2.95,14.77-.91.73.31,1.37-.77.63-1.08Z" transform="translate(5192.448 18459.713)" fill="#231f20"/>
      <g id="Group_84" data-name="Group 84" transform="translate(2042 8006)">
        <path id="Path_727" data-name="Path 727" d="M702.26,256.43s-20-3.08-20.35-13.57-1.71-21.92,0-30.7,3.94-13,4.59-22.48,1.66-15.36,8.2-15.06,14.61-8.73,18.13,0,9.07,21.37,9.07,31.13,4,14.17,0,18.29-4,11-3,15.19S714.34,264.67,702.26,256.43Z" transform="translate(2940.448 10442.713)" fill="#a9d767"/>
        <path id="Path_728" data-name="Path 728" d="M648.67,216.89l-12.9,25.25v3.41l-9.85,18.74,10.76-8.11-8.75,19a21,21,0,0,0-2.37,8.71H671.2l-5.53-9.33,5.53-7.89-5.63-1.51,1.62-6.49-2.71-8.26V236.9s-8.05.7-8.05-4.5S648.67,216.89,648.67,216.89Z" transform="translate(2940.448 10442.713)" fill="#f9e76f"/>
        <path id="Path_737" data-name="Path 737" d="M632.83,282.9l-13.36-4,.15,1.14a57.217,57.217,0,0,1,12.71-6.53.63.63,0,0,0,.15-1.14l-9.28-6.09-.15,1.14,9.77-3.85a.63.63,0,0,0,.15-1.14l-6.79-4.31v1.08a14.93,14.93,0,0,0,4.71-3.42.64.64,0,0,0,0-.89l-3.5-3.55-.27,1,11-3.89a.64.64,0,0,0,.46-.6c-.19-1.52-1.18-2.55-2-3.76-.49-.7-1-1.46,0-2,.65-.4,1.47-.34,2.11-.83a2.81,2.81,0,0,0,.6-3.48c-.81-1.66-2.73-2.2-4.38-2.59l.37.92a23,23,0,0,1,8.86-7.7.63.63,0,0,0,.12-1c-1-1-.71-2.48-.37-3.7.41-1.45.89-2.88,1.33-4.31l2.85-9.14h-1.21a77.687,77.687,0,0,0,6.19,13.42,31.5,31.5,0,0,0,4.51,5.71c.92.91,1.68,1.58,1,2.91a11.26,11.26,0,0,0-1.23,2.39c-.4,1.6.73,2.63,1.93,3.44.81.55,1.83,1.11,1.61,2.26-.18,1-1,1.79-1.31,2.76-.53,1.84.68,3.28,2.07,4.32a16.861,16.861,0,0,1,2.65,2,2.21,2.21,0,0,1,.7,2.41c-.28.58-.91,1-1.26,1.52a5.19,5.19,0,0,0,.59,5.73c1.58,2.08,4.28,2.88,6.68,3.57l-.28-1c-2.22,1.76-4.48,4.35-4.15,7.4.27,2.42,2.2,4.67,4.75,4.55l-.32-1.16q-4,2.17-7.87,4.55a.64.64,0,0,0-.13,1c1.38,1.34,3.14,2,4.78,2.9s3.8,3.12,2.26,4.92c-1.28,1.51-4.17.79-5.8.49a63.9,63.9,0,0,1-6.54-1.66c-1.52-.45-3.15-.57-4.41.53a5.59,5.59,0,0,0-1.67,3.51c-.45,3.1,1.59,7.57-1.19,9.94l1.05.28a220.687,220.687,0,0,1-2.85-52.6q.51-7.68,1.54-15.31c.11-.78-1.09-1.12-1.2-.33a222.06,222.06,0,0,0-.8,53.73c.53,5,1.24,9.92,2.1,14.84a.63.63,0,0,0,1,.28c2.2-1.88,1.89-4.95,1.58-7.53-.36-3,.13-7.29,4.25-6.21,3.42.9,7,2.31,10.6,2.16,2.45-.1,4.61-1.8,3.86-4.45-1.06-3.71-5.28-4-7.71-6.38l-.13,1q3.89-2.37,7.87-4.55a.63.63,0,0,0-.31-1.17c-2.34.11-3.81-2.39-3.48-4.52s2.07-4,3.77-5.3a.63.63,0,0,0-.28-1c-2.33-.67-5.16-1.44-6.41-3.73a3.83,3.83,0,0,1-.27-3.45c.48-1,1.5-1.48,1.71-2.6.34-1.83-1.25-3.41-2.62-4.34a9.73,9.73,0,0,1-2.61-2.11c-.83-1.17-.22-2.18.38-3.27.73-1.33,1-2.72-.18-3.9s-3.62-1.78-2.38-4c.74-1.35,1.73-2.65.81-4.18a14.212,14.212,0,0,0-2-2.16,29.826,29.826,0,0,1-2.47-3c-3.19-4.51-5.22-9.7-7.19-14.82a.63.63,0,0,0-1.21,0l-3.42,11c-.69,2.22-2.14,5.44-.06,7.35l.12-1a24.22,24.22,0,0,0-9.3,8.15.63.63,0,0,0,.38.92c1.46.34,4.41,1.13,3.75,3.27-.4,1.29-2.61,1-3.31,2.22-1.24,2.2,2.13,4,2.38,6l.46-.6-11,3.89a.63.63,0,0,0-.27,1l3.5,3.56v-.89a14.091,14.091,0,0,1-4.46,3.23.63.63,0,0,0,0,1.08l6.79,4.31.15-1.15-9.77,3.86a.63.63,0,0,0-.15,1.14l9.28,6.09.15-1.15A59.049,59.049,0,0,0,619,279a.63.63,0,0,0,.15,1.14l13.37,4a.63.63,0,0,0,.33-1.21Z" transform="translate(2940.448 10442.713)" fill="#231f20"/>
        <path id="Path_738" data-name="Path 738" d="M696.87,301l2.73-29.58c.91-9.82,2-19.65,2.55-29.51a144.91,144.91,0,0,0,.15-14.59c-.22-4.79-.7-9.56-1-14.35a95.061,95.061,0,0,1-.08-14.32,107.005,107.005,0,0,1,2.4-14.54c.89-3.95,1.87-8.66,5.59-10.93,3.28-2,7.24-1,8.5,2.76,1,3.05.68,6.45.78,9.62.13,3.81,1.29,7.25,2.57,10.81,1.37,3.83,2.63,7.82,1.23,11.84-1.16,3.36-3.23,6.82-.81,10.15,1.77,2.42,4.79,3.53,6.54,6,2.46,3.39-.19,7.37-1.56,10.62a14.43,14.43,0,0,0-1.25,5.52c0,2.12.35,4.22.35,6.34,0,4.19-2.26,7.35-5.86,9.32s-7.53,2.11-11.49,2.69c-3.68.54-7.46,1.91-9.3,5.39a6.31,6.31,0,0,0-.59,4.62l1-.6a91.369,91.369,0,0,1-15.45-20.92c-1.07-2-2.07-4.2-1.31-6.48a17.483,17.483,0,0,1,2.41-4.19c1.36-2,3.09-4.55,1.64-7-.84-1.38-2.37-1.92-3.7-2.7-2-1.17-2.32-3.21-2.38-5.37-.12-4.83-.14-9.66-.2-14.49-.06-4.23-1-9.77,1.89-13.3,1.26-1.54,2.85-2.75,4-4.41a20.188,20.188,0,0,0,2.34-5.08c1.34-4.09,2.1-8.84,5.43-11.89,2.57-2.34,8.1-2.8,9.41,1.22.24.76,1.45.44,1.2-.33-.94-2.9-4-4.21-6.9-3.91-3.68.38-6.2,3.37-7.66,6.55-1.78,3.86-2.23,8.25-4.37,12-1.2,2.08-3.11,3.46-4.57,5.33a10.281,10.281,0,0,0-2,5.4,60.015,60.015,0,0,0,0,7.22l.11,7.92c0,2.61,0,5.21.11,7.81.05,1.77.2,3.7,1.37,5.13s3.37,1.75,4.6,3.19.54,3-.27,4.4c-1.69,2.88-4.41,5.55-3.88,9.18.36,2.49,1.84,4.78,3.08,6.92s2.73,4.48,4.23,6.64a94.589,94.589,0,0,0,10,12,.63.63,0,0,0,1-.61,5.89,5.89,0,0,1,2.08-5.72,11.83,11.83,0,0,1,6.27-2.65c4-.67,7.94-.73,11.67-2.52a12.49,12.49,0,0,0,6.77-7.13c1.35-4.24-.64-8.69.54-13,1-3.58,3.84-6.94,3.4-10.84-.36-3.2-3-5-5.37-6.78a8.12,8.12,0,0,1-3.12-3.65c-.69-2.15.41-4.36,1.2-6.31a14.171,14.171,0,0,0,1.23-5.84,21.639,21.639,0,0,0-1.13-5.74c-1.27-4-3.06-7.77-3.28-12-.18-3.2.14-6.48-.55-9.63-.62-2.79-2.4-5.26-5.35-5.78-3.55-.63-6.9,1.72-8.67,4.63-2.23,3.66-2.87,8.31-3.69,12.44a86.235,86.235,0,0,0-1.76,14.5c-.27,10,1.4,20,1.43,30s-1.09,20.18-2,30.23l-2.84,30.82-.69,7.46c-.07.8,1.18.79,1.25,0Z" transform="translate(2940.448 10442.713)" fill="#231f20"/>
        <path id="Path_739" data-name="Path 739" d="M768.53,296.74l-.17-26.6v-6.47c0-1.85-.23-4.41,1.55-5.57s4.18-.92,6.07-1.08l6.47-.57,15.17-1.34a.63.63,0,0,0,.32-1.16,69.75,69.75,0,0,0-19.37-7.59l-.17,1.23c4.65-.19,9.84-.49,13.55-3.66a9,9,0,0,0,2.55-9.69,5.76,5.76,0,0,0-3.59-3.35c-2.55-.84-5.22,0-7.82-.06-1.89-.06-5.37-1.44-4.81-3.9s4.81-2.94,6.8-3.49l20.69-5.72a.63.63,0,0,0,.37-.92c-2.83-5.67-10.05-5.16-15.07-7.44-2.67-1.22-5.78-3.55-5.23-6.89.58-3.56,4.67-5.61,7.38-7.39L805.56,187a.66.66,0,0,0,.28-.71c-.85-4.37-6.12-4.17-9.58-4.39-2.24-.14-4.75-.29-6.66-1.59a5.674,5.674,0,0,1-2.14-5.77c.7-4.74,3.61-9,3.5-13.92-.06-2.75-1.38-4.78-3.22-6.72a21,21,0,0,1-5.06-8.27c-2.21-7-1.23-14.74-.18-21.9a.63.63,0,0,0-1.14-.48c-13,18.54-10.43,42.86-10.9,64.29q-.44,19.84-2.84,39.58-.61,5.06-1.36,10.09a95.124,95.124,0,0,1-1.57,9.53,3.93,3.93,0,0,1-2.59,3.12,13.411,13.411,0,0,1-4.24.33H742.43a12.651,12.651,0,0,1-4-.48,3.06,3.06,0,0,1-2.36-3.52c.29-1.64,1.47-3.07,2.44-4.37a76.173,76.173,0,0,1,14.27-14.54c.45-.35.06-1.07-.44-1.07-4.52,0-8.11-4.65-7.63-9s6.65-7,5.84-11.77c-.41-2.43-2.94-3.55-3.57-5.82s1.59-3.79,3.19-4.89,3.68-2.3,5-4a14,14,0,0,0,2.34-6.79c.37-2.79.37-5.64,1.32-8.32s2.73-5.23,5.71-5.42c.8,0,.8-1.29,0-1.25-5.19.32-7.32,6-7.81,10.47-.33,2.95-.34,6.07-1.56,8.84-1.12,2.56-3.41,3.89-5.62,5.41-1.6,1.09-3.49,2.43-3.85,4.47-.47,2.6,1.67,4.07,3,6,1.91,2.79-.64,5.39-2.37,7.48-1.53,1.85-2.8,3.73-2.86,6.21-.12,4.88,3.91,9.71,8.92,9.7l-.44-1.06a76.333,76.333,0,0,0-13.31,13.27c-1.63,2.09-4.08,4.7-3.81,7.57.2,2.14,2,3.38,3.94,3.85,2.75.67,5.78.36,8.58.37h10.53c2.38,0,5.23.16,6.88-1.89a7.21,7.21,0,0,0,1.32-3.22c.33-1.7.58-3.42.85-5.13a404.463,404.463,0,0,0,4.37-41.83c.65-12.72.22-25.46.79-38.18.59-13,2.7-26.41,10.37-37.31l-1.15-.48c-.92,6.31-1.72,12.8-.63,19.15a23.12,23.12,0,0,0,3.17,8.53c1.69,2.64,4.81,4.62,5.64,7.72,1.26,4.75-1.94,9.73-3,14.23a8.84,8.84,0,0,0,.28,5.92,7.26,7.26,0,0,0,4.8,3.57c2.51.68,5.15.6,7.72.83,2.28.2,4.84.67,5.35,3.27l.29-.7-11.76,7.72c-2.87,1.89-6.59,3.77-8.1,7a6.47,6.47,0,0,0,1.93,7.63c2.38,2.12,5.4,3,8.43,3.75,3.58.84,7.8,1.83,9.59,5.41l.38-.92-18.29,5.06c-2.48.68-5.2,1.14-7.53,2.26a4,4,0,0,0-2.61,4c.22,1.78,1.81,3,3.36,3.7,2.29,1,4.66.42,7,.31s5,.49,6,3a7.53,7.53,0,0,1-.38,5.63c-2.45,5.34-9.55,5.67-14.61,5.88a.63.63,0,0,0-.16,1.23A68.31,68.31,0,0,1,797.27,255l.31-1.17-14.43,1.27-7.21.64c-1.92.17-4.08.12-5.89.85-3.67,1.47-3,6.11-3,9.29l.1,14.42.1,16.41a.63.63,0,0,0,1.25,0Z" transform="translate(2940.448 10442.713)" fill="#231f20"/>
        <path id="Path_752" data-name="Path 752" d="M817.28,316.71a128.2,128.2,0,0,0-27.36-14.78,126.631,126.631,0,0,0-14.74-4.77c-2.54-.65-5.1-1.23-7.67-1.72a7.81,7.81,0,0,0-3.26-.16,12.6,12.6,0,0,0-3,1.51c-5.24,2.85-11-2.16-14.55-5.62a.63.63,0,0,0-1.05.61c.87,3.05-2.07,5.43-4.7,6.23-3.16,1-6.63,0-9.84-.17a16.368,16.368,0,0,0-4.68.47c-1.94.46-3.8,1-5.7.06-2.34-1.17-4.1-2.83-6.9-2.48-2.57.31-4.82,1.84-7.05,3a15.917,15.917,0,0,1-3.66,1.53,14.5,14.5,0,0,1-5.94-.08,202.008,202.008,0,0,0-21.37-2.59,170.946,170.946,0,0,0-24.79.35c-.8.07-.8,1.32,0,1.25a171.393,171.393,0,0,1,23.33-.43q5.83.29,11.63,1c4,.47,7.87,1.22,11.81,1.8a14.23,14.23,0,0,0,9-1.39c2.41-1.24,4.89-3.17,7.71-3.27,3.12-.11,5.11,2.93,8.19,3.09,1.7.1,3.32-.54,5-.86a19.309,19.309,0,0,1,5.78,0c3.52.36,7.1.85,10.26-1.14,2.29-1.44,4-3.91,3.18-6.68l-1,.61c3.12,3.05,7,6.39,11.55,6.77a9.4,9.4,0,0,0,5.82-1.74c2.4-1.41,5.7-.13,8.24.45a126.612,126.612,0,0,1,29.92,10.94,127.916,127.916,0,0,1,15.28,9.31c.66.47,1.28-.62.63-1.08Z" transform="translate(2940.448 10442.713)" fill="#231f20"/>
      </g>
      <g id="Group_85" data-name="Group 85" transform="translate(1779 7917)">
        <circle id="Ellipse_126" data-name="Ellipse 126" cx="38.36" cy="38.36" r="38.36" transform="translate(3917.598 10504.732)" fill="#f9e76f"/>
        <path id="Path_753" data-name="Path 753" d="M999.34,78.68c-4.56,3.54-8.93,7.67-11.13,13.12a22.429,22.429,0,0,0,0,16c4,10.78,14.59,17,25.56,18.57,10.66,1.46,22.52-1.72,27.7-11.92,4.38-8.62,3.46-19.75-1.91-27.73-6.79-10.11-19-15.15-30.92-15.45a.63.63,0,0,0,0,1.25c10.09.25,20.41,4,27.29,11.57a27.35,27.35,0,0,1,5.89,26.18c-6.9,22.2-41.09,18.26-50.87.55A22.42,22.42,0,0,1,988.77,94c1.78-6.09,6.59-10.62,11.45-14.4.64-.49-.26-1.37-.88-.88Z" transform="translate(2940.448 10442.713)" fill="#231f20"/>
        <path id="Path_754" data-name="Path 754" d="M930.93,103.27l15.83-.51c.8,0,.8-1.28,0-1.25l-15.83.51C930.13,102.02,930.12,103.3,930.93,103.27Z" transform="translate(2940.448 10442.713)" fill="#231f20"/>
        <path id="Path_755" data-name="Path 755" d="M908.35,57.77a374.525,374.525,0,0,0,52.3,15.17.622.622,0,0,0,.33-1.2,377.253,377.253,0,0,1-52.3-15.17c-.76-.28-1.08.93-.33,1.2Z" transform="translate(2940.448 10442.713)" fill="#231f20"/>
        <path id="Path_756" data-name="Path 756" d="M951.81,36.44l9,4.63c.72.36,1.35-.71.63-1.08l-9-4.63C951.73,35,951.1,36.07,951.81,36.44Z" transform="translate(2940.448 10442.713)" fill="#231f20"/>
        <path id="Path_757" data-name="Path 757" d="M992,191.78l8.13-13.59a.63.63,0,0,0-1.08-.63L991,191.15a.63.63,0,0,0,1.08.63Z" transform="translate(2940.448 10442.713)" fill="#231f20"/>
        <path id="Path_758" data-name="Path 758" d="M941.43,186.27a376.674,376.674,0,0,0,41.17-35.89.63.63,0,0,0-.88-.89,375.274,375.274,0,0,1-40.92,35.7C940.17,185.67,940.8,186.76,941.43,186.27Z" transform="translate(2940.448 10442.713)" fill="#231f20"/>
        <path id="Path_759" data-name="Path 759" d="M947.12,138.08l8.78-5.1a.63.63,0,0,0-.63-1.08l-8.78,5.1a.63.63,0,0,0,.63,1.08Z" transform="translate(2940.448 10442.713)" fill="#231f20"/>
      </g>
    </g>
    <g id="Group_205" data-name="Group 205" transform="translate(7 -1187)">
      <circle id="Ellipse_99" data-name="Ellipse 99" cx="27.34" cy="27.34" r="27.34" transform="translate(5455.64 17841.422)" fill="#d3d3d3"/>
      <circle id="Ellipse_100" data-name="Ellipse 100" cx="72.79" cy="72.79" r="72.79" transform="translate(5467.59 17679.791)" fill="#f2f2f2"/>
      <path id="Path_592" data-name="Path 592" d="M831.72,237.45l27.63,13.23c.72.34,1.36-.73.63-1.08l-27.63-13.23C831.63,236.02,830.99,237.1,831.72,237.45Z" transform="translate(4696.038 17571.406)" fill="#231f20"/>
      <path id="Path_593" data-name="Path 593" d="M841.32,218.41l25.18,10c.75.3,1.07-.91.33-1.2l-25.18-10C840.91,216.91,840.58,218.12,841.32,218.41Z" transform="translate(4694.178 17576.016)" fill="#231f20"/>
      <path id="Path_594" data-name="Path 594" d="M845.06,251.05a95.331,95.331,0,0,0,11.45-35.32c.09-.8-1.16-.8-1.25,0A93.661,93.661,0,0,1,844,250.42a.63.63,0,0,0,1.08.63Z" transform="translate(4695.412 17573.604)" fill="#231f20"/>
      <path id="Path_603" data-name="Path 603" d="M771.434,114.259a67.025,67.025,0,0,0-15.735,1.525,65.78,65.78,0,0,0-7.555,2.134,35.114,35.114,0,0,0-6.251,2.655c-3.122,1.826-5.856,5.176-3.952,8.883a10.882,10.882,0,0,0,3.888,3.809c2.181,1.415,4.521,2.6,6.8,3.825q8.3,4.481,16.857,8.456l.118-.9-36.9,15.34.609.609,6.433-35.453a.506.506,0,0,0-.348-.609c-3.8-1.106-7.437.925-10.274,3.264a58.13,58.13,0,0,0-8.33,8.575,67.131,67.131,0,0,0-11.3,20.548c-2.932,8.693-3.952,17.893-5.153,26.934l-3.951,28.822L692.5,241.3l-.474,3.477a10,10,0,0,0-.174,2.908c.261,1.683,1.581,2.529,3.051,3.122a66.3,66.3,0,0,0,12.993,3.659c2.15.387,4.315.68,6.48.869,1.1.095,2.2.166,3.3.213.893,0,1.644.3,2.166-.506,1.857-2.861,3.659-6.639,1.478-9.831a3.865,3.865,0,0,0-6.694.134,3.66,3.66,0,0,0,3.161,5.532c3.952.206,4.5-4.544,5.335-7.4l4.07-13.838,8.235-27.882,1.976-6.726h-.948c2.418,13.957,4.971,27.914,8.456,41.649A214.111,214.111,0,0,0,758.718,276.2a143.646,143.646,0,0,0,11.855,20.437.506.506,0,0,0,.853,0l17.482-24.895c4.742-6.781,10.843-14.036,11.128-22.729a15.016,15.016,0,0,0-3.952-11.064.514.514,0,0,0-.6-.071,4.236,4.236,0,0,0-2.229,2.75c-.253,1.027,0,1.81,1.138,2.023a2.774,2.774,0,0,0,2.5-.98,3.809,3.809,0,0,0,.466-3.438,40.558,40.558,0,0,0-1.992-5.082l-2.173-5.319-4.355-10.63a.506.506,0,0,0-.609-.348,5.477,5.477,0,0,0-3.849,4.592,2.189,2.189,0,0,0,.609,2.11,2.316,2.316,0,0,0,2.268.142c2.213-.948,1.581-3.675.877-5.437-1.209-3.232-2.458-6.449-3.691-9.673-.735-1.928-1.581-4.362-3.754-5.121a3.225,3.225,0,0,0-4.039,2.079c-.427,1.873,1.581,2.806,3.161,2.308,2.15-.7,2.529-2.987,2.2-4.971-.3-1.786-.893-3.541-1.367-5.279l-1.4-5.129-3.011-11.064a.506.506,0,0,0-.609-.348,6.876,6.876,0,0,0-4.276,3.857c-.624,1.43-1.138,3.588.617,4.363a3.691,3.691,0,0,0,4.141-1.272c1.391-1.794.79-4.355.095-6.322-.964-2.8-2.023-5.532-3.035-8.346-.893-2.45-1.652-5-2.766-7.366-.79-1.581-2.015-3.406-3.9-3.707a3.73,3.73,0,0,0-3.754,2.039,2.261,2.261,0,0,0-.1,1.865,1.984,1.984,0,0,0,1.928,1.091,5.335,5.335,0,0,0,4.679-2.513,7.581,7.581,0,0,0,.419-6.409c-.846-2.561-3.161-4.8-1.652-7.571.577-1.067,1.328-2.039,1.952-3.074q1.051-1.739,1.928-3.572a44.01,44.01,0,0,0,4.244-22.231c-.119-1.494-.569-3.232-.111-4.694s1.889-2.134,3.264-2.505a22.351,22.351,0,0,1,8.164-.49,25.511,25.511,0,0,1,14.937,6.955l.1-.79c-5.248,3.9-11.452,6.259-16.715,10.132-4.355,3.161-8.3,7.65-9.073,13.182-.451,3.264.3,6.52,1.193,9.642,1,3.564,2.071,7.113,3.114,10.661l6.323,21.457,12.5,42.677L803,238.851l1.581,5.366a26.572,26.572,0,0,0,1.462,4.307c1.407,2.837,4.252,3.533,7.073,4.339q5.192,1.494,10.448,2.821a349.784,349.784,0,0,0,41.926,8.03c1.794.229,3.58.443,5.374.64.4.047.577-.443.427-.743-6.907-13.736-13.815-27.479-21.465-40.827-3.809-6.662-7.808-13.214-12.068-19.6-4.141-6.2-8.646-12.107-13.1-18.082-4.837-6.488-9.444-13.3-11.855-21.109l-.79.474c17.9,16.162,43.372,16.494,65.9,19.868a119.185,119.185,0,0,1,21.046,4.852.5.5,0,0,0,.624-.482l.688-22.532a.49.49,0,0,0-.364-.474c-4.544-.79-8.188-5.437-13.127-4.307a4.062,4.062,0,0,0-3.264,3.161,4.117,4.117,0,0,0,1.091,3.778,2.679,2.679,0,0,0,3.58-.095A4.331,4.331,0,0,0,889.2,163.9c-.585-1.841-2.371-3.035-4.023-3.833-2.474-1.193-5.074-2.134-7.595-3.209q-15.688-6.686-30.862-14.5c-4.884-2.513-9.816-5-14.47-7.9a46.464,46.464,0,0,1-6.575-4.86c-2.031-1.826-3.865-3.849-5.785-5.785a40.22,40.22,0,0,0-13.333-9.112,38.061,38.061,0,0,0-16.1-2.774c-.64,0-.64,1.02,0,.988a37.263,37.263,0,0,1,24.958,8.116c3.715,3,6.678,6.8,10.274,9.895a66.1,66.1,0,0,0,11.515,7.539q13.277,7.231,27.021,13.554,6.931,3.2,13.965,6.18c2.158.917,4.378,1.723,6.488,2.742,1.731.83,3.722,2.134,3.738,4.283,0,1.581-1.739,3.952-3.3,2.237a3.161,3.161,0,0,1,.79-4.647c2.221-1.257,5.034-.245,7.113.861s4.2,2.568,6.67,3l-.364-.474-.688,22.532.624-.474c-22.872-7.848-48.067-5.208-70.535-14.565a55.725,55.725,0,0,1-15.972-9.895.5.5,0,0,0-.79.482c2.071,6.789,5.8,12.874,9.918,18.6,4.331,6.038,8.962,11.855,13.167,17.964a394.288,394.288,0,0,1,23.591,40c4.054,7.721,7.966,15.506,11.855,23.29l.427-.743a349.977,349.977,0,0,1-41.317-7.113q-5.074-1.193-10.108-2.545a80.428,80.428,0,0,1-9.578-2.774c-3.343-1.359-3.88-4.979-4.789-8.093L802.1,232.536l-12.139-41.349-6.046-20.667-3.043-10.337c-.964-3.3-2.063-6.591-2.814-9.95a16.185,16.185,0,0,1,.419-9.547,19.568,19.568,0,0,1,4.9-6.915c4.513-4.283,10.329-6.718,15.6-9.879a45.975,45.975,0,0,0,3.952-2.632.5.5,0,0,0,.095-.79,26.507,26.507,0,0,0-22.223-7.113c-1.723.261-3.659.68-4.9,2.007-1.407,1.517-1.1,3.572-.909,5.453a43.12,43.12,0,0,1-5.848,26.214c-1.02,1.7-2.671,3.438-2.75,5.532s1.525,3.952,2.2,5.88c.735,2.11.862,4.742-.79,6.465a4.362,4.362,0,0,1-2.64,1.367c-.956.1-2.086-.213-1.66-1.4a2.64,2.64,0,0,1,4.5-.648c1.47,1.438,2.063,3.659,2.75,5.532l2.932,8.053c.5,1.367,1.019,2.742,1.494,4.125a7.968,7.968,0,0,1,.593,4.276,2.853,2.853,0,0,1-2.047,2.165c-1,.277-2.071,0-2.007-1.178a5.912,5.912,0,0,1,4.1-5.216l-.6-.348,3.493,12.835,1.715,6.322c.466,1.715,1.462,4.6-.427,5.825a1.9,1.9,0,0,1-1.984.166c-.909-.624-.3-1.668.411-2.126,1.747-1.138,3.3.466,4.078,1.944a51.581,51.581,0,0,1,2.276,5.7c.79,2.11,1.636,4.228,2.418,6.322.379,1.027.9,2.371.364,3.422-.348.688-1.691,1.3-2.158.419s.142-2.134.569-2.821a4.323,4.323,0,0,1,2.474-1.889l-.609-.348,6.22,15.19q.79,1.913,1.581,3.8a7.359,7.359,0,0,1,.877,3.533c-.087.751-1.3,2.418-2.244,1.581-.356-.316.047-1.138.261-1.509a3.256,3.256,0,0,1,1.431-1.32l-.593-.071c5.84,5.975,3.7,15.134,0,21.607a128.165,128.165,0,0,1-7.271,10.827L779.788,282.9l-9.27,13.214h.854a156.905,156.905,0,0,1-18.77-37.263,295.328,295.328,0,0,1-10.9-40.772c-1.581-7.753-2.972-15.545-4.323-23.338-.087-.506-.79-.443-.948,0l-9.768,33.193-4.742,16.217c-.608,2.071-.988,5.58-3.738,5.69-2.213.087-3.88-2.015-2.671-4.062,1.581-2.624,4.647-1.517,5.532.98,1.043,2.845-.79,5.7-2.244,8.022l.427-.245a70.341,70.341,0,0,1-16.383-2.252,64.949,64.949,0,0,1-7.539-2.434c-1.249-.506-2.371-1.146-2.513-2.64a21.568,21.568,0,0,1,.49-4.489l4.623-33.936c1.533-11.238,2.987-22.484,4.607-33.714a108.748,108.748,0,0,1,3.232-15.806,65.643,65.643,0,0,1,15.087-26.08c3.47-3.683,8.693-9.381,14.328-7.745l-.348-.609-6.433,35.461c-.055.316.229.79.609.6l36.907-15.34c.34-.142.545-.7.111-.9q-6.915-3.217-13.672-6.757-3.28-1.715-6.536-3.525a28.24,28.24,0,0,1-5.271-3.359c-1.494-1.328-2.608-3.161-2.11-5.208.45-1.9,2.118-3.288,3.714-4.268a31.529,31.529,0,0,1,6.086-2.648,65.468,65.468,0,0,1,23.211-3.683.5.5,0,0,0,0-.988Z" transform="translate(4728.91 17599.211)" fill="#231f20"/>
    </g>
    <g id="Group_209" data-name="Group 209" transform="translate(139 -1334)">
      <ellipse id="Ellipse_109" data-name="Ellipse 109" cx="21.93" cy="20.98" rx="21.93" ry="20.98" transform="translate(5962.682 18452.184) rotate(-88.66)" fill="#f9e76f"/>
      <circle id="Ellipse_108" data-name="Ellipse 108" cx="22.65" cy="22.65" r="22.65" transform="translate(5890.972 18283.551)" fill="#a9d767"/>
      <g id="Group_96" data-name="Group 96" transform="translate(1752 10015)">
        <path id="Path_659" data-name="Path 659" d="M455.44,312.69c-3.59-.63-5.71,4.16-4,6.95,2,3.25,6.89,2.42,8.49-.7a7.74,7.74,0,0,0-3.49-10.11,8.62,8.62,0,0,0-9.61,2.08c-2.84,3-3,7.56-1.51,11.22a11.46,11.46,0,0,0,9.14,7.3,14.31,14.31,0,0,0,12.27-5.06c3.6-4,5.75-9.15,9.15-13.36a129.011,129.011,0,0,1,12.26-12.49l14-13.3,13.65-13,7-6.65a34,34,0,0,0,5.5-5.82,11.08,11.08,0,0,0-.14-11.67,12.18,12.18,0,0,0-11.06-6C506,242.42,499,253.45,492.47,261a417.917,417.917,0,0,1-49.84,49.36q-3.3,2.76-6.65,5.44l1,.13a100.882,100.882,0,0,0-7-11.62,59,59,0,0,0-8.28-9.89c-6.23-5.66-14.3-7.2-22.49-6.62-9,.64-17.66,3.55-26.68,3.54a29.36,29.36,0,0,1-12.85-2.77,35.53,35.53,0,0,1-9.05-6.47c-6.37-6.13-11-13.86-15.28-21.54l-.22.86a386.441,386.441,0,0,0,36.22-20.38q8.82-5.61,17.33-11.7c2.91-2.08,5.78-4.2,8.64-6.35,1.31-1,2.59-1.92,4.3-1.88a10,10,0,0,1,4.46,1.38c4.71,2.59,7.79,7.4,11.41,11.22a26.3,26.3,0,0,0,14.3,8.07,24.83,24.83,0,0,0,16.11-2.57c5.42-2.81,10.14-6.94,15.86-9.17,15.32-6,29.82,5.89,40.78,15.12.61.52,1.5-.36.88-.88-9.89-8.33-21.44-18.05-35.27-17-12.67,1-20.77,13.55-33.66,13.64a24.1,24.1,0,0,1-16.61-6.61c-3.92-3.7-6.87-8.41-11.22-11.66a12.77,12.77,0,0,0-7-2.82c-3.21-.09-5.89,2.78-8.29,4.57q-8.61,6.36-17.55,12.25a385.071,385.071,0,0,1-41.29,23.66.65.65,0,0,0-.22.86c7,12.58,16.16,27.56,31.41,30.72,9,1.86,18-.59,26.84-2.05,8.29-1.37,17.47-1.86,24.88,2.81,4.26,2.69,7.51,6.77,10.46,10.8a99.783,99.783,0,0,1,8.08,13.08.63.63,0,0,0,1,.12,415.309,415.309,0,0,0,44.6-41.44q5.22-5.62,10.25-11.44c3.26-3.77,6.35-7.71,9.7-11.41s7-7,11.71-8.39c4.35-1.33,9.27-.78,12.48,2.68,2.69,2.92,4,7.5,2.32,11.23a18.41,18.41,0,0,1-4.38,5.25l-6.11,5.8-24.07,22.84c-3.85,3.65-7.72,7.27-11.52,11a68,68,0,0,0-9.61,11.08c-2.54,3.83-4.52,8.27-8.09,11.29-3.39,2.87-8.38,4.12-12.52,2.18-6.93-3.24-8.84-15.86.09-17.79a6.28,6.28,0,0,1,7.68,6.12c.05,2.1-1,4.25-3.2,4.72a3.26,3.26,0,0,1-4.12-2.85c-.06-1.62,1.11-4,3-3.64.79.14,1.13-1.07.34-1.21Z" transform="translate(3821.842 8127.09)" fill="#231f20"/>
      </g>
      <g id="Group_92" data-name="Group 92" transform="translate(3780 9089)">
        <path id="Path_678" data-name="Path 678" d="M851.08,251.21a12.82,12.82,0,0,0-2.25-5.21c-1-1.69-2.28-3.75-1.22-5.74s3.4-2.5,5.32-2.82c2.7-.46,5.5-.53,8.23-.76l8.92-.75a37.86,37.86,0,0,1,7.82-.15,10.1,10.1,0,0,1,6.76,3.28,6.55,6.55,0,0,1,1.54,6.06c-.76,2.26-3.11,3.39-4.58,5.12s-1.65,4.08-1.69,6.39q-.2,8.92-.37,17.87l-.18,9.18a35.157,35.157,0,0,0,.24,7.81,11.809,11.809,0,0,0,3.6,5.88c1.67,1.7,3.57,3.57,3.55,6.14,0,3.16-3.31,3.31-5.7,3.33l-8.9.06-18.29.11c-3,0-11.08.71-10.66-4.36.16-2,2-3.52,3.38-4.75a24.841,24.841,0,0,0,4.21-4.24c2.5-3.66,2.45-8.36,2-12.58-.6-5.1-1.65-10.07-1.77-15.22-.07-2.92,0-5.84.13-8.76a9.86,9.86,0,0,1,.46-4.12c.68-1.4,2.53-1.14,3.82-1.14h22.43c.4,0,1.8-.19,2.12.08a1.22,1.22,0,0,1,.18,1.25,3.361,3.361,0,0,1-1,1,46,46,0,0,1-7.16,3.66,84.847,84.847,0,0,1-16,5.33c-1.73.4-4.33.5-5.46,2.12s.25,3,1.69,3.53c2.64,1,5.49,1.65,8.2,2.46l8.5,2.53,8.5,2.52v-1.2l-25.83,8.78a.63.63,0,0,0,0,1.21A108.328,108.328,0,0,0,878,291.94c.51.07.72-.57.54-.94-4.55-9.21-16.77-9.72-24.33-15.31l-.15,1.14a37.21,37.21,0,0,0,25.39-19,.63.63,0,0,0-.54-.94,121.1,121.1,0,0,1-26.43-3.94.624.624,0,1,0-.34,1.2,122.4,122.4,0,0,0,26.77,4l-.54-.94a36,36,0,0,1-24.64,18.45c-.58.12-.54.86-.15,1.15,3.93,2.9,8.63,4.42,13.08,6.32s8.63,4.16,10.8,8.54l.54-.94a106.639,106.639,0,0,1-26.1-6.84v1.21l25.83-8.79a.62.62,0,0,0,0-1.2l-18.89-5.62-4.25-1.26c-1-.29-4.56-1.1-2.65-2.63,1-.77,2.54-.84,3.7-1.09,1.48-.32,3-.69,4.41-1.09a86.4,86.4,0,0,0,16.2-6.29c1.75-.89,4.94-2,5.36-4.27.47-2.57-3-2.23-4.55-2.23H857.87c-2.12,0-5.63-.68-7.1,1.33a4.881,4.881,0,0,0-.78,2.5c-.15,1.61-.15,3.25-.2,4.87A91.587,91.587,0,0,0,850.92,277c.77,4.74,1.81,10.29-.47,14.78-1.1,2.16-3,3.63-4.73,5.21-1.41,1.25-3,2.66-3.54,4.51-1.33,4.25,3.05,6.32,6.5,6.66a83.355,83.355,0,0,0,8.66.05l9.39-.06,9.89-.06h4.7a11.929,11.929,0,0,0,3.67-.41,4.31,4.31,0,0,0,3-4.17,8.75,8.75,0,0,0-2.79-5.87c-2.11-2.26-4.15-4.12-4.55-7.37a63.844,63.844,0,0,1,0-9.07l.4-19.61.09-4.47c0-1.69-.08-3.56.74-5.1,1.1-2.08,3.46-3.13,4.77-5.08,2.41-3.57.19-8.24-3-10.46-4.55-3.17-10.92-2-16.07-1.59l-9.67.81a34.2,34.2,0,0,0-7.27,1,6.58,6.58,0,0,0-4.33,3.35,6,6,0,0,0,.6,5.19c1,1.94,2.63,3.73,2.9,6,.09.79,1.35.8,1.25,0Z" transform="translate(1401.842 8940.09)" fill="#231f20"/>
        <path id="Path_679" data-name="Path 679" d="M850.8,265.19a26.49,26.49,0,0,1-16.73,14.42,24.52,24.52,0,0,1-21.69-4.86,29.45,29.45,0,0,1-7.58-9.84c-1.83-3.6-3.47-7.27-6-10.47a31.69,31.69,0,0,0-17-11.15,24.94,24.94,0,0,0-20.05,3.57c-3.84,2.52-7.38,5.51-11,8.33L739,264.39l-47.46,37L644.28,338.2l-5.9,4.6c-.56.44.17,1.38.75,1,14.56-9.89,30-18.35,45.6-26.47s31.32-15.92,46.56-24.64c7.65-4.38,15.16-9,22.43-14q5.48-3.74,10.75-7.77a41.1,41.1,0,0,0,8.53-8c2-2.68,3.55-6.07,2.93-9.47a9.14,9.14,0,0,0-7-6.89c-5.85-1.49-13.16,2.24-13.73,8.67-.48,5.43,5.92,12.85,11.46,8.72,2.16-1.61,3.47-5,1.74-7.39-1.49-2-4.57-1.23-5.8.69a2.63,2.63,0,0,0,0,3c.44.67,1.53,0,1.08-.63-1.53-2.26,3.79-4.85,4.22-.92a4.76,4.76,0,0,1-5.81,4.95c-2.91-.7-5.09-3.62-5.58-6.48a8.06,8.06,0,0,1,3.63-7.83,10.53,10.53,0,0,1,8.44-1.57c3.51.9,6.34,3.74,6.19,7.52-.13,3.42-2.31,6.56-4.54,9a59.547,59.547,0,0,1-8.52,7.15,325.214,325.214,0,0,1-38.45,24.28C710,303,696.36,309.77,682.9,316.8s-26.9,14.39-39.73,22.73q-2.37,1.55-4.71,3.13l.76,1,47.46-37,47.45-37c8-6.19,15.87-12.4,23.84-18.56,3.45-2.67,7.07-5.29,11.3-6.53a23.059,23.059,0,0,1,10.38-.52,30.22,30.22,0,0,1,18,10.8c2.66,3.27,4.32,7.11,6.22,10.83a30.3,30.3,0,0,0,7.23,9.53,26.13,26.13,0,0,0,20.17,6.19,27.44,27.44,0,0,0,20.66-15.64c.34-.73-.74-1.36-1.08-.63Z" transform="translate(1401.842 8940.09)" fill="#231f20"/>
      </g>
    </g>
    <g id="Group_214" data-name="Group 214" transform="translate(282 -1555)">
      <path id="Path_777" data-name="Path 777" d="M29.167,0A29.167,29.167,0,1,1,0,29.167,29.167,29.167,0,0,1,29.167,0Z" transform="translate(6310 18613)" fill="#a9d767"/>
      <g id="Group_111" data-name="Group 111" transform="translate(4341 6491)">
        <path id="Path_701" data-name="Path 701" d="M220.22,239.74c-4.3,2-9.08.19-13.05-1.76-4.42-2.17-8.74-4.58-13.1-6.88l-26.54-14,.22.86c10-23.16,32.27-37.21,48.36-55.66,2.14-2.46,4.69-5.3,4.72-8.76,0-2.62-1.61-5.42-4.36-5.84a.66.66,0,0,0-.7.29,276.225,276.225,0,0,1-24,29.73q-6.42,6.92-13.31,13.37c-4.49,4.22-9.29,8.08-13.82,12.24-4.1,3.77-8.26,8.65-7.58,14.61l.79-.6c-5.8-1-10.93-3.91-16-6.73l-16.7-9.26c-2.72-1.52-5.47-3-8.18-4.54-1.09-.63-2.54-1.49-2.45-2.94.07-1.23,1.27-2.19,2.18-2.88a41.481,41.481,0,0,0,5.35-4.46,44.159,44.159,0,0,0,4.24-5.3c2.71-3.91,5-8.09,7.78-12,3.2-4.46,7.27-7.88,11.45-11.37,8.46-7.06,15.22-15.67,22-24.28,1.92-2.43,3.85-4.85,5.83-7.23a72.57,72.57,0,0,1,6.07-6.8,4.93,4.93,0,0,1,4.44-1.62,23.53,23.53,0,0,1,4.59,2.12l9.68,4.81c.71.36,1.35-.72.63-1.07l-9.24-4.6c-2.18-1.09-4.85-3-7.42-2.56s-4.24,2.66-5.83,4.43c-2,2.25-4,4.56-5.86,6.91-7.32,9-14.12,18.58-22.78,26.41-4.33,3.92-9.17,7.28-12.86,11.86-3.14,3.9-5.59,8.28-8.32,12.46a51.732,51.732,0,0,1-4.67,6.24,39.76,39.76,0,0,1-5.78,5c-1.47,1.1-3.12,2.69-2.67,4.72.54,2.43,3.63,3.55,5.54,4.62l19.74,10.95c6,3.33,12,7.12,18.91,8.29.35.06.84-.16.79-.6-.65-5.64,3.34-10.16,7.22-13.72,4.42-4.07,9.1-7.84,13.49-11.94A276.233,276.233,0,0,0,204.46,165q6.49-8,12.38-16.43l-.7.29c3.45.52,4,4.65,2.8,7.32s-3.61,5.11-5.64,7.34c-4,4.36-8.22,8.47-12.5,12.52-8.4,8-17.09,15.73-24.23,24.88a74.89,74.89,0,0,0-9.9,16.35.65.65,0,0,0,.23.86l21.93,11.58L200,235.65a88.683,88.683,0,0,0,10.07,5c3.51,1.32,7.27,1.84,10.76.21.73-.33.1-1.41-.63-1.08Z" transform="translate(1714.52 11909.3)" fill="#231f20"/>
        <path id="Path_702" data-name="Path 702" d="M222.63,114.06c-4.63,2.06-7.29,6.84-8,11.7-.89,6.32,1.53,12.54,3.89,18.28l.29-.71q-8.7,4.77-17.05,10.14l.92.38c-1.27-7-2.55-14.09-3.28-21.18-.35-3.35.22-6.27,2.65-8.72a36.449,36.449,0,0,1,7.27-5.14,30.26,30.26,0,0,1,8.43-3.82,20.08,20.08,0,0,1,9.77.34c6.14,1.6,11.66,4.92,17.64,7a57.25,57.25,0,0,0,22,3l-.32-1.17a94.66,94.66,0,0,1-38,17.72c-2.12.46-4.41.6-6.48,1.23-1.9.57-2.17,2.07-1.92,3.85a32.44,32.44,0,0,0,4.51,12.55c.79,1.29,1.89,3.51,3.71,3.35a3.92,3.92,0,0,0,2-1.08c1-.82,2-1.64,3-2.42a81.49,81.49,0,0,1,24.73-12.78c2.51-.78,5.05-1.43,7.62-2,1.73-.38,3.69-.86,4.94-2.2,1.62-1.74.83-4,.31-6l-2.4-9.17-.77.76c1.83.59,2.25,2.61,2.54,4.29a26.132,26.132,0,0,0,1.08,5.26,16.28,16.28,0,0,0,8,8.25,32.73,32.73,0,0,0,6.6,2.39c1.08.28,2.17.52,3.26.75a6.49,6.49,0,0,1,2.8,1c1.29,1.06,0,2.34-.81,3.28s-1.66,2-2.5,3c-1.59,1.84-3.21,3.65-4.84,5.46-3.68,4.12-7.36,8.25-10.64,12.7-.48.65.61,1.28,1.08.63,3.26-4.42,6.93-8.52,10.6-12.61,1.77-2,3.55-4,5.28-6,.84-1,1.67-2,2.48-3a4.21,4.21,0,0,0,1.19-2.44c0-1.63-1.62-2.52-3-2.95-2.42-.77-5-1.08-7.38-1.89-4.58-1.53-9.24-4.4-11-9.13-1.23-3.26-.28-8.9-4.43-10.24a.62.62,0,0,0-.76.77l1.82,7c.32,1.21.64,2.42,1,3.63s.49,2.45-.47,3.42c-1.2,1.2-3.11,1.52-4.69,1.86q-3,.66-6,1.54a82.559,82.559,0,0,0-22.25,10.43q-2.46,1.63-4.8,3.45c-.79.61-1.55,1.24-2.32,1.87-.57.47-1.19,1-2,.7-.5-.18-1-1.07-1.25-1.51a31.38,31.38,0,0,1-4.82-11.77c-.19-1-.71-2.66.08-3.48.64-.66,2.12-.65,3-.8q3.17-.54,6.3-1.29a94.619,94.619,0,0,0,11.86-3.69,96.189,96.189,0,0,0,24.35-13.68c.44-.34.38-1.2-.31-1.16A56.4,56.4,0,0,1,246,121.25c-6.41-2.15-12.29-5.8-18.91-7.33a21.07,21.07,0,0,0-9.18-.23,29.82,29.82,0,0,0-8.78,3.81c-4.75,2.84-10.61,6.07-11,12.24a28.061,28.061,0,0,0,.44,5.64q.42,3.15.9,6.28.94,6.27,2.08,12.52a.63.63,0,0,0,.92.37q8.34-5.37,17.05-10.14a.61.61,0,0,0,.28-.7c-2.2-5.37-4.52-11.16-3.94-17.08.46-4.76,2.95-9.49,7.46-11.49.73-.32.1-1.4-.63-1.08Z" transform="translate(1714.52 11909.3)" fill="#231f20"/>
        <path id="Path_703" data-name="Path 703" d="M233.09,209.64c-6.61,15.2.72,31.81,7.36,45.63a469.642,469.642,0,0,0,25.26,45.79q3.46,5.54,7.1,11c2.18,3.28,4.31,6.63,6.74,9.73,2,2.51,4.46,5,7.69,5.73a10,10,0,0,0,8.43-2.41c2.8-2.26,4.81-5.35,6.84-8.29l7.94-11.5,15.9-23,7.94-11.5c1.28-1.85,2.59-3.67,3.81-5.55a14.431,14.431,0,0,0,2.32-5.09c.74-4-1.92-7-4.15-10L327.94,239l-33.19-44.47c-4.5-6-8.92-12.53-15.23-16.84a25.23,25.23,0,0,0-20.39-3.53,24.31,24.31,0,0,0-15.61,12.6c-2.93,5.79-3.86,13-1.29,19.11,2.12,5,7.81,10.1,13.42,6.8a8.69,8.69,0,0,0,4.25-6.11c.37-2.84-1.38-4.95-3.89-6-1.55-.67-3.21-1-4.73-1.8a15.35,15.35,0,0,1-3.39-2.3,27.72,27.72,0,0,1-5.13-6.47c-2.89-4.75-5.1-9.95-8.62-14.3a20,20,0,0,0-5.95-5.08c-.71-.39-1.34.69-.63,1.08,9.41,5.12,11.26,17.22,18.32,24.57a17.38,17.38,0,0,0,5.85,4.07c2.7,1.11,6.93,1.74,7,5.45a7.36,7.36,0,0,1-4.4,6.23c-2.84,1.26-6-.07-8-2.14-4.61-4.62-5.06-12.08-3.38-18.05a23.51,23.51,0,0,1,12.67-15,24,24,0,0,1,20.57.39c6.38,3.29,10.89,9.14,15.1,14.76q15.45,20.67,30.87,41.37c5.06,6.78,10.29,13.45,15.18,20.35a8.71,8.71,0,0,1,2,5.38,11.42,11.42,0,0,1-2.17,5.46c-2.28,3.56-4.79,7-7.19,10.45l-29.37,42.51c-3.57,5.15-9.25,12.11-16.07,7.52-2.91-2-4.88-5.07-6.83-7.91q-3.44-5-6.75-10.09a468.672,468.672,0,0,1-24.2-41.83c-3.65-7.12-7.32-14.31-10.26-21.76-2.77-7-4.95-14.49-4.71-22.09a29.84,29.84,0,0,1,2.41-11c.32-.73-.76-1.37-1.08-.63Z" transform="translate(1714.52 11909.3)" fill="#231f20"/>
        <path id="Path_704" data-name="Path 704" d="M293.65,260.54c-5,6.18-14.3,6.08-20.38,1.69-6.74-4.87-11.17-14.15-10.06-22.45a19,19,0,0,1,4.89-10.3,18.49,18.49,0,0,1,11.16-5.63c8.26-1.21,18.45.36,23.78,7.44,2.54,3.39,3.87,8.14,2.26,12.21-.76,1.94-2.44,3.91-4.66,4-1.79.1-4.26-1.1-3.65-3.23h-1.2L301,259.68a.64.64,0,0,0,1,.28,29.45,29.45,0,0,0,8.82-13c.25-.77-1-1.09-1.2-.33a28.21,28.21,0,0,1-8.51,12.47l1.05.28L297,244a.63.63,0,0,0-1.2,0c-1,3.59,3.5,5.55,6.38,4.51,3.95-1.44,5.37-6.23,5-10.05-.95-9.81-10.45-15.08-19.37-16-5-.52-10.62-.18-15.22,2.1a19.65,19.65,0,0,0-9,9.57c-4,8.88-.69,19.3,5.68,26.18a18.71,18.71,0,0,0,12.81,6.36,15.28,15.28,0,0,0,12.48-5.24c.5-.62-.37-1.51-.88-.88Z" transform="translate(1714.52 11909.3)" fill="#231f20"/>
      </g>
    </g>
    <g id="Group_204" data-name="Group 204" transform="translate(-365 -1339)">
      <circle id="Ellipse_103" data-name="Ellipse 103" cx="22.65" cy="22.65" r="22.65" transform="translate(5181.412 17944.895)" fill="#a9d767"/>
      <circle id="Ellipse_104" data-name="Ellipse 104" cx="44.41" cy="44.41" r="44.41" transform="translate(5049.002 17923.133)" fill="#b9ddd5"/>
      <g id="Group_95" data-name="Group 95" transform="translate(2762 5877)">
        <path id="Path_632" data-name="Path 632" d="M698.76,114.37a20.76,20.76,0,0,0-13.62,22.06.62.62,0,0,0,.6.46,29.84,29.84,0,0,1,21.06,6.73.63.63,0,0,0,1-.76A51.192,51.192,0,0,1,702.4,128a49.07,49.07,0,0,1-.87-8c0-1.3-.07-2.81.86-3.84a7.52,7.52,0,0,1,3.28-1.66c4.25-1.4,9.72-1.8,12.88,2,2.7,3.25,2.61,8.12,1.43,12-1.66,5.42-5.37,10-7.46,15.22-.24.63.63,1,1.05.61,6.49-5.88,14.35-12.61,23.75-11.5.42.05.68-.44.6-.8a26.75,26.75,0,0,0-13.59-17.74l-.63,1.08c15,7.58,30.11,15,44.89,22.94.71.38,1.34-.7.64-1.08-14.79-8-29.91-15.36-44.9-22.94-.71-.36-1.34.7-.63,1.08a25.56,25.56,0,0,1,13,17l.6-.79c-9.72-1.15-17.92,5.78-24.64,11.87l1.05.6c2.15-5.41,6-10.06,7.61-15.72,1.14-4.17,1-9.23-1.9-12.68-3.21-3.79-8.55-3.89-13-2.67-2.1.58-4.8,1.33-5.73,3.53-1,2.41-.4,5.68-.1,8.18a52.648,52.648,0,0,0,6.08,18.87l1-.75a31,31,0,0,0-21.94-7.1l.6.46a19.47,19.47,0,0,1,12.75-20.52c.76-.26.43-1.47-.33-1.21Z" transform="translate(1566.932 11894.084)" fill="#231f20"/>
        <path id="Path_633" data-name="Path 633" d="M696.53,91.27a9.34,9.34,0,0,1,16.12-6,9.47,9.47,0,0,1,1.68,10.31c-.76,1.71-2.15,2.74-3.2,4.22a5.14,5.14,0,0,0-.5,5,.63.63,0,0,0,.77.43,2.38,2.38,0,0,0,1.67-2.3.63.63,0,0,0-1.07-.44,6.64,6.64,0,0,0-1.9,5,.64.64,0,0,0,.62.62,1.77,1.77,0,0,0,1.89-2.25.63.63,0,0,0-.92-.37A5.07,5.07,0,0,0,709.2,109a.65.65,0,0,0,.29.7,1.89,1.89,0,0,0,2.9-1.65.63.63,0,0,0-.94-.54,3.64,3.64,0,0,0-1.6,4.18.63.63,0,0,0,.44.44,1.78,1.78,0,0,0,2.14-1.28.64.64,0,0,0-.61-.79c-3-.12-3.15,3.45-3.4,5.58-.46,4-4.75,2.79-7.6,3.18-.79.11-.45,1.31.34,1.2,2.31-.32,5.29.48,7.19-1.27a5,5,0,0,0,1.36-3.52c.11-1.34.16-4,2.11-3.92l-.6-.79-.6.4.44.44a2.34,2.34,0,0,1,1-2.77l-.94-.54a.64.64,0,0,1-1,.57l.29.71a3.87,3.87,0,0,1,1.91-2.8l-.92-.37-.68.66.63.63a5.389,5.389,0,0,1,1.54-4.08l-1.07-.44a1,1,0,0,1-.75,1.1l.77.44c-1-2.27.13-3.8,1.63-5.41a10.659,10.659,0,0,0,2.33-3.84,10.9,10.9,0,0,0-.69-8.73A10.7,10.7,0,0,0,699.9,83a11,11,0,0,0-4.62,8.28.626.626,0,0,0,1.25,0Z" transform="translate(1566.932 11894.084)" fill="#231f20"/>
        <path id="Path_634" data-name="Path 634" d="M710.58,111.66a29.644,29.644,0,0,0,1,4,7.851,7.851,0,0,0,1.69,3.46c1.76,1.6,4.14.33,6.19.82a.628.628,0,0,0,.33-1.21,9.56,9.56,0,0,0-3,0,3.51,3.51,0,0,1-2.62-.44,3.329,3.329,0,0,1-.8-1.34c-.23-.59-.45-1.19-.64-1.8a30.631,30.631,0,0,1-1-3.8c-.14-.79-1.35-.45-1.2.34Z" transform="translate(1566.932 11894.084)" fill="#231f20"/>
        <path id="Path_635" data-name="Path 635" d="M696.25,114.73a103.068,103.068,0,0,0-23.87,11.34A101.631,101.631,0,0,0,661.72,134c-3.26,2.76-6.88,5.7-8.66,9.69a45.668,45.668,0,0,0-2,6.26c-.7,2.49-1.39,5-2.07,7.48q-2,7.38-4,14.78c-2.56,9.86-5,19.76-7,29.74s-3.82,19.94-5.11,30a54.7,54.7,0,0,0-.81,7.2c0,1.82,1.11,2.77,2.8,3.19,5,1.24,10.14,2.18,15.19,3.23,1.82.37,3.83.75,5.56-.14a4.25,4.25,0,0,0-3.88-7.56c-1.22.64-.38,2.17.53,2.72a3,3,0,0,0,3.63-.4c1.4-1.22,2-3.27,2.58-5,.8-2.16,1.5-4.35,2.13-6.57,5.17-18.22,5.22-37.4,9.89-55.72.57-2.24,1.22-4.46,1.93-6.66l-1.22-.16q1,34.42.63,68.87-.09,8.58-.26,17.16c0,1.4-.06,2.81-.1,4.22a20.3,20.3,0,0,0,0,3.82c.41,2.33,3.18,2,5,2.15q17,1.33,34,1.55,19.26.22,38.5-1a.62.62,0,0,0,.62-.62c-1-24.75-.16-49.51-.37-74.27q-.08-10.81-.49-21.62l-1.17.31a139.277,139.277,0,0,1,11.92,28.33c2.82,9.41,4.84,19,6.9,28.62,1.26,5.85,2.54,11.71,4,17.53.19.78,1.4.45,1.21-.34-4.8-19.7-7.71-40-15.3-58.92a132.5,132.5,0,0,0-7.6-15.85.63.63,0,0,0-1.16.32c1,24.75.17,49.51.37,74.26.06,7.22.21,14.42.49,21.63l.63-.63a515.642,515.642,0,0,1-66.13-.12c-2.71-.17-5.42-.38-8.13-.6-.93-.07-1.81,0-2.05-1.19a8.621,8.621,0,0,1,0-1.9l.09-4.22q.18-8.46.28-16.91.19-16.53.07-33.07-.14-18.78-.68-37.54a.63.63,0,0,0-1.23-.17c-6.48,19.82-6.05,41-11.47,61.09q-1.1,4.1-2.56,8.07a11.659,11.659,0,0,1-1.82,3.83,2.06,2.06,0,0,1-1.65.81,1.208,1.208,0,0,1-1.33-1.2l-.31.54a3,3,0,0,1,4.26,3.82c-1.38,3-5.68,1.5-8.11,1l-9.32-2c-1.35-.28-2.77-.47-4.08-.88-2-.63-1.48-2.65-1.3-4.28,1.41-12.39,3.56-24.68,6.16-36.86s5.63-24.11,8.85-36.06c1.59-5.88,3-11.88,4.93-17.66,1.81-5.46,6.47-9.15,10.79-12.67a100.788,100.788,0,0,1,32.36-17.59c.76-.25.43-1.46-.34-1.21Z" transform="translate(1566.932 11894.084)" fill="#231f20"/>
        <path id="Path_636" data-name="Path 636" d="M770.93,240.41c1.61.4,3.75.72,5.16-.39a2.65,2.65,0,0,0-.13-4.18,3.47,3.47,0,0,0-4.69.37c-1.73,1.67-1.79,4.14-1.5,6.37.23,1.77.49,4.14,2.34,5a5.56,5.56,0,0,0,3.16.09c1.52-.22,3-.46,4.55-.72,2.93-.52,5.89-1.05,8.78-1.8a2.85,2.85,0,0,0,2-1.21c.53-1,0-2.61-.18-3.68l-5.66-36.87c-1.83-12-3.61-24-6-35.84-1.28-6.26-2.76-12.48-4.49-18.63-.61-2.15-1.24-4.29-2-6.38a16.071,16.071,0,0,0-2.82-5.27c-.54-.6-1.43.29-.88.88,2.15,2.35,3,6.06,3.93,9,1.2,4,2.25,8.11,3.22,12.2,2.27,9.64,4,19.4,5.55,29.18,1.59,10,3.08,19.93,4.61,29.9l2.33,15.24,1.14,7.37c.13.86.6,2.1-.36,2.69a5.1,5.1,0,0,1-1.33.34c-1.26.29-2.53.56-3.79.82-2.77.57-5.56,1.06-8.35,1.46-1.54.23-3.13.52-3.83-1.19a12.32,12.32,0,0,1-.67-3.55,6,6,0,0,1,.69-3.88c.71-1.09,2.08-1.9,3.32-1.13,1.43.89.91,2.49-.58,2.81a7,7,0,0,1-3.09-.24.63.63,0,0,0-.33,1.21Z" transform="translate(1566.932 11894.084)" fill="#231f20"/>
        <path id="Path_637" data-name="Path 637" d="M796.72,114.37a20.76,20.76,0,0,0-13.61,22.06.62.62,0,0,0,.6.46,29.84,29.84,0,0,1,21.06,6.73.63.63,0,0,0,1-.76,50.9,50.9,0,0,1-5.4-14.86,49.078,49.078,0,0,1-.87-8c0-1.3-.07-2.81.86-3.84a7.48,7.48,0,0,1,3.27-1.66c4.26-1.4,9.73-1.8,12.89,2,2.7,3.25,2.61,8.12,1.43,12-1.66,5.42-5.37,10-7.46,15.22-.25.63.63,1,1,.61,6.49-5.88,14.35-12.61,23.75-11.5.42.05.68-.44.6-.8a26.75,26.75,0,0,0-13.59-17.74l-.63,1.08c15,7.58,30.1,15,44.89,22.94.71.38,1.34-.7.63-1.08-14.79-8-29.9-15.36-44.89-22.94-.71-.36-1.35.7-.63,1.08a25.51,25.51,0,0,1,13,17l.61-.79c-9.73-1.15-17.92,5.78-24.64,11.87l1.05.6c2.15-5.41,6-10.06,7.6-15.72,1.15-4.17,1-9.23-1.9-12.68-3.2-3.79-8.54-3.89-13-2.67-2.11.58-4.8,1.33-5.73,3.53-1,2.41-.4,5.68-.1,8.18a52.261,52.261,0,0,0,6.08,18.87l1-.75a31,31,0,0,0-21.94-7.1l.6.46A19.47,19.47,0,0,1,797,115.65c.75-.26.43-1.47-.34-1.21Z" transform="translate(1566.932 11894.084)" fill="#231f20"/>
        <path id="Path_638" data-name="Path 638" d="M794.5,91.27a9.34,9.34,0,0,1,16.12-6,9.48,9.48,0,0,1,1.68,10.31c-.76,1.71-2.15,2.74-3.2,4.22a5.14,5.14,0,0,0-.5,5,.63.63,0,0,0,.77.43,2.38,2.38,0,0,0,1.67-2.3.63.63,0,0,0-1.07-.44,6.6,6.6,0,0,0-1.9,5,.63.63,0,0,0,.62.62,1.77,1.77,0,0,0,1.89-2.25.63.63,0,0,0-.92-.37,5.07,5.07,0,0,0-2.49,3.55.65.65,0,0,0,.29.7,1.89,1.89,0,0,0,2.9-1.65.63.63,0,0,0-.94-.54,3.64,3.64,0,0,0-1.6,4.18.61.61,0,0,0,.44.44,1.77,1.77,0,0,0,2.13-1.28.63.63,0,0,0-.6-.79c-3-.12-3.15,3.45-3.4,5.58-.47,4-4.75,2.79-7.6,3.18-.79.11-.45,1.31.34,1.2,2.31-.32,5.29.48,7.19-1.27a5,5,0,0,0,1.36-3.52c.11-1.34.15-4,2.11-3.92l-.6-.79-.6.4.43.44a2.36,2.36,0,0,1,1-2.77l-.94-.54a.64.64,0,0,1-1,.57l.29.71a3.87,3.87,0,0,1,1.91-2.8l-.92-.37-.68.66.63.63a5.42,5.42,0,0,1,1.53-4.08l-1.06-.44A1,1,0,0,1,809,104l.76.44c-.95-2.27.14-3.8,1.64-5.41a10.659,10.659,0,0,0,2.33-3.84,10.9,10.9,0,0,0-.69-8.73A10.7,10.7,0,0,0,797.87,83a11,11,0,0,0-4.62,8.28.625.625,0,0,0,1.25,0Z" transform="translate(1566.932 11894.084)" fill="#231f20"/>
        <path id="Path_639" data-name="Path 639" d="M808.55,111.66a29.635,29.635,0,0,0,1,4,7.851,7.851,0,0,0,1.69,3.46c1.76,1.6,4.14.33,6.19.82a.628.628,0,0,0,.33-1.21,9.56,9.56,0,0,0-3,0,3.51,3.51,0,0,1-2.62-.44,3.331,3.331,0,0,1-.8-1.34c-.23-.59-.45-1.19-.64-1.8a30.609,30.609,0,0,1-1-3.8c-.14-.79-1.35-.45-1.2.34Z" transform="translate(1566.932 11894.084)" fill="#231f20"/>
        <path id="Path_640" data-name="Path 640" d="M769.35,259.14c0,2,.84,2.88,2.83,3.05,2.7.24,5.41.43,8.12.61q8,.54,16,.82,16.17.58,32.34.15,9.14-.24,18.26-.82a.63.63,0,0,0,.62-.62c-1-24.75-.17-49.51-.37-74.27-.06-7.21-.21-14.42-.49-21.62l-1.17.31a139.277,139.277,0,0,1,11.92,28.33c2.82,9.41,4.84,19,6.9,28.62,1.26,5.85,2.53,11.71,3.95,17.53.19.78,1.4.45,1.21-.34-4.8-19.7-7.72-40-15.3-58.92a132.5,132.5,0,0,0-7.6-15.85.63.63,0,0,0-1.16.32c1,24.75.16,49.51.37,74.26q.08,10.83.49,21.63l.63-.63a517.155,517.155,0,0,1-60,.25q-4.2-.22-8.38-.52l-4.19-.31-2-.16a3.879,3.879,0,0,1-1.06-.12,1.67,1.67,0,0,1-.76-1.7.63.63,0,0,0-1.25,0Z" transform="translate(1566.932 11894.084)" fill="#231f20"/>
        <path id="Path_641" data-name="Path 641" d="M794.22,114.73c-5.64,1.83-11.42,3.44-16.79,6a55.94,55.94,0,0,0-14.23,10.19c-.59.55.3,1.44.88.89a54.779,54.779,0,0,1,14-10c5.27-2.49,11-4,16.49-5.84.77-.25.44-1.45-.33-1.21Z" transform="translate(1566.932 11894.084)" fill="#231f20"/>
        <path id="Path_642" data-name="Path 642" d="M868.9,240.41c1.6.4,3.75.72,5.15-.39a2.65,2.65,0,0,0-.12-4.18,3.47,3.47,0,0,0-4.69.37c-1.73,1.67-1.79,4.14-1.5,6.37.23,1.77.49,4.14,2.33,5a5.6,5.6,0,0,0,3.17.09c1.52-.22,3-.46,4.54-.72,2.94-.52,5.9-1.05,8.79-1.8a2.81,2.81,0,0,0,1.95-1.21c.54-1,0-2.61-.18-3.68l-5.65-36.87c-1.84-12-3.61-24-6-35.84-1.28-6.26-2.76-12.48-4.49-18.63-.61-2.15-1.24-4.29-2-6.38a16.071,16.071,0,0,0-2.82-5.27c-.54-.6-1.43.29-.88.88,2.15,2.35,3,6.06,3.93,9,1.2,4,2.25,8.11,3.22,12.2,2.27,9.64,4,19.4,5.55,29.18,1.59,10,3.08,19.93,4.61,29.9l2.33,15.24,1.13,7.37c.13.86.61,2.1-.35,2.69a5.2,5.2,0,0,1-1.33.34c-1.26.29-2.53.56-3.79.82q-4.15.86-8.36,1.46c-1.53.23-3.12.52-3.82-1.19a12.68,12.68,0,0,1-.68-3.55,6.05,6.05,0,0,1,.7-3.88c.71-1.09,2.08-1.9,3.32-1.13,1.43.89.91,2.49-.58,2.81a7,7,0,0,1-3.09-.24.63.63,0,0,0-.33,1.21Z" transform="translate(1566.932 11894.084)" fill="#231f20"/>
        <path id="Path_643" data-name="Path 643" d="M893.64,114.37A20.76,20.76,0,0,0,880,136.43a.63.63,0,0,0,.6.46,29.83,29.83,0,0,1,21.06,6.73.63.63,0,0,0,1-.76A51.192,51.192,0,0,1,897.28,128a50.193,50.193,0,0,1-.87-8c0-1.3-.07-2.81.86-3.84a7.52,7.52,0,0,1,3.28-1.66c4.25-1.4,9.72-1.8,12.88,2,2.7,3.25,2.61,8.12,1.44,12-1.67,5.42-5.38,10-7.46,15.22-.25.63.62,1,1,.61,6.49-5.88,14.36-12.61,23.75-11.5.43.05.68-.44.6-.8a26.72,26.72,0,0,0-13.59-17.74l-.63,1.08c15,7.58,30.11,15,44.9,22.94.7.38,1.34-.7.63-1.08-14.79-8-29.91-15.36-44.9-22.94-.71-.36-1.34.7-.63,1.08a25.53,25.53,0,0,1,13,17l.6-.79c-9.72-1.15-17.91,5.78-24.63,11.87l1,.6c2.15-5.41,6-10.06,7.61-15.72,1.15-4.17,1-9.23-1.9-12.68-3.21-3.79-8.55-3.89-13-2.67-2.1.58-4.8,1.33-5.72,3.53-1,2.41-.41,5.68-.1,8.18a52.261,52.261,0,0,0,6.08,18.87l1-.75a31,31,0,0,0-22-7.1l.61.46A19.47,19.47,0,0,1,894,115.58c.76-.26.43-1.47-.33-1.21Z" transform="translate(1566.932 11894.084)" fill="#231f20"/>
        <path id="Path_644" data-name="Path 644" d="M891.41,91.27a9.34,9.34,0,0,1,16.12-6,9.47,9.47,0,0,1,1.68,10.31c-.76,1.71-2.15,2.74-3.2,4.22a5.17,5.17,0,0,0-.5,5,.63.63,0,0,0,.77.43,2.38,2.38,0,0,0,1.67-2.3.63.63,0,0,0-1.07-.44,6.68,6.68,0,0,0-1.9,5,.64.64,0,0,0,.63.62,1.77,1.77,0,0,0,1.88-2.25.63.63,0,0,0-.92-.37,5.1,5.1,0,0,0-2.49,3.55.65.65,0,0,0,.29.7,1.89,1.89,0,0,0,2.9-1.65.63.63,0,0,0-.94-.54,3.64,3.64,0,0,0-1.6,4.18.63.63,0,0,0,.44.44,1.78,1.78,0,0,0,2.14-1.28.63.63,0,0,0-.61-.79c-3-.12-3.14,3.45-3.39,5.58-.47,4-4.76,2.79-7.6,3.18-.8.11-.46,1.31.33,1.2,2.31-.32,5.29.48,7.2-1.27a5.08,5.08,0,0,0,1.35-3.52c.11-1.34.16-4,2.11-3.92l-.6-.79-.6.4.44.44a2.35,2.35,0,0,1,1-2.77l-.94-.54a.64.64,0,0,1-1,.57l.29.71a3.9,3.9,0,0,1,1.91-2.8l-.92-.37-.67.66.62.63a5.39,5.39,0,0,1,1.54-4.08l-1.07-.44A1,1,0,0,1,906,104l.77.44c-1-2.27.13-3.8,1.63-5.41a10.661,10.661,0,0,0,2.33-3.84A10.9,10.9,0,0,0,910,86.5,10.7,10.7,0,0,0,894.78,83a11,11,0,0,0-4.62,8.28.625.625,0,0,0,1.25,0Z" transform="translate(1566.932 11894.084)" fill="#231f20"/>
        <path id="Path_645" data-name="Path 645" d="M905.46,111.66a29.644,29.644,0,0,0,1,4,8,8,0,0,0,1.69,3.46c1.76,1.6,4.15.33,6.19.82a.627.627,0,0,0,.33-1.21,9.56,9.56,0,0,0-3,0,3.51,3.51,0,0,1-2.62-.44,3.43,3.43,0,0,1-.79-1.34c-.24-.59-.45-1.19-.65-1.8a28.929,28.929,0,0,1-1-3.8c-.15-.79-1.35-.45-1.21.34Z" transform="translate(1566.932 11894.084)" fill="#231f20"/>
        <path id="Path_646" data-name="Path 646" d="M866.26,259.14c0,2,.85,2.88,2.83,3.05,2.71.24,5.42.43,8.13.61,5.33.36,10.68.63,16,.82q16.17.58,32.35.15,9.13-.24,18.25-.82a.64.64,0,0,0,.63-.62c-1-24.75-.17-49.51-.37-74.27q-.09-10.81-.5-21.62l-1.16.31a139.252,139.252,0,0,1,11.91,28.33c2.82,9.41,4.84,19,6.9,28.62,1.26,5.85,2.54,11.71,4,17.53.19.78,1.39.45,1.2-.34-4.8-19.7-7.71-40-15.29-58.92a135.625,135.625,0,0,0-7.6-15.85.63.63,0,0,0-1.17.32c1,24.75.17,49.51.37,74.26.06,7.22.21,14.42.5,21.63l.62-.63a517.141,517.141,0,0,1-60,.25c-2.79-.15-5.59-.32-8.38-.52l-4.18-.31-2-.16a3.789,3.789,0,0,1-1.06-.12,1.69,1.69,0,0,1-.77-1.7.63.63,0,0,0-1.25,0Z" transform="translate(1566.932 11894.084)" fill="#231f20"/>
        <path id="Path_647" data-name="Path 647" d="M891.14,114.73c-5.64,1.83-11.42,3.44-16.8,6a55.941,55.941,0,0,0-14.23,10.19c-.58.55.3,1.44.89.89a54.912,54.912,0,0,1,14-10c5.28-2.49,11-4,16.5-5.84.76-.25.43-1.45-.33-1.21Z" transform="translate(1566.932 11894.084)" fill="#231f20"/>
        <path id="Path_648" data-name="Path 648" d="M965.81,240.41c1.61.4,3.75.72,5.16-.39a2.65,2.65,0,0,0-.12-4.18,3.48,3.48,0,0,0-4.7.37c-1.73,1.67-1.78,4.14-1.49,6.37.23,1.77.48,4.14,2.33,5a5.56,5.56,0,0,0,3.16.09c1.52-.22,3-.46,4.55-.72,2.93-.52,5.9-1.05,8.78-1.8a2.85,2.85,0,0,0,2-1.21c.53-1,0-2.61-.18-3.68l-5.66-36.87c-1.83-12-3.6-24-6-35.84-1.28-6.26-2.76-12.48-4.49-18.63-.61-2.15-1.24-4.29-2-6.38a16.07,16.07,0,0,0-2.82-5.27c-.54-.6-1.42.29-.88.88,2.15,2.35,3,6.06,3.93,9,1.2,4,2.26,8.11,3.22,12.2,2.28,9.64,4,19.4,5.55,29.18,1.59,10,3.08,19.93,4.61,29.9L983,233.7l1.13,7.37c.13.86.6,2.1-.36,2.69a5.1,5.1,0,0,1-1.33.34c-1.26.29-2.52.56-3.79.82q-4.15.86-8.35,1.46c-1.53.23-3.12.52-3.83-1.19a12.318,12.318,0,0,1-.67-3.55,6,6,0,0,1,.69-3.88c.71-1.09,2.08-1.9,3.32-1.13,1.43.89.91,2.49-.57,2.81a7.08,7.08,0,0,1-3.1-.24.63.63,0,0,0-.33,1.21Z" transform="translate(1566.932 11894.084)" fill="#231f20"/>
      </g>
      <g id="Group_138" data-name="Group 138" transform="translate(2225 5318)">
        <circle id="Ellipse_127" data-name="Ellipse 127" cx="32" cy="32" r="32" transform="translate(3094 12734)" fill="#a9d767"/>
        <g id="Group_105" data-name="Group 105" transform="translate(2945 1904)">
          <path id="Path_703-2" data-name="Path 703" d="M233.09,209.64c-6.61,15.2.72,31.81,7.36,45.63a469.642,469.642,0,0,0,25.26,45.79q3.46,5.54,7.1,11c2.18,3.28,4.31,6.63,6.74,9.73,2,2.51,4.46,5,7.69,5.73a10,10,0,0,0,8.43-2.41c2.8-2.26,4.81-5.35,6.84-8.29l7.94-11.5,15.9-23,7.94-11.5c1.28-1.85,2.59-3.67,3.81-5.55a14.431,14.431,0,0,0,2.32-5.09c.74-4-1.92-7-4.15-10L327.94,239l-33.19-44.47c-4.5-6-8.92-12.53-15.23-16.84a25.23,25.23,0,0,0-20.39-3.53,24.31,24.31,0,0,0-15.61,12.6c-2.93,5.79-3.86,13-1.29,19.11,2.12,5,7.81,10.1,13.42,6.8a8.69,8.69,0,0,0,4.25-6.11c.37-2.84-1.38-4.95-3.89-6-1.55-.67-3.21-1-4.73-1.8a15.35,15.35,0,0,1-3.39-2.3,27.72,27.72,0,0,1-5.13-6.47c-2.89-4.75-5.1-9.95-8.62-14.3a20,20,0,0,0-5.95-5.08c-.71-.39-1.34.69-.63,1.08,9.41,5.12,11.26,17.22,18.32,24.57a17.38,17.38,0,0,0,5.85,4.07c2.7,1.11,6.93,1.74,7,5.45a7.36,7.36,0,0,1-4.4,6.23c-2.84,1.26-6-.07-8-2.14-4.61-4.62-5.06-12.08-3.38-18.05a23.51,23.51,0,0,1,12.67-15,24,24,0,0,1,20.57.39c6.38,3.29,10.89,9.14,15.1,14.76q15.45,20.67,30.87,41.37c5.06,6.78,10.29,13.45,15.18,20.35a8.71,8.71,0,0,1,2,5.38,11.42,11.42,0,0,1-2.17,5.46c-2.28,3.56-4.79,7-7.19,10.45l-29.37,42.51c-3.57,5.15-9.25,12.11-16.07,7.52-2.91-2-4.88-5.07-6.83-7.91q-3.44-5-6.75-10.09a468.672,468.672,0,0,1-24.2-41.83c-3.65-7.12-7.32-14.31-10.26-21.76-2.77-7-4.95-14.49-4.71-22.09a29.84,29.84,0,0,1,2.41-11c.32-.73-.76-1.37-1.08-.63Z" transform="translate(-102.48 10619.3)" fill="#231f20"/>
          <path id="Path_704-2" data-name="Path 704" d="M293.65,260.54c-5,6.18-14.3,6.08-20.38,1.69-6.74-4.87-11.17-14.15-10.06-22.45a19,19,0,0,1,4.89-10.3,18.49,18.49,0,0,1,11.16-5.63c8.26-1.21,18.45.36,23.78,7.44,2.54,3.39,3.87,8.14,2.26,12.21-.76,1.94-2.44,3.91-4.66,4-1.79.1-4.26-1.1-3.65-3.23h-1.2L301,259.68a.64.64,0,0,0,1,.28,29.45,29.45,0,0,0,8.82-13c.25-.77-1-1.09-1.2-.33a28.21,28.21,0,0,1-8.51,12.47l1.05.28L297,244a.63.63,0,0,0-1.2,0c-1,3.59,3.5,5.55,6.38,4.51,3.95-1.44,5.37-6.23,5-10.05-.95-9.81-10.45-15.08-19.37-16-5-.52-10.62-.18-15.22,2.1a19.65,19.65,0,0,0-9,9.57c-4,8.88-.69,19.3,5.68,26.18a18.71,18.71,0,0,0,12.81,6.36,15.28,15.28,0,0,0,12.48-5.24c.5-.62-.37-1.51-.88-.88Z" transform="translate(-102.48 10619.3)" fill="#231f20"/>
        </g>
      </g>
    </g>
    <g id="Group_250" data-name="Group 250" transform="translate(-105 -1286)">
      <circle id="Ellipse_123" data-name="Ellipse 123" cx="93.36" cy="93.36" r="93.36" transform="translate(4799.718 18240.363)" fill="#f9e76f"/>
      <path id="Path_775" data-name="Path 775" d="M29.167,0A29.167,29.167,0,1,1,0,29.167,29.167,29.167,0,0,1,29.167,0Z" transform="translate(4928 18413)" fill="#a9d767"/>
      <g id="Group_117" data-name="Group 117" transform="translate(1280 4333)">
        <g id="Group_113" data-name="Group 113" transform="translate(3034 2027)">
          <g id="Group_97" data-name="Group 97" transform="translate(-4007 2308)">
            <path id="Path_732" data-name="Path 732" d="M532.61,218.45c-3.76-.67-6,4.37-4.19,7.29,2.07,3.37,7.2,2.54,8.89-.73a8.1,8.1,0,0,0-3.79-10.68,9.07,9.07,0,0,0-10,2.24c-3,3.16-3.14,8-1.55,11.86a12.06,12.06,0,0,0,10,7.65c4.91.49,9.58-1.93,12.74-5.58,3.75-4.33,6.05-9.71,9.68-14.15a143.593,143.593,0,0,1,12.6-12.8l14.86-14.1,14.49-13.75,7.25-6.88c2.1-2,4.45-3.91,6-6.39,2.41-3.84,1.88-8.7-.47-12.44a12.83,12.83,0,0,0-11.72-6c-11.66.58-19,12.1-25.77,20.08A441.6,441.6,0,0,1,519.13,216q-3.48,2.9-7,5.72l1,.13a107.861,107.861,0,0,0-7.55-12.44A62.151,62.151,0,0,0,497,199.29c-6.54-6-15-7.66-23.67-7.06-9.49.65-18.7,3.75-28.25,3.74a31,31,0,0,1-13.52-2.91,37.191,37.191,0,0,1-9.65-6.89c-6.7-6.47-11.58-14.6-16.08-22.68l-.22.86a403.958,403.958,0,0,0,38.54-21.72q9.19-5.85,18.06-12.2,4.54-3.26,9-6.62c1.32-1,2.63-2,4.35-2a10.37,10.37,0,0,1,4.78,1.38c5,2.67,8.24,7.73,12,11.76a27.91,27.91,0,0,0,15.39,8.7,26.23,26.23,0,0,0,16.91-2.8c5.72-3,10.7-7.33,16.75-9.66,16.14-6.22,31.38,6.28,42.93,16,.61.52,1.5-.36.88-.88-10.48-8.82-22.79-19.19-37.46-17.87-13.24,1.19-21.73,14.3-35.27,14.38a25.5,25.5,0,0,1-17.47-7c-4.21-4-7.36-9-12.07-12.48a13.05,13.05,0,0,0-7.39-2.81c-3.22,0-5.91,2.88-8.33,4.67q-9.15,6.78-18.65,13a405.349,405.349,0,0,1-43.6,25,.64.64,0,0,0-.22.85c7.4,13.3,17.08,29.13,33.22,32.41,9.53,1.94,19.12-.71,28.5-2.23,8.73-1.42,18.38-1.85,26.13,3.13,4.37,2.82,7.73,7,10.77,11.17A106.54,106.54,0,0,1,512,222.51a.64.64,0,0,0,1,.13,437.928,437.928,0,0,0,47.27-44q5.46-5.88,10.71-12c3.46-4,6.72-8.19,10.29-12.09s7.47-7.31,12.49-8.75c4.55-1.3,9.64-.61,12.94,3,2.8,3.08,4.21,7.89,2.39,11.81-1.1,2.36-3.11,4.11-5,5.87l-6.53,6.19L572.05,197c-4.1,3.89-8.26,7.75-12.3,11.71A68.239,68.239,0,0,0,550,220.18c-2.68,4.15-4.88,9-9,12-3.7,2.71-8.87,3.69-13,1.44A11.86,11.86,0,0,1,522.23,223a8.25,8.25,0,0,1,7.12-8,6.65,6.65,0,0,1,7.46,7.1c-.12,2.26-1.48,4.33-3.86,4.59a3.41,3.41,0,0,1-3.92-3.28c0-1.69,1.26-4.07,3.24-3.71.79.14,1.13-1.06.34-1.21Z" transform="translate(3928.448 9514.713)" fill="#231f20"/>
          </g>
          <g id="Group_98" data-name="Group 98" transform="translate(-3972 2179)">
            <path id="Path_732-2" data-name="Path 732" d="M532.61,218.45c-3.76-.67-6,4.37-4.19,7.29,2.07,3.37,7.2,2.54,8.89-.73a8.1,8.1,0,0,0-3.79-10.68,9.07,9.07,0,0,0-10,2.24c-3,3.16-3.14,8-1.55,11.86a12.06,12.06,0,0,0,10,7.65c4.91.49,9.58-1.93,12.74-5.58,3.75-4.33,6.05-9.71,9.68-14.15a143.593,143.593,0,0,1,12.6-12.8l14.86-14.1,14.49-13.75,7.25-6.88c2.1-2,4.45-3.91,6-6.39,2.41-3.84,1.88-8.7-.47-12.44a12.83,12.83,0,0,0-11.72-6c-11.66.58-19,12.1-25.77,20.08A441.6,441.6,0,0,1,519.13,216q-3.48,2.9-7,5.72l1,.13a107.861,107.861,0,0,0-7.55-12.44A62.151,62.151,0,0,0,497,199.29c-6.54-6-15-7.66-23.67-7.06-9.49.65-18.7,3.75-28.25,3.74a31,31,0,0,1-13.52-2.91,37.191,37.191,0,0,1-9.65-6.89c-6.7-6.47-11.58-14.6-16.08-22.68l-.22.86a403.958,403.958,0,0,0,38.54-21.72q9.19-5.85,18.06-12.2,4.54-3.26,9-6.62c1.32-1,2.63-2,4.35-2a10.37,10.37,0,0,1,4.78,1.38c5,2.67,8.24,7.73,12,11.76a27.91,27.91,0,0,0,15.39,8.7,26.23,26.23,0,0,0,16.91-2.8c5.72-3,10.7-7.33,16.75-9.66,16.14-6.22,31.38,6.28,42.93,16,.61.52,1.5-.36.88-.88-10.48-8.82-22.79-19.19-37.46-17.87-13.24,1.19-21.73,14.3-35.27,14.38a25.5,25.5,0,0,1-17.47-7c-4.21-4-7.36-9-12.07-12.48a13.05,13.05,0,0,0-7.39-2.81c-3.22,0-5.91,2.88-8.33,4.67q-9.15,6.78-18.65,13a405.349,405.349,0,0,1-43.6,25,.64.64,0,0,0-.22.85c7.4,13.3,17.08,29.13,33.22,32.41,9.53,1.94,19.12-.71,28.5-2.23,8.73-1.42,18.38-1.85,26.13,3.13,4.37,2.82,7.73,7,10.77,11.17A106.54,106.54,0,0,1,512,222.51a.64.64,0,0,0,1,.13,437.928,437.928,0,0,0,47.27-44q5.46-5.88,10.71-12c3.46-4,6.72-8.19,10.29-12.09s7.47-7.31,12.49-8.75c4.55-1.3,9.64-.61,12.94,3,2.8,3.08,4.21,7.89,2.39,11.81-1.1,2.36-3.11,4.11-5,5.87l-6.53,6.19L572.05,197c-4.1,3.89-8.26,7.75-12.3,11.71A68.239,68.239,0,0,0,550,220.18c-2.68,4.15-4.88,9-9,12-3.7,2.71-8.87,3.69-13,1.44A11.86,11.86,0,0,1,522.23,223a8.25,8.25,0,0,1,7.12-8,6.65,6.65,0,0,1,7.46,7.1c-.12,2.26-1.48,4.33-3.86,4.59a3.41,3.41,0,0,1-3.92-3.28c0-1.69,1.26-4.07,3.24-3.71.79.14,1.13-1.06.34-1.21Z" transform="translate(3928.448 9514.713)" fill="#231f20"/>
          </g>
          <g id="Group_99" data-name="Group 99" transform="translate(-3799 2237)">
            <path id="Path_732-3" data-name="Path 732" d="M532.61,218.45c-3.76-.67-6,4.37-4.19,7.29,2.07,3.37,7.2,2.54,8.89-.73a8.1,8.1,0,0,0-3.79-10.68,9.07,9.07,0,0,0-10,2.24c-3,3.16-3.14,8-1.55,11.86a12.06,12.06,0,0,0,10,7.65c4.91.49,9.58-1.93,12.74-5.58,3.75-4.33,6.05-9.71,9.68-14.15a143.593,143.593,0,0,1,12.6-12.8l14.86-14.1,14.49-13.75,7.25-6.88c2.1-2,4.45-3.91,6-6.39,2.41-3.84,1.88-8.7-.47-12.44a12.83,12.83,0,0,0-11.72-6c-11.66.58-19,12.1-25.77,20.08A441.6,441.6,0,0,1,519.13,216q-3.48,2.9-7,5.72l1,.13a107.861,107.861,0,0,0-7.55-12.44A62.151,62.151,0,0,0,497,199.29c-6.54-6-15-7.66-23.67-7.06-9.49.65-18.7,3.75-28.25,3.74a31,31,0,0,1-13.52-2.91,37.191,37.191,0,0,1-9.65-6.89c-6.7-6.47-11.58-14.6-16.08-22.68l-.22.86a403.958,403.958,0,0,0,38.54-21.72q9.19-5.85,18.06-12.2,4.54-3.26,9-6.62c1.32-1,2.63-2,4.35-2a10.37,10.37,0,0,1,4.78,1.38c5,2.67,8.24,7.73,12,11.76a27.91,27.91,0,0,0,15.39,8.7,26.23,26.23,0,0,0,16.91-2.8c5.72-3,10.7-7.33,16.75-9.66,16.14-6.22,31.38,6.28,42.93,16,.61.52,1.5-.36.88-.88-10.48-8.82-22.79-19.19-37.46-17.87-13.24,1.19-21.73,14.3-35.27,14.38a25.5,25.5,0,0,1-17.47-7c-4.21-4-7.36-9-12.07-12.48a13.05,13.05,0,0,0-7.39-2.81c-3.22,0-5.91,2.88-8.33,4.67q-9.15,6.78-18.65,13a405.349,405.349,0,0,1-43.6,25,.64.64,0,0,0-.22.85c7.4,13.3,17.08,29.13,33.22,32.41,9.53,1.94,19.12-.71,28.5-2.23,8.73-1.42,18.38-1.85,26.13,3.13,4.37,2.82,7.73,7,10.77,11.17A106.54,106.54,0,0,1,512,222.51a.64.64,0,0,0,1,.13,437.928,437.928,0,0,0,47.27-44q5.46-5.88,10.71-12c3.46-4,6.72-8.19,10.29-12.09s7.47-7.31,12.49-8.75c4.55-1.3,9.64-.61,12.94,3,2.8,3.08,4.21,7.89,2.39,11.81-1.1,2.36-3.11,4.11-5,5.87l-6.53,6.19L572.05,197c-4.1,3.89-8.26,7.75-12.3,11.71A68.239,68.239,0,0,0,550,220.18c-2.68,4.15-4.88,9-9,12-3.7,2.71-8.87,3.69-13,1.44A11.86,11.86,0,0,1,522.23,223a8.25,8.25,0,0,1,7.12-8,6.65,6.65,0,0,1,7.46,7.1c-.12,2.26-1.48,4.33-3.86,4.59a3.41,3.41,0,0,1-3.92-3.28c0-1.69,1.26-4.07,3.24-3.71.79.14,1.13-1.06.34-1.21Z" transform="translate(3928.448 9514.713)" fill="#231f20"/>
          </g>
        </g>
        <g id="Group_116" data-name="Group 116" transform="translate(-819 278)">
          <path id="Path_703-3" data-name="Path 703" d="M233.09,209.64c-6.61,15.2.72,31.81,7.36,45.63a469.642,469.642,0,0,0,25.26,45.79q3.46,5.54,7.1,11c2.18,3.28,4.31,6.63,6.74,9.73,2,2.51,4.46,5,7.69,5.73a10,10,0,0,0,8.43-2.41c2.8-2.26,4.81-5.35,6.84-8.29l7.94-11.5,15.9-23,7.94-11.5c1.28-1.85,2.59-3.67,3.81-5.55a14.431,14.431,0,0,0,2.32-5.09c.74-4-1.92-7-4.15-10L327.94,239l-33.19-44.47c-4.5-6-8.92-12.53-15.23-16.84a25.23,25.23,0,0,0-20.39-3.53,24.31,24.31,0,0,0-15.61,12.6c-2.93,5.79-3.86,13-1.29,19.11,2.12,5,7.81,10.1,13.42,6.8a8.69,8.69,0,0,0,4.25-6.11c.37-2.84-1.38-4.95-3.89-6-1.55-.67-3.21-1-4.73-1.8a15.35,15.35,0,0,1-3.39-2.3,27.72,27.72,0,0,1-5.13-6.47c-2.89-4.75-5.1-9.95-8.62-14.3a20,20,0,0,0-5.95-5.08c-.71-.39-1.34.69-.63,1.08,9.41,5.12,11.26,17.22,18.32,24.57a17.38,17.38,0,0,0,5.85,4.07c2.7,1.11,6.93,1.74,7,5.45a7.36,7.36,0,0,1-4.4,6.23c-2.84,1.26-6-.07-8-2.14-4.61-4.62-5.06-12.08-3.38-18.05a23.51,23.51,0,0,1,12.67-15,24,24,0,0,1,20.57.39c6.38,3.29,10.89,9.14,15.1,14.76q15.45,20.67,30.87,41.37c5.06,6.78,10.29,13.45,15.18,20.35a8.71,8.71,0,0,1,2,5.38,11.42,11.42,0,0,1-2.17,5.46c-2.28,3.56-4.79,7-7.19,10.45l-29.37,42.51c-3.57,5.15-9.25,12.11-16.07,7.52-2.91-2-4.88-5.07-6.83-7.91q-3.44-5-6.75-10.09a468.672,468.672,0,0,1-24.2-41.83c-3.65-7.12-7.32-14.31-10.26-21.76-2.77-7-4.95-14.49-4.71-22.09a29.84,29.84,0,0,1,2.41-11c.32-.73-.76-1.37-1.08-.63Z" transform="translate(4157.52 13555.3)" fill="#231f20"/>
          <path id="Path_704-3" data-name="Path 704" d="M293.65,260.54c-5,6.18-14.3,6.08-20.38,1.69-6.74-4.87-11.17-14.15-10.06-22.45a19,19,0,0,1,4.89-10.3,18.49,18.49,0,0,1,11.16-5.63c8.26-1.21,18.45.36,23.78,7.44,2.54,3.39,3.87,8.14,2.26,12.21-.76,1.94-2.44,3.91-4.66,4-1.79.1-4.26-1.1-3.65-3.23h-1.2L301,259.68a.64.64,0,0,0,1,.28,29.45,29.45,0,0,0,8.82-13c.25-.77-1-1.09-1.2-.33a28.21,28.21,0,0,1-8.51,12.47l1.05.28L297,244a.63.63,0,0,0-1.2,0c-1,3.59,3.5,5.55,6.38,4.51,3.95-1.44,5.37-6.23,5-10.05-.95-9.81-10.45-15.08-19.37-16-5-.52-10.62-.18-15.22,2.1a19.65,19.65,0,0,0-9,9.57c-4,8.88-.69,19.3,5.68,26.18a18.71,18.71,0,0,0,12.81,6.36,15.28,15.28,0,0,0,12.48-5.24c.5-.62-.37-1.51-.88-.88Z" transform="translate(4157.52 13555.3)" fill="#231f20"/>
        </g>
      </g>
    </g>
    <g id="Group_203" data-name="Group 203" transform="matrix(-0.438, -0.899, 0.899, -0.438, -9060.988, 29499.684)">
      <path id="Path_780" data-name="Path 780" d="M-5.844,0s-.09,39.194-.09,73.474.092,63.645.092,63.645" transform="matrix(0.891, 0.454, -0.454, 0.891, 5030.052, 18080.863)" fill="none" stroke="#202124" stroke-linecap="round" stroke-width="2"/>
      <line id="Line_15" data-name="Line 15" x1="11.894" y2="18.895" transform="matrix(0.891, 0.454, -0.454, 0.891, 5013.182, 18072.268)" fill="none" stroke="#202124" stroke-linecap="round" stroke-width="2"/>
      <line id="Line_16" data-name="Line 16" x1="7" y2="23" transform="translate(5017.921 18080.119) rotate(-18)" fill="none" stroke="#202124" stroke-linecap="round" stroke-width="2"/>
    </g>
    <g id="Group_206" data-name="Group 206" transform="translate(121 -1376)">
      <g id="Group_183" data-name="Group 183" transform="translate(1239 5544)">
        <circle id="Ellipse_111" data-name="Ellipse 111" cx="53.96" cy="53.96" r="53.96" transform="translate(4687.642 12376.01)" fill="#b9ddd5"/>
        <path id="Path_655" data-name="Path 655" d="M337.2,32.05a20.66,20.66,0,0,0-21.12,14.64.64.64,0,0,0,.43.77A29.65,29.65,0,0,1,333,62.06a.63.63,0,0,0,1.17-.32,50.76,50.76,0,0,1,1.07-16,49.081,49.081,0,0,1,2.3-7.33,6.32,6.32,0,0,1,1.91-3c1.13-.78,2.64-.6,3.93-.5,4.11.35,8.88,1.84,10.73,5.9,2,4.38-.34,9.59-3.33,12.9-3.69,4.07-8.67,6.7-12.56,10.56a.63.63,0,0,0,.61,1c8.24-2.78,18.14-5.84,26.26-1.09a.64.64,0,0,0,.92-.38A26.74,26.74,0,0,0,360.64,42l-.88.88L375.85,62.4c4.1,5,8.28,9.87,12.26,14.94.5.63,1.37-.26.88-.88-4-5.08-8.16-10-12.26-14.95L360.64,42c-.52-.62-1.38.27-.88.88a25.42,25.42,0,0,1,5.05,20.56l.92-.37c-8.44-4.93-18.64-1.93-27.23,1l.61,1c4.06-4,9.38-6.71,13.06-11.13,2.89-3.47,5-8.52,3.37-13s-6.3-6.56-10.74-7.18c-2.09-.29-4.74-.67-6.44.86s-2.53,4.61-3.24,6.82a51.58,51.58,0,0,0-2.19,20.28l1.16-.31a30.92,30.92,0,0,0-17.24-15.17l.43.76A19.43,19.43,0,0,1,337.2,33.3C338,33.37,338,32.12,337.2,32.05Z" transform="translate(4281.842 12314.09)" fill="#231f20"/>
        <path id="Path_656" data-name="Path 656" d="M334.77,31.38a101.7,101.7,0,0,0-39,3.81,51,51,0,0,0-8.48,3.11,20.61,20.61,0,0,0-6.52,5.7q-6.31,7.69-12.51,15.49C260.1,69.78,252.12,80.21,244.62,91q-5.62,8-10.87,16.37c-1.76,2.81-3.49,5.65-5.16,8.51-1.21,2.08-3.54,4.84-1.32,7a35,35,0,0,0,4.18,3.06l4.75,3.4c1.57,1.12,3.12,2.26,4.7,3.36a8.5,8.5,0,0,0,4,1.79,4.36,4.36,0,0,0,4.66-4.3,4.44,4.44,0,0,0-4.75-4.13.63.63,0,0,0-.54.31c-.86,1.76.74,3.64,2.59,3.64,2.41,0,4.31-2.51,5.8-4.09A109.412,109.412,0,0,0,263,113c6.37-9.2,11.73-19,17.82-28.41A128.412,128.412,0,0,1,292.47,69l-1-.61q-13.1,32.47-27.47,64.35-3.53,7.83-7.12,15.61l-1.75,3.78c-.44,1-1.15,2.06-1,3.16a2.31,2.31,0,0,0,1.21,1.61c1.22.78,2.58,1.4,3.87,2.08q14.75,7.8,30,14.65,17.13,7.69,34.79,14.13a.63.63,0,0,0,.76-.44c9-23.08,19.68-45.44,29.4-68.23q4.17-9.77,8.05-19.66L361,99.27a138.851,138.851,0,0,1-.38,30.43c-1.17,9.82-3.19,19.52-5.16,29.21-1.17,5.79-2.33,11.59-3.34,17.42-.14.79,1.06,1.12,1.2.33,3.46-19.8,8.85-39.4,9.54-59.58a132.379,132.379,0,0,0-.61-17.81A.631.631,0,1,0,361,99.1c-9,23.08-19.68,45.45-29.39,68.23q-4.17,9.76-8.05,19.66l.77-.44a513.745,513.745,0,0,1-59.64-26.13c-2.38-1.23-4.76-2.48-7.12-3.75a8.779,8.779,0,0,1-1.57-.85c-1-.87-.42-1.64,0-2.61l1.75-3.78q3.56-7.68,7-15.39,6.9-15.3,13.51-30.74,7.35-17.2,14.34-34.56c.24-.58-.64-1-1-.61-13.48,15.13-21.48,34.06-33.86,50-1.74,2.25-3.57,4.43-5.51,6.51a36.337,36.337,0,0,1-2.81,2.87,5,5,0,0,1-1.95,1.21c-.87.23-2.7-.41-2.08-1.67l-.54.31c3-.21,4.82,3.58,2.14,5.44s-5.8-1.38-7.77-2.79l-7.53-5.38c-1.17-.84-2.82-1.67-3.72-2.8-1.1-1.41.62-3.41,1.36-4.69,5.9-10.14,12.37-19.94,19.18-29.49s14.12-19,21.51-28.31q5.49-6.9,11.08-13.72c1.78-2.18,3.56-4.4,6-5.82a40.39,40.39,0,0,1,8-3.1,100.71,100.71,0,0,1,39.6-4c.8.08.8-1.17,0-1.25Z" transform="translate(4281.842 12314.09)" fill="#231f20"/>
        <path id="Path_657" data-name="Path 657" d="M352.47,176.11c1.86,2,5.57.78,6.21-1.8.39-1.56-.61-2.22-2.11-2.21a5,5,0,0,0-3.94,2.37c-1.14,1.81-1.19,4.16-1.13,6.23.05,1.76.69,2.9,2.55,3.1,5.4.58,10.88.72,16.3,1.07,2.17.14,5.3.94,7.19-.52,1.54-1.2,1.8-3.33,2-5.14.07-.8-1.18-.79-1.25,0-.14,1.6-.37,3.85-2.12,4.5a8.32,8.32,0,0,1-3.3.07l-3-.19-12.93-.85a21.067,21.067,0,0,1-3.08-.22c-1.36-.28-1.11-2-1.09-3.1,0-1.94.28-4.2,2-5.42a3,3,0,0,1,2.27-.62c.88.25.31,1.15-.16,1.61a2.47,2.47,0,0,1-3.51.24c-.56-.59-1.44.3-.89.88Z" transform="translate(4281.842 12314.09)" fill="#231f20"/>
        <path id="Path_660" data-name="Path 660" d="M482.94,187.32c-21.12,2.82-43.48.62-62.07-10.45A67.81,67.81,0,0,1,400,157.81a64.74,64.74,0,0,1-10.69-27.71,94.441,94.441,0,0,1,.88-31c1.91-10.41,5-20.95,11.74-29.32,6.46-8,15.29-14.05,24.31-18.83,10-5.31,20.83-8.32,32.23-7.84,19.27.81,38.58,9.2,52.74,22.2C524.88,77.89,533.5,95.09,534,113.76a61.911,61.911,0,0,1-5.17,26.71,53.762,53.762,0,0,1-7.17,11.81,96.5,96.5,0,0,1-9.95,10.17c-3.5,3.2-7.06,6.36-10.28,9.85a54.3,54.3,0,0,0-4.3,5.27,32.842,32.842,0,0,0-1.83,2.79,4.77,4.77,0,0,0-.93,2.38c0,2.85,3.45,3.77,5.28,2,1.19-1.17,2.31-2.42,3.46-3.63l10.85-11.41,1-1c.62-.65,1.25-1.29,1.91-1.9a11.07,11.07,0,0,1,3.26-2.53,3.2,3.2,0,0,1,4,2.19c.78,2.45-1.66,3.85-3.32,5.09-4.21,3.14-8.28,6.2-11.6,10.32-1.16,1.43-2.59,3-2.69,4.9a4.89,4.89,0,0,0,1.71,3.84,5.21,5.21,0,0,0,3.9,1.29c1.76-.18,2.87-1.34,3.88-2.69,2.9-3.85,5.12-8.15,7.95-12,2.61-3.61,5.82-6.91,10-8.55l-.7-.29c3.38,7.74,10.33,12.91,16.84,17.91l10.27,7.91,36.75,28.27,26.9,20.7a14.9,14.9,0,0,1,4.61,5.33,10.63,10.63,0,0,1,.54,8.09,12.29,12.29,0,0,1-3.75,5c-3.57,3.06-7.93,5.07-11.45,8.2a17.761,17.761,0,0,0-2.28,2.39c-.88,1.1-1.85,3.37-3.61,2.49-1.37-.68-2-2.94-2.73-4.19a39,39,0,0,0-2.83-4.16c-4.18-5.44-9.47-9.87-14.8-14.13q-9.15-7.32-18.39-14.56c-12.39-9.7-25-19.21-38-28q-4.73-3.19-9.53-6.26c-.68-.44-1.31.65-.64,1.08,13.57,8.64,26.58,18.12,39.33,27.92,6.5,5,12.93,10.07,19.35,15.17,5.7,4.53,11.61,8.92,16.79,14.06a50,50,0,0,1,6.79,8.15c.92,1.43,1.65,2.95,2.47,4.43a3.15,3.15,0,0,0,5.74.24,24.485,24.485,0,0,1,2.31-2.86,35.588,35.588,0,0,1,5.83-4.46c3.65-2.39,8-4.78,10-8.81,2.5-4.84.72-10.79-3.07-14.42a84.27,84.27,0,0,0-7-5.48l-15.21-11.7-19.54-15-18.9-14.54-13.27-10.21c-4.41-3.4-9-6.68-12.81-10.73a29.128,29.128,0,0,1-5.68-8.35.63.63,0,0,0-.71-.29c-8.86,3.44-12.69,12.62-17.8,19.88-1.23,1.75-2.59,3.87-5.06,3.3a3.93,3.93,0,0,1-3-3.43,4.18,4.18,0,0,1,1-2.67,41.727,41.727,0,0,1,2.72-3.37,44.512,44.512,0,0,1,6.05-5.59c2.12-1.63,4.4-3.08,6.41-4.84a4.28,4.28,0,0,0,1.51-4.08,4.43,4.43,0,0,0-6.67-3,34.058,34.058,0,0,0-5.74,5.33l-5,5.3c-3.08,3.24-6.05,6.67-9.28,9.76a1.75,1.75,0,0,1-2.82-2,32.189,32.189,0,0,1,4.12-6,99.26,99.26,0,0,1,10.24-10.37c7-6.36,13.69-12.75,18.12-21.19a62,62,0,0,0,6.83-25.82,68.44,68.44,0,0,0-18.8-49.79,87.06,87.06,0,0,0-48.74-25.81,62.46,62.46,0,0,0-32.95,2.9A90.049,90.049,0,0,0,408,61.8a53.37,53.37,0,0,0-9.83,11.11,56,56,0,0,0-6.44,14.43A105.738,105.738,0,0,0,387.18,118a75.719,75.719,0,0,0,5.76,29.66,63.13,63.13,0,0,0,17,22.82c15.63,13.45,36.18,19.2,56.54,19.2a124.754,124.754,0,0,0,16.5-1.14c.78-.1.79-1.35,0-1.25Z" transform="translate(4281.842 12314.09)" fill="#231f20"/>
        <path id="Path_680" data-name="Path 680" d="M530.91,114.54a182.827,182.827,0,0,0-27.06-25.93c-9.56-7.42-20.06-14.94-32.11-17.49-10.95-2.31-22.48-.72-32.75,3.58a67.48,67.48,0,0,0-26.31,20.22,97.681,97.681,0,0,0-17.12,33.67.62.62,0,0,0,.29.7c8.13,4.64,16.49,9.06,25.46,11.85,9.4,2.93,19.31,3.84,29.05,4.86s19.58,1.67,29.16-.46c8.83-2,16.88-6.33,24.37-11.27,9.23-6.08,18.09-12.77,27.08-19.21a.64.64,0,0,0,0-1.08l-18.49-11.46C506.72,99,501,95.27,495.12,91.91c-10.85-6.2-23.12-11-35.66-7.33-10.7,3.14-20.95,10.43-26.11,20.47-4.93,9.58-4.74,22,2.38,30.47,6.79,8.08,17.9,10.71,28,11.37,5.82.38,12,.54,17.05-2.84a26,26,0,0,0,9.41-12.23A32.4,32.4,0,0,0,487,102.59c-5.68-8.49-15.58-13.39-25.64-14a33.9,33.9,0,0,0-14.78,2.31,50.13,50.13,0,0,0-14.55,9.62c-8.89,8-16.33,18-27.17,23.56A33.11,33.11,0,0,1,396.7,127c-.79.17-.46,1.37.33,1.21,11-2.32,19.4-10.3,27-18.05s15.87-16.55,27-19.37A34.1,34.1,0,0,1,479,96.09a30.1,30.1,0,0,1,11.94,26c-.56,10.47-7.08,22.29-18.43,23.54a57.56,57.56,0,0,1-16.25-.9,38.71,38.71,0,0,1-14.08-5.21,23.48,23.48,0,0,1-9.62-12,27.66,27.66,0,0,1-.41-16c2.79-10.47,11.3-18.43,20.8-23a35.48,35.48,0,0,1,18-3.9c6.16.43,12.08,2.58,17.58,5.27s10.87,6.08,16.15,9.35l17.23,10.68,8.41,5.21V114c-7.87,5.64-15.67,11.38-23.63,16.88-7.34,5.06-15.07,9.82-23.65,12.45-9.29,2.84-19.06,2.7-28.64,1.84-9.74-.87-19.7-1.76-29.19-4.2-10.23-2.62-19.63-7.54-28.75-12.74l.28.71c6.25-21,18.9-41.36,39.06-51.4a55.6,55.6,0,0,1,32.46-5.74c12.07,1.71,22.42,8.53,32,15.67a181.587,181.587,0,0,1,29.74,28c.52.61,1.4-.28.89-.89Z" transform="translate(4281.842 12314.09)" fill="#231f20"/>
      </g>
    </g>
    <g id="Group_251" data-name="Group 251" transform="matrix(-0.454, -0.891, 0.891, -0.454, -8031.7, 29737.047)">
      <path id="Path_780-2" data-name="Path 780" d="M-5.844,0s-.09,39.194-.09,73.474.092,63.645.092,63.645" transform="matrix(0.891, 0.454, -0.454, 0.891, 5030.052, 18080.863)" fill="none" stroke="#202124" stroke-linecap="round" stroke-width="2"/>
      <line id="Line_15-2" data-name="Line 15" x1="11.894" y2="18.895" transform="matrix(0.891, 0.454, -0.454, 0.891, 5013.182, 18072.268)" fill="none" stroke="#202124" stroke-linecap="round" stroke-width="2"/>
      <line id="Line_16-2" data-name="Line 16" x1="7" y2="23" transform="translate(5017.921 18080.119) rotate(-18)" fill="none" stroke="#202124" stroke-linecap="round" stroke-width="2"/>
    </g>
    <g id="Group_252" data-name="Group 252" transform="matrix(0.454, -0.891, 0.891, 0.454, 5679.471, 16602.609)">
      <path id="Path_780-3" data-name="Path 780" d="M.09,137.118S0,97.924,0,63.645.092,0,.092,0" transform="matrix(0.891, -0.454, 0.454, 0.891, -0.001, 0.043)" fill="none" stroke="#202124" stroke-linecap="round" stroke-width="2"/>
      <line id="Line_15-3" data-name="Line 15" x1="11.893" y1="18.895" transform="matrix(0.891, -0.454, 0.454, 0.891, 42.088, 111.282)" fill="none" stroke="#202124" stroke-linecap="round" stroke-width="2"/>
      <line id="Line_16-3" data-name="Line 16" x1="7" y1="23" transform="matrix(0.951, 0.309, -0.309, 0.951, 62.513, 98.392)" fill="none" stroke="#202124" stroke-linecap="round" stroke-width="2"/>
    </g>
    <g id="Group_253" data-name="Group 253" transform="matrix(-0.883, 0.469, -0.469, -0.883, 19029.916, 30466.309)">
      <path id="Path_780-4" data-name="Path 780" d="M-5.844,0s-.09,39.194-.09,73.474.092,63.645.092,63.645" transform="matrix(0.891, 0.454, -0.454, 0.891, 5030.052, 18080.863)" fill="none" stroke="#202124" stroke-linecap="round" stroke-width="2"/>
      <line id="Line_15-4" data-name="Line 15" x1="11.894" y2="18.895" transform="matrix(0.891, 0.454, -0.454, 0.891, 5013.182, 18072.268)" fill="none" stroke="#202124" stroke-linecap="round" stroke-width="2"/>
      <line id="Line_16-4" data-name="Line 16" x1="7" y2="23" transform="translate(5017.921 18080.119) rotate(-18)" fill="none" stroke="#202124" stroke-linecap="round" stroke-width="2"/>
    </g>
    <g id="Group_254" data-name="Group 254" transform="matrix(0.438, -0.899, 0.899, 0.438, 6275.512, 17036.879)">
      <path id="Path_780-5" data-name="Path 780" d="M.09,137.118S0,97.924,0,63.645.092,0,.092,0" transform="matrix(0.891, -0.454, 0.454, 0.891, -0.001, 0.043)" fill="none" stroke="#202124" stroke-linecap="round" stroke-width="2"/>
      <line id="Line_15-5" data-name="Line 15" x1="11.893" y1="18.895" transform="matrix(0.891, -0.454, 0.454, 0.891, 42.088, 111.282)" fill="none" stroke="#202124" stroke-linecap="round" stroke-width="2"/>
      <line id="Line_16-5" data-name="Line 16" x1="7" y1="23" transform="matrix(0.951, 0.309, -0.309, 0.951, 62.513, 98.392)" fill="none" stroke="#202124" stroke-linecap="round" stroke-width="2"/>
    </g>
    <g id="Group_255" data-name="Group 255" transform="matrix(0.899, -0.438, 0.438, 0.899, -7671.557, 2688.639)">
      <path id="Path_780-6" data-name="Path 780" d="M-5.844,0s-.09,39.194-.09,73.474.092,63.645.092,63.645" transform="matrix(0.891, 0.454, -0.454, 0.891, 5030.052, 18080.863)" fill="none" stroke="#202124" stroke-linecap="round" stroke-width="2"/>
      <line id="Line_15-6" data-name="Line 15" x1="11.894" y2="18.895" transform="matrix(0.891, 0.454, -0.454, 0.891, 5013.182, 18072.268)" fill="none" stroke="#202124" stroke-linecap="round" stroke-width="2"/>
      <line id="Line_16-6" data-name="Line 16" x1="7" y2="23" transform="translate(5017.921 18080.119) rotate(-18)" fill="none" stroke="#202124" stroke-linecap="round" stroke-width="2"/>
    </g>
  </g>
</svg>
