<svg xmlns="http://www.w3.org/2000/svg" width="1920" height="1080" viewBox="0 0 1920 1080">
  <g id="Group_1" data-name="Group 1" transform="translate(-39 -2573)">
    <rect id="Rectangle_2" data-name="Rectangle 2" width="1920" height="1080" transform="translate(39 2573)" fill="#fff"/>
    <g id="icons-and-graphic-01" transform="translate(367.91 2928.212)">
      <circle id="Ellipse_1" data-name="Ellipse 1" cx="28.69" cy="28.69" r="28.69" transform="translate(173.94 283.56)" fill="#a9d767"/>
      <path id="Path_1" data-name="Path 1" d="M569,308.72s4.64,42.68,92.33,1C661.32,309.74,626.2,283.57,569,308.72Z" fill="#a9d767"/>
      <path id="Path_2" data-name="Path 2" d="M95.12,200.81s32.18-32.37,23-91.72C118.11,109.09,42.78,191.68,95.12,200.81Z" fill="#a9d767"/>
      <path id="Path_3" data-name="Path 3" d="M92.7,279.58S25,267.34,19.09,285.37c0,0,43.86,26.25,78.72,25.51S92.7,279.58,92.7,279.58Z" fill="#a9d767"/>
      <circle id="Ellipse_2" data-name="Ellipse 2" cx="111.42" cy="111.42" r="111.42" transform="translate(235 89.4)" fill="#f9e76f"/>
      <ellipse id="Ellipse_3" data-name="Ellipse 3" cx="37.16" cy="37.06" rx="37.16" ry="37.06" transform="translate(991.269 261.548) rotate(-66.41)" fill="#f9e76f"/>
      <circle id="Ellipse_4" data-name="Ellipse 4" cx="28.69" cy="28.69" r="28.69" transform="translate(651.94 44.13)" fill="#a9d767"/>
      <circle id="Ellipse_5" data-name="Ellipse 5" cx="50.57" cy="50.57" r="50.57" transform="translate(468.92 56.61)" fill="#b9ddd5"/>
      <circle id="Ellipse_6" data-name="Ellipse 6" cx="27.34" cy="27.34" r="27.34" transform="translate(777.73 269.21)" fill="#a9d767"/>
      <circle id="Ellipse_7" data-name="Ellipse 7" cx="72.79" cy="72.79" r="72.79" transform="translate(734.68 85.58)" fill="#b9ddd5"/>
      <path id="Path_4" data-name="Path 4" d="M513.6,80.93l8.62-29.12,4.24-14.32a95.16,95.16,0,0,1,3.94-12c1.65-3.67,4.1-7.19,8.12-8.43l-.77-.44c1.25,7.07,6.5,12.68,12.57,16.15,7.55,4.32,16.32,5.74,24.62,8a247.369,247.369,0,0,1,50.57,20.12c14,7.33,31.5,15.48,47,7.25,3.2-1.7,7.43-5.18,11.3-3.83,3.62,1.26,3.66,5.47,3,8.61-.9,4-2.89,7.84-4.48,11.63l-5.59,13.31-11.36,27.08c-3.59,8.55-7.61,17.06-10.33,25.94a60.193,60.193,0,0,0-2.45,12.62c-.31,3.8-.37,7.63-1,11.4-.57,3.56-1.65,7.15-4,9.94-1.44,1.7-3.62,3.49-5.92,2.3-1.66-.86-3.06-2.36-4.58-3.45-13.27-9.52-30-12.25-44.48-19.27-15.87-7.69-29.87-18.71-45.84-26.19a83.161,83.161,0,0,0-24.63-7.61,53.621,53.621,0,0,0-12.91-.12c-3.2.37-6.37,1-9.61.67-2.79-.26-5.89-1.39-6.24-4.58-.26-2.43,1.22-4.74,2.28-6.81L499,113l6.61-12.89,3.41-6.66c.8-1.56,1.85-5,3.9-5.22,1.24-.15,2.42.67,3.46,1.26l2.94,1.66,6.09,3.44a.63.63,0,0,0,.86-.86,38.83,38.83,0,0,0-9.19-12c-.6-.53-1.49.35-.88.88a38,38,0,0,1,9,11.73l.85-.85L519.78,90c-1.83-1-3.87-2.64-6-3a3.81,3.81,0,0,0-3.82,2c-1.25,2-2.18,4.16-3.24,6.22l-7,13.55c-2.24,4.37-4.71,8.68-6.71,13.17-1.28,2.88-1.57,6.37,1.14,8.51,2.2,1.74,5.31,1.95,8,1.89,3.69-.09,7.3-.93,11-1.06a57.6,57.6,0,0,1,13.8,1.27c18.18,3.81,33.6,14.56,49.2,24a156.85,156.85,0,0,0,23.64,12.21c7.76,3.07,15.8,5.42,23.49,8.68a71.868,71.868,0,0,1,11.08,5.76c1.77,1.15,3.41,2.43,5.06,3.75a5.55,5.55,0,0,0,4.43,1.59c3.51-.6,6-4.46,7.24-7.48a34.913,34.913,0,0,0,2.17-10.7c.32-4,.4-8.1,1.11-12.09a75,75,0,0,1,4-13.68c3.52-9.21,7.55-18.24,11.37-27.32L681.39,89.5c1.87-4.45,3.92-8.86,5.59-13.38,1-2.83,1.91-6.25,1-9.23a6.22,6.22,0,0,0-7.06-4.2c-4,.59-7.18,3.41-10.76,5-8,3.53-17.29,2.79-25.45.24-9-2.8-17.15-7.68-25.53-11.87a232.732,232.732,0,0,0-25.33-10.85,279.347,279.347,0,0,0-27-7.94C558.58,35.29,550,32.68,544,26.18a19.86,19.86,0,0,1-5-9.93.63.63,0,0,0-.77-.44c-7.28,2.26-9.72,10.52-11.65,17l-9,30.55L512.39,80.6a.63.63,0,0,0,1.21.33Z" fill="#231f20"/>
      <path id="Path_5" data-name="Path 5" d="M1032.43,235.76c4.28-6.43,14.56-6.35,19.59-.9,6.07,6.56,4.25,17.39-2,23.15a23,23,0,0,1-12,5.63c-4.81.77-10.28.34-14.54-2.2-7.47-4.45-9.07-14.85-5.33-22.22,8.57-16.88,36.14-18.66,45.72-1.92a21.181,21.181,0,0,1,2.82,12.49c-.48,4.82-3,9.18-6.1,12.77a45.873,45.873,0,0,1-11,9.1c-4,2.36-8.55,4.19-13.24,4.18-5,0-9-2.51-12.11-6.32a107.84,107.84,0,0,1-8.33-12.79,246.565,246.565,0,0,1-13.57-26.55c-8.15-18.53-14.23-37.91-19.19-57.51s-8.86-39.58-12.56-59.51c-.48-2.58-1.28-5.55-.09-8.06,1.08-2.29,3.47-3.88,5.43-5.36a69.278,69.278,0,0,1,12.56-7.8c8.71-4.06,18.78-5.16,27.09.45,7,4.76,11.28,12.76,14.54,20.39,4.19,9.77,7.68,19.89,11.14,29.94q10.83,31.44,18.71,63.79,1.93,7.94,3.68,15.91a.64.64,0,0,0,1,.27c6.22-5.55,15.67-3.64,22.34,0,7.69,4.26,13.55,11.17,21.33,15.31a32.27,32.27,0,0,0,23.69,2.47,31,31,0,0,0,18.39-14.2,32.17,32.17,0,0,0,3.81-22.64c-1.64-7.85-6-14.73-10.53-21.25-4.68-6.8-9.76-13.57-12.5-21.45a45.49,45.49,0,0,1-1-26.07,44.9,44.9,0,0,1,35.07-32.56,43.9,43.9,0,0,1,6.27-.7.64.64,0,0,0,.44-1.07L1131.39,58.7l-20.2-20.83-10.1-10.41c-2.59-2.67-5.35-5.48-9.39-4.19-3.51,1.12-6.57,4.14-9.13,6.68a55.929,55.929,0,0,0-6.91,8.36,58.18,58.18,0,0,0-8.61,20.1,55.9,55.9,0,0,0-.34,22.13c1.55,8.44,4.71,16.45,7.44,24.55a114.005,114.005,0,0,1,3.59,12.53c.73,3.39,2.08,8.26,0,11.43-1.18,1.8-3.32,2.25-5.35,2.31-2.19.07-4.4-.09-6.6-.15l-14.34-.43-7.18-.21a.63.63,0,0,0,0,1.25l14.35.43c4.51.13,9.07.46,13.58.37,3.29-.07,6.34-1.25,7.39-4.62s.12-7.19-.58-10.49c-3.46-16.34-12.43-31.43-12-48.51a56.32,56.32,0,0,1,18-39.62c2.76-2.52,7.07-6.73,11.1-4.65,1.9,1,3.36,2.82,4.82,4.33l5,5.2,20,20.65,40,41.3,5.05,5.2.45-1.06c-16.25.68-31.74,10.34-39.09,24.92a47,47,0,0,0-4.75,25.14c.76,8.47,4,16.08,8.55,23.19,4.4,6.93,9.64,13.36,13.33,20.73,3.76,7.53,5.22,15.82,2.88,24a30.33,30.33,0,0,1-15.45,18.89,31.21,31.21,0,0,1-25.25,1c-8.39-3.42-14.54-10.49-22-15.36-6.09-4-14.47-6.63-21.56-3.82a14.63,14.63,0,0,0-4.38,2.72l1.05.28a715.567,715.567,0,0,0-19-69.46q-5.61-17.12-12.07-33.93c-3.22-8.36-6.78-17.08-13.13-23.61A26.079,26.079,0,0,0,1010,88.3a26.73,26.73,0,0,0-14.52-.2,49.42,49.42,0,0,0-14.19,6.38c-2.24,1.41-4.39,3-6.49,4.56-1.88,1.46-4,2.94-5.19,5.07s-1,4.8-.61,7.23c.46,2.65,1,5.29,1.48,7.93q1.51,8.07,3.1,16.1c2.14,10.75,4.42,21.46,7,32.11,5.11,21,11.39,41.85,20,61.75a246.43,246.43,0,0,0,14.7,28.88c2.63,4.4,5.27,9,8.62,12.93a16.29,16.29,0,0,0,12.28,6c9.57.13,18.87-6.51,25-13.35a25.489,25.489,0,0,0,6.52-12.33,21.871,21.871,0,0,0-1.84-12.94c-8.43-18.2-35.52-18.26-46.87-3-5.08,6.83-5.64,16.64-.23,23.47,5.88,7.43,17.57,7.6,25.66,4.13s13.67-11.69,12.33-20.75a14.25,14.25,0,0,0-16.63-12.55,12.58,12.58,0,0,0-8.8,5.36c-.44.67.64,1.3,1.08.63Z" fill="#231f20"/>
      <path id="Path_6" data-name="Path 6" d="M142.73,345.64c-9.38-13.29-13.24-29.53-22.28-43a46.15,46.15,0,0,0-17.6-16c-7.47-3.72-15.8-5.28-24.08-5.71-9.9-.51-19.81.51-29.62,1.71-.35,0-.78.38-.6.79,3.66,8.73,10.9,15.31,19.33,19.37,9.87,4.75,20.92,5.84,31.75,5.19a179.127,179.127,0,0,0,20.63-2.7.64.64,0,0,0,.44-.77c-7.57-19.36-15.43-39.6-14.88-60.73.44-16.48,7.3-32.91,20.31-43.4a37.38,37.38,0,0,1,24.25-8.67l-.62-.63a140,140,0,0,1-26,69.75,136.872,136.872,0,0,1-13.93,16.37l1,.13c-5.73-8.82-6.52-19.55-9-29.52a73.28,73.28,0,0,0-10.8-24.09,82.92,82.92,0,0,0-40.83-31.2,74.24,74.24,0,0,0-29.1-4.09.64.64,0,0,0-.45,1.07,83.41,83.41,0,0,0,49.42,27.75,80.379,80.379,0,0,0,16.25,1,.63.63,0,0,0,.54-.94c-6.29-12.21-6-26.52-2.52-39.52,3.67-13.72,11-26,18.33-38.06,4.15-6.83,8.35-13.64,12.06-20.73l-1.17-.32a126.65,126.65,0,0,1-21.49,65.8,122.71,122.71,0,0,1-12.48,15.63c-.55.59.33,1.48.89.89a128,128,0,0,0,32-62.53,125.241,125.241,0,0,0,2.29-19.79.63.63,0,0,0-1.16-.31c-13,24.93-33.46,48.37-33,78.07A48.32,48.32,0,0,0,85.78,218l.54-.94A82.14,82.14,0,0,1,33,199.65a79.38,79.38,0,0,1-11.49-11l-.44,1.07c17.45-1.11,34.83,4.47,49,14.54s25.32,24.81,30,41.69c3,10.75,3.41,22.48,9.65,32.07a.63.63,0,0,0,1,.12,141,141,0,0,0,36.84-65.86A138.8,138.8,0,0,0,151,191.11a.63.63,0,0,0-.63-.62c-16.33-.38-30.14,10.66-37.94,24.31a59.31,59.31,0,0,0-7.51,23.41c-1.07,10.61.23,21.32,2.73,31.65,2.9,12,7.35,23.54,11.83,35l.44-.77c-20.45,3.62-44.28,6-61.17-8.72a33.72,33.72,0,0,1-9-12.26l-.6.79c16.49-2,34.52-4,50.29,2.56a44.06,44.06,0,0,1,18.92,15.32c4.52,6.34,7.75,13.49,10.9,20.59,3.63,8.2,7.19,16.52,12.39,23.89.46.65,1.54,0,1.08-.63Z" fill="#231f20"/>
      <path id="Path_7" data-name="Path 7" d="M80.07,200.37a115.32,115.32,0,0,1-22-34.78,119.35,119.35,0,0,1-8.7-40,113.75,113.75,0,0,1,1.41-23.17l-1.14.15A162.72,162.72,0,0,1,66,138.39a163.115,163.115,0,0,1,4.77,19c1.16,6.23,1.77,12.52,2.65,18.78,1,6.83,2.49,13.67,6.14,19.61a.63.63,0,0,0,1.08-.63c-3.33-5.41-4.84-11.6-5.79-17.82s-1.51-12.67-2.64-18.95A162.94,162.94,0,0,0,61,121.46a163,163,0,0,0-10.2-19.52.634.634,0,0,0-1.14.15,117.29,117.29,0,0,0,.63,41.4A120.46,120.46,0,0,0,65.1,182.4a115.13,115.13,0,0,0,14.08,18.86C79.73,201.85,80.61,200.96,80.07,200.37Z" fill="#231f20"/>
      <path id="Path_8" data-name="Path 8" d="M536.43,338.07c11.37-2.06,18.24-13.79,19-24.6.49-7.53-1.35-15-3.81-22-2.61-7.5-5.75-14.82-8.7-22.18l-10.22-25.5a.63.63,0,0,0-1.21,0c-7.36,21.18-2.88,45.7,10.53,63.53a64.6,64.6,0,0,0,13.28,13.19c.42.32.89-.12.94-.54.75-6.31,4.3-11.86,9-16a38.14,38.14,0,0,1,18.47-8.37c7.61-1.37,15.43-1.08,23.11-.5q12.38.93,24.64,2.88,13.65,2.19,27.07,5.63l-.28-1a61.45,61.45,0,0,1-29,16.61,60,60,0,0,1-33.53-1.41,61.278,61.278,0,0,1-15.15-7.54,58.814,58.814,0,0,1-6.73-5.36,9.639,9.639,0,0,1-2.78-3.38c-.63-1.68.3-3.16,1.29-4.47a41.27,41.27,0,0,0,7.22-14.32,47.907,47.907,0,0,0,1.32-16.22c-1.13-13.46-7.35-25.86-14.45-37.13a.63.63,0,0,0-1.14.15,40,40,0,0,0,2,30.22c1.41,2.91,3.24,6.19,5.67,8.37,2.26,2,5.28,1.54,7.46-.35,2.78-2.4,3.08-6.32,3.79-9.68a30.24,30.24,0,0,1,9.72-16.34,30.73,30.73,0,0,1,20.21-7.84l-.54-.94a78.08,78.08,0,0,1-35.25,33.9c-.72.34-.09,1.42.63,1.08a79.2,79.2,0,0,0,29.77-24.81,77.459,77.459,0,0,0,5.93-9.54.63.63,0,0,0-.54-.94c-11.86,0-23.19,7.25-28.54,17.76a31.529,31.529,0,0,0-2.85,8.62c-.63,3.4-1.37,7.75-5.17,9s-6.17-3.52-7.72-6.14a37.658,37.658,0,0,1-4-9.38,38.46,38.46,0,0,1,.64-22.63l-1.14.14c6.69,10.62,12.65,22.26,14.11,34.89a47.119,47.119,0,0,1-1.12,17.5,37.83,37.83,0,0,1-3.11,8c-1.33,2.52-3.18,4.58-4.67,7s-1.09,4.74.77,6.81a44.071,44.071,0,0,0,6.27,5.46,62.213,62.213,0,0,0,14.7,8.22,61.37,61.37,0,0,0,33.51,3.34,62.66,62.66,0,0,0,33.32-17.75.62.62,0,0,0-.27-1,299.88,299.88,0,0,0-50.59-8.45c-14.62-1.17-30.88-1.4-42.93,8.3-5.51,4.42-9.54,10.6-10.39,17.69l.94-.54c-17.7-13.07-27.59-35.38-26.67-57.23a63,63,0,0,1,3.44-18.08h-1.21c5.78,14.41,11.75,28.76,17.3,43.26,4.69,12.23,8.55,26.36,1.69,38.55-3.08,5.47-8,9.83-14.33,11-.79.15-.46,1.35.33,1.21Z" fill="#231f20"/>
      <path id="Path_9" data-name="Path 9" d="M831.72,237.45l27.63,13.23c.72.34,1.36-.73.63-1.08l-27.63-13.23C831.63,236.02,830.99,237.1,831.72,237.45Z" fill="#231f20"/>
      <path id="Path_10" data-name="Path 10" d="M841.32,218.41l25.18,10c.75.3,1.07-.91.33-1.2l-25.18-10C840.91,216.91,840.58,218.12,841.32,218.41Z" fill="#231f20"/>
      <path id="Path_11" data-name="Path 11" d="M845.06,251.05a95.331,95.331,0,0,0,11.45-35.32c.09-.8-1.16-.8-1.25,0A93.661,93.661,0,0,1,844,250.42a.63.63,0,0,0,1.08.63Z" fill="#231f20"/>
      <path id="Path_12" data-name="Path 12" d="M602.54,135.4l23.07,20.16c.61.52,1.49-.36.89-.89l-23.08-20.15c-.6-.53-1.49.35-.88.88Z" fill="#231f20"/>
      <path id="Path_13" data-name="Path 13" d="M616.89,119.64,638.47,136c.64.49,1.27-.6.63-1.08l-21.58-16.36c-.64-.49-1.27.59-.63,1.08Z" fill="#231f20"/>
      <path id="Path_14" data-name="Path 14" d="M611.74,152.07a95.09,95.09,0,0,0,20.49-31c.31-.74-.9-1.06-1.2-.33a93.828,93.828,0,0,1-20.17,30.41.622.622,0,0,0,.88.88Z" fill="#231f20"/>
      <path id="Path_15" data-name="Path 15" d="M1188.93,274.09s28.24,3.38,53.86-23.9C1242.79,250.19,1173.33,244.88,1188.93,274.09Z" fill="#a9d767"/>
      <path id="Path_16" data-name="Path 16" d="M1149.32,303.12s-20-38-31.08-33.93c0,0,3.93,31.61,17.67,48.44S1149.32,303.12,1149.32,303.12Z" fill="#a9d767"/>
      <path id="Path_17" data-name="Path 17" d="M1136.31,353.05c3.09-10.14,10.07-18.6,13-28.8a28.511,28.511,0,0,0,.44-14.47,39.369,39.369,0,0,0-6.68-13.7,110.466,110.466,0,0,0-11.84-13.37.63.63,0,0,0-1,.13c-4,7.29-3.27,16.19.09,23.58,3.66,8.07,10.22,14.39,16.71,20.23a.63.63,0,0,0,1-.13c6.21-10.47,12.65-21.28,22.21-29.08,8.33-6.8,19.3-10.45,30-8.2a23.25,23.25,0,0,1,14.08,8.58l.23-.85a87,87,0,0,1-44.36,14,85.741,85.741,0,0,1-13.21-.57l.6.79c2.17-6.23,7.21-10.74,11.18-15.82a46.11,46.11,0,0,0,7.57-14.44,51.859,51.859,0,0,0-.41-32.26,46.872,46.872,0,0,0-9.21-15.88.62.62,0,0,0-1,.27,52.22,52.22,0,0,0,11.14,43.61.63.63,0,0,0,1-.12c7.51-16.19,26.92-19.92,42.81-21.8,5.38-.64,10.76-1.21,16.09-2.19l-.48-1.14a78.27,78.27,0,0,1-53,14.55c-.8-.07-.8,1.18,0,1.25a80,80,0,0,0,42.83-8.16,78.594,78.594,0,0,0,10.79-6.56.63.63,0,0,0-.48-1.14c-17.53,3.2-37.32,2.15-51.74,14.35a29.771,29.771,0,0,0-7.91,10.21l1-.13a50.92,50.92,0,0,1-10.82-42.39l-1,.27c14.62,16.5,15.6,43.38,2.05,60.82-4.11,5.28-9.25,9.9-11.51,16.37a.63.63,0,0,0,.61.79,88.24,88.24,0,0,0,46.21-7.06,86.4,86.4,0,0,0,12-6.54.63.63,0,0,0,.22-.86c-6.41-8.56-17.6-11-27.73-9.3-12,2-21.49,10.19-28.76,19.6a178.533,178.533,0,0,0-12,18.4l1-.12c-6.13-5.52-12.26-11.41-16-18.88-3.6-7.2-4.63-16.18-.61-23.42l-1,.13c7.12,7.13,14.75,15,17.74,24.85a27,27,0,0,1,.12,15.09c-1.35,4.89-3.72,9.4-6.1,13.85-2.65,5-5.36,9.92-7,15.33a.63.63,0,0,0,1.21.33Z" fill="#231f20"/>
      <path id="Path_18" data-name="Path 18" d="M1183.59,266.64A73.69,73.69,0,0,1,1208.46,223a70.433,70.433,0,0,1,12-8.21l-.92-.71a101.007,101.007,0,0,1-11.32,21.71,99.38,99.38,0,0,1-7.78,9.93c-2.62,2.94-5.49,5.63-8.2,8.48a31.221,31.221,0,0,0-7,10.31c-.28.76.93,1.08,1.21.33,2.81-7.45,9.73-12.46,14.88-18.24a102.23,102.23,0,0,0,13.83-19.82,103.905,103.905,0,0,0,5.59-12.36.626.626,0,0,0-.92-.71,74.94,74.94,0,0,0-33.48,38.3,72,72,0,0,0-3.93,14.32c-.13.79,1.07,1.13,1.21.33Z" fill="#231f20"/>
      <path id="Path_19" data-name="Path 19" d="M370,142.41c-4.64-3.33-6.18-9-6.61-14.48-.48-6.2.15-12.49.44-18.68l1.06-22.67.53-11.33A11.667,11.667,0,0,1,365.6,73c.3-1.21,1.55-1.36,2.59-1.47a7.72,7.72,0,0,1,4.42.65c1.8,1,2.94,3.62,1.16,5.22-1,.92-2.31.11-2.7-1-.66-1.91,2.44-2,3.68-2a14,14,0,0,1,6,1l-.37-.92a157.272,157.272,0,0,0-10.83,31.27c-2.46,10.72-3.54,21.89-1.12,32.72a.63.63,0,0,0,1.14.15A198.909,198.909,0,0,0,387.98,73.5l-.63.63L407,73.09c6.29-.33,12.64-.77,18.91,0,2.75.34,5.46.81,7.57,2.75a9.18,9.18,0,0,1,3,6.44c.09,2.82-1.08,5.78-1.63,8.53-.61,3-1.12,6.06-1.55,9.12-1.7,12.09-2.25,24.3-3.45,36.45-.61,6.31-1.41,12.6-2.63,18.83a185.86,185.86,0,0,1-4.74,18.15c-1.81,5.99-3.64,11.82-5.06,17.84a175.535,175.535,0,0,0-3.22,18.37c-1.65,12.71-2.72,25.5-4.31,38.22-3.25,26.08-7.44,52-11.8,77.93-1.06,6.3-1.95,12.65-3.21,18.91-.33,1.66-1,2.8-2.9,2.71a28.407,28.407,0,0,1-4.39-.77c-2.7-.61-5.35-1.4-8-2.27-10.2-3.41-20.24-8.39-31.15-9a36,36,0,0,0-7.47.41l.77.77q8.7-38.56,13.6-77.84c1.6-13,2.73-25.93,4-38.92,1.24-12.75,2.84-25.55,6.45-37.89,1.87-6.39,5.3-12.84,5-19.65-.26-5.9-3.45-12.77.13-18.2.39-.59-.51-1.29-1-.76-9.07,10.33-12.08,24-15.23,37a209.7,209.7,0,0,1-6.45,21.67c-2.84,7.85-6,15.57-9.17,23.32l-19.27,47.7-9.57,23.69-4.84,12L303,314.44c-.8,2-1.45,4.74-4.14,4.55-2.11-.15-4.19-1.55-6-2.52s-3.5-1.92-5.24-2.91c-3.48-2-6.94-4-10.55-5.71-6.62-3.18-13.74-5.3-21.11-3.94l.77.77q18.17-49.28,32.79-99.76c4.79-16.55,9.66-33.21,12.25-50.28,2.57-16.91,2.22-34.3,7.56-50.71,3-9.07,7.21-17.63,11.44-26.16l13.29-26.85H333a31.54,31.54,0,0,0,32.23,17.41c.56-.07.57-.89.15-1.14l-14.52-8.48c-1.74-1-13.27-6.44-9.52-9.54l-.61.16A332.57,332.57,0,0,0,385.45,60.6q10.86,1.95,21.85,3.17c7.1.79,14.73,1.1,21,4.92a17.19,17.19,0,0,1,6.39,6.5c.73,1.39,1.49,3.21,1.18,4.81a3.867,3.867,0,0,1-3.35,2.82c-3.28.64-7,.28-10.27,0a64.21,64.21,0,0,1-11.16-2.1c-2.94-.81-6-1.72-9-1.34a10.67,10.67,0,0,0-7.18,4.23c-3.37,4.46-2.88,10.47-.15,15.11,7.48,12.69,24.84,11.38,36.7,16.79.33.15.85.06.92-.38l3.4-20.56,1.65-10c.48-2.93,1.27-6,.87-9-.68-5-5.11-8-9.36-9.93a73.05,73.05,0,0,0-17.36-5c-6-1-12.13-1.64-18.21-2.37a174.362,174.362,0,0,1-19.79-3.5c-6.49-1.57-12.88-3.47-19.25-5.44-3.2-1-6.38-2.06-9.59-3-2.44-.7-5.19-1.22-7.56,0s-3.64,3.71-4.66,6c-1.45,3.32-2.84,6.66-4.2,10q-4.32,10.6-8.18,21.29a.64.64,0,0,0,.44.77l10.67,3.93c1.65.61,3.29,1.29,5,1.82A3.86,3.86,0,0,0,339.7,90c1.12-.78,1.39-2.21,1.69-3.46l1-4.24c.67-2.76,1.38-5.5,2-8.26.84-3.67-.3-6.76-3.53-8.72-3.58-2.17-8.57-2.73-11.1-6.36-.46-.65-1.54,0-1.08.63,1.94,2.78,5.17,3.95,8.18,5.2,3.25,1.34,6.74,3.07,6.6,7.13-.08,2.45-1.08,5.08-1.65,7.44s-1.18,4.92-1.8,7.38c-.42,1.64-1.07,2.87-3,2.37a54,54,0,0,1-5.17-1.86l-10.95-4,.44.77q3.19-8.91,6.71-17.69,1.72-4.34,3.53-8.63a49,49,0,0,1,3.53-7.69c1.94-3,4.92-3.44,8.21-2.63,2.93.71,5.8,1.75,8.67,2.65,5.91,1.84,11.83,3.64,17.83,5.2a165.743,165.743,0,0,0,18.2,3.7c5.71.81,11.46,1.35,17.18,2.11a101.31,101.31,0,0,1,17.24,3.57c4.73,1.49,10.74,3.51,13.45,8,1.84,3.07,1.11,6.57.56,9.9l-1.79,10.87-3.55,21.44.92-.37c-7.51-3.42-15.84-4-23.53-6.87-6.42-2.38-12.66-6.65-14.42-13.64a11.16,11.16,0,0,1,2.5-10.43c3.25-3.42,7.62-3.27,11.84-2.2a93.634,93.634,0,0,0,12.4,2.63,42.58,42.58,0,0,0,11.66.2c2.84-.46,4.95-2.35,4.67-5.41s-2.22-5.94-4.32-8c-5.49-5.49-13.39-6.82-20.8-7.63a353.676,353.676,0,0,1-53.84-9.78q-7.24-2-14.39-4.22c-1.51-.49-3.18-1.66-4.13.16-.67,1.28-.06,2.78.71,3.87a12,12,0,0,0,4,3.32L351,60.24l13.76,8,.15-1.14a30.32,30.32,0,0,1-30.83-16.84.62.62,0,0,0-1.07,0L321.15,74.21c-3.72,7.51-7.53,15-10.62,22.78a105.94,105.94,0,0,0-6.4,24.69c-1.16,8.42-1.66,16.91-2.6,25.35-1.93,17.29-6.52,34.1-11.26,50.79q-7.23,25.4-15.35,50.52-9.14,28.2-19.38,56c-.18.48.34.84.77.77,14.91-2.75,26.95,8.75,39.66,14.3,2.67,1.17,5.5,1.21,7-1.64.78-1.49,1.31-3.13,1.94-4.68l2.7-6.69,9.69-24,19.37-47.93c6.24-15.43,13.11-30.79,17.44-46.89,4-14.9,6.13-31.46,16.69-43.48l-1-.76c-2.92,4.42-1.59,9.77-.79,14.63a24.811,24.811,0,0,1,.05,9.29,74.641,74.641,0,0,1-2.8,8.86c-4.15,12-6.16,24.55-7.54,37.11-1.43,13-2.38,26-3.88,39q-2.33,19.93-5.64,39.75-3.72,22.22-8.68,44.19a.64.64,0,0,0,.77.77c11.53-1.83,22.58,3,33.17,6.88a83.82,83.82,0,0,0,16.43,4.64c2,.29,3.82.06,4.71-1.94a15.68,15.68,0,0,0,.82-3.71l.9-5.29c4.48-26.41,8.89-52.83,12.44-79.38,1.77-13.2,3.19-26.43,4.61-39.66.71-6.65,1.51-13.3,2.73-19.89a178.625,178.625,0,0,1,4.73-18.89c1.85-6.19,3.82-12.35,5.34-18.64a158.666,158.666,0,0,0,3.22-18.5c1.53-12.64,2-25.37,3.52-38a161.437,161.437,0,0,1,3.4-19.16,10.58,10.58,0,0,0-3.86-11.18,14.25,14.25,0,0,0-6.92-2.3,65.46,65.46,0,0,0-9.18-.51c-6.64.06-13.28.58-19.91.94l-10.14.54a.64.64,0,0,0-.62.62A196.88,196.88,0,0,1,368.45,138l1.14.15c-2.41-10.8-1.24-21.94,1.25-32.61a156.169,156.169,0,0,1,10.58-30.42.65.65,0,0,0-.38-.92,14.88,14.88,0,0,0-6.29-1.09c-1.36.07-3.54.13-4.52,1.21-1.37,1.52,0,4,1.73,4.64,2.71,1,4.36-2.55,3.81-4.76-.86-3.37-4.77-4.2-7.77-3.86-1.4.15-2.86.46-3.44,1.9-.71,1.75-.41,4.14-.5,6l-.72,15.51c-.46,9.66-1.19,19.35-1.31,29-.1,7.46.82,16,7.37,20.73.66.47,1.28-.62.63-1.08Z" fill="#231f20"/>
      <path id="Path_20" data-name="Path 20" d="M792.56,114.89a84.81,84.81,0,0,0-19.91,1.93,83.233,83.233,0,0,0-9.56,2.7,44.43,44.43,0,0,0-7.91,3.36c-3.95,2.31-7.41,6.55-5,11.24a13.769,13.769,0,0,0,4.92,4.82c2.76,1.79,5.72,3.29,8.61,4.84q10.5,5.67,21.33,10.7l.15-1.14L738.5,172.75l.77.77,8.14-44.86a.64.64,0,0,0-.44-.77c-4.81-1.4-9.41,1.17-13,4.13a73.555,73.555,0,0,0-10.54,10.85,84.942,84.942,0,0,0-14.3,26c-3.71,11-5,22.64-6.52,34.08l-5,36.47-4.93,36.22-.6,4.4a12.651,12.651,0,0,0-.22,3.68c.33,2.13,2,3.2,3.86,3.95a83.893,83.893,0,0,0,16.44,4.63c2.72.49,5.46.86,8.2,1.1,1.39.12,2.78.21,4.18.27,1.13,0,2.08.38,2.74-.64,2.35-3.62,4.63-8.4,1.87-12.44a4.89,4.89,0,0,0-8.47.17,4.631,4.631,0,0,0,4,7c5,.26,5.69-5.75,6.75-9.36l5.15-17.51L747,225.61l2.5-8.51h-1.2c3.06,17.66,6.29,35.32,10.7,52.7,4.35,17.13,9.85,34,17.47,50a181.748,181.748,0,0,0,15,25.86.64.64,0,0,0,1.08,0l22.12-31.5c6-8.58,13.72-17.76,14.08-28.76a19,19,0,0,0-5-14,.65.65,0,0,0-.76-.09,5.36,5.36,0,0,0-2.82,3.48c-.32,1.3,0,2.29,1.44,2.56a3.51,3.51,0,0,0,3.16-1.24,4.82,4.82,0,0,0,.59-4.35,51.322,51.322,0,0,0-2.52-6.43l-2.75-6.73-5.51-13.45a.64.64,0,0,0-.77-.44,6.93,6.93,0,0,0-4.87,5.81,2.77,2.77,0,0,0,.77,2.67,2.93,2.93,0,0,0,2.87.18c2.8-1.2,2-4.65,1.11-6.88-1.53-4.09-3.11-8.16-4.67-12.24-.93-2.44-2-5.52-4.75-6.48a4.08,4.08,0,0,0-5.11,2.63c-.54,2.37,2,3.55,4,2.92,2.72-.88,3.2-3.78,2.78-6.29-.38-2.26-1.13-4.48-1.73-6.68l-1.77-6.49-3.81-14a.64.64,0,0,0-.77-.44,8.7,8.7,0,0,0-5.41,4.88c-.79,1.81-1.44,4.54.78,5.52a4.67,4.67,0,0,0,5.24-1.61c1.76-2.27,1-5.51.12-8-1.22-3.54-2.56-7-3.84-10.56-1.13-3.1-2.09-6.33-3.5-9.32-1-2-2.55-4.31-4.94-4.69a4.72,4.72,0,0,0-4.75,2.58,2.86,2.86,0,0,0-.13,2.36,2.51,2.51,0,0,0,2.44,1.38,6.75,6.75,0,0,0,5.92-3.18c1.53-2.39,1.4-5.51.53-8.11-1.07-3.24-4-6.07-2.09-9.58.73-1.35,1.68-2.58,2.47-3.89q1.33-2.2,2.44-4.52a55.689,55.689,0,0,0,5.37-28.13c-.15-1.89-.72-4.09-.14-5.94s2.39-2.7,4.13-3.17a28.28,28.28,0,0,1,10.33-.62,32.28,32.28,0,0,1,18.9,8.8l.13-1c-6.64,4.94-14.49,7.92-21.15,12.82-5.51,4-10.5,9.68-11.48,16.68-.57,4.13.38,8.25,1.51,12.2,1.27,4.51,2.62,9,3.94,13.49l8,27.15,15.82,54,4,13.58,2,6.79a33.632,33.632,0,0,0,1.85,5.45c1.78,3.59,5.38,4.47,8.95,5.49q6.57,1.89,13.22,3.57A442.605,442.605,0,0,0,911.57,304c2.27.29,4.53.56,6.8.81.51.06.73-.56.54-.94-8.74-17.38-17.48-34.77-27.16-51.66-4.82-8.43-9.88-16.72-15.27-24.8-5.24-7.84-10.94-15.32-16.57-22.88-6.12-8.21-11.95-16.83-15-26.71l-1,.6c22.65,20.45,54.88,20.87,83.38,25.14a150.81,150.81,0,0,1,26.63,6.14.63.63,0,0,0,.79-.61l.87-28.51a.62.62,0,0,0-.46-.6c-5.75-1-10.36-6.88-16.61-5.45a5.14,5.14,0,0,0-4.13,4,5.21,5.21,0,0,0,1.38,4.78,3.39,3.39,0,0,0,4.53-.12,5.48,5.48,0,0,0,1.28-5.49c-.74-2.33-3-3.84-5.09-4.85-3.13-1.51-6.42-2.7-9.61-4.06q-19.85-8.46-39.05-18.35c-6.18-3.18-12.42-6.33-18.31-10a58.8,58.8,0,0,1-8.32-6.15c-2.57-2.31-4.89-4.87-7.32-7.32A50.891,50.891,0,0,0,837,115.44a48.16,48.16,0,0,0-20.37-3.51c-.81,0-.81,1.29,0,1.25a47.15,47.15,0,0,1,31.58,10.27c4.7,3.79,8.45,8.6,13,12.52a83.639,83.639,0,0,0,14.57,9.54q16.8,9.15,34.19,17.15,8.77,4.05,17.67,7.82c2.73,1.16,5.54,2.18,8.21,3.47,2.19,1.05,4.71,2.7,4.73,5.42,0,2-2.2,5-4.18,2.83a4,4,0,0,1,1-5.88c2.81-1.59,6.37-.31,9,1.09s5.32,3.25,8.44,3.8l-.46-.6-.87,28.51.79-.6c-28.94-9.93-60.82-6.59-89.25-18.43a70.51,70.51,0,0,1-20.21-12.52.63.63,0,0,0-1,.61c2.62,8.59,7.34,16.29,12.55,23.54,5.48,7.64,11.34,15,16.66,22.73,11.09,16.17,20.75,33.27,29.85,50.61,5.13,9.77,10.08,19.62,15,29.47l.54-.94a442.826,442.826,0,0,1-52.28-9q-6.42-1.51-12.79-3.22c-4-1.07-8.27-1.94-12.12-3.51-4.23-1.72-4.91-6.3-6.06-10.24l-3.83-13.07L816,212.23l-7.65-26.15L804.5,173c-1.22-4.17-2.61-8.34-3.56-12.59a20.48,20.48,0,0,1,.53-12.08,24.761,24.761,0,0,1,6.2-8.75c5.71-5.42,13.07-8.5,19.74-12.5a58.2,58.2,0,0,0,5-3.33.63.63,0,0,0,.12-1,33.54,33.54,0,0,0-28.12-9c-2.18.33-4.63.86-6.2,2.54-1.78,1.92-1.39,4.52-1.15,6.9a54.56,54.56,0,0,1-7.4,33.17c-1.29,2.15-3.38,4.35-3.48,7s1.93,5,2.79,7.44c.93,2.67,1.09,6-1,8.18a5.52,5.52,0,0,1-3.34,1.73c-1.21.13-2.64-.27-2.1-1.77a3.34,3.34,0,0,1,5.7-.82c1.86,1.82,2.61,4.63,3.48,7l3.71,10.19c.63,1.73,1.29,3.47,1.89,5.22a10.081,10.081,0,0,1,.75,5.41,3.61,3.61,0,0,1-2.59,2.74c-1.26.35-2.62,0-2.54-1.49a7.48,7.48,0,0,1,5.19-6.6l-.76-.44,4.42,16.24,2.17,8c.59,2.17,1.85,5.82-.54,7.37a2.4,2.4,0,0,1-2.51.21c-1.15-.79-.38-2.11.52-2.69,2.21-1.44,4.17.59,5.16,2.46a65.256,65.256,0,0,1,2.88,7.21c1,2.67,2.07,5.35,3.06,8,.48,1.3,1.14,3,.46,4.33-.44.87-2.14,1.65-2.73.53s.18-2.7.72-3.57a5.47,5.47,0,0,1,3.13-2.39l-.77-.44,7.87,19.22q1,2.42,2,4.81c.57,1.4,1.3,2.93,1.11,4.47-.11.95-1.64,3.06-2.84,2-.45-.4.06-1.44.33-1.91a4.12,4.12,0,0,1,1.81-1.67l-.75-.09c7.39,7.56,4.68,19.15,0,27.34a162.154,162.154,0,0,1-9.2,13.7l-10.53,15L791.4,345h1.08a198.541,198.541,0,0,1-23.75-47.15c-6-16.79-10.25-34.14-13.79-51.59-2-9.81-3.76-19.67-5.47-29.53-.11-.64-1-.56-1.2,0l-12.36,42-6,20.52c-.77,2.62-1.25,7.06-4.73,7.2-2.8.11-4.91-2.55-3.38-5.14,2-3.32,5.88-1.92,7,1.24,1.32,3.6-1,7.21-2.84,10.15l.54-.31a89,89,0,0,1-20.73-2.85,82.183,82.183,0,0,1-9.54-3.08c-1.58-.64-3-1.45-3.18-3.34a27.293,27.293,0,0,1,.62-5.68l5.85-42.94c1.94-14.22,3.78-28.45,5.83-42.66a137.59,137.59,0,0,1,4.09-20,83.06,83.06,0,0,1,19.09-33c4.39-4.66,11-11.87,18.13-9.8l-.44-.77-8.14,44.87c-.07.4.29,1,.77.76l46.7-19.41c.43-.18.69-.89.14-1.14q-8.75-4.07-17.3-8.55-4.15-2.17-8.27-4.46a35.74,35.74,0,0,1-6.67-4.25c-1.89-1.68-3.3-4-2.67-6.59.57-2.41,2.68-4.16,4.7-5.4a39.892,39.892,0,0,1,7.7-3.35,82.839,82.839,0,0,1,29.37-4.66.63.63,0,0,0,0-1.25Z" fill="#231f20"/>
    </g>
  </g>
</svg>
