<svg xmlns="http://www.w3.org/2000/svg" width="776.363" height="298.582" viewBox="0 0 776.363 298.582">
  <g id="Group_176" data-name="Group 176" transform="translate(-11356.406 -4641.998)">
    <circle id="Ellipse_141" data-name="Ellipse 141" cx="22.2" cy="22.2" r="22.2" transform="translate(11486.972 4663.311)" fill="#a7c957"/>
    <circle id="Ellipse_142" data-name="Ellipse 142" cx="22.2" cy="22.2" r="22.2" transform="translate(11874.217 4669.688) rotate(-31)" fill="#b9ddd5"/>
    <circle id="Ellipse_143" data-name="Ellipse 143" cx="22.65" cy="22.65" r="22.65" transform="matrix(1, 0.017, -0.017, 1, 11945.377, 4850.473)" fill="#a7c957"/>
    <ellipse id="Ellipse_144" data-name="Ellipse 144" cx="21.93" cy="20.98" rx="21.93" ry="20.98" transform="translate(11627.682 4927.183) rotate(-88.66)" fill="#f9e76f"/>
    <circle id="Ellipse_146" data-name="Ellipse 146" cx="53.96" cy="53.96" r="53.96" transform="translate(11656.642 4673.01)" fill="#b9ddd5"/>
    <path id="Path_855" data-name="Path 855" d="M337.2,32.05a20.66,20.66,0,0,0-21.12,14.64.64.64,0,0,0,.43.77A29.65,29.65,0,0,1,333,62.06a.63.63,0,0,0,1.17-.32,50.76,50.76,0,0,1,1.07-16,49.081,49.081,0,0,1,2.3-7.33,6.32,6.32,0,0,1,1.91-3c1.13-.78,2.64-.6,3.93-.5,4.11.35,8.88,1.84,10.73,5.9,2,4.38-.34,9.59-3.33,12.9-3.69,4.07-8.67,6.7-12.56,10.56a.63.63,0,0,0,.61,1c8.24-2.78,18.14-5.84,26.26-1.09a.64.64,0,0,0,.92-.38A26.74,26.74,0,0,0,360.64,42l-.88.88L375.85,62.4c4.1,5,8.28,9.87,12.26,14.94.5.63,1.37-.26.88-.88-4-5.08-8.16-10-12.26-14.95L360.64,42c-.52-.62-1.38.27-.88.88a25.42,25.42,0,0,1,5.05,20.56l.92-.37c-8.44-4.93-18.64-1.93-27.23,1l.61,1c4.06-4,9.38-6.71,13.06-11.13,2.89-3.47,5-8.52,3.37-13s-6.3-6.56-10.74-7.18c-2.09-.29-4.74-.67-6.44.86s-2.53,4.61-3.24,6.82a51.58,51.58,0,0,0-2.19,20.28l1.16-.31a30.92,30.92,0,0,0-17.24-15.17l.43.76A19.43,19.43,0,0,1,337.2,33.3C338,33.37,338,32.12,337.2,32.05Z" transform="translate(11250.842 4611.09)" fill="#231f20"/>
    <path id="Path_856" data-name="Path 856" d="M334.77,31.38a101.7,101.7,0,0,0-39,3.81,51,51,0,0,0-8.48,3.11,20.61,20.61,0,0,0-6.52,5.7q-6.31,7.69-12.51,15.49C260.1,69.78,252.12,80.21,244.62,91q-5.62,8-10.87,16.37c-1.76,2.81-3.49,5.65-5.16,8.51-1.21,2.08-3.54,4.84-1.32,7a35,35,0,0,0,4.18,3.06l4.75,3.4c1.57,1.12,3.12,2.26,4.7,3.36a8.5,8.5,0,0,0,4,1.79,4.36,4.36,0,0,0,4.66-4.3,4.44,4.44,0,0,0-4.75-4.13.63.63,0,0,0-.54.31c-.86,1.76.74,3.64,2.59,3.64,2.41,0,4.31-2.51,5.8-4.09A109.412,109.412,0,0,0,263,113c6.37-9.2,11.73-19,17.82-28.41A128.412,128.412,0,0,1,292.47,69l-1-.61q-13.1,32.47-27.47,64.35-3.53,7.83-7.12,15.61l-1.75,3.78c-.44,1-1.15,2.06-1,3.16a2.31,2.31,0,0,0,1.21,1.61c1.22.78,2.58,1.4,3.87,2.08q14.75,7.8,30,14.65,17.13,7.69,34.79,14.13a.63.63,0,0,0,.76-.44c9-23.08,19.68-45.44,29.4-68.23q4.17-9.77,8.05-19.66L361,99.27a138.851,138.851,0,0,1-.38,30.43c-1.17,9.82-3.19,19.52-5.16,29.21-1.17,5.79-2.33,11.59-3.34,17.42-.14.79,1.06,1.12,1.2.33,3.46-19.8,8.85-39.4,9.54-59.58a132.379,132.379,0,0,0-.61-17.81A.631.631,0,1,0,361,99.1c-9,23.08-19.68,45.45-29.39,68.23q-4.17,9.76-8.05,19.66l.77-.44a513.745,513.745,0,0,1-59.64-26.13c-2.38-1.23-4.76-2.48-7.12-3.75a8.779,8.779,0,0,1-1.57-.85c-1-.87-.42-1.64,0-2.61l1.75-3.78q3.56-7.68,7-15.39,6.9-15.3,13.51-30.74,7.35-17.2,14.34-34.56c.24-.58-.64-1-1-.61-13.48,15.13-21.48,34.06-33.86,50-1.74,2.25-3.57,4.43-5.51,6.51a36.337,36.337,0,0,1-2.81,2.87,5,5,0,0,1-1.95,1.21c-.87.23-2.7-.41-2.08-1.67l-.54.31c3-.21,4.82,3.58,2.14,5.44s-5.8-1.38-7.77-2.79l-7.53-5.38c-1.17-.84-2.82-1.67-3.72-2.8-1.1-1.41.62-3.41,1.36-4.69,5.9-10.14,12.37-19.94,19.18-29.49s14.12-19,21.51-28.31q5.49-6.9,11.08-13.72c1.78-2.18,3.56-4.4,6-5.82a40.39,40.39,0,0,1,8-3.1,100.71,100.71,0,0,1,39.6-4c.8.08.8-1.17,0-1.25Z" transform="translate(11250.842 4611.09)" fill="#231f20"/>
    <path id="Path_857" data-name="Path 857" d="M352.47,176.11c1.86,2,5.57.78,6.21-1.8.39-1.56-.61-2.22-2.11-2.21a5,5,0,0,0-3.94,2.37c-1.14,1.81-1.19,4.16-1.13,6.23.05,1.76.69,2.9,2.55,3.1,5.4.58,10.88.72,16.3,1.07,2.17.14,5.3.94,7.19-.52,1.54-1.2,1.8-3.33,2-5.14.07-.8-1.18-.79-1.25,0-.14,1.6-.37,3.85-2.12,4.5a8.32,8.32,0,0,1-3.3.07l-3-.19-12.93-.85a21.067,21.067,0,0,1-3.08-.22c-1.36-.28-1.11-2-1.09-3.1,0-1.94.28-4.2,2-5.42a3,3,0,0,1,2.27-.62c.88.25.31,1.15-.16,1.61a2.47,2.47,0,0,1-3.51.24c-.56-.59-1.44.3-.89.88Z" transform="translate(11250.842 4611.09)" fill="#231f20"/>
    <path id="Path_858" data-name="Path 858" d="M667.71,58.85a141.71,141.71,0,0,1-42.14,11.77,141.69,141.69,0,0,1-21.4.88c-2.72-.1-6.26-.79-8.26,1.58a11.13,11.13,0,0,0-2.06,8.15A6.88,6.88,0,0,0,598,86.8a6.21,6.21,0,0,0,3.3.43c.82-.14,2.36-.6,2.67-1.5a7,7,0,0,0-.15-2.31l-.21-2.63c-.07-.81-.51-2.06.62-2.17a2.22,2.22,0,0,1,1.86.94c.94,1.22.89,3.06,1.54,4.44a6.259,6.259,0,0,0,2.14,2.48c2,1.4,4.64,1.71,7,1.72a85.753,85.753,0,0,0,9.2-.73,176.762,176.762,0,0,0,21-3.12c7.35-1.63,14.93-3.94,21.43-7.83,2.62-1.56,5.11-3.67,6.19-6.61a7.78,7.78,0,0,0-1.33-8l-.44,1.07c3,.12,4.45,3.65,5.72,5.84l5.22,9,10.45,18.09L704.65,114l2.48,4.31,1.25,2.16c.54.93,1.53,2.16.26,3a25,25,0,0,1-4.13,1.82l-5,2.13-5,2.12a8,8,0,0,1-3,.95c-1.13,0-1.8-.85-2.4-1.68-2.23-3.11-4.27-6.39-6.41-9.57a.63.63,0,0,0-1.16.31,55.119,55.119,0,0,0,.37,16.22l.43-.77c-19.66,7.39-40.41,15.12-61.79,13.16-1.23-.12-3.13,0-4.15-.83s-.6-3.33-.56-4.61l.28-9.12a.64.64,0,0,0-1.07-.44l-7.57,8.34a24.18,24.18,0,0,1-3.54,3.68c-1.78,1.26-4,.44-5.87-.07a102.37,102.37,0,0,1-19.5-7.56c-2.53-1.3-6.12-3.2-6.65-6.32-.32-1.82,1-3.08,2.17-4.24s2.11-2.08,3.11-3.18A62.64,62.64,0,0,0,593,89.34c.1-.8-1.15-.79-1.25,0A61.41,61.41,0,0,1,574.39,125c-2,2-4.57,4-3.47,7.24.9,2.64,3.47,4.51,5.83,5.78a99.551,99.551,0,0,0,20.57,8.2c1.67.46,3.49,1.11,5.25.87s3-1.58,4.18-2.87L616,134.06l-1.06-.45-.26,8.64c-.06,1.93-.75,5,1.22,6.22a5.75,5.75,0,0,0,2.38.69c1.48.19,3,.32,4.46.42a78.824,78.824,0,0,0,8.42,0c11.33-.53,22.43-3.32,33.17-6.82,6.2-2,12.31-4.3,18.42-6.59a.65.65,0,0,0,.43-.77,54.257,54.257,0,0,1-.32-15.89l-1.17.32c2.17,3.24,4.26,6.55,6.52,9.72a4.5,4.5,0,0,0,2.8,2.11c1.52.25,3-.6,4.38-1.18l11.16-4.73c1.2-.51,2.81-.91,3.63-2s.2-2.41-.43-3.52c-7.93-13.81-15.93-27.58-23.89-41.36L679.1,67.28c-1.43-2.47-3.11-5.47-6.3-5.6a.63.63,0,0,0-.44,1.06c2,2.16,1.87,5.5.47,8-1.49,2.64-4.18,4.34-6.8,5.7A78,78,0,0,1,647.48,83a162.941,162.941,0,0,1-19.29,3c-3.13.34-6.28.7-9.43.9-2.43.15-5.11.16-7.36-.89a5.45,5.45,0,0,1-2.5-2.22c-.74-1.28-.79-2.82-1.39-4.16-.71-1.58-2.89-3-4.57-1.87-1,.66-.74,1.54-.65,2.56l.19,2.39c.06.75.49,2.25-.07,2.8-.8.8-2.54.62-3.51.31a5.21,5.21,0,0,1-3.07-2.47c-1.48-2.69-.92-6.73.83-9.19,1.05-1.48,2.81-1.58,4.47-1.53s3.24.15,4.86.18a141.312,141.312,0,0,0,20-1A143.66,143.66,0,0,0,668.3,59.92c.74-.33.1-1.41-.63-1.08Z" transform="translate(11298.075 4958.249) rotate(-31)" fill="#231f20"/>
    <path id="Path_859" data-name="Path 859" d="M455.44,312.69c-3.59-.63-5.71,4.16-4,6.95,2,3.25,6.89,2.42,8.49-.7a7.74,7.74,0,0,0-3.49-10.11,8.62,8.62,0,0,0-9.61,2.08c-2.84,3-3,7.56-1.51,11.22a11.46,11.46,0,0,0,9.14,7.3,14.31,14.31,0,0,0,12.27-5.06c3.6-4,5.75-9.15,9.15-13.36a129.011,129.011,0,0,1,12.26-12.49l14-13.3,13.65-13,7-6.65a34,34,0,0,0,5.5-5.82,11.08,11.08,0,0,0-.14-11.67,12.18,12.18,0,0,0-11.06-6C506,242.42,499,253.45,492.47,261a417.917,417.917,0,0,1-49.84,49.36q-3.3,2.76-6.65,5.44l1,.13a100.882,100.882,0,0,0-7-11.62,59,59,0,0,0-8.28-9.89c-6.23-5.66-14.3-7.2-22.49-6.62-9,.64-17.66,3.55-26.68,3.54a29.36,29.36,0,0,1-12.85-2.77,35.53,35.53,0,0,1-9.05-6.47c-6.37-6.13-11-13.86-15.28-21.54l-.22.86a386.441,386.441,0,0,0,36.22-20.38q8.82-5.61,17.33-11.7c2.91-2.08,5.78-4.2,8.64-6.35,1.31-1,2.59-1.92,4.3-1.88a10,10,0,0,1,4.46,1.38c4.71,2.59,7.79,7.4,11.41,11.22a26.3,26.3,0,0,0,14.3,8.07,24.83,24.83,0,0,0,16.11-2.57c5.42-2.81,10.14-6.94,15.86-9.17,15.32-6,29.82,5.89,40.78,15.12.61.52,1.5-.36.88-.88-9.89-8.33-21.44-18.05-35.27-17-12.67,1-20.77,13.55-33.66,13.64a24.1,24.1,0,0,1-16.61-6.61c-3.92-3.7-6.87-8.41-11.22-11.66a12.77,12.77,0,0,0-7-2.82c-3.21-.09-5.89,2.78-8.29,4.57q-8.61,6.36-17.55,12.25a385.071,385.071,0,0,1-41.29,23.66.65.65,0,0,0-.22.86c7,12.58,16.16,27.56,31.41,30.72,9,1.86,18-.59,26.84-2.05,8.29-1.37,17.47-1.86,24.88,2.81,4.26,2.69,7.51,6.77,10.46,10.8a99.783,99.783,0,0,1,8.08,13.08.63.63,0,0,0,1,.12,415.309,415.309,0,0,0,44.6-41.44q5.22-5.62,10.25-11.44c3.26-3.77,6.35-7.71,9.7-11.41s7-7,11.71-8.39c4.35-1.33,9.27-.78,12.48,2.68,2.69,2.92,4,7.5,2.32,11.23a18.41,18.41,0,0,1-4.38,5.25l-6.11,5.8-24.07,22.84c-3.85,3.65-7.72,7.27-11.52,11a68,68,0,0,0-9.61,11.08c-2.54,3.83-4.52,8.27-8.09,11.29-3.39,2.87-8.38,4.12-12.52,2.18-6.93-3.24-8.84-15.86.09-17.79a6.28,6.28,0,0,1,7.68,6.12c.05,2.1-1,4.25-3.2,4.72a3.26,3.26,0,0,1-4.12-2.85c-.06-1.62,1.11-4,3-3.64.79.14,1.13-1.07.34-1.21Z" transform="translate(11250.842 4611.09)" fill="#231f20"/>
    <path id="Path_860" data-name="Path 860" d="M482.94,187.32c-21.12,2.82-43.48.62-62.07-10.45A67.81,67.81,0,0,1,400,157.81a64.74,64.74,0,0,1-10.69-27.71,94.441,94.441,0,0,1,.88-31c1.91-10.41,5-20.95,11.74-29.32,6.46-8,15.29-14.05,24.31-18.83,10-5.31,20.83-8.32,32.23-7.84,19.27.81,38.58,9.2,52.74,22.2C524.88,77.89,533.5,95.09,534,113.76a61.911,61.911,0,0,1-5.17,26.71,53.762,53.762,0,0,1-7.17,11.81,96.5,96.5,0,0,1-9.95,10.17c-3.5,3.2-7.06,6.36-10.28,9.85a54.3,54.3,0,0,0-4.3,5.27,32.842,32.842,0,0,0-1.83,2.79,4.77,4.77,0,0,0-.93,2.38c0,2.85,3.45,3.77,5.28,2,1.19-1.17,2.31-2.42,3.46-3.63l10.85-11.41,1-1c.62-.65,1.25-1.29,1.91-1.9a11.07,11.07,0,0,1,3.26-2.53,3.2,3.2,0,0,1,4,2.19c.78,2.45-1.66,3.85-3.32,5.09-4.21,3.14-8.28,6.2-11.6,10.32-1.16,1.43-2.59,3-2.69,4.9a4.89,4.89,0,0,0,1.71,3.84,5.21,5.21,0,0,0,3.9,1.29c1.76-.18,2.87-1.34,3.88-2.69,2.9-3.85,5.12-8.15,7.95-12,2.61-3.61,5.82-6.91,10-8.55l-.7-.29c3.38,7.74,10.33,12.91,16.84,17.91l10.27,7.91,36.75,28.27,26.9,20.7a14.9,14.9,0,0,1,4.61,5.33,10.63,10.63,0,0,1,.54,8.09,12.29,12.29,0,0,1-3.75,5c-3.57,3.06-7.93,5.07-11.45,8.2a17.761,17.761,0,0,0-2.28,2.39c-.88,1.1-1.85,3.37-3.61,2.49-1.37-.68-2-2.94-2.73-4.19a39,39,0,0,0-2.83-4.16c-4.18-5.44-9.47-9.87-14.8-14.13q-9.15-7.32-18.39-14.56c-12.39-9.7-25-19.21-38-28q-4.73-3.19-9.53-6.26c-.68-.44-1.31.65-.64,1.08,13.57,8.64,26.58,18.12,39.33,27.92,6.5,5,12.93,10.07,19.35,15.17,5.7,4.53,11.61,8.92,16.79,14.06a50,50,0,0,1,6.79,8.15c.92,1.43,1.65,2.95,2.47,4.43a3.15,3.15,0,0,0,5.74.24,24.485,24.485,0,0,1,2.31-2.86,35.588,35.588,0,0,1,5.83-4.46c3.65-2.39,8-4.78,10-8.81,2.5-4.84.72-10.79-3.07-14.42a84.27,84.27,0,0,0-7-5.48l-15.21-11.7-19.54-15-18.9-14.54-13.27-10.21c-4.41-3.4-9-6.68-12.81-10.73a29.128,29.128,0,0,1-5.68-8.35.63.63,0,0,0-.71-.29c-8.86,3.44-12.69,12.62-17.8,19.88-1.23,1.75-2.59,3.87-5.06,3.3a3.93,3.93,0,0,1-3-3.43,4.18,4.18,0,0,1,1-2.67,41.727,41.727,0,0,1,2.72-3.37,44.512,44.512,0,0,1,6.05-5.59c2.12-1.63,4.4-3.08,6.41-4.84a4.28,4.28,0,0,0,1.51-4.08,4.43,4.43,0,0,0-6.67-3,34.058,34.058,0,0,0-5.74,5.33l-5,5.3c-3.08,3.24-6.05,6.67-9.28,9.76a1.75,1.75,0,0,1-2.82-2,32.189,32.189,0,0,1,4.12-6,99.26,99.26,0,0,1,10.24-10.37c7-6.36,13.69-12.75,18.12-21.19a62,62,0,0,0,6.83-25.82,68.44,68.44,0,0,0-18.8-49.79,87.06,87.06,0,0,0-48.74-25.81,62.46,62.46,0,0,0-32.95,2.9A90.049,90.049,0,0,0,408,61.8a53.37,53.37,0,0,0-9.83,11.11,56,56,0,0,0-6.44,14.43A105.738,105.738,0,0,0,387.18,118a75.719,75.719,0,0,0,5.76,29.66,63.13,63.13,0,0,0,17,22.82c15.63,13.45,36.18,19.2,56.54,19.2a124.754,124.754,0,0,0,16.5-1.14c.78-.1.79-1.35,0-1.25Z" transform="translate(11250.842 4611.09)" fill="#231f20"/>
    <path id="Path_861" data-name="Path 861" d="M256.9,264.81s-1.47,19,14.79,21.05,16.8-8.46,11.4-14.45S254.86,253.14,256.9,264.81Z" transform="translate(11250.842 4611.09)" fill="#a7c957"/>
    <path id="Path_862" data-name="Path 862" d="M242.42,293.47s-18.3-9.56-31.38,4.95-2.73,19.56,7,17S255.67,296.56,242.42,293.47Z" transform="translate(11250.842 4611.09)" fill="#a7c957"/>
    <path id="Path_863" data-name="Path 863" d="M69.31,161.82s-7.9-19.72-34.94-26.72C34.37,135.1,55.76,182.49,69.31,161.82Z" transform="translate(11371.214 4611.102) rotate(11)" fill="#a7c957"/>
    <path id="Path_864" data-name="Path 864" d="M102.5,177.37S84.79,204,91.41,209.88c0,0,19.3-13.9,25.41-28.93S102.5,177.37,102.5,177.37Z" transform="translate(11371.214 4611.102) rotate(11)" fill="#a7c957"/>
    <path id="Path_865" data-name="Path 865" d="M139.81,167.86c-8.39,1.72-17.25-.27-25.5,2.33-7.09,2.24-11.74,8-14.71,14.57a88.242,88.242,0,0,0-4.14,11.73.63.63,0,0,0,.6.79c6.07,0,11.53-3.45,15.18-8.12,4.22-5.38,6.1-12.15,7.65-18.7a.64.64,0,0,0-.6-.79c-9.05-.31-18.4-.66-26.9-4.1-7.37-3-13.63-8.78-16-16.52a17.25,17.25,0,0,1,.53-12.31L75,137a64.78,64.78,0,0,1,29.3,32.71l.44-.77c-5.41.87-10.65-1.29-16-1.9a34.61,34.61,0,0,0-11.83.72,38.83,38.83,0,0,0-20.18,12A35.1,35.1,0,0,0,50,191.1a.63.63,0,0,0,.77.77,39.18,39.18,0,0,0,24.67-23,.62.62,0,0,0-.6-.79c-8.14.51-15.55-4-21.06-9.66-6-6.13-10.25-13.66-15.62-20.3l-.76,1a58.8,58.8,0,0,1,28.45,29.46c.32.73,1.4.1,1.08-.63A59.85,59.85,0,0,0,38.07,138a.63.63,0,0,0-.76,1c5.62,6.94,10,14.9,16.49,21.16,5.62,5.45,13,9.66,21.08,9.16l-.6-.79a37.89,37.89,0,0,1-23.8,22.15l.77.77c5.39-14.92,21.62-25,37.38-23.21,5.53.61,10.84,2.78,16.47,1.87a.63.63,0,0,0,.44-.77,66.19,66.19,0,0,0-29.88-33.45.63.63,0,0,0-.85.23c-3.27,7.24-1,15.4,3.69,21.46,5.65,7.26,14.38,10.64,23.24,12.06a132.76,132.76,0,0,0,16.55,1.29l-.61-.79c-1.46,6.16-3.17,12.48-7,17.66-3.41,4.68-8.72,8.26-14.66,8.24l.6.79c2-6.69,4.15-13.79,8.75-19.2a20,20,0,0,1,9-6.16,40,40,0,0,1,12-1.47c4.58-.06,9.19,0,13.7-.92.79-.17.46-1.37-.33-1.21Z" transform="translate(11371.214 4611.102) rotate(11)" fill="#231f20"/>
    <path id="Path_866" data-name="Path 866" d="M66.28,167.83a54.76,54.76,0,0,1-47-5.54l-.15,1.14a75.49,75.49,0,0,1,23.53.39,108.374,108.374,0,0,1,10.93,2.72c3.56,1,7.14,1.8,10.85,1.3.8-.1.46-1.31-.33-1.2-4,.54-7.95-.64-11.77-1.77a83.858,83.858,0,0,0-11.21-2.56,77.711,77.711,0,0,0-22.33-.08c-.57.08-.56.88-.15,1.14a56,56,0,0,0,48,5.67c.75-.26.43-1.47-.34-1.21Z" transform="translate(11371.214 4611.102) rotate(11)" fill="#231f20"/>
    <path id="Path_867" data-name="Path 867" d="M272.91,243.88a63.52,63.52,0,0,0-17.51,22.55,78.33,78.33,0,0,0-4.66,13.93c-1.22,4.91-2.41,9.94-5,14.37C241,303,231.91,307,223,309.13a69.08,69.08,0,0,1-6.83,1.3c-2.45.31-5.39-.13-5.61-3.13-.32-4.34,4-7.87,7.33-9.8,8.67-5,19.64-4.1,29.19-3.14l-.6-.79c-2,6.15-4.37,14.1,0,19.8,2.87,3.73,8.66,6.15,12.69,2.72,3.76-3.18,2.8-9.1.11-12.62-1.77-2.31-4.23-3.11-6.64-4.54-3.19-1.9-3.72-5.2-3-8.61.78-3.78,2.54-7.29,3.6-11a56.509,56.509,0,0,0,2.11-12.65.63.63,0,0,0-1.07-.44,24.57,24.57,0,0,1-12.56,7c-4.24.92-9.4,1-13-1.7a5,5,0,0,1-2.24-5.09,5.3,5.3,0,0,1,3.68-3.52c4.31-1.48,8.23.38,12.2,2a18.9,18.9,0,0,0,6.8,1.65,18.549,18.549,0,0,0,3.55-.52,3.545,3.545,0,0,1,4.06,1.49c2.68,4,3.87,8.79,7,12.54,2.36,2.87,6.22,4.89,10,4.39a6.76,6.76,0,0,0,5.94-7.05c-.18-4.07-3.11-7.94-6.64-9.81-5.06-2.68-11-2.82-16.16-5.31-.72-.34-1.35.73-.63,1.08,4.77,2.31,10.18,2.64,15,4.76,3.72,1.63,7.16,5.3,7.18,9.58a5.42,5.42,0,0,1-3.14,5,8.06,8.06,0,0,1-6.4-.28c-4.61-2-6.66-6.84-8.68-11.11-.94-2-1.87-4.53-3.64-5.91-2-1.57-4.36-.34-6.58-.16-5.13.4-9.37-3.23-14.27-4-3.16-.48-7.18.08-9.34,2.69-2.32,2.82-1.11,6.54,1.59,8.56,3.8,2.86,9.08,2.9,13.55,2a25.73,25.73,0,0,0,13.7-7.43l-1.07-.44a54.928,54.928,0,0,1-1.69,11c-.8,3.09-2,6-3,9a17.08,17.08,0,0,0-1.18,7.86,7.72,7.72,0,0,0,4.16,5.67c2.33,1.3,4.63,2.12,6.21,4.4a9.81,9.81,0,0,1,1.78,6.83,5.78,5.78,0,0,1-4.17,4.88,8,8,0,0,1-6.87-1.84c-6.37-5-3.74-14-1.64-20.56a.64.64,0,0,0-.61-.79c-9.12-.91-19.07-1.61-27.66,2.22-3.76,1.67-7.75,4.49-9.4,8.39a6.76,6.76,0,0,0-.2,5.58,5.16,5.16,0,0,0,4.89,2.5,37.222,37.222,0,0,0,7.32-1.17,65.187,65.187,0,0,0,7-1.9,37.109,37.109,0,0,0,12.2-6.71,28.209,28.209,0,0,0,8.07-12.28c1.83-5.13,2.73-10.53,4.38-15.72a62.42,62.42,0,0,1,20-29.27c.63-.51-.26-1.39-.88-.89Z" transform="translate(11250.842 4611.09)" fill="#231f20"/>
    <path id="Path_871" data-name="Path 871" d="M817.33,67.67s-3.88-20.88,15.21-41.27C832.54,26.4,839.84,77.88,817.33,67.67Z" transform="translate(11194.842 4676.09)" fill="#a7c957"/>
    <path id="Path_872" data-name="Path 872" d="M797.61,98.58s29.24,13,26.77,21.52c0,0-23.73-1.41-36.94-10.83S797.61,98.58,797.61,98.58Z" transform="translate(11194.842 4676.09)" fill="#a7c957"/>
    <path id="Path_873" data-name="Path 873" d="M761.36,111.72c6.75-2.55,12.3-7.35,18.86-10.28a21.38,21.38,0,0,1,10.85-2,26.67,26.67,0,0,1,11.1,4.09,79.355,79.355,0,0,1,10.77,8.3l.12-1c-5.11,3.26-11.61,3-17.09.8-5.84-2.36-10.59-6.73-15-11.07l-.13,1c8-5.48,16.32-11.21,21.73-19.45,4.42-6.73,6.24-15.29,3.83-23.1A18.49,18.49,0,0,0,799,48.92a.64.64,0,0,0-.86.22A66.159,66.159,0,0,0,790.8,93.4a.62.62,0,0,0,.91.37c4.07-1.73,7.05-5,10.19-8a34.8,34.8,0,0,1,10.1-6.9A37.58,37.58,0,0,1,836,77a34.2,34.2,0,0,1,12.44,6l.27-1a38,38,0,0,1-32.08-6v1c6.65-3.65,10.61-10.55,12.57-17.68,2.53-9.16,1.88-18.83,3-28.19.08-.66-.86-.8-1.16-.32a60,60,0,0,0-8.4,40.9c.12.79,1.33.46,1.21-.33a58.69,58.69,0,0,1,8.27-39.94l-1.17-.31c-1,9-.46,18.28-2.72,27.13-1.81,7.09-5.59,14-12.19,17.66A.63.63,0,0,0,816,77a39.17,39.17,0,0,0,33,6.16.62.62,0,0,0,.28-1c-13.13-10.17-33-10-45.9.55-4.12,3.37-7.35,7.89-12.37,10l.92.37a64.8,64.8,0,0,1,7.22-43.29l-.85.22c6.49,4.26,8.6,12.47,7.63,19.84-1.15,8.69-6.75,15.74-13.2,21.33a135.118,135.118,0,0,1-12.57,9.35.63.63,0,0,0-.12,1c4.69,4.58,9.73,9.14,16,11.53,5.69,2.19,12.42,2.28,17.68-1.07a.63.63,0,0,0,.13-1c-5.89-5.16-12.38-10.69-20.24-12.37-7.68-1.65-14.46,1.59-20.85,5.52-3.78,2.33-7.52,4.81-11.7,6.39-.75.28-.42,1.49.33,1.2Z" transform="translate(11194.842 4676.09)" fill="#231f20"/>
    <path id="Path_874" data-name="Path 874" d="M823.45,72.34a56.12,56.12,0,0,0,31.73-20.83A54,54,0,0,0,861,41.88a.63.63,0,0,0-.86-.85,76.47,76.47,0,0,0-19.3,12.47,90.51,90.51,0,0,0-8,8.18c-2.52,2.87-5.15,5.71-8.68,7.33-.73.33-.1,1.41.63,1.08,3.37-1.54,6-4.18,8.4-6.92a102.006,102.006,0,0,1,7.88-8.23A76,76,0,0,1,860.73,42.1l-.85-.85A54.88,54.88,0,0,1,833.4,67.59a52.493,52.493,0,0,1-10.28,3.54C822.34,71.32,822.67,72.52,823.45,72.34Z" transform="translate(11194.842 4676.09)" fill="#231f20"/>
    <path id="Path_878" data-name="Path 878" d="M851.08,251.21a12.82,12.82,0,0,0-2.25-5.21c-1-1.69-2.28-3.75-1.22-5.74s3.4-2.5,5.32-2.82c2.7-.46,5.5-.53,8.23-.76l8.92-.75a37.86,37.86,0,0,1,7.82-.15,10.1,10.1,0,0,1,6.76,3.28,6.55,6.55,0,0,1,1.54,6.06c-.76,2.26-3.11,3.39-4.58,5.12s-1.65,4.08-1.69,6.39q-.2,8.92-.37,17.87l-.18,9.18a35.157,35.157,0,0,0,.24,7.81,11.809,11.809,0,0,0,3.6,5.88c1.67,1.7,3.57,3.57,3.55,6.14,0,3.16-3.31,3.31-5.7,3.33l-8.9.06-18.29.11c-3,0-11.08.71-10.66-4.36.16-2,2-3.52,3.38-4.75a24.841,24.841,0,0,0,4.21-4.24c2.5-3.66,2.45-8.36,2-12.58-.6-5.1-1.65-10.07-1.77-15.22-.07-2.92,0-5.84.13-8.76a9.86,9.86,0,0,1,.46-4.12c.68-1.4,2.53-1.14,3.82-1.14h22.43c.4,0,1.8-.19,2.12.08a1.22,1.22,0,0,1,.18,1.25,3.361,3.361,0,0,1-1,1,46,46,0,0,1-7.16,3.66,84.847,84.847,0,0,1-16,5.33c-1.73.4-4.33.5-5.46,2.12s.25,3,1.69,3.53c2.64,1,5.49,1.65,8.2,2.46l8.5,2.53,8.5,2.52v-1.2l-25.83,8.78a.63.63,0,0,0,0,1.21A108.328,108.328,0,0,0,878,291.94c.51.07.72-.57.54-.94-4.55-9.21-16.77-9.72-24.33-15.31l-.15,1.14a37.21,37.21,0,0,0,25.39-19,.63.63,0,0,0-.54-.94,121.1,121.1,0,0,1-26.43-3.94.624.624,0,1,0-.34,1.2,122.4,122.4,0,0,0,26.77,4l-.54-.94a36,36,0,0,1-24.64,18.45c-.58.12-.54.86-.15,1.15,3.93,2.9,8.63,4.42,13.08,6.32s8.63,4.16,10.8,8.54l.54-.94a106.639,106.639,0,0,1-26.1-6.84v1.21l25.83-8.79a.62.62,0,0,0,0-1.2l-18.89-5.62-4.25-1.26c-1-.29-4.56-1.1-2.65-2.63,1-.77,2.54-.84,3.7-1.09,1.48-.32,3-.69,4.41-1.09a86.4,86.4,0,0,0,16.2-6.29c1.75-.89,4.94-2,5.36-4.27.47-2.57-3-2.23-4.55-2.23H857.87c-2.12,0-5.63-.68-7.1,1.33a4.881,4.881,0,0,0-.78,2.5c-.15,1.61-.15,3.25-.2,4.87A91.587,91.587,0,0,0,850.92,277c.77,4.74,1.81,10.29-.47,14.78-1.1,2.16-3,3.63-4.73,5.21-1.41,1.25-3,2.66-3.54,4.51-1.33,4.25,3.05,6.32,6.5,6.66a83.355,83.355,0,0,0,8.66.05l9.39-.06,9.89-.06h4.7a11.929,11.929,0,0,0,3.67-.41,4.31,4.31,0,0,0,3-4.17,8.75,8.75,0,0,0-2.79-5.87c-2.11-2.26-4.15-4.12-4.55-7.37a63.844,63.844,0,0,1,0-9.07l.4-19.61.09-4.47c0-1.69-.08-3.56.74-5.1,1.1-2.08,3.46-3.13,4.77-5.08,2.41-3.57.19-8.24-3-10.46-4.55-3.17-10.92-2-16.07-1.59l-9.67.81a34.2,34.2,0,0,0-7.27,1,6.58,6.58,0,0,0-4.33,3.35,6,6,0,0,0,.6,5.19c1,1.94,2.63,3.73,2.9,6,.09.79,1.35.8,1.25,0Z" transform="matrix(1, 0.017, -0.017, 1, 11249.004, 4571.817)" fill="#231f20"/>
    <path id="Path_879" data-name="Path 879" d="M850.8,265.19a26.49,26.49,0,0,1-16.73,14.42,24.52,24.52,0,0,1-21.69-4.86,29.45,29.45,0,0,1-7.58-9.84c-1.83-3.6-3.47-7.27-6-10.47a31.69,31.69,0,0,0-17-11.15,24.94,24.94,0,0,0-20.05,3.57c-3.84,2.52-7.38,5.51-11,8.33L739,264.39l-47.46,37L644.28,338.2l-5.9,4.6c-.56.44.17,1.38.75,1,14.56-9.89,30-18.35,45.6-26.47s31.32-15.92,46.56-24.64c7.65-4.38,15.16-9,22.43-14q5.48-3.74,10.75-7.77a41.1,41.1,0,0,0,8.53-8c2-2.68,3.55-6.07,2.93-9.47a9.14,9.14,0,0,0-7-6.89c-5.85-1.49-13.16,2.24-13.73,8.67-.48,5.43,5.92,12.85,11.46,8.72,2.16-1.61,3.47-5,1.74-7.39-1.49-2-4.57-1.23-5.8.69a2.63,2.63,0,0,0,0,3c.44.67,1.53,0,1.08-.63-1.53-2.26,3.79-4.85,4.22-.92a4.76,4.76,0,0,1-5.81,4.95c-2.91-.7-5.09-3.62-5.58-6.48a8.06,8.06,0,0,1,3.63-7.83,10.53,10.53,0,0,1,8.44-1.57c3.51.9,6.34,3.74,6.19,7.52-.13,3.42-2.31,6.56-4.54,9a59.547,59.547,0,0,1-8.52,7.15,325.214,325.214,0,0,1-38.45,24.28C710,303,696.36,309.77,682.9,316.8s-26.9,14.39-39.73,22.73q-2.37,1.55-4.71,3.13l.76,1,47.46-37,47.45-37c8-6.19,15.87-12.4,23.84-18.56,3.45-2.67,7.07-5.29,11.3-6.53a23.059,23.059,0,0,1,10.38-.52,30.22,30.22,0,0,1,18,10.8c2.66,3.27,4.32,7.11,6.22,10.83a30.3,30.3,0,0,0,7.23,9.53,26.13,26.13,0,0,0,20.17,6.19,27.44,27.44,0,0,0,20.66-15.64c.34-.73-.74-1.36-1.08-.63Z" transform="matrix(1, 0.017, -0.017, 1, 11249.004, 4571.817)" fill="#231f20"/>
    <path id="Path_880" data-name="Path 880" d="M530.91,114.54a182.827,182.827,0,0,0-27.06-25.93c-9.56-7.42-20.06-14.94-32.11-17.49-10.95-2.31-22.48-.72-32.75,3.58a67.48,67.48,0,0,0-26.31,20.22,97.681,97.681,0,0,0-17.12,33.67.62.62,0,0,0,.29.7c8.13,4.64,16.49,9.06,25.46,11.85,9.4,2.93,19.31,3.84,29.05,4.86s19.58,1.67,29.16-.46c8.83-2,16.88-6.33,24.37-11.27,9.23-6.08,18.09-12.77,27.08-19.21a.64.64,0,0,0,0-1.08l-18.49-11.46C506.72,99,501,95.27,495.12,91.91c-10.85-6.2-23.12-11-35.66-7.33-10.7,3.14-20.95,10.43-26.11,20.47-4.93,9.58-4.74,22,2.38,30.47,6.79,8.08,17.9,10.71,28,11.37,5.82.38,12,.54,17.05-2.84a26,26,0,0,0,9.41-12.23A32.4,32.4,0,0,0,487,102.59c-5.68-8.49-15.58-13.39-25.64-14a33.9,33.9,0,0,0-14.78,2.31,50.13,50.13,0,0,0-14.55,9.62c-8.89,8-16.33,18-27.17,23.56A33.11,33.11,0,0,1,396.7,127c-.79.17-.46,1.37.33,1.21,11-2.32,19.4-10.3,27-18.05s15.87-16.55,27-19.37A34.1,34.1,0,0,1,479,96.09a30.1,30.1,0,0,1,11.94,26c-.56,10.47-7.08,22.29-18.43,23.54a57.56,57.56,0,0,1-16.25-.9,38.71,38.71,0,0,1-14.08-5.21,23.48,23.48,0,0,1-9.62-12,27.66,27.66,0,0,1-.41-16c2.79-10.47,11.3-18.43,20.8-23a35.48,35.48,0,0,1,18-3.9c6.16.43,12.08,2.58,17.58,5.27s10.87,6.08,16.15,9.35l17.23,10.68,8.41,5.21V114c-7.87,5.64-15.67,11.38-23.63,16.88-7.34,5.06-15.07,9.82-23.65,12.45-9.29,2.84-19.06,2.7-28.64,1.84-9.74-.87-19.7-1.76-29.19-4.2-10.23-2.62-19.63-7.54-28.75-12.74l.28.71c6.25-21,18.9-41.36,39.06-51.4a55.6,55.6,0,0,1,32.46-5.74c12.07,1.71,22.42,8.53,32,15.67a181.587,181.587,0,0,1,29.74,28c.52.61,1.4-.28.89-.89Z" transform="translate(11250.842 4611.09)" fill="#231f20"/>
  </g>
</svg>
