<svg xmlns="http://www.w3.org/2000/svg" width="500" height="500" viewBox="0 0 500 500">
  <g id="Group_173" data-name="Group 173" transform="translate(-3678 -9611)">
    <rect id="Rectangle_9" data-name="Rectangle 9" width="500" height="500" transform="translate(3678 9611)" fill="none"/>
    <g id="recycle" transform="translate(3731 9665)">
      <path id="Path_182" data-name="Path 182" d="M195.742,14c31.977,0,63.992,9.066,92.586,26.227A199.311,199.311,0,0,1,340.844,86l-53.656-1.77-.461,13.992,67.836,2.238a7,7,0,0,0,7.227-6.766V93.23l-2.238-67.836-13.992.461,1.508,45.734a214.388,214.388,0,0,0-51.535-43.367C264.762,9.758,230.254,0,195.742,0,140.6,0,89.77,22.734,52.613,64.02,19.668,100.625,0,149.867,0,195.742H14c0-42.512,18.324-88.25,49.02-122.355C97.484,35.09,144.621,14,195.742,14Zm0,0"/>
      <path id="Path_183" data-name="Path 183" d="M330.98,318.1c-34.465,38.3-81.6,59.387-132.723,59.387-31.977,0-63.992-9.066-92.586-26.223a199.4,199.4,0,0,1-52.516-45.773l53.656,1.773.461-14-67.836-2.234a6.892,6.892,0,0,0-5.18,2.043,7.006,7.006,0,0,0-2.047,5.184l2.238,67.836,13.992-.461L46.934,319.9a214.566,214.566,0,0,0,51.535,43.367c30.77,18.461,65.277,28.219,99.789,28.219,55.141,0,105.973-22.734,143.129-64.02C374.332,290.859,394,241.617,394,195.742H380C380,238.254,361.676,284,330.98,318.1Zm0,0"/>
    </g>
  </g>
</svg>
