<svg xmlns="http://www.w3.org/2000/svg" width="221.359" height="206.234" viewBox="0 0 221.359 206.234">
  <g id="Group_38" data-name="Group 38" transform="translate(-2549.218 -73.766)">
    <rect id="Rectangle_5" data-name="Rectangle 5" width="195" height="195" transform="translate(2559 85)" fill="none"/>
    <path id="Path_177" data-name="Path 177" d="M455.44,312.69c-3.59-.63-5.71,4.16-4,6.95,2,3.25,6.89,2.42,8.49-.7a7.74,7.74,0,0,0-3.49-10.11,8.62,8.62,0,0,0-9.61,2.08c-2.84,3-3,7.56-1.51,11.22a11.46,11.46,0,0,0,9.14,7.3,14.31,14.31,0,0,0,12.27-5.06c3.6-4,5.75-9.15,9.15-13.36a129.011,129.011,0,0,1,12.26-12.49l14-13.3,13.65-13,7-6.65a34,34,0,0,0,5.5-5.82,11.08,11.08,0,0,0-.14-11.67,12.18,12.18,0,0,0-11.06-6C506,242.42,499,253.45,492.47,261a417.917,417.917,0,0,1-49.84,49.36q-3.3,2.76-6.65,5.44l1,.13a100.882,100.882,0,0,0-7-11.62,59,59,0,0,0-8.28-9.89c-6.23-5.66-14.3-7.2-22.49-6.62-9,.64-17.66,3.55-26.68,3.54a29.36,29.36,0,0,1-12.85-2.77,35.53,35.53,0,0,1-9.05-6.47c-6.37-6.13-11-13.86-15.28-21.54l-.22.86a386.441,386.441,0,0,0,36.22-20.38q8.82-5.61,17.33-11.7c2.91-2.08,5.78-4.2,8.64-6.35,1.31-1,2.59-1.92,4.3-1.88a10,10,0,0,1,4.46,1.38c4.71,2.59,7.79,7.4,11.41,11.22a26.3,26.3,0,0,0,14.3,8.07,24.83,24.83,0,0,0,16.11-2.57c5.42-2.81,10.14-6.94,15.86-9.17,15.32-6,29.82,5.89,40.78,15.12.61.52,1.5-.36.88-.88-9.89-8.33-21.44-18.05-35.27-17-12.67,1-20.77,13.55-33.66,13.64a24.1,24.1,0,0,1-16.61-6.61c-3.92-3.7-6.87-8.41-11.22-11.66a12.77,12.77,0,0,0-7-2.82c-3.21-.09-5.89,2.78-8.29,4.57q-8.61,6.36-17.55,12.25a385.071,385.071,0,0,1-41.29,23.66.65.65,0,0,0-.22.86c7,12.58,16.16,27.56,31.41,30.72,9,1.86,18-.59,26.84-2.05,8.29-1.37,17.47-1.86,24.88,2.81,4.26,2.69,7.51,6.77,10.46,10.8a99.783,99.783,0,0,1,8.08,13.08.63.63,0,0,0,1,.12,415.309,415.309,0,0,0,44.6-41.44q5.22-5.62,10.25-11.44c3.26-3.77,6.35-7.71,9.7-11.41s7-7,11.71-8.39c4.35-1.33,9.27-.78,12.48,2.68,2.69,2.92,4,7.5,2.32,11.23a18.41,18.41,0,0,1-4.38,5.25l-6.11,5.8-24.07,22.84c-3.85,3.65-7.72,7.27-11.52,11a68,68,0,0,0-9.61,11.08c-2.54,3.83-4.52,8.27-8.09,11.29-3.39,2.87-8.38,4.12-12.52,2.18-6.93-3.24-8.84-15.86.09-17.79a6.28,6.28,0,0,1,7.68,6.12c.05,2.1-1,4.25-3.2,4.72a3.26,3.26,0,0,1-4.12-2.85c-.06-1.62,1.11-4,3-3.64.79.14,1.13-1.07.34-1.21Z" transform="translate(2159.959 48.426) rotate(-20)" fill="#231f20"/>
    <line id="Line_1" data-name="Line 1" x1="42" y2="83" transform="translate(2656.5 184.5)" fill="none" stroke="#231f20" stroke-width="1"/>
  </g>
</svg>
