<svg xmlns="http://www.w3.org/2000/svg" width="900" height="900" viewBox="0 0 900 900">
  <g id="Group_113" data-name="Group 113" transform="translate(-5261 -6988)">
    <g id="quality" transform="translate(5460.575 7188.001)">
      <path id="Path_112" data-name="Path 112" d="M293.773,195.352l-72.1,68.1-34.6-35.6a9.971,9.971,0,1,0-14.3,13.9l41.5,42.6a10.155,10.155,0,0,0,14.1.3l79.3-74.8a9.963,9.963,0,0,0,.4-14.1A10.206,10.206,0,0,0,293.773,195.352Zm0,0" transform="translate(10.21 10.209)" fill="#323232"/>
      <path id="Path_113" data-name="Path 113" d="M250.473,90.551c-88.024,0-159.6,71.577-159.6,159.6s71.574,159.608,159.6,159.608,159.6-71.577,159.6-159.608S338.5,90.551,250.473,90.551Zm0,297.846c-76.273,0-138.233-62.07-138.233-138.242S174.2,111.917,250.473,111.917a138.24,138.24,0,0,1,0,276.479Zm0,0" transform="translate(0 0)" fill="#323232"/>
      <path id="Path_114" data-name="Path 114" d="M464.823,192.816l3.441-61.823a10.4,10.4,0,0,0-5.734-9.9L407.483,93.254,379.648,38.207a10.579,10.579,0,0,0-9.9-5.734l-61.929,3.339L256.21,1.719a10.42,10.42,0,0,0-11.468,0L193.136,35.813l-61.819-3.441a10.384,10.384,0,0,0-9.9,5.734L93.574,93.152,38.531,120.987a10.564,10.564,0,0,0-5.734,9.9l3.437,61.823L2.144,244.32a10.42,10.42,0,0,0,0,11.468L36.133,307.5l-3.441,61.823a10.4,10.4,0,0,0,5.734,9.9l55.047,27.835L121.307,462.1a10.564,10.564,0,0,0,9.9,5.734l61.823-3.441,51.606,34.09a10.151,10.151,0,0,0,11.468,0l51.606-34.09,61.823,3.441a10.405,10.405,0,0,0,9.9-5.734l27.835-55.047,55.047-27.835a10.575,10.575,0,0,0,5.734-9.9L464.615,307.5l34.09-51.606a10.42,10.42,0,0,0,0-11.468ZM445.43,298.947a9.79,9.79,0,0,0-1.666,6.361l3.229,58.484-52.021,26.271a10.288,10.288,0,0,0-4.586,4.59l-26.275,52.021-58.484-3.229a11.389,11.389,0,0,0-6.361,1.666l-48.792,32.217L201.688,445.11a10.32,10.32,0,0,0-5.734-1.772h-.521l-58.488,3.233-26.271-52.025a10.268,10.268,0,0,0-4.59-4.586L53.958,363.792l3.233-58.484a11.393,11.393,0,0,0-1.67-6.361L23.309,250.156l32.213-48.792a9.757,9.757,0,0,0,1.67-6.357l-3.233-58.488,52.025-26.271a10.279,10.279,0,0,0,4.586-4.586l26.271-52.025,58.488,3.233a11.443,11.443,0,0,0,6.361-1.67l48.787-32.213L299.267,55.2a9.775,9.775,0,0,0,6.361,1.67l58.484-3.233,26.275,52.025a10.279,10.279,0,0,0,4.586,4.586l52.021,26.271-3.229,58.488a11.418,11.418,0,0,0,1.666,6.357l32.217,48.792Zm0,0" fill="#323232"/>
    </g>
    <g id="Group_112" data-name="Group 112" transform="translate(4520 40)">
      <circle id="Ellipse_23" data-name="Ellipse 23" cx="450" cy="450" r="450" transform="translate(741 6948)" fill="none"/>
    </g>
  </g>
</svg>
