<svg xmlns="http://www.w3.org/2000/svg" width="900" height="900" viewBox="0 0 900 900">
  <g id="Group_71" data-name="Group 71" transform="translate(2433 -6948)">
    <path id="Path_102" data-name="Path 102" d="M450,0C698.528,0,900,201.472,900,450S698.528,900,450,900,0,698.528,0,450,201.472,0,450,0Z" transform="translate(-2433 6948)" fill="none"/>
    <g id="cotton_1_" data-name="cotton (1)" transform="translate(-2233 7147.997)">
      <path id="Path_33" data-name="Path 33" d="M456.875,187.02A91.965,91.965,0,0,0,372.469,76.555a136.227,136.227,0,0,0-244.922,0A91.965,91.965,0,0,0,43.125,187.02C15.652,205.215,0,231.157,0,258.832c0,52.906,57.609,95.945,128.418,95.945h.813a67.97,67.97,0,0,0,27.02,5.578h71.531V493.168A6.84,6.84,0,0,0,234.617,500h30.762a6.836,6.836,0,0,0,6.836-6.836V360.356H343.75a68,68,0,0,0,27.02-5.59h.813C442.391,354.778,500,311.739,500,258.832,500,231.157,484.348,205.215,456.875,187.02Zm-191.5,159.664a6.84,6.84,0,0,0-6.836,6.836V486.332h-17.09V353.52a6.836,6.836,0,0,0-6.836-6.836H156.25a54.777,54.777,0,0,1-54.266-47.863h86.492a6.832,6.832,0,0,0,4.832-11.668l-4.766-4.738a54.773,54.773,0,0,1-4.535-72.227l61.16,61.156a6.828,6.828,0,0,0,9.664,0l61.16-61.156a54.777,54.777,0,0,1-4.535,72.227l-4.766,4.77a6.832,6.832,0,0,0,4.832,11.637h86.492a54.777,54.777,0,0,1-54.266,47.863ZM392.625,339.7A68.1,68.1,0,0,0,412.109,292a6.836,6.836,0,0,0-6.836-6.848H327.148a68.465,68.465,0,0,0-6.039-89.773,6.832,6.832,0,0,0-9.668,0L250,256.844l-61.457-61.457a7.031,7.031,0,0,0-9.668,0,68.465,68.465,0,0,0-6.039,89.762H94.711a6.836,6.836,0,0,0-6.836,6.836,68.1,68.1,0,0,0,19.493,47.708c-53.243-7.106-93.7-40.649-93.7-80.86,0-24.176,14.844-47.066,40.766-62.8a6.824,6.824,0,0,0,3.063-7.59,78.3,78.3,0,0,1,74.551-98.367,6.828,6.828,0,0,0,6.137-4.031,122.559,122.559,0,0,1,223.625,0,6.828,6.828,0,0,0,6.156,4.031A78.3,78.3,0,0,1,442.5,188.438a6.828,6.828,0,0,0,3.059,7.59c25.926,15.738,40.77,38.629,40.77,62.8,0,40.211-40.453,73.754-93.7,80.863Z" fill="#323232" stroke="#323232" stroke-width="5"/>
      <path id="Path_35" data-name="Path 35" d="M64,10a1.75,1.75,0,0,0,0,3.5,21.438,21.438,0,0,1,13.588,4.887,1.75,1.75,0,1,0,2.224-2.7A24.943,24.943,0,0,0,64,10Z" transform="translate(210.989)"/>
    </g>
  </g>
</svg>
