<svg id="Layer_1" data-name="Layer 1" xmlns="http://www.w3.org/2000/svg" viewBox="0 0 680.17 625.02"><defs><style>.cls-1{fill:#a9d767;}.cls-2{fill:#f9e76f;}.cls-3{fill:#b9ddd5;}.cls-4{fill:#231f20;}</style></defs><circle class="cls-1" cx="90.19" cy="542.03" r="28.69"/><path class="cls-1" d="M442.53,572.54s4.64,42.68,92.33,1C534.86,573.56,499.73,547.4,442.53,572.54Z"/><path class="cls-1" d="M99.57,174s32.18-32.37,23-91.72C122.56,82.32,47.23,164.9,99.57,174Z"/><path class="cls-1" d="M97.16,252.8s-67.74-12.23-73.62,5.8c0,0,43.86,26.25,78.72,25.51S97.16,252.8,97.16,252.8Z"/><circle class="cls-2" cx="233.98" cy="430.61" r="111.42"/><ellipse class="cls-2" cx="571.49" cy="230.49" rx="37.06" ry="37.16"/><circle class="cls-1" cx="600.17" cy="370.47" r="28.69"/><circle class="cls-3" cx="435.41" cy="370.47" r="50.57"/><circle class="cls-1" cx="270.32" cy="230.49" r="27.34"/><circle class="cls-3" cx="336.43" cy="109.13" r="72.79"/><path class="cls-4" d="M435.11,343.6l14.27-26.24,7.14-13.13a112.53,112.53,0,0,1,6.3-11c2.4-3.4,5.62-6.59,10-7l-.63-.62c-.26,7.74,4.3,14.73,10.12,19.47,6.78,5.51,15.09,8.7,22.78,12.69a230.21,230.21,0,0,1,23.3,13.9c7.52,5.1,14.59,10.74,21.6,16.52,6.57,5.41,13.38,10.76,21.33,14a39.35,39.35,0,0,0,12.26,2.91,31.59,31.59,0,0,0,11.81-1.67c3.28-1.05,8.09-2.87,10.84.22s.38,7.72-1.38,10.58c-2.45,4-5.33,7.76-8,11.61l-8.52,12.26-16.91,24.32c-5.15,7.41-10.73,14.74-14.58,22.94a69.07,69.07,0,0,0-3.88,11,62.42,62.42,0,0,1-3.44,10.17c-1.5,3.12-3.74,6.26-7,7.78a4,4,0,0,1-3.82.12,8.26,8.26,0,0,1-2.12-2.17,52.07,52.07,0,0,0-4-4.43c-5.56-5.51-12.2-9.77-18.84-13.84-7.09-4.34-14.19-8.6-20.67-13.84-13.55-10.95-24.87-24.42-38.93-34.76a80.55,80.55,0,0,0-21.53-11.67,54.16,54.16,0,0,0-11.59-2.6c-3.34-.36-6.68-.37-9.92-1.35-2.73-.83-5.69-2.58-5.34-5.86.25-2.32,2.08-4.22,3.49-5.95l4.73-5.8,9.3-11.42,4.74-5.8c1.13-1.39,3-4.69,5.13-4.31a6.13,6.13,0,0,1,2.7,1.77c.85.74,1.69,1.49,2.53,2.24l5.43,4.79a.63.63,0,0,0,1-.61,38.81,38.81,0,0,0-6.48-13.64c-.48-.64-1.56,0-1.08.63a38,38,0,0,1,6.36,13.35l1-.61-5.6-5c-1.5-1.32-3-3.13-4.9-3.92a3.72,3.72,0,0,0-4.2,1,59.29,59.29,0,0,0-4.59,5.53l-9.78,12c-3.06,3.75-6.32,7.42-9.18,11.32-1.88,2.55-2.85,5.94-.63,8.59,1.85,2.2,5,3,7.67,3.52,3.59.63,7.25.59,10.84,1.24a57.28,57.28,0,0,1,12.24,3.71c16.6,7.08,29.31,20.2,42.14,32.43a171.43,171.43,0,0,0,20.64,17.41c6.78,4.68,14,8.61,20.88,13.18a82.7,82.7,0,0,1,9.76,7.51,51.92,51.92,0,0,1,4.28,4.37c1.22,1.39,2.27,3.25,3.94,4.15,3.29,1.78,7.12-1.26,9.2-3.63a26.23,26.23,0,0,0,4.76-8.88c1.22-3.52,2.06-7.16,3.19-10.72A59.25,59.25,0,0,1,561,440.15c4.9-8.32,10.78-16.11,16.29-24L594.77,391l8.8-12.67c2.19-3.15,4.64-6.5,5-10.45a6.26,6.26,0,0,0-4.83-7c-3.54-.75-7.19.91-10.51,1.91-8.87,2.66-18.42.25-26.36-4.05s-14.94-10.6-22-16.36a232.42,232.42,0,0,0-22.55-16.15,250.48,250.48,0,0,0-24.48-13.43c-7.91-3.84-16.23-8-21.08-15.71a20.2,20.2,0,0,1-3.34-11.47.62.62,0,0,0-.62-.63c-7.79.71-11.88,8.54-15.21,14.65l-15,27.56L434,343c-.38.71.7,1.34,1.08.63Z"/><path class="cls-4" d="M561.79,227.64c1.39-7.79,11.09-11.92,18-8.59,7.64,3.69,10.32,13.64,7.35,21.2-3.35,8.55-13.36,15.21-22.61,14.48s-15.25-10.54-14.33-19.3c1-9.81,8.69-18.16,17.66-21.64,8.71-3.38,18.69-2.18,25.56,4.42a20.08,20.08,0,0,1,6.08,11.33c.85,5.49-.74,11.09-3,16.05-3.57,7.81-10,17.27-19.32,18.26-5.19.56-9.71-2.14-13.89-4.87s-8-5.46-11.94-8.38a255.76,255.76,0,0,1-22.67-19.3,381.31,381.31,0,0,1-39.17-44.37c-12-15.68-23.35-31.94-34.31-48.38-1.55-2.31-2.91-4.75-2.13-7.61a29.3,29.3,0,0,1,3.24-6.63,66.27,66.27,0,0,1,7.76-11c5.78-6.52,13.54-11.42,22.55-10.71,9.77.77,18,7.52,24.78,14,7.69,7.37,15,15.22,22.17,23.07q22.13,24.15,42,50.27,4.82,6.34,9.5,12.8c.25.34.87.47,1.08,0,3.23-7,11.5-9.33,18.67-9.11,9.53.29,18.33,4.94,27.83,5.62a32.16,32.16,0,0,0,22.56-7.36,31,31,0,0,0,11.11-21.2,32.12,32.12,0,0,0-6.89-22.93c-4.89-6.12-11.64-10.38-18.22-14.45-6.89-4.26-14-8.48-19.42-14.6A45.61,45.61,0,0,1,611,95.43c-2.58-16.84,5.32-34.05,19.43-43.5a45.45,45.45,0,0,1,5.29-3c.54-.26.3-1-.15-1.14L582,25.8,555.34,14.87,541.89,9.36c-3.5-1.43-7.28-3.14-10.58-.38-2.63,2.19-4.12,5.8-5.41,8.88a55.29,55.29,0,0,0-3.37,11.26,58.35,58.35,0,0,0,.26,22.73,56.26,56.26,0,0,0,9.45,21.24c4.59,6.41,10.16,12,15.46,17.86a116.67,116.67,0,0,1,7.89,9.44c2.18,3,5.51,6.93,5.17,10.84-.19,2.29-2,3.67-3.92,4.61s-4.15,1.72-6.22,2.55l-13.34,5.36-6.55,2.64c-.74.29-.42,1.5.33,1.2l13.11-5.27c4.2-1.68,8.46-3.26,12.6-5.08,3.09-1.37,5.6-3.64,5.21-7.29s-3.05-7.1-5.18-10c-9.31-12.72-22.54-22.57-29.16-37.19a56.16,56.16,0,0,1,.25-46.29c1.49-3.18,3.58-7.9,7.75-7.77,2.28.07,4.55,1.32,6.62,2.17l6.61,2.71,26.67,10.93,53.1,21.77L635.25,49l-.15-1.15a45.66,45.66,0,0,0-20.48,62.62c3.82,7.33,9.54,13.06,16.28,17.75s13.94,8.36,20.34,13.37c6.67,5.23,11.82,11.95,13.42,20.43a30.38,30.38,0,0,1-6.25,24.95A31.21,31.21,0,0,1,636.23,198c-9.9.45-19-4.32-28.69-5.47-6.73-.8-14.67.39-19.63,5.4a14.52,14.52,0,0,0-2.85,4.13h1.08q-20.67-28.47-44-54.84Q530.32,134,517.9,121.33c-7-7.18-14.52-14.9-24.18-18.44a25.29,25.29,0,0,0-13.83-1.15,27.77,27.77,0,0,0-11.57,5.71,48.92,48.92,0,0,0-9.28,10.2c-1.37,1.95-2.64,4-3.82,6a34.11,34.11,0,0,0-3.25,6.51c-1.64,5.18,2.58,9.66,5.29,13.64q4.49,6.61,9,13.2c6.09,8.79,12.29,17.5,18.71,26.05,12.75,17,26.4,33.33,41.7,48.07a256.55,256.55,0,0,0,24,20.53c4.24,3.18,8.58,6.24,13.06,9.1,4.2,2.68,8.8,5,13.93,4.26,9.42-1.29,15.95-10.42,19.68-18.39,2.31-4.94,4-10.4,3.52-15.91a20.94,20.94,0,0,0-5.2-12c-6.24-7.14-16-9.59-25.07-7.21-9.49,2.51-17.81,9.86-20.75,19.32-2.69,8.64.28,18.75,8.5,23.25,8.52,4.67,19.65,0,25.7-6.71,5.83-6.48,7.44-15.92,2.74-23.52a14.27,14.27,0,0,0-20.16-5.06,12.62,12.62,0,0,0-6.07,8.45c-.14.79,1.06,1.13,1.2.34Z"/><path class="cls-4" d="M310.72,380.12a297.38,297.38,0,0,1-51-8.55A298.69,298.69,0,0,1,211,354.35q-13.24-6-25.85-13.32a.64.64,0,0,0-.92.37l-6.93,23.8c-.85,2.93-2,6.32-.1,9.12s5.28,4,8,5.47c7,3.72,14,7.69,21.13,11.11,5.89,2.81,12.83,5.19,19.34,3.16,5.75-1.8,11.08-6.89,10.54-13.31a.64.64,0,0,0-.79-.6A73.29,73.29,0,0,0,195.74,405a70.33,70.33,0,0,0-7.47,11.11.63.63,0,0,0,.09.76c6.44,5.33,15.26,3.93,22.08.1,8.15-4.55,12.92-12.55,17.91-20.11,3.07-4.65,6.3-9.2,10.51-12.88l-1.07-.44.67,28.53c.16,7-.34,14.54,2.45,21.14a12.15,12.15,0,0,0,4.81,6,8.85,8.85,0,0,0,7.56.57c5.28-2.11,7.48-8.6,8.15-13.76a45.62,45.62,0,0,0-.22-10.89,74,74,0,0,0-2.41-12.26,75,75,0,0,0-4.31-11.49q-1.35-2.89-3-5.66a10.59,10.59,0,0,0-1.47-2.39,3,3,0,0,0-1.6-.44c-5.23-.46-7.83,6.47-6.66,10.68,1.78,6.42,10.07,8.1,15.68,8.84,15.49,2.06,32.58,3.95,47.42-2.15a45,45,0,0,0,5.22-2.55l-.92-.37q5.13,34.83,8.29,69.93,1.56,17.33,2.64,34.7c.68,11.14,1,22.29,1.65,33.44.56,10,2,20.56,8.9,28.3l.12-1a153.57,153.57,0,0,1-50.44,16.68A152,152,0,0,1,253.82,581q-3.31-.09-6.63-.33a32.34,32.34,0,0,1-6.2-.76,5.12,5.12,0,0,1-4-4.26,31.93,31.93,0,0,1,0-6.7q1.23-29.43,4.66-58.71c.28-2.45.58-4.89.89-7.34a42.88,42.88,0,0,0,.54-6.2,9.76,9.76,0,0,0-5.1-8.89,46,46,0,0,0-12.28-4.49c-4-.91-8.56-1.78-12.63-1.18s-5.93,3.6-7.52,7c-2.11,4.47-4.2,9-6.31,13.44l-12.67,27L174,556.25c-1,2.08-1.87,4.21-3,6.23-1.22,2.27-2.91,3.34-5.54,2.88a122.35,122.35,0,0,1-13-3.38,254.64,254.64,0,0,1-50.12-20.54q-5.85-3.15-11.51-6.61c-1.7-1-3.94-2.05-5-3.79-1.4-2.21.09-4.91,1.06-7a265.82,265.82,0,0,1,13.47-24.77c10.06-16.63,20.81-32.86,31.3-49.23L164,399.56l7.82-12.21c.44-.68-.64-1.31-1.08-.63l-32.89,51.36c-10.79,16.86-21.67,33.67-32.37,50.6-5.07,8-10,16.11-14.5,24.47a139.07,139.07,0,0,0-6.16,12.49c-.72,1.76-1.21,3.77-.33,5.57a9.08,9.08,0,0,0,3.63,3.4,256.8,256.8,0,0,0,75.12,31.52c1.86.45,3.93,1,5.78.22a7.12,7.12,0,0,0,3.3-3.56c2.2-4.28,4.12-8.74,6.17-13.1l25.77-54.88c1-2.11,1.93-4.25,3-6.33.92-1.82,2.07-3.66,4-4.57,2.11-1,4.68-.74,6.94-.55a51.84,51.84,0,0,1,7,1.08c4.37,1,9.1,2.39,12.9,4.83,4.09,2.63,4,7.21,3.5,11.54-2.41,19.78-4.35,39.58-5.4,59.49q-.19,3.69-.36,7.38a62,62,0,0,0-.17,7,7.38,7.38,0,0,0,1.7,4.6,8,8,0,0,0,4.58,2.12,88.06,88.06,0,0,0,12.58.88q6.75.16,13.49-.27a155.24,155.24,0,0,0,51.71-12.45q6-2.6,11.74-5.7a.63.63,0,0,0,.13-1c-6.28-7.06-7.82-16.73-8.43-25.84-.73-10.91-1-21.87-1.62-32.79q-2.07-34.5-6.05-68.84-2.23-19.22-5-38.34a.63.63,0,0,0-.92-.38c-13,7.39-28.46,7-42.87,5.57-3.57-.35-7.16-.7-10.7-1.27a23.46,23.46,0,0,1-8.87-2.89c-2.5-1.57-4.38-3.92-4.3-7a7.89,7.89,0,0,1,3.15-6.3c.78-.5,2.41-1.07,3.29-.48.52.35.95,1.53,1.26,2.06.52.89,1,1.79,1.49,2.7a74,74,0,0,1,8.47,33.11c.06,5.16-1.25,11.53-5.33,15.07a7.56,7.56,0,0,1-7.25,1.55,9.32,9.32,0,0,1-5.27-5c-2.86-5.6-2.63-12.18-2.77-18.28L239.2,390l-.16-6.45a.63.63,0,0,0-1.06-.44c-12.79,11.18-17.45,32.38-36.25,35.78A15.11,15.11,0,0,1,189.25,416l.09.76A72.25,72.25,0,0,1,223,385.65a69.71,69.71,0,0,1,12.74-4.3l-.79-.6c.47,5.67-4.07,10.18-9.12,11.93-6.31,2.2-13.13-.11-18.88-2.86-6.42-3.06-12.64-6.61-18.92-9.94l-4.63-2.46a20.11,20.11,0,0,1-4-2.5c-2.94-2.58-1.85-6.13-.9-9.39l6.93-23.79-.92.37a299.52,299.52,0,0,0,46.93,21.95,300.45,300.45,0,0,0,50.28,13.59q14.4,2.57,29,3.72c.8.06.79-1.19,0-1.25Z"/><path class="cls-4" d="M268.87,193.64l-8.24,62.07-1,7.88c-.26,1.92-.79,4.18.21,6a5.65,5.65,0,0,0,4.11,2.46c2.41.48,4.87.8,7.29,1.19l31,5,62,10c2.59.41,5.17.86,7.77,1.25a9.41,9.41,0,0,0,5.46-.32,6.28,6.28,0,0,0,3-3.81,50,50,0,0,0,1.55-6.64,200,200,0,0,0,3.26-30c.44-10.2.43-20.42.5-30.62l.24-31.43.05-7.73-1.16.32,11.24,20.5c1.32,2.42,2.53,6.24,6,5.21a35.61,35.61,0,0,0,4.48-2l5.4-2.47,21.15-9.68c3.45-1.58,6.91-3.12,10.35-4.73,2.21-1,4.56-2.68,3.74-5.47a24.13,24.13,0,0,0-2.19-4.37L442.25,171l-5.43-10.11-11.08-20.68c-3.51-6.54-6.95-13.12-10.56-19.61a90.34,90.34,0,0,0-11-16.22c-8.72-9.8-23-17-36-11.52-.23.1-.5.31-.46.6a190.84,190.84,0,0,0,6.58,31l.6-.79a49.1,49.1,0,0,1-31.2-14.4l.1.75c2.41-3.77,5.91-6.89,9.05-10s6.4-6.11,8.74-9.78a.63.63,0,0,0-.22-.85c-5.24-3.49-11.52-5.23-17.67-6.27A110.43,110.43,0,0,0,323,81.72c-3.54.07-7.08.28-10.61.61a.63.63,0,0,0-.44,1.06c4.47,5.1,9.9,9.36,15.15,13.61s10.75,8.41,15.65,13.14l.13-1c-5.5,2.89-11.55,4.65-17.53,6.24-6.36,1.69-12.78,3.1-19.14,4.81-3.27.88-6.52,1.84-9.68,3l.79.61A186.42,186.42,0,0,1,305,86.44a.64.64,0,0,0-.43-.77,41.72,41.72,0,0,0-29.29-.06C266,89.12,258.66,96.07,251.8,103q-12.3,12.45-24.54,25l-6.11,6.21a46.36,46.36,0,0,0-5.2,5.57,5.24,5.24,0,0,0-.55,5.59c1.1,2.13,3.23,3.8,4.9,5.47q13.75,13.71,27.8,27.14a.62.62,0,0,0,.75.1l22.76-15.3-.94-.54c-.69,10.41.19,20.93-1.78,31.23-.15.79,1.06,1.13,1.21.34,2-10.42,1.12-21,1.82-31.57a.63.63,0,0,0-.94-.54L248.22,177l.76.1q-11.83-11.32-23.46-22.84l-5.72-5.69c-1.61-1.61-4.28-3.68-3.68-6.28.56-2.39,3.06-4.28,4.7-5.95l5.75-5.86,23.21-23.62c6.79-6.92,13.64-14.2,22.45-18.56a40.39,40.39,0,0,1,32-1.43l-.43-.76a187.58,187.58,0,0,0-7.71,37.74.63.63,0,0,0,.79.6c12.16-4.61,25.22-6.28,37.53-10.42a62.62,62.62,0,0,0,9.12-3.79.63.63,0,0,0,.12-1c-4.9-4.73-10.36-8.87-15.65-13.14s-10.68-8.51-15.15-13.61l-.44,1.07a137.51,137.51,0,0,1,19-.51,79.37,79.37,0,0,1,20,3.12,35.39,35.39,0,0,1,9.22,4.24l-.22-.86c-2.41,3.77-5.92,6.89-9.06,10s-6.4,6.11-8.74,9.78a.63.63,0,0,0,.1.76,50.38,50.38,0,0,0,32.08,14.77.62.62,0,0,0,.6-.79,190.25,190.25,0,0,1-6.53-30.69l-.46.61c11.1-4.67,23.64.29,31.9,8.17,9.26,8.83,14.8,20.89,20.76,32l20.52,38.26,2.59,4.84c.74,1.38,2.44,3.52,1.84,5.17-.43,1.2-1.81,1.87-2.87,2.38-1.73.83-3.5,1.6-5.25,2.4l-19.35,8.85-11,5a38,38,0,0,1-5.77,2.57,2.18,2.18,0,0,1-2.74-1.27c-.49-.81-.92-1.66-1.38-2.5L386,178.6a.63.63,0,0,0-1.17.31c-.15,20.05-.11,40.1-.5,60.14a271.16,271.16,0,0,1-1.85,29.05,146.77,146.77,0,0,1-2.62,14.72c-.45,1.94-1,4.27-3,5.19s-4.76.21-6.93-.14l-59.54-9.59-30-4.84-14.76-2.38c-2.15-.35-4.77-.73-5.1-3.34-.29-2.2.38-4.66.67-6.84L269.14,201l1-7.39c.11-.79-1.14-.79-1.25,0Z"/><path class="cls-4" d="M330.71,122.81a94.08,94.08,0,0,1-.88,17.75q-.61,4.22-1.62,8.36c-.33,1.38-.72,2.74-1.09,4.11a4,4,0,0,0-.07,2.71,2.85,2.85,0,0,0,2,1.41c1.26.36,2.57.61,3.84.92,2.22.53,4.63,1.2,6.9.59,4.14-1.12,4.78-5.8,4.82-9.44,0-3.33-.61-8.55-5.15-8-3.25.37-3.55,4.35-.53,5.4,4.12,1.43,5.94-2.93,6.11-6.25a60.4,60.4,0,0,0,0-8c-.16-2-.81-4-2.74-4.91-1.52-.69-3.65-.38-4.25,1.4a3.57,3.57,0,0,0,2.18,4.17c1.94.74,4-.59,5-2.2,1.51-2.47.82-5.48.15-8.1a.63.63,0,0,0-1.21.33c.49,1.91,1.08,4,.5,6-.48,1.61-2.3,3.7-4.17,2.74-1.28-.66-2-3-.15-3.39,2.08-.49,3.2,1.84,3.42,3.48a40.75,40.75,0,0,1,.13,5.3,21.17,21.17,0,0,1-.33,5.39c-.38,1.43-1.23,2.9-2.85,3-1.08.08-2.9-.52-2.64-1.92.22-1.21,1.77-1.41,2.75-1.14,1.79.47,2.37,2.44,2.54,4.09.28,2.75.33,6.4-1.17,8.84-2,3.32-6.25,2.05-9.33,1.32l-2.64-.63c-1.12-.27-2.23-.52-2-2,.32-1.94,1.05-3.87,1.5-5.79A95.61,95.61,0,0,0,332,122.81c0-.8-1.29-.81-1.25,0Z"/><path class="cls-4" d="M147.18,318.87c-9.37-13.3-13.24-29.53-22.28-43a46.17,46.17,0,0,0-17.59-16c-7.47-3.72-15.81-5.28-24.09-5.71-9.9-.51-19.8.51-29.62,1.71-.35,0-.77.37-.6.79C56.66,265.41,63.9,272,72.33,276c9.87,4.75,20.93,5.85,31.75,5.2a179.13,179.13,0,0,0,20.63-2.7.64.64,0,0,0,.44-.77c-7.57-19.37-15.43-39.6-14.87-60.74.43-16.47,7.29-32.9,20.3-43.4A37.4,37.4,0,0,1,154.84,165l-.63-.63a139.86,139.86,0,0,1-26,69.75,136.74,136.74,0,0,1-13.93,16.37l1,.13c-5.73-8.82-6.52-19.55-9-29.52A73.61,73.61,0,0,0,95.55,197a83,83,0,0,0-40.9-31.21,74.21,74.21,0,0,0-29.1-4.09.63.63,0,0,0-.44,1.07,83.29,83.29,0,0,0,49.41,27.74,81.12,81.12,0,0,0,16.25,1,.63.63,0,0,0,.54-.94c-6.28-12.22-6-26.52-2.51-39.52,3.67-13.72,11-26,18.32-38.06,4.16-6.83,8.35-13.64,12.06-20.73L118,92a126.68,126.68,0,0,1-21.49,65.8,122.63,122.63,0,0,1-12.47,15.63c-.55.59.33,1.47.88.89a128,128,0,0,0,32-62.53A125.24,125.24,0,0,0,119.26,92a.62.62,0,0,0-1.16-.31c-13,24.93-33.46,48.37-33,78.07a48.48,48.48,0,0,0,5.15,21.5l.54-.94a82.16,82.16,0,0,1-53.29-17.39,79.38,79.38,0,0,1-11.49-11l-.44,1.07c17.46-1.11,34.84,4.47,49,14.54s25.33,24.8,30,41.69c3,10.75,3.41,22.47,9.65,32.07a.63.63,0,0,0,1,.12A141,141,0,0,0,152,185.48a138.8,138.8,0,0,0,3.43-21.14.62.62,0,0,0-.62-.62c-16.34-.38-30.15,10.66-37.95,24.31a59.31,59.31,0,0,0-7.51,23.4c-1.07,10.62.23,21.33,2.73,31.66,2.9,12,7.35,23.54,11.83,35l.44-.77c-20.45,3.62-44.27,6-61.16-8.72a33.61,33.61,0,0,1-9-12.26l-.61.79c16.49-2,34.52-4,50.3,2.56A44,44,0,0,1,122.81,275c4.53,6.35,7.76,13.5,10.9,20.59,3.64,8.21,7.19,16.53,12.39,23.9.46.65,1.54,0,1.08-.63Z"/><path class="cls-4" d="M84.52,173.6a115.56,115.56,0,0,1-22-34.79,119.48,119.48,0,0,1-8.7-40,113,113,0,0,1,1.42-23.17l-1.15.15a162.26,162.26,0,0,1,16.33,35.82,163.11,163.11,0,0,1,4.77,19c1.17,6.23,1.77,12.52,2.66,18.78,1,6.83,2.48,13.67,6.13,19.61a.63.63,0,0,0,1.08-.63c-3.33-5.41-4.83-11.6-5.79-17.82s-1.51-12.67-2.64-19a163.25,163.25,0,0,0-11.26-36.9,162.2,162.2,0,0,0-10.2-19.51c-.25-.42-1.05-.41-1.14.15a117.24,117.24,0,0,0,.63,41.39,120.42,120.42,0,0,0,14.85,38.92,115.63,115.63,0,0,0,14.08,18.85c.55.6,1.43-.29.89-.88Z"/><path class="cls-4" d="M410,601.89c11.36-2,18.24-13.78,18.95-24.6.49-7.52-1.35-15-3.81-22-2.61-7.49-5.76-14.81-8.71-22.18l-10.22-25.5a.63.63,0,0,0-1.2,0c-7.37,21.19-2.88,45.71,10.53,63.53a64.6,64.6,0,0,0,13.27,13.2c.43.31.89-.13.94-.54.76-6.32,4.31-11.87,9-16a38.12,38.12,0,0,1,18.47-8.36c7.62-1.38,15.44-1.08,23.12-.51q12.38.93,24.64,2.89,13.65,2.19,27.06,5.63l-.28-1a61.33,61.33,0,0,1-29,16.61,59.93,59.93,0,0,1-33.54-1.4A61.84,61.84,0,0,1,454.07,574a57.85,57.85,0,0,1-6.72-5.36,9.67,9.67,0,0,1-2.79-3.38c-.62-1.68.31-3.16,1.29-4.47a41.09,41.09,0,0,0,7.22-14.32,47.83,47.83,0,0,0,1.33-16.21c-1.13-13.47-7.35-25.87-14.45-37.13a.63.63,0,0,0-1.14.15,39.5,39.5,0,0,0-1.32,20.43,40.18,40.18,0,0,0,3.29,9.79c1.42,2.9,3.25,6.18,5.68,8.37,2.26,2,5.27,1.54,7.46-.35,2.77-2.41,3.08-6.32,3.78-9.69a30.26,30.26,0,0,1,9.73-16.33,30.65,30.65,0,0,1,20.2-7.84l-.54-.94a78,78,0,0,1-35.24,33.89c-.73.35-.09,1.43.63,1.08a79.27,79.27,0,0,0,29.77-24.81,78,78,0,0,0,5.92-9.53.63.63,0,0,0-.54-.94c-11.85,0-23.19,7.24-28.54,17.76a31.56,31.56,0,0,0-2.84,8.61c-.64,3.4-1.38,7.75-5.18,9s-6.16-3.52-7.72-6.14a38.64,38.64,0,0,1-3.34-32l-1.14.15c6.69,10.62,12.66,22.25,14.12,34.89a47.48,47.48,0,0,1-1.12,17.49,38.12,38.12,0,0,1-3.11,8c-1.33,2.51-3.19,4.58-4.68,7s-1.08,4.73.78,6.8a44.62,44.62,0,0,0,6.26,5.47,62.73,62.73,0,0,0,14.7,8.21A61.38,61.38,0,0,0,499.33,585a62.64,62.64,0,0,0,33.33-17.74.63.63,0,0,0-.28-1,300.75,300.75,0,0,0-50.58-8.44c-14.63-1.17-30.88-1.4-42.94,8.29-5.5,4.43-9.54,10.61-10.39,17.7l.94-.54c-17.7-13.08-27.58-35.39-26.66-57.23a63.44,63.44,0,0,1,3.43-18.09H405c5.77,14.42,11.74,28.77,17.3,43.26,4.69,12.23,8.54,26.36,1.68,38.55-3.07,5.47-8,9.84-14.33,11-.79.14-.45,1.34.34,1.2Z"/><path class="cls-4" d="M311.77,225.65l18.37,24.53c.48.63,1.56,0,1.08-.63L312.85,225c-.47-.63-1.56,0-1.08.63Z"/><path class="cls-4" d="M329.09,213.23l17.7,20.51c.53.61,1.41-.28.88-.89L330,212.35c-.53-.61-1.41.27-.89.88Z"/><path class="cls-4" d="M317.29,243.91a95.07,95.07,0,0,0,26.51-26c.45-.66-.63-1.29-1.08-.63a93.64,93.64,0,0,1-26.06,25.55c-.67.43,0,1.52.63,1.07Z"/><path class="cls-4" d="M510.74,415.37l18.36,24.52c.48.64,1.56,0,1.08-.63l-18.37-24.52c-.47-.64-1.56,0-1.07.63Z"/><path class="cls-4" d="M528.05,403l17.7,20.5c.53.61,1.41-.28.89-.88l-17.7-20.51c-.53-.61-1.41.28-.89.89Z"/><path class="cls-4" d="M516.25,433.63a95.21,95.21,0,0,0,26.51-26c.46-.67-.63-1.29-1.08-.63a93.47,93.47,0,0,1-26.06,25.54c-.67.44,0,1.52.63,1.08Z"/></svg>