<svg id="Layer_1" data-name="Layer 1" xmlns="http://www.w3.org/2000/svg" viewBox="0 0 1256.17 373.1"><defs><style>.cls-1{fill:#a9d767;}.cls-2{fill:#f9e76f;}.cls-3{fill:#b9ddd5;}.cls-4{fill:#231f20;}</style></defs><circle class="cls-1" cx="202.63" cy="312.25" r="28.69"/><path class="cls-1" d="M569,308.72s4.64,42.68,92.33,1C661.32,309.74,626.2,283.57,569,308.72Z"/><path class="cls-1" d="M95.12,200.81s32.18-32.37,23-91.72C118.11,109.09,42.78,191.68,95.12,200.81Z"/><path class="cls-1" d="M92.7,279.58S25,267.34,19.09,285.37c0,0,43.86,26.25,78.72,25.51S92.7,279.58,92.7,279.58Z"/><circle class="cls-2" cx="346.42" cy="200.82" r="111.42"/><ellipse class="cls-2" cx="1040.12" cy="242.34" rx="37.16" ry="37.06" transform="translate(401.77 1098.54) rotate(-66.41)"/><circle class="cls-1" cx="680.63" cy="72.82" r="28.69"/><circle class="cls-3" cx="519.49" cy="107.18" r="50.57"/><circle class="cls-1" cx="805.07" cy="296.55" r="27.34"/><circle class="cls-3" cx="807.47" cy="158.37" r="72.79"/><path class="cls-4" d="M513.6,80.93l8.62-29.12,4.24-14.32a95.16,95.16,0,0,1,3.94-12c1.65-3.67,4.1-7.19,8.12-8.43l-.77-.44c1.25,7.07,6.5,12.68,12.57,16.15,7.55,4.32,16.32,5.74,24.62,8a247.37,247.37,0,0,1,50.57,20.12c14,7.33,31.5,15.48,47,7.25,3.2-1.7,7.43-5.18,11.3-3.83,3.62,1.26,3.66,5.47,3,8.61-.9,4-2.89,7.84-4.48,11.63l-5.59,13.31-11.36,27.08c-3.59,8.55-7.61,17.06-10.33,25.94a60.19,60.19,0,0,0-2.45,12.62c-.31,3.8-.37,7.63-1,11.4-.57,3.56-1.65,7.15-4,9.94-1.44,1.7-3.62,3.49-5.92,2.3-1.66-.86-3.06-2.36-4.58-3.45-13.27-9.52-30-12.25-44.48-19.27-15.87-7.69-29.87-18.71-45.84-26.19a83.16,83.16,0,0,0-24.63-7.61,53.62,53.62,0,0,0-12.91-.12c-3.2.37-6.37,1-9.61.67-2.79-.26-5.89-1.39-6.24-4.58-.26-2.43,1.22-4.74,2.28-6.81L499,113l6.61-12.89,3.41-6.66c.8-1.56,1.85-5,3.9-5.22,1.24-.15,2.42.67,3.46,1.26l2.94,1.66,6.09,3.44a.63.63,0,0,0,.86-.86,38.83,38.83,0,0,0-9.19-12c-.6-.53-1.49.35-.88.88a38,38,0,0,1,9,11.73l.85-.85L519.78,90c-1.83-1-3.87-2.64-6-3a3.81,3.81,0,0,0-3.82,2c-1.25,2-2.18,4.16-3.24,6.22l-7,13.55c-2.24,4.37-4.71,8.68-6.71,13.17-1.28,2.88-1.57,6.37,1.14,8.51,2.2,1.74,5.31,1.95,8,1.89,3.69-.09,7.3-.93,11-1.06a57.6,57.6,0,0,1,13.8,1.27c18.18,3.81,33.6,14.56,49.2,24a156.85,156.85,0,0,0,23.64,12.21c7.76,3.07,15.8,5.42,23.49,8.68a71.87,71.87,0,0,1,11.08,5.76c1.77,1.15,3.41,2.43,5.06,3.75a5.55,5.55,0,0,0,4.43,1.59c3.51-.6,6-4.46,7.24-7.48a34.91,34.91,0,0,0,2.17-10.7c.32-4,.4-8.1,1.11-12.09a75,75,0,0,1,4-13.68c3.52-9.21,7.55-18.24,11.37-27.32l11.65-27.77c1.87-4.45,3.92-8.86,5.59-13.38,1-2.83,1.91-6.25,1-9.23a6.22,6.22,0,0,0-7.06-4.2c-4,.59-7.18,3.41-10.76,5-8,3.53-17.29,2.79-25.45.24-9-2.8-17.15-7.68-25.53-11.87a232.73,232.73,0,0,0-25.33-10.85,279.34,279.34,0,0,0-27-7.94C558.58,35.29,550,32.68,544,26.18A19.86,19.86,0,0,1,539,16.25a.63.63,0,0,0-.77-.44c-7.28,2.26-9.72,10.52-11.65,17l-9,30.55L512.39,80.6a.63.63,0,0,0,1.21.33Z"/><path class="cls-4" d="M1032.43,235.76c4.28-6.43,14.56-6.35,19.59-.9,6.07,6.56,4.25,17.39-2,23.15a23,23,0,0,1-12,5.63c-4.81.77-10.28.34-14.54-2.2-7.47-4.45-9.07-14.85-5.33-22.22,8.57-16.88,36.14-18.66,45.72-1.92a21.18,21.18,0,0,1,2.82,12.49c-.48,4.82-3,9.18-6.1,12.77a45.87,45.87,0,0,1-11,9.1c-4,2.36-8.55,4.19-13.24,4.18-5,0-9-2.51-12.11-6.32a107.83,107.83,0,0,1-8.33-12.79,246.55,246.55,0,0,1-13.57-26.55c-8.15-18.53-14.23-37.91-19.19-57.51s-8.86-39.58-12.56-59.51c-.48-2.58-1.28-5.55-.09-8.06,1.08-2.29,3.47-3.88,5.43-5.36a69.28,69.28,0,0,1,12.56-7.8c8.71-4.06,18.78-5.16,27.09.45,7,4.76,11.28,12.76,14.54,20.39,4.19,9.77,7.68,19.89,11.14,29.94q10.83,31.44,18.71,63.79,1.93,7.94,3.68,15.91a.64.64,0,0,0,1,.27c6.22-5.55,15.67-3.64,22.34,0,7.69,4.26,13.55,11.17,21.33,15.31a32.27,32.27,0,0,0,23.69,2.47,31,31,0,0,0,18.39-14.2,32.17,32.17,0,0,0,3.81-22.64c-1.64-7.85-6-14.73-10.53-21.25-4.68-6.8-9.76-13.57-12.5-21.45a45.49,45.49,0,0,1-1-26.07,44.9,44.9,0,0,1,35.07-32.56,43.9,43.9,0,0,1,6.27-.7.64.64,0,0,0,.44-1.07l-40.57-41.83-20.2-20.83-10.1-10.41c-2.59-2.67-5.35-5.48-9.39-4.19-3.51,1.12-6.57,4.14-9.13,6.68a55.92,55.92,0,0,0-6.91,8.36,58.18,58.18,0,0,0-8.61,20.1,55.9,55.9,0,0,0-.34,22.13c1.55,8.44,4.71,16.45,7.44,24.55a114,114,0,0,1,3.59,12.53c.73,3.39,2.08,8.26,0,11.43-1.18,1.8-3.32,2.25-5.35,2.31-2.19.07-4.4-.09-6.6-.15l-14.34-.43-7.18-.21a.63.63,0,0,0,0,1.25l14.35.43c4.51.13,9.07.46,13.58.37,3.29-.07,6.34-1.25,7.39-4.62s.12-7.19-.58-10.49c-3.46-16.34-12.43-31.43-12-48.51a56.32,56.32,0,0,1,18-39.62c2.76-2.52,7.07-6.73,11.1-4.65,1.9,1,3.36,2.82,4.82,4.33l5,5.2,20,20.65,40,41.3,5.05,5.2.45-1.06c-16.25.68-31.74,10.34-39.09,24.92a47,47,0,0,0-4.75,25.14c.76,8.47,4,16.08,8.55,23.19,4.4,6.93,9.64,13.36,13.33,20.73,3.76,7.53,5.22,15.82,2.88,24a30.33,30.33,0,0,1-15.45,18.89,31.21,31.21,0,0,1-25.25,1c-8.39-3.42-14.54-10.49-22-15.36-6.09-4-14.47-6.63-21.56-3.82a14.63,14.63,0,0,0-4.38,2.72l1.05.28a715.57,715.57,0,0,0-19-69.46q-5.61-17.12-12.07-33.93c-3.22-8.36-6.78-17.08-13.13-23.61A26.08,26.08,0,0,0,1010,88.3a26.73,26.73,0,0,0-14.52-.2,49.42,49.42,0,0,0-14.19,6.38c-2.24,1.41-4.39,3-6.49,4.56-1.88,1.46-4,2.94-5.19,5.07s-1,4.8-.61,7.23c.46,2.65,1,5.29,1.48,7.93q1.51,8.07,3.1,16.1c2.14,10.75,4.42,21.46,7,32.11,5.11,21,11.39,41.85,20,61.75a246.41,246.41,0,0,0,14.7,28.88c2.63,4.4,5.27,9,8.62,12.93a16.29,16.29,0,0,0,12.28,6c9.57.13,18.87-6.51,25-13.35a25.49,25.49,0,0,0,6.52-12.33,21.87,21.87,0,0,0-1.84-12.94c-8.43-18.2-35.52-18.26-46.87-3-5.08,6.83-5.64,16.64-.23,23.47,5.88,7.43,17.57,7.6,25.66,4.13s13.67-11.69,12.33-20.75a14.25,14.25,0,0,0-16.63-12.55,12.58,12.58,0,0,0-8.8,5.36c-.44.67.64,1.3,1.08.63Z"/><path class="cls-4" d="M423.15,150.33a296.46,296.46,0,0,1-51-8.55,298.69,298.69,0,0,1-48.75-17.22q-13.25-6-25.86-13.32a.63.63,0,0,0-.91.38l-6.93,23.79c-.86,2.93-2,6.32-.1,9.12s5.28,4,8,5.47c7,3.72,14,7.7,21.13,11.11,5.89,2.81,12.83,5.19,19.34,3.16,5.74-1.79,11.07-6.89,10.54-13.31a.64.64,0,0,0-.79-.6,73.29,73.29,0,0,0-39.68,24.85,71.64,71.64,0,0,0-7.48,11.12.63.63,0,0,0,.1.75c6.44,5.33,15.26,3.93,22.08.11,8.15-4.56,12.92-12.55,17.91-20.12,3.06-4.64,6.3-9.2,10.51-12.88l-1.07-.44.67,28.53c.16,7-.35,14.54,2.45,21.14a12.15,12.15,0,0,0,4.81,6,8.81,8.81,0,0,0,7.56.58c5.28-2.12,7.48-8.61,8.15-13.77a45.62,45.62,0,0,0-.22-10.89,75.24,75.24,0,0,0-6.72-23.75c-.9-1.92-1.89-3.81-3-5.65a10.16,10.16,0,0,0-1.47-2.39,3,3,0,0,0-1.6-.45c-5.23-.46-7.83,6.47-6.66,10.68,1.78,6.42,10.07,8.1,15.68,8.84,15.49,2.06,32.58,4,47.42-2.15a47.45,47.45,0,0,0,5.22-2.54l-.92-.38q5.13,34.84,8.29,69.93,1.56,17.32,2.63,34.7c.69,11.14,1,22.3,1.66,33.44.56,10,2,20.56,8.9,28.3l.12-1a153.58,153.58,0,0,1-77,18.23q-3.31-.1-6.63-.34a33.14,33.14,0,0,1-6.2-.75,5.13,5.13,0,0,1-4-4.26,31.93,31.93,0,0,1,0-6.7q1.23-29.43,4.66-58.71.42-3.68.89-7.34a43.14,43.14,0,0,0,.54-6.21,9.78,9.78,0,0,0-5.1-8.89,46,46,0,0,0-12.28-4.49c-4-.91-8.56-1.78-12.63-1.18s-5.93,3.6-7.52,7q-3.17,6.72-6.31,13.44L299,299.7l-12.57,26.76c-1,2.08-1.87,4.22-3,6.23-1.22,2.27-2.91,3.34-5.55,2.89a124.66,124.66,0,0,1-13-3.39,255,255,0,0,1-50.13-20.54q-5.84-3.15-11.5-6.6c-1.7-1-3.94-2.06-5-3.79-1.4-2.21.09-4.91,1.06-7a267.92,267.92,0,0,1,13.46-24.76c10.06-16.64,20.82-32.87,31.3-49.23l32.35-50.52,7.82-12.21c.44-.68-.64-1.3-1.08-.63l-32.89,51.36c-10.79,16.86-21.68,33.67-32.38,50.6-5.06,8-10,16.11-14.49,24.48a135.19,135.19,0,0,0-6.16,12.49c-.72,1.75-1.21,3.76-.33,5.56a9.17,9.17,0,0,0,3.63,3.41,252.45,252.45,0,0,0,48.85,23.64,255.77,255.77,0,0,0,26.27,7.87c1.86.45,3.93,1,5.78.23a7.18,7.18,0,0,0,3.3-3.57c2.2-4.28,4.12-8.74,6.17-13.1L316.68,265c1-2.11,1.93-4.25,3-6.33.92-1.81,2.07-3.66,4-4.56,2.11-1,4.68-.75,6.94-.56a51.84,51.84,0,0,1,7,1.08c4.37,1,9.1,2.39,12.9,4.83,4.09,2.63,4,7.21,3.5,11.55-2.41,19.77-4.35,39.58-5.4,59.48q-.19,3.69-.36,7.38a62.21,62.21,0,0,0-.17,7,7.33,7.33,0,0,0,1.7,4.59,7.92,7.92,0,0,0,4.58,2.12,88.06,88.06,0,0,0,12.58.88c4.49.11,9,0,13.49-.27a155.47,155.47,0,0,0,51.71-12.44c4-1.73,7.91-3.64,11.74-5.7a.64.64,0,0,0,.13-1c-6.28-7.05-7.83-16.73-8.43-25.83-.73-10.92-1-21.88-1.62-32.8q-2.07-34.5-6.05-68.84-2.23-19.22-5-38.34a.63.63,0,0,0-.92-.37c-13,7.38-28.46,7-42.87,5.57-3.57-.36-7.16-.71-10.7-1.28a23.62,23.62,0,0,1-8.87-2.88c-2.5-1.57-4.38-3.93-4.3-7a7.85,7.85,0,0,1,3.15-6.29c.78-.5,2.41-1.08,3.29-.48.52.34.95,1.52,1.26,2.06.51.89,1,1.79,1.49,2.7a72.05,72.05,0,0,1,4.54,10.57,73,73,0,0,1,3.93,22.54c.06,5.15-1.25,11.52-5.33,15.06a7.56,7.56,0,0,1-7.25,1.55,9.32,9.32,0,0,1-5.27-5c-2.86-5.59-2.63-12.17-2.77-18.28l-.6-25.55-.15-6.45a.63.63,0,0,0-1.06-.44c-12.79,11.18-17.45,32.38-36.25,35.78a15.07,15.07,0,0,1-12.48-2.89l.09.76a72.25,72.25,0,0,1,33.67-31.1,70.48,70.48,0,0,1,12.74-4.3l-.79-.6c.47,5.67-4.07,10.18-9.12,11.94-6.31,2.2-13.13-.12-18.88-2.87-6.42-3.06-12.64-6.6-18.92-9.94l-4.63-2.46a20.07,20.07,0,0,1-4-2.49c-2.94-2.59-1.85-6.13-.9-9.4L297.85,112l-.92.37a298.94,298.94,0,0,0,46.92,22,299.61,299.61,0,0,0,50.29,13.59c9.6,1.71,19.29,2.95,29,3.72.81.06.8-1.19,0-1.25Z"/><path class="cls-4" d="M786.67,264.44l21.6,59.29,2.64,7.24c.62,1.69,1.15,3.68,2.61,4.86s3.45,1,5.19.48c2.49-.73,4.95-1.64,7.42-2.46l30-10L916,303.92c2.4-.8,4.83-1.54,7.2-2.42a8,8,0,0,0,4.22-2.91,7.15,7.15,0,0,0,.49-5.41c-.51-2.38-1.24-4.73-1.95-7.06a203.9,203.9,0,0,0-10.69-26.93c-4.27-9.08-8.93-18-13.51-26.91l-14.34-28-3.64-7.1-.85.86,19.45,13c2.4,1.6,5.2,4.37,7.84,1.71a45.52,45.52,0,0,0,3.16-4l3.64-4.69,14.27-18.36c2.34-3,4.75-6,7-9.05,1.72-2.32,2.31-4.93-.23-6.89-3-2.3-6.29-4.3-9.42-6.42l-9.49-6.46-19.4-13.19c-6.16-4.19-12.27-8.49-18.54-12.52A80.25,80.25,0,0,0,863.06,122c-11.78-3.88-26.65-2.89-35,7.28a.62.62,0,0,0-.1.75,191.3,191.3,0,0,0,20.19,24.44l.13-1a49.08,49.08,0,0,1-34.32,1.65l.46.61c.39-4.45,2.06-8.85,3.39-13.08s2.83-8.38,3.21-12.72c0-.36-.31-.59-.62-.63-6.28-.66-12.66.72-18.61,2.65A110.2,110.2,0,0,0,783,140.25q-4.71,2.58-9.22,5.5a.63.63,0,0,0,.15,1.14c6.32,2.45,13.1,3.72,19.73,5.05s13.42,2.48,20,4.4l-.37-.92c-4.61,6.65-10.86,12.11-16.88,17.44s-12.33,10.48-17.69,16.5l1.05.28a187.56,187.56,0,0,1-10.59-36.86.61.61,0,0,0-.6-.46,41.81,41.81,0,0,0-24.2,11.52c-7.29,7.11-11,16.67-14,26.2-3.52,11.21-6.85,22.48-10.26,33.71l-2.61,8.58a81.19,81.19,0,0,0-2.41,8.21c-.39,2.05-.18,4.17,1.48,5.61s4.17,1.95,6.25,2.61q19.11,6,38.34,11.54a.63.63,0,0,0,.71-.28l13.09-24.1h-1.08c4.21,9.55,9.85,18.47,12.88,28.52.23.76,1.44.44,1.2-.34-3.06-10.15-8.75-19.16-13-28.81a.63.63,0,0,0-1.08,0l-13.09,24.1.71-.29q-16.15-4.68-32.21-9.64l-8-2.5c-2.3-.73-5-1.57-5.12-4.42-.12-2.55,1.17-5.33,1.9-7.73l2.46-8.1,9.78-32.16c2.87-9.45,5.86-19.29,12.34-27a40.44,40.44,0,0,1,26-14l-.6-.46A186.85,186.85,0,0,0,778.48,190a.64.64,0,0,0,1,.28C788.16,180.54,799,173,808,163.65a63.22,63.22,0,0,0,6.34-7.6.64.64,0,0,0-.38-.92c-6.53-1.92-13.29-3-19.95-4.39s-13.41-2.6-19.73-5.05l.15,1.14c10.81-7,23-13.39,35.73-15.74a35.92,35.92,0,0,1,10.24-.53l-.63-.62c-.39,4.45-2.05,8.84-3.38,13.07s-2.84,8.38-3.22,12.73a.63.63,0,0,0,.46.6,50.41,50.41,0,0,0,35.28-1.78.63.63,0,0,0,.13-1,188.22,188.22,0,0,1-20-24.19l-.1.76c7-8.52,19.27-10.51,29.61-8.14,12.85,2.95,23.73,11.28,34.43,18.56L928.84,165l4.54,3.08a34.69,34.69,0,0,1,4.38,3.07c1.62,1.54.55,3.41-.55,4.89s-2.33,3-3.49,4.5l-13.35,17.19-7.29,9.38c-1.16,1.49-2.26,3.08-3.51,4.49-.93,1-1.84,1.4-3.14.65-.9-.51-1.75-1.14-2.61-1.72L883.54,197c-.56-.37-1.12.33-.86.85C891.76,215.56,901,233.2,909.89,251a275.33,275.33,0,0,1,11.7,26.21c1.65,4.43,3.13,8.92,4.37,13.48.58,2.11,1.63,4.84.55,6.95-1,1.89-3.32,2.55-5.18,3.17q-28.85,9.63-57.7,19.22L835,329.57l-14.42,4.81c-2.08.69-5,2.07-6.75,0a8.84,8.84,0,0,1-1.39-2.84c-.46-1.24-.91-2.49-1.36-3.73l-20.67-56.73-2.56-7c-.27-.75-1.48-.42-1.2.34Z"/><path class="cls-4" d="M808.75,173.17a94.17,94.17,0,0,1,7.17,15.41c.92,2.55,1.72,5.15,2.41,7.77.34,1.31.66,2.63.95,4a9.5,9.5,0,0,0,.87,3.07c1.24,1.95,3.79.8,5.54.36,2.2-.56,4.59-1,6.55-2.17,4.34-2.64,2.93-7.64,1-11.4-1.51-3-4.61-7.45-8.41-4.69a2.82,2.82,0,0,0-.89,3.89,3.25,3.25,0,0,0,3.56.95,4,4,0,0,0,3-3.2c.45-2.4-.77-4.75-1.85-6.8-1.61-3.05-3.87-9.61-8.52-8.21a2.78,2.78,0,0,0-1.91,3.79,3.62,3.62,0,0,0,4.63,1.65,4.87,4.87,0,0,0,2.36-4.82c-.2-2.55-2-4.58-3.62-6.4-.54-.6-1.42.29-.88.89,1.87,2.08,5.14,6.19,2.15,8.83-1.11,1-3.64.52-3.66-1.26,0-2.06,2.9-1.74,4-.93a10.66,10.66,0,0,1,2.65,3.77,54.74,54.74,0,0,1,2.92,5.77c.59,1.5,1.12,3.72-.22,5-.78.74-2.54,1.31-3.41.39-1.14-1.21.55-2.59,1.69-2.82,1.84-.36,3.26,1.2,4.15,2.6,1.69,2.63,4.09,6.91,2.51,10-1.48,2.9-5.74,3.34-8.54,4a8.85,8.85,0,0,1-2.79.61c-1.2-.14-1.27-1.49-1.46-2.38-.4-1.92-.85-3.83-1.37-5.72a95.6,95.6,0,0,0-9.47-22.6.63.63,0,0,0-1.08.63Z"/><path class="cls-4" d="M142.73,345.64c-9.38-13.29-13.24-29.53-22.28-43a46.15,46.15,0,0,0-17.6-16c-7.47-3.72-15.8-5.28-24.08-5.71-9.9-.51-19.81.51-29.62,1.71-.35,0-.78.38-.6.79,3.66,8.73,10.9,15.31,19.33,19.37,9.87,4.75,20.92,5.84,31.75,5.19a179.13,179.13,0,0,0,20.63-2.7.64.64,0,0,0,.44-.77c-7.57-19.36-15.43-39.6-14.88-60.73.44-16.48,7.3-32.91,20.31-43.4a37.38,37.38,0,0,1,24.25-8.67l-.62-.63a140,140,0,0,1-26,69.75,136.87,136.87,0,0,1-13.93,16.37l1,.13c-5.73-8.82-6.52-19.55-9-29.52a73.28,73.28,0,0,0-10.8-24.09A82.92,82.92,0,0,0,50.2,192.53a74.24,74.24,0,0,0-29.1-4.09.64.64,0,0,0-.45,1.07,83.41,83.41,0,0,0,49.42,27.75,80.38,80.38,0,0,0,16.25,1,.63.63,0,0,0,.54-.94c-6.29-12.21-6-26.52-2.52-39.52,3.67-13.72,11-26,18.33-38.06,4.15-6.83,8.35-13.64,12.06-20.73l-1.17-.32a126.65,126.65,0,0,1-21.49,65.8,122.71,122.71,0,0,1-12.48,15.63c-.55.59.33,1.48.89.89a128,128,0,0,0,32-62.53,125.24,125.24,0,0,0,2.29-19.79.63.63,0,0,0-1.16-.31c-13,24.93-33.46,48.37-33,78.07A48.32,48.32,0,0,0,85.78,218l.54-.94A82.14,82.14,0,0,1,33,199.65a79.38,79.38,0,0,1-11.49-11l-.44,1.07c17.45-1.11,34.83,4.47,49,14.54s25.32,24.81,30,41.69c3,10.75,3.41,22.48,9.65,32.07a.63.63,0,0,0,1,.12,141,141,0,0,0,36.84-65.86A138.8,138.8,0,0,0,151,191.11a.63.63,0,0,0-.63-.62c-16.33-.38-30.14,10.66-37.94,24.31a59.31,59.31,0,0,0-7.51,23.41c-1.07,10.61.23,21.32,2.73,31.65,2.9,12,7.35,23.54,11.83,35l.44-.77c-20.45,3.62-44.28,6-61.17-8.72a33.72,33.72,0,0,1-9-12.26l-.6.79c16.49-2,34.52-4,50.29,2.56a44.06,44.06,0,0,1,18.92,15.32c4.52,6.34,7.75,13.49,10.9,20.59,3.63,8.2,7.19,16.52,12.39,23.89.46.65,1.54,0,1.08-.63Z"/><path class="cls-4" d="M80.07,200.37a115.32,115.32,0,0,1-22-34.78,119.35,119.35,0,0,1-8.7-40,113.75,113.75,0,0,1,1.41-23.17l-1.14.15A162.72,162.72,0,0,1,66,138.39a163.11,163.11,0,0,1,4.77,19c1.16,6.23,1.77,12.52,2.65,18.78,1,6.83,2.49,13.67,6.14,19.61a.63.63,0,0,0,1.08-.63c-3.33-5.41-4.84-11.6-5.79-17.82s-1.51-12.67-2.64-18.95A162.94,162.94,0,0,0,61,121.46a163,163,0,0,0-10.2-19.52c-.26-.42-1-.4-1.14.15a117.29,117.29,0,0,0,.63,41.4A120.46,120.46,0,0,0,65.1,182.4a115.13,115.13,0,0,0,14.08,18.86c.55.59,1.43-.3.89-.89Z"/><path class="cls-4" d="M536.43,338.07c11.37-2.06,18.24-13.79,19-24.6.49-7.53-1.35-15-3.81-22-2.61-7.5-5.75-14.82-8.7-22.18l-10.22-25.5a.63.63,0,0,0-1.21,0c-7.36,21.18-2.88,45.7,10.53,63.53a64.6,64.6,0,0,0,13.28,13.19c.42.32.89-.12.94-.54.75-6.31,4.3-11.86,9-16a38.14,38.14,0,0,1,18.47-8.37c7.61-1.37,15.43-1.08,23.11-.5q12.38.93,24.64,2.88,13.65,2.19,27.07,5.63l-.28-1a61.45,61.45,0,0,1-29,16.61,60,60,0,0,1-33.53-1.41,61.28,61.28,0,0,1-15.15-7.54,58.81,58.81,0,0,1-6.73-5.36,9.64,9.64,0,0,1-2.78-3.38c-.63-1.68.3-3.16,1.29-4.47a41.27,41.27,0,0,0,7.22-14.32,47.91,47.91,0,0,0,1.32-16.22c-1.13-13.46-7.35-25.86-14.45-37.13a.63.63,0,0,0-1.14.15,40,40,0,0,0,2,30.22c1.41,2.91,3.24,6.19,5.67,8.37,2.26,2,5.28,1.54,7.46-.35,2.78-2.4,3.08-6.32,3.79-9.68a30.24,30.24,0,0,1,9.72-16.34,30.73,30.73,0,0,1,20.21-7.84l-.54-.94a78.08,78.08,0,0,1-35.25,33.9c-.72.34-.09,1.42.63,1.08a79.2,79.2,0,0,0,29.77-24.81,77.45,77.45,0,0,0,5.93-9.54.63.63,0,0,0-.54-.94c-11.86,0-23.19,7.25-28.54,17.76a31.53,31.53,0,0,0-2.85,8.62c-.63,3.4-1.37,7.75-5.17,9s-6.17-3.52-7.72-6.14a37.66,37.66,0,0,1-4-9.38,38.46,38.46,0,0,1,.64-22.63l-1.14.14c6.69,10.62,12.65,22.26,14.11,34.89a47.12,47.12,0,0,1-1.12,17.5,37.83,37.83,0,0,1-3.11,8c-1.33,2.52-3.18,4.58-4.67,7s-1.09,4.74.77,6.81a44.07,44.07,0,0,0,6.27,5.46,62.21,62.21,0,0,0,14.7,8.22,61.37,61.37,0,0,0,33.51,3.34,62.66,62.66,0,0,0,33.32-17.75.62.62,0,0,0-.27-1,299.88,299.88,0,0,0-50.59-8.45c-14.62-1.17-30.88-1.4-42.93,8.3-5.51,4.42-9.54,10.6-10.39,17.69l.94-.54c-17.7-13.07-27.59-35.38-26.67-57.23a63,63,0,0,1,3.44-18.08h-1.21c5.78,14.41,11.75,28.76,17.3,43.26,4.69,12.23,8.55,26.36,1.69,38.55-3.08,5.47-8,9.83-14.33,11-.79.15-.46,1.35.33,1.21Z"/><path class="cls-4" d="M839.58,273.08l27.64,13.24c.72.34,1.35-.74.63-1.08L840.21,272c-.72-.34-1.35.74-.63,1.08Z"/><path class="cls-4" d="M849.19,254.05l25.18,10c.74.3,1.07-.91.33-1.21l-25.18-10c-.75-.29-1.08.91-.33,1.21Z"/><path class="cls-4" d="M852.92,286.69a95.2,95.2,0,0,0,11.45-35.33c.1-.79-1.15-.79-1.25,0a93.65,93.65,0,0,1-11.28,34.7c-.39.7.69,1.33,1.08.63Z"/><path class="cls-4" d="M602.54,135.4l23.07,20.16c.61.52,1.49-.36.89-.89l-23.08-20.15c-.6-.53-1.49.35-.88.88Z"/><path class="cls-4" d="M616.89,119.64,638.47,136c.64.49,1.27-.6.63-1.08l-21.58-16.36c-.64-.49-1.27.59-.63,1.08Z"/><path class="cls-4" d="M611.74,152.07a95.09,95.09,0,0,0,20.49-31c.31-.74-.9-1.06-1.2-.33a93.83,93.83,0,0,1-20.17,30.41.62.62,0,0,0,.88.88Z"/><path class="cls-1" d="M1188.93,274.09s28.24,3.38,53.86-23.9C1242.79,250.19,1173.33,244.88,1188.93,274.09Z"/><path class="cls-1" d="M1149.32,303.12s-20-38-31.08-33.93c0,0,3.93,31.61,17.67,48.44S1149.32,303.12,1149.32,303.12Z"/><path class="cls-4" d="M1136.31,353.05c3.09-10.14,10.07-18.6,13-28.8a28.51,28.51,0,0,0,.44-14.47,39.37,39.37,0,0,0-6.68-13.7,110.44,110.44,0,0,0-11.84-13.37.63.63,0,0,0-1,.13c-4,7.29-3.27,16.19.09,23.58,3.66,8.07,10.22,14.39,16.71,20.23a.63.63,0,0,0,1-.13c6.21-10.47,12.65-21.28,22.21-29.08,8.33-6.8,19.3-10.45,30-8.2a23.25,23.25,0,0,1,14.08,8.58l.23-.85a87,87,0,0,1-44.36,14,85.74,85.74,0,0,1-13.21-.57l.6.79c2.17-6.23,7.21-10.74,11.18-15.82a46.11,46.11,0,0,0,7.57-14.44,51.86,51.86,0,0,0-.41-32.26,46.87,46.87,0,0,0-9.21-15.88.62.62,0,0,0-1,.27,52.22,52.22,0,0,0,11.14,43.61.63.63,0,0,0,1-.12c7.51-16.19,26.92-19.92,42.81-21.8,5.38-.64,10.76-1.21,16.09-2.19l-.48-1.14a78.27,78.27,0,0,1-53,14.55c-.8-.07-.8,1.18,0,1.25a80,80,0,0,0,42.83-8.16,78.59,78.59,0,0,0,10.79-6.56.63.63,0,0,0-.48-1.14c-17.53,3.2-37.32,2.15-51.74,14.35a29.77,29.77,0,0,0-7.91,10.21l1-.13a50.92,50.92,0,0,1-10.82-42.39l-1,.27c14.62,16.5,15.6,43.38,2.05,60.82-4.11,5.28-9.25,9.9-11.51,16.37a.63.63,0,0,0,.61.79,88.24,88.24,0,0,0,46.21-7.06,86.41,86.41,0,0,0,12-6.54.63.63,0,0,0,.22-.86c-6.41-8.56-17.6-11-27.73-9.3-12,2-21.49,10.19-28.76,19.6a178.54,178.54,0,0,0-12,18.4l1-.12c-6.13-5.52-12.26-11.41-16-18.88-3.6-7.2-4.63-16.18-.61-23.42l-1,.13c7.12,7.13,14.75,15,17.74,24.85a27,27,0,0,1,.12,15.09c-1.35,4.89-3.72,9.4-6.1,13.85-2.65,5-5.36,9.92-7,15.33a.63.63,0,0,0,1.21.33Z"/><path class="cls-4" d="M1183.59,266.64A73.69,73.69,0,0,1,1208.46,223a70.43,70.43,0,0,1,12-8.21l-.92-.71a101,101,0,0,1-11.32,21.71,99.41,99.41,0,0,1-7.78,9.93c-2.62,2.94-5.49,5.63-8.2,8.48a31.22,31.22,0,0,0-7,10.31c-.28.76.93,1.08,1.21.33,2.81-7.45,9.73-12.46,14.88-18.24a102.23,102.23,0,0,0,13.83-19.82,103.91,103.91,0,0,0,5.59-12.36c.2-.54-.48-1-.92-.71a74.94,74.94,0,0,0-33.48,38.3,72,72,0,0,0-3.93,14.32c-.13.79,1.07,1.13,1.21.33Z"/></svg>