<svg xmlns="http://www.w3.org/2000/svg" width="1200" height="1200" viewBox="0 0 1200 1200"><g transform="translate(1653 -2987)"><circle cx="600" cy="600" r="600" transform="translate(-1653 2987)" fill="#fff1e6"/><g transform="translate(-1371 3232.668)"><path d="M77.613-.668C30.684-.668,0,30.148,0,70.652c0,39.609,29.77,71.3,75.813,71.3H76.7c47.848,0,77.625-31.7,77.625-71.3-.9-40.5-29.777-71.32-76.715-71.32Zm0,0" fill="#323232"/><path d="M8.109,198.313H145.3V611.07H8.109Zm0,0" transform="translate(0 -4.28)" fill="#323232"/><path d="M482.055,188.625c-74.012,0-123.641,69.547-123.641,69.547V198.313h-137.2V611.07H358.406V380.57c0-12.34.895-24.66,4.52-33.484,9.918-24.641,32.488-50.168,70.391-50.168,49.645,0,69.5,37.852,69.5,93.34V611.07H640V374.4C640,247.621,572.313,188.625,482.055,188.625Zm0,0" transform="translate(-4.478 -4.28)" fill="#323232"/></g></g></svg>