<svg xmlns="http://www.w3.org/2000/svg" width="1000" height="1000" viewBox="0 0 1000 1000">
  <g id="Group_3" data-name="Group 3" transform="translate(-745 -6323)">
    <rect id="Rectangle_4" data-name="Rectangle 4" width="1000" height="1000" transform="translate(745 6323)" fill="none"/>
    <path id="Path_1" data-name="Path 1" d="M606.362,59.071l52.578-46.412V2.5H476.8L346.987,300.632,199.3,2.5H8.319V12.659L69.738,80.884a22.837,22.837,0,0,1,8.319,19.837V368.831a29.068,29.068,0,0,1-8.868,26.6L0,472.8v10.032H196.172V472.676l-69.189-77.244a30.044,30.044,0,0,1-9.527-26.6V136.923l172.2,346.039h20.015L457.743,136.923v275.66c0,7.271,0,8.766-5.162,13.528l-53.264,47.552v10.184H657.732V473.689L606.389,427.3a13.589,13.589,0,0,1-5.875-13.528V72.6a13.53,13.53,0,0,1,5.848-13.528Z" transform="translate(916 6595.667)" fill="#e7d8c9"/>
  </g>
</svg>
