<svg xmlns="http://www.w3.org/2000/svg" width="900" height="900" viewBox="0 0 900 900">
  <g id="Group_96" data-name="Group 96" transform="translate(-1844 -6948)">
    <circle id="Ellipse_22" data-name="Ellipse 22" cx="450" cy="450" r="450" transform="translate(1844 6948)" fill="none"/>
    <g id="sew" transform="translate(2093.963 7198)">
      <g id="Group_90" data-name="Group 90" transform="translate(0.037 0)">
        <path id="Path_95" data-name="Path 95" d="M376.042,322.449a58.679,58.679,0,0,1,0-82.888,82.148,82.148,0,0,0,0-116.043l-8.289-8.289,4.986-4.986c23.814-23.815,25.4-62.314,3.533-85.822q-.288-.311-.6-.6c-23.507-21.866-62.007-20.28-85.822,3.534l-4.986,4.986-8.289-8.289a82.01,82.01,0,0,0-116.043,0,58.678,58.678,0,0,1-82.888,0L61.068,7.475A11.722,11.722,0,0,0,44.49,24.052L61.068,40.629a82.148,82.148,0,0,0,116.043,0,58.58,58.58,0,0,1,82.888,0l8.654,8.654c-28.9,31.762-61.273,75.035-95.262,120.484-99.659,133.257-90.339,113.441-170.581,211a11.721,11.721,0,0,0,16.52,16.52c97.54-80.229,77.64-70.848,211-170.58,45.449-33.989,88.723-66.358,120.484-95.262l8.654,8.654a58.679,58.679,0,0,1,0,82.888,82.148,82.148,0,0,0,0,116.043L376.042,355.6a11.722,11.722,0,0,0,16.577-16.577ZM356.161,93.666l-7.207,7.207c-31.086,31.086-80.429,67.988-132.669,107.055-35.7,26.7-72.475,54.2-105.624,81.5,27.3-33.148,54.808-69.927,81.5-105.623,33.366-44.616,65.15-87.109,93.083-117.93l16.2,16.2-24.867,24.867a11.722,11.722,0,1,0,16.577,16.577l49.733-49.733a11.722,11.722,0,1,0-16.577-16.577L318.02,65.5,301.442,48.92l4.986-4.986c14.857-14.857,38.523-16.328,52.965-3.232C372.461,55.112,371.052,78.775,356.161,93.666Z" transform="translate(-0.037 0)" fill="#323232"/>
      </g>
    </g>
  </g>
</svg>
