<svg xmlns="http://www.w3.org/2000/svg" width="2000" height="1000" viewBox="0 0 2000 1000">
  <g id="Group_169" data-name="Group 169" transform="translate(-11691 -3039)">
    <rect id="Rectangle_5" data-name="Rectangle 5" width="2000" height="1000" transform="translate(11691 3039)" fill="none"/>
    <g id="thought" transform="translate(12476 3273)">
      <path id="Path_140" data-name="Path 140" d="M398.855,145.113A127.952,127.952,0,0,0,154.617,77.168,103.972,103.972,0,1,0,70.406,266.375a71.914,71.914,0,0,0,94.426,95.547,103.868,103.868,0,0,0,182.375-.113,111.957,111.957,0,1,0,51.648-216.7ZM384,352a95.338,95.338,0,0,1-37.551-7.633,8.016,8.016,0,0,0-10.418,4.039,87.891,87.891,0,0,1-160.336-.543,8.011,8.011,0,0,0-7.3-4.734,8.047,8.047,0,0,0-4.055,1.1A55.922,55.922,0,0,1,88.93,265.754a8,8,0,0,0-4.914-12.121A87.96,87.96,0,1,1,154.023,95.648a8,8,0,0,0,12.121-3.984A111.95,111.95,0,0,1,384,128a113.4,113.4,0,0,1-2.3,22.672,8.007,8.007,0,0,0,7.418,9.6A95.93,95.93,0,0,1,384,352Zm0,0"/>
      <path id="Path_145" data-name="Path 145" d="M24,448a24,24,0,1,0,24,24A24.031,24.031,0,0,0,24,448Zm0,32a8,8,0,1,1,8-8A8.01,8.01,0,0,1,24,480Zm0,0"/>
      <path id="Path_146" data-name="Path 146" d="M88,376a40,40,0,1,0,40,40A40.047,40.047,0,0,0,88,376Zm0,64a24,24,0,1,1,24-24A24.031,24.031,0,0,1,88,440Zm0,0"/>
    </g>
    <path id="Path_121" data-name="Path 121" d="M257.668,374.168a11.5,11.5,0,1,1-11.5-11.5A11.5,11.5,0,0,1,257.668,374.168Zm0,0" transform="translate(12439 3126)" fill="#323232"/>
    <path id="Path_147" data-name="Path 147" d="M257.668,374.168a11.5,11.5,0,1,1-11.5-11.5A11.5,11.5,0,0,1,257.668,374.168Zm0,0" transform="translate(12478 3126)" fill="#323232"/>
    <path id="Path_148" data-name="Path 148" d="M257.668,374.168a11.5,11.5,0,1,1-11.5-11.5A11.5,11.5,0,0,1,257.668,374.168Zm0,0" transform="translate(12517 3126)" fill="#323232"/>
  </g>
</svg>
