<svg xmlns="http://www.w3.org/2000/svg" width="2000" height="1000" viewBox="0 0 2000 1000">
  <g id="Group_171" data-name="Group 171" transform="translate(-11691 -6861)">
    <rect id="Rectangle_8" data-name="Rectangle 8" width="2000" height="1000" transform="translate(11691 6861)" fill="none"/>
    <g id="Group_124" data-name="Group 124" transform="translate(8838 2570.213)">
      <path id="Path_112" data-name="Path 112" d="M293.773,195.352l-72.1,68.1-34.6-35.6a9.971,9.971,0,1,0-14.3,13.9l41.5,42.6a10.155,10.155,0,0,0,14.1.3l79.3-74.8a9.963,9.963,0,0,0,.4-14.1A10.206,10.206,0,0,0,293.773,195.352Zm0,0" transform="translate(3932.988 4557.107)" fill="#323232"/>
      <path id="Path_113" data-name="Path 113" d="M260.668,90.551c-93.647,0-169.793,76.462-169.793,170.5s76.146,170.5,169.793,170.5,169.8-76.462,169.8-170.5S354.319,90.551,260.668,90.551Zm0,318.174c-81.145,0-147.062-66.307-147.062-147.677s65.918-147.673,147.062-147.673c81.225,0,147.067,66.115,147.067,147.673S341.893,408.725,260.668,408.725Zm0,0" transform="translate(3912.575 4536.001)" fill="#323232"/>
      <path id="Path_114" data-name="Path 114" d="M483.76,201.214l3.582-64.516a10.859,10.859,0,0,0-5.968-10.335L424.082,97.315l-28.97-57.444A11.005,11.005,0,0,0,384.8,33.888L320.35,37.373,266.64,1.793a10.821,10.821,0,0,0-11.936,0l-53.71,35.579-64.34-3.591a10.8,10.8,0,0,0-10.308,5.984L97.372,97.209,40.085,126.256a11.029,11.029,0,0,0-5.968,10.335l3.577,64.516L2.214,254.961a10.9,10.9,0,0,0,0,11.967l35.374,53.959L34.007,385.4a10.852,10.852,0,0,0,5.968,10.335l57.291,29.047,28.97,57.444a10.99,10.99,0,0,0,10.308,5.984l64.344-3.591L254.6,520.2a10.542,10.542,0,0,0,11.936,0l53.71-35.575,64.344,3.591a10.825,10.825,0,0,0,10.308-5.984l28.97-57.444,57.291-29.047a11.04,11.04,0,0,0,5.968-10.335l-3.582-64.516,35.48-53.853a10.9,10.9,0,0,0,0-11.967ZM463.576,311.967a10.237,10.237,0,0,0-1.734,6.638l3.361,61.031-54.142,27.415a10.721,10.721,0,0,0-4.773,4.789l-27.347,54.287-60.869-3.37a11.829,11.829,0,0,0-6.621,1.738l-50.781,33.62L209.9,464.5a10.721,10.721,0,0,0-5.968-1.849h-.543l-60.873,3.374L115.17,411.73a10.7,10.7,0,0,0-4.777-4.785L56.141,379.636l3.365-61.031a11.913,11.913,0,0,0-1.738-6.638L24.242,261.05l33.526-50.916a10.2,10.2,0,0,0,1.738-6.634l-3.365-61.035,54.146-27.415a10.712,10.712,0,0,0,4.773-4.785L142.4,55.974l60.873,3.374a11.886,11.886,0,0,0,6.62-1.742L260.672,23.99l50.781,33.616a10.153,10.153,0,0,0,6.621,1.742l60.869-3.374,27.347,54.291a10.712,10.712,0,0,0,4.773,4.785L465.2,142.465,461.843,203.5a11.939,11.939,0,0,0,1.734,6.634l33.531,50.916Zm0,0" transform="translate(3912.575 4536.001)" fill="#323232"/>
      <path id="Path_153" data-name="Path 153" d="M293.773,195.352l-72.1,68.1-34.6-35.6a9.971,9.971,0,1,0-14.3,13.9l41.5,42.6a10.155,10.155,0,0,0,14.1.3l79.3-74.8a9.963,9.963,0,0,0,.4-14.1A10.206,10.206,0,0,0,293.773,195.352Zm0,0" transform="translate(3932.989 4557.107)" fill="#323232"/>
    </g>
    <path id="tag" d="M523.349,2.611a8.9,8.9,0,0,0-12.593,0L477.741,35.626H270.381L9.7,298.454a31.435,31.435,0,0,0,0,44.441L191.971,525.168a31.478,31.478,0,0,0,44.531-.089l253.833-260.69V48.22L523.349,15.2A8.9,8.9,0,0,0,523.349,2.611ZM472.522,257.157l-248.7,255.418a13.632,13.632,0,0,1-19.255,0L22.292,330.3a13.64,13.64,0,0,1,.027-19.282L277.808,53.439H459.929L416.886,96.482a44.663,44.663,0,1,0,12.593,12.593l43.043-43.043ZM419.086,133.593a26.718,26.718,0,1,1-26.718-26.718,26.406,26.406,0,0,1,11.444,2.681L386.071,127.3a8.9,8.9,0,1,0,12.593,12.593L416.4,122.149A26.28,26.28,0,0,1,419.086,133.593Z" transform="translate(12055.501 7110.913)" fill="#323232"/>
    <g id="ecology-and-environment" transform="translate(12065.744 7079)">
      <path id="Path_156" data-name="Path 156" d="M297.571,236.182l-30.328,5.911a7.5,7.5,0,1,0,2.869,14.723l45.414-8.851a7.5,7.5,0,0,0,5.927-8.8L312.6,193.755a7.5,7.5,0,0,0-14.723,2.87l4.859,24.929A92.49,92.49,0,0,0,165.468,330.52a7.5,7.5,0,0,0,14.117-5.072,77.487,77.487,0,0,1,117.986-89.266Z" fill="#323232"/>
      <path id="Path_157" data-name="Path 157" d="M317.893,364.582a92.48,92.48,0,0,0,22.078-95.467,7.5,7.5,0,1,0-14.187,4.867A77.486,77.486,0,0,1,207.43,362.2l30.327-5.911a7.5,7.5,0,1,0-2.869-14.723l-45.413,8.851a7.5,7.5,0,0,0-5.927,8.8l8.851,45.414a7.5,7.5,0,0,0,14.723-2.869l-4.858-24.929a92.62,92.62,0,0,0,115.629-12.245Z" fill="#323232"/>
    </g>
  </g>
</svg>
