<svg xmlns="http://www.w3.org/2000/svg" width="900" height="900" viewBox="0 0 900 900">
  <g id="Group_72" data-name="Group 72" transform="translate(1389 -6948)">
    <circle id="Ellipse_19" data-name="Ellipse 19" cx="450" cy="450" r="450" transform="translate(-1389 6948)" fill="none"/>
    <path id="tshirt" d="M463.592,461.5H143.9a8.714,8.714,0,0,1-8.714-8.714V181.771L83.366,238.136a8.714,8.714,0,0,1-12.1.715L5.04,182.015A8.714,8.714,0,0,1,3.881,170L106.067,40.615a8.714,8.714,0,0,1,4.976-3.111l119.8-26.143a8.714,8.714,0,0,1,10.571,8.514,62.325,62.325,0,0,0,124.616,0A8.715,8.715,0,0,1,376.6,11.361L496.393,37.5a8.715,8.715,0,0,1,4.854,2.954L609.986,171.61a8.714,8.714,0,0,1-1.037,12.2l-66.229,56.835a8.714,8.714,0,0,1-11.886-.5l-58.517-59.441V452.789a8.714,8.714,0,0,1-8.723,8.714ZM152.619,444.075H454.878V159.41a8.714,8.714,0,0,1,14.919-6.1l67.728,68.8,53.55-45.968L489.788,53.887,382.8,30.541a79.763,79.763,0,0,1-158.1,0L117.814,53.87,22.722,174.233l53.506,45.907,61.254-66.6a8.714,8.714,0,0,1,15.128,5.9Z" transform="translate(-1246.002 7177.839)" fill="#323232" stroke="#323232" stroke-width="3"/>
  </g>
</svg>
