<svg xmlns="http://www.w3.org/2000/svg" width="900" height="900" viewBox="0 0 900 900">
  <g id="Group_107" data-name="Group 107" transform="translate(-4103 -6988)">
    <g id="Group_105" data-name="Group 105" transform="translate(3362 40)">
      <circle id="Ellipse_23" data-name="Ellipse 23" cx="450" cy="450" r="450" transform="translate(741 6948)" fill="none"/>
    </g>
    <g id="Group_106" data-name="Group 106" transform="translate(-71 47.844)">
      <g id="Group_104" data-name="Group 104" transform="translate(4429 7139)">
        <path id="Path_103" data-name="Path 103" d="M146,442a10,10,0,0,0-10-10H70a10,10,0,0,0,0,20h66A10,10,0,0,0,146,442Z" transform="translate(-9 -45.362)" fill="#323232"/>
        <path id="Path_104" data-name="Path 104" d="M393.771,90.254,184.53,91.369V62.7A62.775,62.775,0,0,0,121.826,0H62.7A62.775,62.775,0,0,0,0,62.7V158.55a8.958,8.958,0,1,0,17.916,0V62.7A44.84,44.84,0,0,1,62.7,17.916h59.121A44.84,44.84,0,0,1,166.615,62.7V352.11a62.508,62.508,0,0,0-44.789-18.88H62.7A62.331,62.331,0,0,0,18.36,351.6c-.152.152-.294.313-.444.467V158.55c0-3.863-2.31,1.349-6,0-.7-.26-1.872,8.958-2.955,8.958C4.01,167.508,0,153.6,0,158.55V395.934a62.775,62.775,0,0,0,62.7,62.7H393.771c2.429,0,9.463-.159,12.853-4.136,3.155-3.7,2.623-11.262,2.623-13.78V105.092c0-2.1.481-6.951-3.388-10.66S396.616,90.254,393.771,90.254ZM336.94,109.285h56.831V264.622L222.935,109.285Zm56.831,0h0Zm-170.837,0L393.771,264.622v176.1h21.25L184.53,210.232V109.285Zm78.072,331.438L184.53,324.239V210.232L415.021,440.723ZM17.916,395.934A44.763,44.763,0,0,1,62.7,351.145h59.121a44.789,44.789,0,0,1,0,89.578H62.7A44.84,44.84,0,0,1,17.916,395.934Zm166.615,0V324.239L301.006,440.723H165.7a62.252,62.252,0,0,0,18.833-44.789Z" transform="translate(0)" fill="#323232"/>
      </g>
    </g>
  </g>
</svg>
