<svg xmlns="http://www.w3.org/2000/svg" width="1000" height="1000" viewBox="0 0 1000 1000">
  <g id="Group_109" data-name="Group 109" transform="translate(-1456 -3686)">
    <rect id="Rectangle_48" data-name="Rectangle 48" width="1000" height="1000" transform="translate(1456 3686)" fill="none"/>
    <path id="vk" d="M596.387,245.411c-11.619-14.674-8.3-21.2,0-34.319.15-.15,96.069-132.693,105.951-177.643l.06-.03C707.309,17.039,702.4,5,678.65,5H600.07c-20,0-29.228,10.332-34.169,21.891,0,0-40.009,95.769-96.608,157.849-18.267,17.938-26.712,23.688-36.685,23.688-4.911,0-12.548-5.75-12.548-22.131V33.419C420.061,13.774,414.461,5,397.9,5H274.341c-12.548,0-20,9.164-20,17.7,0,18.627,28.3,22.909,31.234,75.316V211.721c0,24.916-4.522,29.5-14.554,29.5-26.712,0-91.547-96.159-129.968-206.212C133.292,13.655,125.716,5.03,105.562,5.03H26.952C4.522,5.03,0,15.362,0,26.921,0,47.344,26.712,148.893,124.218,283.054c64.984,91.577,156.5,141.2,239.752,141.2,50.041,0,56.15-11.02,56.15-29.977,0-87.5-4.522-95.769,20.543-95.769,11.619,0,31.624,5.75,78.34,49.921,53.395,52.377,62.169,75.825,92.056,75.825h78.58c22.4,0,33.75-11.02,27.222-32.762C701.918,345.762,600.938,251.7,596.387,245.411Z" transform="translate(1597 4064.936)" fill="#e7d8c9"/>
  </g>
</svg>
