<svg xmlns="http://www.w3.org/2000/svg" width="900" height="900" viewBox="0 0 900 900">
  <g id="Group_103" data-name="Group 103" transform="translate(4348 -6977)">
    <circle id="Ellipse_17" data-name="Ellipse 17" cx="450" cy="450" r="450" transform="translate(-4348 6977)" fill="none"/>
    <g id="watering-can" transform="translate(-4216.021 7083)">
      <path id="Path_20" data-name="Path 20" d="M566.587,164.858a10,10,0,0,0-17.86,1.431l-19.036,47.59L426.739,297.528,407.946,128.9a10,10,0,0,0-6.779-8.375v-.009l-120-.513c-2.053-.684,2.053-.684,0,0l-126.329.513v.009a10,10,0,0,0-6.779,8.375L142.365,180H94.421A49.773,49.773,0,0,0,45.7,218.762L9.814,374.269a70,70,0,0,0,68.21,85.743H111.16l-2.993,26.847a29.876,29.876,0,0,0,7.5,23.107,30.438,30.438,0,0,0,22.613,10.048H417.725a30.438,30.438,0,0,0,22.614-10.048,29.9,29.9,0,0,0,7.5-23.154l-7.148-64.139L562.16,270.834l54.215,9.037a10,10,0,0,0,10.219-15.01ZM281.163,120h0ZM112.6,447.083v-7.073H78.023A50,50,0,0,1,29.3,378.767L65.188,223.254A29.865,29.865,0,0,1,94.421,200h45.715l-2.229,20H108.644A29.826,29.826,0,0,0,79.357,243.5l-31.111,140A30,30,0,0,0,77.532,420.01h38.091ZM77.532,400.01A10,10,0,0,1,67.77,387.84l31.112-140A9.94,9.94,0,0,1,108.644,240h27.035l-17.832,160Zm347.933,96.584a10.275,10.275,0,0,1-7.74,3.419H138.281a10.275,10.275,0,0,1-7.74-3.419,9.694,9.694,0,0,1-2.49-7.568L166.947,140H389.059L427.951,488.98A9.724,9.724,0,0,1,425.465,496.594Zm12.088-102.023-8.182-73.412L534.642,235.63l11.564,23.126ZM564.682,250.978l-15.714-31.43,10.845-27.113L598.3,256.582Z" transform="translate(19 24)" fill="#323232"/>
    </g>
  </g>
</svg>
