<svg xmlns="http://www.w3.org/2000/svg" width="900" height="900" viewBox="0 0 900 900">
  <g id="Group_95" data-name="Group 95" transform="translate(1356 -8011)">
    <g id="Group_94" data-name="Group 94">
      <circle id="Ellipse_24" data-name="Ellipse 24" cx="450" cy="450" r="450" transform="translate(-1356 8011)" fill="#fefae0"/>
      <line id="Line_41" data-name="Line 41" x2="222" y2="69" transform="translate(-1128.5 8641.5)" fill="none" stroke="#323232" stroke-linecap="round" stroke-width="17"/>
      <line id="Line_42" data-name="Line 42" y1="69" x2="238" transform="translate(-906.5 8641.5)" fill="none" stroke="#323232" stroke-linecap="round" stroke-width="17"/>
      <line id="Line_44" data-name="Line 44" y2="215" transform="translate(-906.5 8495.5)" fill="none" stroke="#323232" stroke-linecap="round" stroke-width="17"/>
      <line id="Line_47" data-name="Line 47" x2="222" y2="69" transform="translate(-1128.5 8426.5)" fill="none" stroke="#323232" stroke-linecap="round" stroke-width="17"/>
      <line id="Line_48" data-name="Line 48" y1="69" x2="238" transform="translate(-906.5 8426.5)" fill="none" stroke="#323232" stroke-linecap="round" stroke-width="17"/>
      <line id="Line_49" data-name="Line 49" y1="52" x2="170" transform="translate(-1128.5 8374.5)" fill="none" stroke="#323232" stroke-linecap="round" stroke-width="17"/>
      <line id="Line_50" data-name="Line 50" x2="176" y2="55" transform="translate(-844.5 8371.5)" fill="none" stroke="#323232" stroke-linecap="round" stroke-width="17"/>
      <line id="Line_51" data-name="Line 51" y2="215" transform="translate(-668.5 8426.5)" fill="none" stroke="#323232" stroke-linecap="round" stroke-width="17"/>
      <line id="Line_52" data-name="Line 52" y2="215" transform="translate(-1128.5 8426.5)" fill="none" stroke="#323232" stroke-linecap="round" stroke-width="17"/>
      <g id="Rectangle_45" data-name="Rectangle 45" transform="translate(-1135.684 8418.604) rotate(17)" fill="#fefae0" stroke="#323232" stroke-linejoin="round" stroke-width="17">
        <rect width="241" height="127" stroke="none"/>
        <rect x="8.5" y="8.5" width="224" height="110" fill="none"/>
      </g>
      <g id="Rectangle_46" data-name="Rectangle 46" transform="translate(-906.121 8489.895) rotate(-17)" fill="#fefae0" stroke="#323232" stroke-linejoin="round" stroke-width="17">
        <rect width="254" height="127" stroke="none"/>
        <rect x="8.5" y="8.5" width="237" height="110" fill="none"/>
      </g>
      <path id="heart" d="M125.632,223.544a14.734,14.734,0,0,1-9.713-3.65c-10.15-8.876-19.937-17.216-28.571-24.574l-.044-.038c-25.314-21.572-47.173-40.2-62.383-58.552C7.919,116.214,0,96.762,0,75.512,0,54.866,7.079,35.819,19.933,21.877A67.566,67.566,0,0,1,70.192,0a63.2,63.2,0,0,1,39.478,13.628,80.771,80.771,0,0,1,15.961,16.666,80.779,80.779,0,0,1,15.963-16.666A63.2,63.2,0,0,1,181.073,0a67.569,67.569,0,0,1,50.26,21.877c12.853,13.942,19.931,32.989,19.931,53.635,0,21.25-7.917,40.7-24.919,61.215-15.209,18.353-37.067,36.981-62.377,58.551-8.649,7.369-9.5,7.649-19.671,16.546C141.611,214.174,129.207,223.544,125.632,223.544ZM70.192,14.719a53.009,53.009,0,0,0-39.44,17.134C20.412,43.069,14.717,58.574,14.717,75.512c0,17.872,6.642,33.856,21.535,51.826,14.395,17.37,35.806,35.616,60.6,56.743l.046.038c8.667,7.386,18.512,15.776,28.738,24.716,10.287-8.958,20.105-17.361,28.789-24.759,24.789-21.127,46.2-39.369,60.592-56.739,14.891-17.97,21.534-33.954,21.534-51.826,0-16.939-5.7-32.443-16.036-43.659a53,53,0,0,0-39.438-17.134A48.815,48.815,0,0,0,150.6,25.27a71.42,71.42,0,0,0-16.985,19.653,9.291,9.291,0,0,1-15.961,0A71.355,71.355,0,0,0,100.667,25.27,48.813,48.813,0,0,0,70.192,14.719Zm0,0" transform="translate(-1030 8200)" fill="#323232"/>
      <path id="heart-2" data-name="heart" d="M121.25,215.747a14.22,14.22,0,0,1-9.375-3.523c-9.8-8.566-19.241-16.616-27.574-23.717l-.043-.037c-24.431-20.819-45.528-38.8-60.207-56.51C7.643,112.16,0,93.387,0,72.878,0,52.953,6.833,34.57,19.238,21.114A65.209,65.209,0,0,1,67.744,0a61,61,0,0,1,38.1,13.153,77.954,77.954,0,0,1,15.4,16.085,77.961,77.961,0,0,1,15.406-16.085A61,61,0,0,1,174.758,0a65.212,65.212,0,0,1,48.507,21.114C235.669,34.57,242.5,52.953,242.5,72.878c0,20.509-7.641,39.282-24.05,59.08-14.679,17.713-35.774,35.691-60.2,56.508-8.348,7.112-9.167,7.382-18.985,15.969C136.672,206.7,124.7,215.747,121.25,215.747ZM67.744,14.205A51.16,51.16,0,0,0,29.68,30.742C19.7,41.567,14.2,56.531,14.2,72.878c0,17.249,6.411,32.675,20.784,50.018C48.88,139.661,69.544,157.27,93.47,177.66l.044.037c8.364,7.129,17.867,15.225,27.735,23.854,9.928-8.646,19.4-16.755,27.785-23.895,23.924-20.39,44.586-38,58.479-54.76C221.886,105.553,228.3,90.127,228.3,72.878c0-16.348-5.5-31.312-15.476-42.137a51.156,51.156,0,0,0-38.063-16.536,47.112,47.112,0,0,0-29.413,10.183,68.929,68.929,0,0,0-16.392,18.968,8.967,8.967,0,0,1-15.4,0A68.866,68.866,0,0,0,97.156,24.388,47.111,47.111,0,0,0,67.744,14.205Zm0,0" transform="translate(-1026 8204)" fill="#323232"/>
    </g>
  </g>
</svg>
