<svg xmlns="http://www.w3.org/2000/svg" width="900" height="900" viewBox="0 0 900 900">
  <g id="Group_73" data-name="Group 73" transform="translate(298 -6948)">
    <circle id="Ellipse_20" data-name="Ellipse 20" cx="450" cy="450" r="450" transform="translate(-298 6948)" fill="none"/>
    <g id="Group_70" data-name="Group 70" transform="translate(-148 7034)">
      <path id="Path_21" data-name="Path 21" d="M599.629,587.3l-40.34-144.069c-19.436-69.41-29.352-151.151-29.35-223.23.97-.542.013-.009,0,0,0-.005,9.557,0,0,0s-22.761.045-38.229,0H390.9c.128.313-20.878.015-20.9,0s.015-3.559,0,10a790.71,790.71,0,0,1-29.29,213.229l-.42,1.5-.76-2.79C313.353,347.035,300.058,238.563,300,140c0-.106,0,.2,0,0-.027-.023.409-.42,0,0-.635-.211-.279.646,0,0-.427.479.052.247,0,0H80s.019-6.605,0,10a1098,1098,0,0,1-39.53,291.938L.363,587.338A10,10,0,0,0,10,600H590a10,10,0,0,0,9.63-12.7ZM390,240H510.059c.13,10,.49,20,1,30H389C389.49,260,389.85,250,390,240ZM99.962,160H280c.13,10,.44,20,.8,30H99.2C99.562,180,99.872,170,99.962,160ZM23.132,580l36.62-132.739A1117.847,1117.847,0,0,0,98.252,210h183.5a1117.847,1117.847,0,0,0,38.5,237.258L356.31,578l.56,2Zm354.488,0-27-97.919,9.38-33.46A810.446,810.446,0,0,0,387.73,290H512.269A810.444,810.444,0,0,0,540,448.619L576.819,580Z" transform="translate(0 -0.002)" fill="#323232"/>
    </g>
  </g>
</svg>
