<svg xmlns="http://www.w3.org/2000/svg" width="900" height="900" viewBox="0 0 900 900">
  <g id="Group_102" data-name="Group 102" transform="translate(-741 -6948)">
    <circle id="Ellipse_23" data-name="Ellipse 23" cx="450" cy="450" r="450" transform="translate(741 6948)" fill="#fefae0"/>
    <path id="Path_96" data-name="Path 96" d="M258.266,432.091A141.506,141.506,0,0,1,205.28,421.9l-80.172-32.446A322.187,322.187,0,0,0,33.96,367.344L7.632,364.893A8.123,8.123,0,0,1,0,357.043V280.158a7.525,7.525,0,0,1,1.7-4.731c1.969-2.451,49.155-59.841,121.234-44.909a318.79,318.79,0,0,1,93.423,35.773,99.624,99.624,0,0,0,49.819,12.968h80.172A39.2,39.2,0,0,1,379.1,296.277l69.049-74.059c13.387-16.643,35.288-26.835,58.217-26.835h5.159a8.639,8.639,0,0,1,7.094,3.575,7.429,7.429,0,0,1,.664,7.489l-62.45,132.131c-13.654,28.9-41.455,50.727-74.363,58.387l-10.987,2.555-63.914,23.8A141.636,141.636,0,0,1,258.266,432.091ZM16.951,349.9l18.7,1.742a340.306,340.306,0,0,1,96.225,23.346l80.167,32.446a124.587,124.587,0,0,0,89.243,1.228l64.438-24a9.188,9.188,0,0,1,1.1-.325l11.545-2.69c27.865-6.486,51.4-24.966,62.959-49.432l56.961-120.516a57.553,57.553,0,0,0-36.946,20.412l-76.491,82.072c.01.307.015.609.015.921,0,19.766-17.276,35.849-38.508,35.849H234.493a144,144,0,0,0-42.706,6.45l-3.113-7.358-2.633-7.5.432-.131a161.963,161.963,0,0,1,48.021-7.245H346.35c11.884,0,21.562-9.005,21.562-20.073s-9.673-20.073-21.562-20.073H266.179a117.5,117.5,0,0,1-58.751-15.338,301.117,301.117,0,0,0-88.162-33.777C64.68,234.645,25.4,273.645,16.956,282.948V349.9Zm0,0" transform="translate(941 7202.176)" fill="#323232"/>
    <path id="Path_97" data-name="Path 97" d="M277.213,213.614c-12.544,0-26.608-3.873-42.092-11.615a8.2,8.2,0,0,1-4.032-4.55c-.63-1.769-15.2-43.688,7.956-74.688,16.832-22.535,48.48-32.684,94.119-30.141a8.144,8.144,0,0,1,7.686,7.737c.163,3.239,3.528,79.681-35.451,105.132A50.416,50.416,0,0,1,277.213,213.614Zm-31.69-24.7c21.424,10.047,38.55,11.032,50.963,2.926,23.113-15.1,28.111-59.909,28.232-83.232-35.759-.873-60.1,7.186-72.606,23.916C237.235,152.441,243.016,179.843,245.522,188.91Zm0,0" transform="translate(1036.961 7097.114) rotate(8)" fill="#323232"/>
    <path id="Path_98" data-name="Path 98" d="M176.148,122.587c-14.225,0-30.635-3.048-44.957-13.537C106.9,91.25,95.736,57.36,98,8.328A8.026,8.026,0,0,1,105.545.689c3.47-.2,85.608-4.581,113.245,36.905,12.871,19.311,11.815,44.6-3.126,75.188a8.01,8.01,0,0,1-4.439,4.007A110.78,110.78,0,0,1,176.148,122.587Zm32.311-13.325h.078ZM113.794,16.475c-.693,39.274,8.336,66.044,26.876,79.631,22.2,16.263,52.508,9.35,62.037,6.573,10.9-23.658,11.824-42.547,2.736-56.189C188.551,21.134,139.013,16.177,113.794,16.475Zm0,0" transform="translate(946.561 7174.325) rotate(-9)" fill="#323232"/>
    <path id="Path_99" data-name="Path 99" d="M224.888,300.471c-.234,0-.469-.013-.707-.034a7.443,7.443,0,0,1-6.734-7.786q.658-13.136,2.206-24.935c3.1-52.68,1.5-175.36-76.065-209.3a7.444,7.444,0,1,1,5.967-13.639c45.708,20,74.463,69.786,83.139,143.981.779,6.649,1.363,13.2,1.8,19.589,20.428-51.62,51.679-69.859,53.541-70.9a7.442,7.442,0,0,1,7.318,12.961c-.788.46-48.711,29.22-60.739,117.909-.916,15.172-2.236,24.845-2.36,25.731A7.442,7.442,0,0,1,224.888,300.471Zm0,0" transform="translate(982.045 7163.512)" fill="#323232" stroke="#323232" stroke-width="1"/>
  </g>
</svg>
