<svg xmlns="http://www.w3.org/2000/svg" width="1200" height="1200" viewBox="0 0 1200 1200"><g transform="translate(-1215 -2987)"><circle cx="600" cy="600" r="600" transform="translate(1215 2987)" fill="#fff1e6"/><g transform="translate(1539 3310.022)"><path d="M403.116,0H149.621C67.119,0,0,67.119,0,149.621v253.5c0,82.5,67.119,149.617,149.621,149.617h253.5c82.5,0,149.617-67.119,149.617-149.617v-253.5C552.737,67.119,485.618,0,403.116,0ZM276.368,427.507c-83.342,0-151.139-67.8-151.139-151.139s67.8-151.139,151.139-151.139,151.139,67.8,151.139,151.139S359.711,427.507,276.368,427.507ZM431.117,160.877a44.661,44.661,0,1,1,44.663-44.661A44.66,44.66,0,0,1,431.117,160.877Zm0,0" fill="#202124"/><path d="M256,146.02A109.98,109.98,0,1,0,365.98,256,109.98,109.98,0,0,0,256,146.02Zm0,0" transform="translate(20.368 20.368)" fill="#202124"/><path d="M399.344,96.3A11.352,11.352,0,1,0,410.7,107.653,11.352,11.352,0,0,0,399.344,96.3Zm0,0" transform="translate(32.303 8.018)" fill="#202124"/></g></g></svg>