<svg xmlns="http://www.w3.org/2000/svg" width="1200" height="1200" viewBox="0 0 1200 1200">
  <g id="Group_6" data-name="Group 6" transform="translate(-1065 -2987)">
    <circle id="Ellipse_4" data-name="Ellipse 4" cx="600" cy="600" r="600" transform="translate(1065 2987)" fill="#e7d8c9"/>
    <g id="medium" transform="translate(1369 3368.515)">
      <path id="Path_1" data-name="Path 1" d="M544.853,57.59l47.245-45.2V2.5H428.432L311.789,292.825,179.085,2.5H7.475v9.893L62.664,78.831a23.157,23.157,0,0,1,7.475,19.317v261.09a29.771,29.771,0,0,1-7.969,25.9L0,460.487v9.77H176.272v-9.893L114.1,385.143a30.7,30.7,0,0,1-8.561-25.9V133.4L260.276,470.38h17.985L411.31,133.4V401.845c0,7.081,0,8.536-4.638,13.174l-47.861,46.307v9.918h232.2v-9.893l-46.134-45.172A13.722,13.722,0,0,1,539.6,403V70.764a13.665,13.665,0,0,1,5.255-13.174Z" transform="translate(0 0)" fill="#323232"/>
    </g>
  </g>
</svg>
