<svg xmlns="http://www.w3.org/2000/svg" width="2000" height="1000" viewBox="0 0 2000 1000">
  <g id="Group_172" data-name="Group 172" transform="translate(-11691 -5591)">
    <rect id="Rectangle_7" data-name="Rectangle 7" width="2000" height="1000" transform="translate(11691 5591)" fill="none"/>
    <g id="factory" transform="translate(11979.191 5645.205)">
      <g id="Group_109" data-name="Group 109" transform="translate(117 189)">
        <g id="Group_108" data-name="Group 108">
          <path id="Path_107" data-name="Path 107" d="M509.973,232.61a8.9,8.9,0,0,0-8.828-.107L476.654,246.11,469.864,8.65a8.9,8.9,0,0,0-8.9-8.65h-62.3a8.9,8.9,0,0,0-8.9,8.65l-8.294,290.366-27.3,15.129V240.281a8.9,8.9,0,0,0-13.216-7.778L193.986,314.145V240.281a8.9,8.9,0,0,0-13.215-7.778L20.583,321.5A8.9,8.9,0,0,0,16,329.274V525.059a8.9,8.9,0,0,0,8.9,8.9H505.461a8.9,8.9,0,0,0,8.9-8.9V240.281A8.9,8.9,0,0,0,509.973,232.61ZM407.32,17.8h44.995l.516,17.8H406.813ZM406.3,53.4h47.042l5.785,202.45L399.56,288.925ZM256.281,516.159h-53.4v-44.5h53.4Zm71.194,0h-53.4v-44.5h53.4Zm169.087,0H345.274v-53.4a8.9,8.9,0,0,0-8.9-8.9H193.986a8.9,8.9,0,0,0-8.9,8.9v53.4H33.8V334.516L176.187,255.41v73.864a8.9,8.9,0,0,0,13.215,7.778L336.375,255.41v73.864a8.9,8.9,0,0,0,13.216,7.778l83.929-46.623,39.015-21.67,24.028-13.349Z" transform="translate(-16 0)" fill="#323232"/>
        </g>
      </g>
    </g>
    <g id="Group_166" data-name="Group 166" transform="translate(12792 5862.205)">
      <path id="Path_104" data-name="Path 104" d="M434.343,99.553l-230.8,1.23V69.165A69.243,69.243,0,0,0,134.378,0H69.165A69.243,69.243,0,0,0,0,69.165V174.886a9.881,9.881,0,0,0,19.761,0V69.165a49.46,49.46,0,0,1,49.4-49.4h65.213a49.46,49.46,0,0,1,49.4,49.4V388.389a68.948,68.948,0,0,0-49.4-20.826H69.165a68.753,68.753,0,0,0-48.914,20.258c-.168.168-.324.345-.49.515V174.886c0-4.261-2.548,1.488-6.621,0-.769-.287-2.064,9.881-3.26,9.881C4.424,184.767,0,169.43,0,174.886V436.728a69.243,69.243,0,0,0,69.165,69.165H434.343c2.679,0,10.438-.176,14.177-4.562,3.48-4.079,2.894-12.422,2.894-15.2V115.92c0-2.319.531-7.667-3.737-11.758S437.481,99.553,434.343,99.553Zm-62.686,20.992h62.686V291.887L245.9,120.545Zm62.686,0h0Zm-188.438,0L434.343,291.887V486.132h23.439L203.543,231.893V120.545ZM332.02,486.132,203.543,357.647V231.893L457.782,486.132Zm-312.259-49.4a49.376,49.376,0,0,1,49.4-49.4h65.213a49.4,49.4,0,0,1,0,98.807H69.165A49.46,49.46,0,0,1,19.761,436.728Zm183.782,0V357.647L332.02,486.132H182.77a68.666,68.666,0,0,0,20.773-49.4Z" transform="translate(0 0)" fill="#323232"/>
    </g>
  </g>
</svg>
