<svg xmlns="http://www.w3.org/2000/svg" width="900" height="900" viewBox="0 0 900 900">
  <g id="Group_101" data-name="Group 101" transform="translate(-3068 -6988)">
    <circle id="Ellipse_22" data-name="Ellipse 22" cx="450" cy="450" r="450" transform="translate(3068 6988)" fill="none"/>
    <g id="thread" transform="translate(3288.2 7199)">
      <g id="Group_98" data-name="Group 98" transform="translate(44.8)">
        <g id="Group_97" data-name="Group 97">
          <path id="Path_100" data-name="Path 100" d="M414.8,108.6V55.74C413.839,28.831,350.41,0,229.32,0S44.8,27.87,44.8,56.7v52.857c0,14.416,16.338,28.831,49.013,39.4V328.675C62.1,338.286,44.8,351.74,44.8,368.078v52.857c0,27.87,63.429,56.7,184.52,56.7s184.519-27.87,184.519-56.7V368.078c0-16.338-16.338-28.831-49.013-39.4V307.533l43.247-19.221c4.805-1.922,6.727-7.688,4.805-12.493s-7.688-6.727-12.494-4.805l-34.6,15.377V148C397.5,137.429,414.8,123.013,414.8,108.6ZM229.32,19.221c107.636,0,165.3,24.026,165.3,37.481s-57.662,37.481-165.3,37.481S64.021,70.156,64.021,56.7,121.683,19.221,229.32,19.221Zm165.3,400.753c0,12.493-57.662,37.481-165.3,37.481s-165.3-24.026-165.3-37.481V393.065c26.909,17.3,82.649,30.753,165.3,30.753s138.39-13.455,165.3-30.753Zm-27.87-52.857V347.9c20.182,7.688,27.87,15.377,27.87,19.221,0,12.493-58.623,37.481-165.3,37.481s-165.3-24.026-165.3-37.481c0-3.844,7.688-11.532,29.792-19.221v19.221c0,3.844,2.883,7.688,5.766,8.649.961.961,36.52,13.455,126.857,13.455,96.1,0,131.662-12.493,133.584-13.455A9.231,9.231,0,0,0,366.748,367.117ZM172.618,225.844c46.13,0,109.558-6.727,173.948-32.675v20.182C245.657,256.6,140.9,246.987,112.073,243.143V222C124.566,223.922,145.709,225.844,172.618,225.844Zm-60.545-23.065V153.766c29.792,6.727,69.195,11.532,117.247,11.532s87.455-4.805,117.247-11.532v19.221C245.657,216.234,140.9,206.623,112.073,202.779Zm60.545,63.429c46.13,0,109.558-6.727,173.948-32.675v20.182C245.657,296.961,140.9,287.351,112.073,283.507V262.364C124.566,264.286,145.709,266.208,172.618,266.208Zm0,41.325c46.13,0,109.558-6.727,173.948-32.675v19.221c-100.909,44.208-205.662,34.6-234.494,30.753V303.688C124.566,305.61,145.709,307.533,172.618,307.533Zm-59.584,36.661c12.6,1.874,33.337,3.7,59.584,3.7,46.13,0,109.558-6.727,173.948-32.675V360.39c-13.455,2.883-50.935,10.571-120.13,10.571-65.351,0-100.909-6.727-113.4-10.571ZM229.32,146.078c-107.636,0-165.3-24.026-165.3-37.481V81.688C90.93,99.948,146.67,113.4,229.32,113.4s138.39-13.455,165.3-30.753v26.909C394.618,122.052,336.956,146.078,229.32,146.078Z" transform="translate(-44.8)" fill="#323232"/>
        </g>
      </g>
      <g id="Group_100" data-name="Group 100" transform="translate(206.2 39.2)">
        <g id="Group_99" data-name="Group 99">
          <path id="Path_101" data-name="Path 101" d="M214.4,39.2H183.2a7.558,7.558,0,0,0-8,8,7.558,7.558,0,0,0,8,8h31.2a7.558,7.558,0,0,0,8-8A7.558,7.558,0,0,0,214.4,39.2Z" transform="translate(-175.2 -39.2)" fill="#323232"/>
        </g>
      </g>
    </g>
  </g>
</svg>
