<svg xmlns="http://www.w3.org/2000/svg" width="879.219" height="262.745" viewBox="0 0 879.219 262.745">
  <g id="Group_62" data-name="Group 62" transform="translate(-2459 -1534.264)">
    <g id="Group_58" data-name="Group 58" transform="translate(-1344 -288)">
      <ellipse id="Ellipse_53" data-name="Ellipse 53" cx="9.38" cy="8.83" rx="9.38" ry="8.83" transform="matrix(0.017, -1, 1, 0.017, 4450.23, 2054.147)" fill="#f9e76f"/>
      <ellipse id="Ellipse_54" data-name="Ellipse 54" cx="13.15" cy="12.37" rx="13.15" ry="12.37" transform="translate(4251.927 2057.675) rotate(-88.854)" fill="#f9e76f"/>
      <circle id="Ellipse_55" data-name="Ellipse 55" cx="22.65" cy="22.65" r="22.65" transform="translate(4386.412 1910.895)" fill="#a9d767"/>
      <circle id="Ellipse_56" data-name="Ellipse 56" cx="44.41" cy="44.41" r="44.41" transform="translate(4255.002 1889.135)" fill="#b9ddd5"/>
      <path id="Path_387" data-name="Path 387" d="M698.76,114.37a20.76,20.76,0,0,0-13.62,22.06.62.62,0,0,0,.6.46,29.84,29.84,0,0,1,21.06,6.73.63.63,0,0,0,1-.76A51.192,51.192,0,0,1,702.4,128a49.07,49.07,0,0,1-.87-8c0-1.3-.07-2.81.86-3.84a7.52,7.52,0,0,1,3.28-1.66c4.25-1.4,9.72-1.8,12.88,2,2.7,3.25,2.61,8.12,1.43,12-1.66,5.42-5.37,10-7.46,15.22-.24.63.63,1,1.05.61,6.49-5.88,14.35-12.61,23.75-11.5.42.05.68-.44.6-.8a26.75,26.75,0,0,0-13.59-17.74l-.63,1.08c15,7.58,30.11,15,44.89,22.94.71.38,1.34-.7.64-1.08-14.79-8-29.91-15.36-44.9-22.94-.71-.36-1.34.7-.63,1.08a25.56,25.56,0,0,1,13,17l.6-.79c-9.72-1.15-17.92,5.78-24.64,11.87l1.05.6c2.15-5.41,6-10.06,7.61-15.72,1.14-4.17,1-9.23-1.9-12.68-3.21-3.79-8.55-3.89-13-2.67-2.1.58-4.8,1.33-5.73,3.53-1,2.41-.4,5.68-.1,8.18a52.648,52.648,0,0,0,6.08,18.87l1-.75a31,31,0,0,0-21.94-7.1l.6.46a19.47,19.47,0,0,1,12.75-20.52c.76-.26.43-1.47-.33-1.21Z" transform="translate(3537.932 1741.084)" fill="#231f20"/>
      <path id="Path_388" data-name="Path 388" d="M696.53,91.27a9.34,9.34,0,0,1,16.12-6,9.47,9.47,0,0,1,1.68,10.31c-.76,1.71-2.15,2.74-3.2,4.22a5.14,5.14,0,0,0-.5,5,.63.63,0,0,0,.77.43,2.38,2.38,0,0,0,1.67-2.3.63.63,0,0,0-1.07-.44,6.64,6.64,0,0,0-1.9,5,.64.64,0,0,0,.62.62,1.77,1.77,0,0,0,1.89-2.25.63.63,0,0,0-.92-.37A5.07,5.07,0,0,0,709.2,109a.65.65,0,0,0,.29.7,1.89,1.89,0,0,0,2.9-1.65.63.63,0,0,0-.94-.54,3.64,3.64,0,0,0-1.6,4.18.63.63,0,0,0,.44.44,1.78,1.78,0,0,0,2.14-1.28.64.64,0,0,0-.61-.79c-3-.12-3.15,3.45-3.4,5.58-.46,4-4.75,2.79-7.6,3.18-.79.11-.45,1.31.34,1.2,2.31-.32,5.29.48,7.19-1.27a5,5,0,0,0,1.36-3.52c.11-1.34.16-4,2.11-3.92l-.6-.79-.6.4.44.44a2.34,2.34,0,0,1,1-2.77l-.94-.54a.64.64,0,0,1-1,.57l.29.71a3.87,3.87,0,0,1,1.91-2.8l-.92-.37-.68.66.63.63a5.389,5.389,0,0,1,1.54-4.08l-1.07-.44a1,1,0,0,1-.75,1.1l.77.44c-1-2.27.13-3.8,1.63-5.41a10.659,10.659,0,0,0,2.33-3.84,10.9,10.9,0,0,0-.69-8.73A10.7,10.7,0,0,0,699.9,83a11,11,0,0,0-4.62,8.28.626.626,0,0,0,1.25,0Z" transform="translate(3537.932 1741.084)" fill="#231f20"/>
      <path id="Path_389" data-name="Path 389" d="M710.58,111.66a29.644,29.644,0,0,0,1,4,7.851,7.851,0,0,0,1.69,3.46c1.76,1.6,4.14.33,6.19.82a.628.628,0,0,0,.33-1.21,9.56,9.56,0,0,0-3,0,3.51,3.51,0,0,1-2.62-.44,3.329,3.329,0,0,1-.8-1.34c-.23-.59-.45-1.19-.64-1.8a30.631,30.631,0,0,1-1-3.8c-.14-.79-1.35-.45-1.2.34Z" transform="translate(3537.932 1741.084)" fill="#231f20"/>
      <path id="Path_390" data-name="Path 390" d="M696.25,114.73a103.068,103.068,0,0,0-23.87,11.34A101.631,101.631,0,0,0,661.72,134c-3.26,2.76-6.88,5.7-8.66,9.69a45.668,45.668,0,0,0-2,6.26c-.7,2.49-1.39,5-2.07,7.48q-2,7.38-4,14.78c-2.56,9.86-5,19.76-7,29.74s-3.82,19.94-5.11,30a54.7,54.7,0,0,0-.81,7.2c0,1.82,1.11,2.77,2.8,3.19,5,1.24,10.14,2.18,15.19,3.23,1.82.37,3.83.75,5.56-.14a4.25,4.25,0,0,0-3.88-7.56c-1.22.64-.38,2.17.53,2.72a3,3,0,0,0,3.63-.4c1.4-1.22,2-3.27,2.58-5,.8-2.16,1.5-4.35,2.13-6.57,5.17-18.22,5.22-37.4,9.89-55.72.57-2.24,1.22-4.46,1.93-6.66l-1.22-.16q1,34.42.63,68.87-.09,8.58-.26,17.16c0,1.4-.06,2.81-.1,4.22a20.3,20.3,0,0,0,0,3.82c.41,2.33,3.18,2,5,2.15q17,1.33,34,1.55,19.26.22,38.5-1a.62.62,0,0,0,.62-.62c-1-24.75-.16-49.51-.37-74.27q-.08-10.81-.49-21.62l-1.17.31a139.277,139.277,0,0,1,11.92,28.33c2.82,9.41,4.84,19,6.9,28.62,1.26,5.85,2.54,11.71,4,17.53.19.78,1.4.45,1.21-.34-4.8-19.7-7.71-40-15.3-58.92a132.5,132.5,0,0,0-7.6-15.85.63.63,0,0,0-1.16.32c1,24.75.17,49.51.37,74.26.06,7.22.21,14.42.49,21.63l.63-.63a515.642,515.642,0,0,1-66.13-.12c-2.71-.17-5.42-.38-8.13-.6-.93-.07-1.81,0-2.05-1.19a8.621,8.621,0,0,1,0-1.9l.09-4.22q.18-8.46.28-16.91.19-16.53.07-33.07-.14-18.78-.68-37.54a.63.63,0,0,0-1.23-.17c-6.48,19.82-6.05,41-11.47,61.09q-1.1,4.1-2.56,8.07a11.659,11.659,0,0,1-1.82,3.83,2.06,2.06,0,0,1-1.65.81,1.208,1.208,0,0,1-1.33-1.2l-.31.54a3,3,0,0,1,4.26,3.82c-1.38,3-5.68,1.5-8.11,1l-9.32-2c-1.35-.28-2.77-.47-4.08-.88-2-.63-1.48-2.65-1.3-4.28,1.41-12.39,3.56-24.68,6.16-36.86s5.63-24.11,8.85-36.06c1.59-5.88,3-11.88,4.93-17.66,1.81-5.46,6.47-9.15,10.79-12.67a100.788,100.788,0,0,1,32.36-17.59c.76-.25.43-1.46-.34-1.21Z" transform="translate(3537.932 1741.084)" fill="#231f20"/>
      <path id="Path_391" data-name="Path 391" d="M770.93,240.41c1.61.4,3.75.72,5.16-.39a2.65,2.65,0,0,0-.13-4.18,3.47,3.47,0,0,0-4.69.37c-1.73,1.67-1.79,4.14-1.5,6.37.23,1.77.49,4.14,2.34,5a5.56,5.56,0,0,0,3.16.09c1.52-.22,3-.46,4.55-.72,2.93-.52,5.89-1.05,8.78-1.8a2.85,2.85,0,0,0,2-1.21c.53-1,0-2.61-.18-3.68l-5.66-36.87c-1.83-12-3.61-24-6-35.84-1.28-6.26-2.76-12.48-4.49-18.63-.61-2.15-1.24-4.29-2-6.38a16.071,16.071,0,0,0-2.82-5.27c-.54-.6-1.43.29-.88.88,2.15,2.35,3,6.06,3.93,9,1.2,4,2.25,8.11,3.22,12.2,2.27,9.64,4,19.4,5.55,29.18,1.59,10,3.08,19.93,4.61,29.9l2.33,15.24,1.14,7.37c.13.86.6,2.1-.36,2.69a5.1,5.1,0,0,1-1.33.34c-1.26.29-2.53.56-3.79.82-2.77.57-5.56,1.06-8.35,1.46-1.54.23-3.13.52-3.83-1.19a12.32,12.32,0,0,1-.67-3.55,6,6,0,0,1,.69-3.88c.71-1.09,2.08-1.9,3.32-1.13,1.43.89.91,2.49-.58,2.81a7,7,0,0,1-3.09-.24.63.63,0,0,0-.33,1.21Z" transform="translate(3537.932 1741.084)" fill="#231f20"/>
      <path id="Path_392" data-name="Path 392" d="M796.72,114.37a20.76,20.76,0,0,0-13.61,22.06.62.62,0,0,0,.6.46,29.84,29.84,0,0,1,21.06,6.73.63.63,0,0,0,1-.76,50.9,50.9,0,0,1-5.4-14.86,49.078,49.078,0,0,1-.87-8c0-1.3-.07-2.81.86-3.84a7.48,7.48,0,0,1,3.27-1.66c4.26-1.4,9.73-1.8,12.89,2,2.7,3.25,2.61,8.12,1.43,12-1.66,5.42-5.37,10-7.46,15.22-.25.63.63,1,1,.61,6.49-5.88,14.35-12.61,23.75-11.5.42.05.68-.44.6-.8a26.75,26.75,0,0,0-13.59-17.74l-.63,1.08c15,7.58,30.1,15,44.89,22.94.71.38,1.34-.7.63-1.08-14.79-8-29.9-15.36-44.89-22.94-.71-.36-1.35.7-.63,1.08a25.51,25.51,0,0,1,13,17l.61-.79c-9.73-1.15-17.92,5.78-24.64,11.87l1.05.6c2.15-5.41,6-10.06,7.6-15.72,1.15-4.17,1-9.23-1.9-12.68-3.2-3.79-8.54-3.89-13-2.67-2.11.58-4.8,1.33-5.73,3.53-1,2.41-.4,5.68-.1,8.18a52.261,52.261,0,0,0,6.08,18.87l1-.75a31,31,0,0,0-21.94-7.1l.6.46A19.47,19.47,0,0,1,797,115.65c.75-.26.43-1.47-.34-1.21Z" transform="translate(3537.932 1741.084)" fill="#231f20"/>
      <path id="Path_393" data-name="Path 393" d="M794.5,91.27a9.34,9.34,0,0,1,16.12-6,9.48,9.48,0,0,1,1.68,10.31c-.76,1.71-2.15,2.74-3.2,4.22a5.14,5.14,0,0,0-.5,5,.63.63,0,0,0,.77.43,2.38,2.38,0,0,0,1.67-2.3.63.63,0,0,0-1.07-.44,6.6,6.6,0,0,0-1.9,5,.63.63,0,0,0,.62.62,1.77,1.77,0,0,0,1.89-2.25.63.63,0,0,0-.92-.37,5.07,5.07,0,0,0-2.49,3.55.65.65,0,0,0,.29.7,1.89,1.89,0,0,0,2.9-1.65.63.63,0,0,0-.94-.54,3.64,3.64,0,0,0-1.6,4.18.61.61,0,0,0,.44.44,1.77,1.77,0,0,0,2.13-1.28.63.63,0,0,0-.6-.79c-3-.12-3.15,3.45-3.4,5.58-.47,4-4.75,2.79-7.6,3.18-.79.11-.45,1.31.34,1.2,2.31-.32,5.29.48,7.19-1.27a5,5,0,0,0,1.36-3.52c.11-1.34.15-4,2.11-3.92l-.6-.79-.6.4.43.44a2.36,2.36,0,0,1,1-2.77l-.94-.54a.64.64,0,0,1-1,.57l.29.71a3.87,3.87,0,0,1,1.91-2.8l-.92-.37-.68.66.63.63a5.42,5.42,0,0,1,1.53-4.08l-1.06-.44A1,1,0,0,1,809,104l.76.44c-.95-2.27.14-3.8,1.64-5.41a10.659,10.659,0,0,0,2.33-3.84,10.9,10.9,0,0,0-.69-8.73A10.7,10.7,0,0,0,797.87,83a11,11,0,0,0-4.62,8.28.625.625,0,0,0,1.25,0Z" transform="translate(3537.932 1741.084)" fill="#231f20"/>
      <path id="Path_394" data-name="Path 394" d="M808.55,111.66a29.635,29.635,0,0,0,1,4,7.851,7.851,0,0,0,1.69,3.46c1.76,1.6,4.14.33,6.19.82a.628.628,0,0,0,.33-1.21,9.56,9.56,0,0,0-3,0,3.51,3.51,0,0,1-2.62-.44,3.331,3.331,0,0,1-.8-1.34c-.23-.59-.45-1.19-.64-1.8a30.609,30.609,0,0,1-1-3.8c-.14-.79-1.35-.45-1.2.34Z" transform="translate(3537.932 1741.084)" fill="#231f20"/>
      <path id="Path_395" data-name="Path 395" d="M769.35,259.14c0,2,.84,2.88,2.83,3.05,2.7.24,5.41.43,8.12.61q8,.54,16,.82,16.17.58,32.34.15,9.14-.24,18.26-.82a.63.63,0,0,0,.62-.62c-1-24.75-.17-49.51-.37-74.27-.06-7.21-.21-14.42-.49-21.62l-1.17.31a139.277,139.277,0,0,1,11.92,28.33c2.82,9.41,4.84,19,6.9,28.62,1.26,5.85,2.53,11.71,3.95,17.53.19.78,1.4.45,1.21-.34-4.8-19.7-7.72-40-15.3-58.92a132.5,132.5,0,0,0-7.6-15.85.63.63,0,0,0-1.16.32c1,24.75.16,49.51.37,74.26q.08,10.83.49,21.63l.63-.63a517.155,517.155,0,0,1-60,.25q-4.2-.22-8.38-.52l-4.19-.31-2-.16a3.879,3.879,0,0,1-1.06-.12,1.67,1.67,0,0,1-.76-1.7.63.63,0,0,0-1.25,0Z" transform="translate(3537.932 1741.084)" fill="#231f20"/>
      <path id="Path_396" data-name="Path 396" d="M794.22,114.73c-5.64,1.83-11.42,3.44-16.79,6a55.94,55.94,0,0,0-14.23,10.19c-.59.55.3,1.44.88.89a54.779,54.779,0,0,1,14-10c5.27-2.49,11-4,16.49-5.84.77-.25.44-1.45-.33-1.21Z" transform="translate(3537.932 1741.084)" fill="#231f20"/>
      <path id="Path_397" data-name="Path 397" d="M868.9,240.41c1.6.4,3.75.72,5.15-.39a2.65,2.65,0,0,0-.12-4.18,3.47,3.47,0,0,0-4.69.37c-1.73,1.67-1.79,4.14-1.5,6.37.23,1.77.49,4.14,2.33,5a5.6,5.6,0,0,0,3.17.09c1.52-.22,3-.46,4.54-.72,2.94-.52,5.9-1.05,8.79-1.8a2.81,2.81,0,0,0,1.95-1.21c.54-1,0-2.61-.18-3.68l-5.65-36.87c-1.84-12-3.61-24-6-35.84-1.28-6.26-2.76-12.48-4.49-18.63-.61-2.15-1.24-4.29-2-6.38a16.071,16.071,0,0,0-2.82-5.27c-.54-.6-1.43.29-.88.88,2.15,2.35,3,6.06,3.93,9,1.2,4,2.25,8.11,3.22,12.2,2.27,9.64,4,19.4,5.55,29.18,1.59,10,3.08,19.93,4.61,29.9l2.33,15.24,1.13,7.37c.13.86.61,2.1-.35,2.69a5.2,5.2,0,0,1-1.33.34c-1.26.29-2.53.56-3.79.82q-4.15.86-8.36,1.46c-1.53.23-3.12.52-3.82-1.19a12.68,12.68,0,0,1-.68-3.55,6.05,6.05,0,0,1,.7-3.88c.71-1.09,2.08-1.9,3.32-1.13,1.43.89.91,2.49-.58,2.81a7,7,0,0,1-3.09-.24.63.63,0,0,0-.33,1.21Z" transform="translate(3537.932 1741.084)" fill="#231f20"/>
      <path id="Path_398" data-name="Path 398" d="M893.64,114.37A20.76,20.76,0,0,0,880,136.43a.63.63,0,0,0,.6.46,29.83,29.83,0,0,1,21.06,6.73.63.63,0,0,0,1-.76A51.192,51.192,0,0,1,897.28,128a50.193,50.193,0,0,1-.87-8c0-1.3-.07-2.81.86-3.84a7.52,7.52,0,0,1,3.28-1.66c4.25-1.4,9.72-1.8,12.88,2,2.7,3.25,2.61,8.12,1.44,12-1.67,5.42-5.38,10-7.46,15.22-.25.63.62,1,1,.61,6.49-5.88,14.36-12.61,23.75-11.5.43.05.68-.44.6-.8a26.72,26.72,0,0,0-13.59-17.74l-.63,1.08c15,7.58,30.11,15,44.9,22.94.7.38,1.34-.7.63-1.08-14.79-8-29.91-15.36-44.9-22.94-.71-.36-1.34.7-.63,1.08a25.53,25.53,0,0,1,13,17l.6-.79c-9.72-1.15-17.91,5.78-24.63,11.87l1,.6c2.15-5.41,6-10.06,7.61-15.72,1.15-4.17,1-9.23-1.9-12.68-3.21-3.79-8.55-3.89-13-2.67-2.1.58-4.8,1.33-5.72,3.53-1,2.41-.41,5.68-.1,8.18a52.261,52.261,0,0,0,6.08,18.87l1-.75a31,31,0,0,0-22-7.1l.61.46A19.47,19.47,0,0,1,894,115.58c.76-.26.43-1.47-.33-1.21Z" transform="translate(3537.932 1741.084)" fill="#231f20"/>
      <path id="Path_399" data-name="Path 399" d="M891.41,91.27a9.34,9.34,0,0,1,16.12-6,9.47,9.47,0,0,1,1.68,10.31c-.76,1.71-2.15,2.74-3.2,4.22a5.17,5.17,0,0,0-.5,5,.63.63,0,0,0,.77.43,2.38,2.38,0,0,0,1.67-2.3.63.63,0,0,0-1.07-.44,6.68,6.68,0,0,0-1.9,5,.64.64,0,0,0,.63.62,1.77,1.77,0,0,0,1.88-2.25.63.63,0,0,0-.92-.37,5.1,5.1,0,0,0-2.49,3.55.65.65,0,0,0,.29.7,1.89,1.89,0,0,0,2.9-1.65.63.63,0,0,0-.94-.54,3.64,3.64,0,0,0-1.6,4.18.63.63,0,0,0,.44.44,1.78,1.78,0,0,0,2.14-1.28.63.63,0,0,0-.61-.79c-3-.12-3.14,3.45-3.39,5.58-.47,4-4.76,2.79-7.6,3.18-.8.11-.46,1.31.33,1.2,2.31-.32,5.29.48,7.2-1.27a5.08,5.08,0,0,0,1.35-3.52c.11-1.34.16-4,2.11-3.92l-.6-.79-.6.4.44.44a2.35,2.35,0,0,1,1-2.77l-.94-.54a.64.64,0,0,1-1,.57l.29.71a3.9,3.9,0,0,1,1.91-2.8l-.92-.37-.67.66.62.63a5.39,5.39,0,0,1,1.54-4.08l-1.07-.44A1,1,0,0,1,906,104l.77.44c-1-2.27.13-3.8,1.63-5.41a10.661,10.661,0,0,0,2.33-3.84A10.9,10.9,0,0,0,910,86.5,10.7,10.7,0,0,0,894.78,83a11,11,0,0,0-4.62,8.28.625.625,0,0,0,1.25,0Z" transform="translate(3537.932 1741.084)" fill="#231f20"/>
      <path id="Path_400" data-name="Path 400" d="M905.46,111.66a29.644,29.644,0,0,0,1,4,8,8,0,0,0,1.69,3.46c1.76,1.6,4.15.33,6.19.82a.627.627,0,0,0,.33-1.21,9.56,9.56,0,0,0-3,0,3.51,3.51,0,0,1-2.62-.44,3.43,3.43,0,0,1-.79-1.34c-.24-.59-.45-1.19-.65-1.8a28.929,28.929,0,0,1-1-3.8c-.15-.79-1.35-.45-1.21.34Z" transform="translate(3537.932 1741.084)" fill="#231f20"/>
      <path id="Path_401" data-name="Path 401" d="M866.26,259.14c0,2,.85,2.88,2.83,3.05,2.71.24,5.42.43,8.13.61,5.33.36,10.68.63,16,.82q16.17.58,32.35.15,9.13-.24,18.25-.82a.64.64,0,0,0,.63-.62c-1-24.75-.17-49.51-.37-74.27q-.09-10.81-.5-21.62l-1.16.31a139.252,139.252,0,0,1,11.91,28.33c2.82,9.41,4.84,19,6.9,28.62,1.26,5.85,2.54,11.71,4,17.53.19.78,1.39.45,1.2-.34-4.8-19.7-7.71-40-15.29-58.92a135.625,135.625,0,0,0-7.6-15.85.63.63,0,0,0-1.17.32c1,24.75.17,49.51.37,74.26.06,7.22.21,14.42.5,21.63l.62-.63a517.141,517.141,0,0,1-60,.25c-2.79-.15-5.59-.32-8.38-.52l-4.18-.31-2-.16a3.789,3.789,0,0,1-1.06-.12,1.69,1.69,0,0,1-.77-1.7.63.63,0,0,0-1.25,0Z" transform="translate(3537.932 1741.084)" fill="#231f20"/>
      <path id="Path_402" data-name="Path 402" d="M891.14,114.73c-5.64,1.83-11.42,3.44-16.8,6a55.941,55.941,0,0,0-14.23,10.19c-.58.55.3,1.44.89.89a54.912,54.912,0,0,1,14-10c5.28-2.49,11-4,16.5-5.84.76-.25.43-1.45-.33-1.21Z" transform="translate(3537.932 1741.084)" fill="#231f20"/>
      <path id="Path_403" data-name="Path 403" d="M965.81,240.41c1.61.4,3.75.72,5.16-.39a2.65,2.65,0,0,0-.12-4.18,3.48,3.48,0,0,0-4.7.37c-1.73,1.67-1.78,4.14-1.49,6.37.23,1.77.48,4.14,2.33,5a5.56,5.56,0,0,0,3.16.09c1.52-.22,3-.46,4.55-.72,2.93-.52,5.9-1.05,8.78-1.8a2.85,2.85,0,0,0,2-1.21c.53-1,0-2.61-.18-3.68l-5.66-36.87c-1.83-12-3.6-24-6-35.84-1.28-6.26-2.76-12.48-4.49-18.63-.61-2.15-1.24-4.29-2-6.38a16.07,16.07,0,0,0-2.82-5.27c-.54-.6-1.42.29-.88.88,2.15,2.35,3,6.06,3.93,9,1.2,4,2.26,8.11,3.22,12.2,2.28,9.64,4,19.4,5.55,29.18,1.59,10,3.08,19.93,4.61,29.9L983,233.7l1.13,7.37c.13.86.6,2.1-.36,2.69a5.1,5.1,0,0,1-1.33.34c-1.26.29-2.52.56-3.79.82q-4.15.86-8.35,1.46c-1.53.23-3.12.52-3.83-1.19a12.318,12.318,0,0,1-.67-3.55,6,6,0,0,1,.69-3.88c.71-1.09,2.08-1.9,3.32-1.13,1.43.89.91,2.49-.57,2.81a7.08,7.08,0,0,1-3.1-.24.63.63,0,0,0-.33,1.21Z" transform="translate(3537.932 1741.084)" fill="#231f20"/>
      <path id="Path_406" data-name="Path 406" d="M650.12,342.45c2.8-5.18,9.66-5,13.6-8.9,2.65-2.61,3.57-8.14-.28-10.18l-.48,1.15a12,12,0,0,1,7.48,5.37c.3.48,1.23.34,1.16-.31a83.248,83.248,0,0,0-6.18-23.93l-.7.91A18.29,18.29,0,0,1,676.1,318.1a.63.63,0,0,0,1.23-.16,31.4,31.4,0,0,0-9.05-23.72l-.76,1a212.994,212.994,0,0,1,24.58,19.63.63.63,0,0,0,.89,0A33.35,33.35,0,0,1,721.44,303a.63.63,0,0,0,.54-.94c-2.09-3.84-5.79-10.13-11.14-8.5-4.15,1.27-6.29,6.38-2.33,9.21,4.62,3.29,11.24,3.37,16.24,1,2.87-1.37,5-3.83,7.72-5.36s7.2-1.67,7.76,2.16c.43,2.85-2.08,6-4.84,6.54-4.16.83-8.15-2.25-11.26-4.58l.22.85c4.5-6.54,12.21-9,19.86-8.94A45.67,45.67,0,0,1,755.66,296c3.56,1,7,2.26,10.7,2.59s7.34-.55,9.58-3.74h-1.08l2.71,5.31a.63.63,0,0,0,1.14-.15,7.21,7.21,0,0,1,3.68-4.44l-.94-.54,1.06,9.39a.63.63,0,0,0,1.16.31l4.37-6.25-1.14-.15,1,6.4a.63.63,0,0,0,.92.37A71,71,0,0,1,808,297.34l-.77-.43a8,8,0,0,1-2.55,8.93l.76,1c5.46-6.52,15.84-5.61,23.46-5.28a131.351,131.351,0,0,1,29,4.61.62.62,0,0,0,.77-.43l1.08-6-1.14.15,3.64,6.06a.64.64,0,0,0,1.17-.32l1.14-8.74-1.17.31,4,9c.23.51,1,.32,1.15-.15a57,57,0,0,1,3.32-8.93l-1.14-.15,2.41,10.8a.63.63,0,0,0,1,.28l9.56-12.22-1.06-.44-.81,12.05a.62.62,0,0,0,1.22.16,9.26,9.26,0,0,1,8.11-7.42l-.6-.79-2.13,10a.63.63,0,0,0,.77.77,31.9,31.9,0,0,1,30.39,6.12.64.64,0,0,0,.88,0c1.48-1.53,1.33-3.64.43-5.45-1.15-2.3-3.36-3.34-5.37-4.74-1.2-.82-2.48-1.87-2.76-3.37a3.7,3.7,0,0,1,.92-3.3c1.43-1.16,3,1.42,3.55,2.52a7.8,7.8,0,0,1,.55,5,.622.622,0,1,0,1.2.33,19.289,19.289,0,0,1,4.15-6.58,10.167,10.167,0,0,1,1.09-1c.6-.53.9-1,1.61-.32a3.32,3.32,0,0,1,.8,2.44c0,4.37-4.22,6.7-5.18,10.71-.75,3.15,1.22,5.58,4.18,6.29,3.12.75,7.18,0,9.51,2.69a.63.63,0,0,0,1-.13,114.072,114.072,0,0,0,7.39-19.57h-1.2a38.54,38.54,0,0,1,2.17,17.77h1.25a28.272,28.272,0,0,1,2.25-8.71l-1.17-.31A63.886,63.886,0,0,1,946,321.6a.63.63,0,0,0,1.15.49,44.37,44.37,0,0,1,8.85-9.65l-1-.76-9.58,12.59c-.32.42.22,1.11.71.92a37.3,37.3,0,0,1,22.12-1.87l-.27-1a36.279,36.279,0,0,1-10.29,8.14c-.61.32-.25,1.1.31,1.16l14.21,1.74-.17-1.23a47,47,0,0,0-16.53,10.74.63.63,0,0,0,.89.89,45.28,45.28,0,0,1,16-10.42.63.63,0,0,0-.17-1.23L958,330.18l.32,1.17A37.1,37.1,0,0,0,968.87,323a.63.63,0,0,0-.28-1,38.44,38.44,0,0,0-22.78,1.86l.7.92,9.58-12.59c.46-.61-.48-1.16-1-.75a44.848,44.848,0,0,0-9.05,9.9l1.14.48a66.918,66.918,0,0,0,.87-11.39c0-.58-.9-.92-1.16-.32a30.228,30.228,0,0,0-2.42,9.34c-.07.8,1.16.79,1.25,0a39.331,39.331,0,0,0-2.22-18.11.63.63,0,0,0-1.2,0,113.131,113.131,0,0,1-7.27,19.28l1-.13c-2.46-2.78-6.42-2.25-9.73-2.93-2.4-.51-4.26-2.12-3.63-4.83.59-2.55,2.72-4.33,4-6.51s2.28-7-.8-8.41c-1.71-.77-3.3,1.51-4.3,2.66a21.172,21.172,0,0,0-3.78,6.39l1.2.33a9,9,0,0,0-2.51-8.47c-1.81-1.67-3.88-.85-4.69,1.38-.95,2.62.3,4.87,2.37,6.47,1.39,1.07,3.08,1.81,4.36,3,1.43,1.37,2.69,4,1.07,5.72h.88a33.15,33.15,0,0,0-31.6-6.43l.76.77,2.13-10a.63.63,0,0,0-.6-.79,10.5,10.5,0,0,0-9.31,8.34l1.23.17.81-12.05a.64.64,0,0,0-1.07-.45l-9.57,12.22,1,.28-2.42-10.8a.63.63,0,0,0-1.14-.15,58.449,58.449,0,0,0-3.45,9.22l1.14-.15-4-9c-.28-.64-1.1-.21-1.16.32l-1.14,8.74,1.16-.31-3.64-6.06a.64.64,0,0,0-1.15.15l-1.07,6,.77-.43a132.57,132.57,0,0,0-30.59-4.71c-7.69-.26-17.64-.83-23.12,5.7-.41.5.15,1.44.76,1a9.23,9.23,0,0,0,3.12-10.35.63.63,0,0,0-.77-.43,72.07,72.07,0,0,0-19.4,7.91l.91.38-1-6.4c-.09-.58-.87-.54-1.14-.15l-4.37,6.25,1.17.32-1.06-9.39a.63.63,0,0,0-.94-.54,8.44,8.44,0,0,0-4.25,5.19l1.14-.15-2.71-5.32a.64.64,0,0,0-1.08,0c-4.79,6.83-15.46,1.21-21.66-.08-6.89-1.43-14.45-1.61-21,1.22a20.71,20.71,0,0,0-8.91,7.34.65.65,0,0,0,.23.86c4,3,10,7.11,14.86,3.45,3.1-2.34,4.79-7.78.79-10.17-5.21-3.1-9.93,2.87-13.9,5.2a15.58,15.58,0,0,1-9.45,2c-2.63-.27-7.85-1.54-8.22-4.77s3.91-5.47,6.65-4.34c3.24,1.34,5.08,4.81,6.67,7.73l.54-.94A34.57,34.57,0,0,0,692.1,314h.9a216.353,216.353,0,0,0-24.84-19.83c-.59-.4-1.25.49-.76,1A30.12,30.12,0,0,1,676.09,318l1.23-.17a19.58,19.58,0,0,0-12.26-12.41c-.58-.19-.9.46-.71.92a81,81,0,0,1,6,23.3l1.17-.32a13.3,13.3,0,0,0-8.23-5.95c-.66-.15-1.13.8-.48,1.14,2,1.07,2.31,3.65,1.67,5.65-.76,2.35-2.93,3.8-5.05,4.82-3.82,1.85-8.22,2.89-10.39,6.9-.38.71.7,1.34,1.08.63Z" transform="translate(3537.932 1741.084)" fill="#231f20"/>
    </g>
    <circle id="Ellipse_84" data-name="Ellipse 84" cx="20.98" cy="20.98" r="20.98" transform="translate(2757.25 1741)" fill="#f9e76f"/>
    <ellipse id="Ellipse_85" data-name="Ellipse 85" cx="31.93" cy="31.84" rx="31.93" ry="31.84" transform="translate(2611.23 1597.091) rotate(-64.64)" fill="#f9e76f"/>
    <path id="Path_538" data-name="Path 538" d="M220.22,239.74c-4.3,2-9.08.19-13.05-1.76-4.42-2.17-8.74-4.58-13.1-6.88l-26.54-14,.22.86c10-23.16,32.27-37.21,48.36-55.66,2.14-2.46,4.69-5.3,4.72-8.76,0-2.62-1.61-5.42-4.36-5.84a.66.66,0,0,0-.7.29,276.225,276.225,0,0,1-24,29.73q-6.42,6.92-13.31,13.37c-4.49,4.22-9.29,8.08-13.82,12.24-4.1,3.77-8.26,8.65-7.58,14.61l.79-.6c-5.8-1-10.93-3.91-16-6.73l-16.7-9.26c-2.72-1.52-5.47-3-8.18-4.54-1.09-.63-2.54-1.49-2.45-2.94.07-1.23,1.27-2.19,2.18-2.88a41.481,41.481,0,0,0,5.35-4.46,44.159,44.159,0,0,0,4.24-5.3c2.71-3.91,5-8.09,7.78-12,3.2-4.46,7.27-7.88,11.45-11.37,8.46-7.06,15.22-15.67,22-24.28,1.92-2.43,3.85-4.85,5.83-7.23a72.57,72.57,0,0,1,6.07-6.8,4.93,4.93,0,0,1,4.44-1.62,23.53,23.53,0,0,1,4.59,2.12l9.68,4.81c.71.36,1.35-.72.63-1.07l-9.24-4.6c-2.18-1.09-4.85-3-7.42-2.56s-4.24,2.66-5.83,4.43c-2,2.25-4,4.56-5.86,6.91-7.32,9-14.12,18.58-22.78,26.41-4.33,3.92-9.17,7.28-12.86,11.86-3.14,3.9-5.59,8.28-8.32,12.46a51.732,51.732,0,0,1-4.67,6.24,39.76,39.76,0,0,1-5.78,5c-1.47,1.1-3.12,2.69-2.67,4.72.54,2.43,3.63,3.55,5.54,4.62l19.74,10.95c6,3.33,12,7.12,18.91,8.29.35.06.84-.16.79-.6-.65-5.64,3.34-10.16,7.22-13.72,4.42-4.07,9.1-7.84,13.49-11.94A276.233,276.233,0,0,0,204.46,165q6.49-8,12.38-16.43l-.7.29c3.45.52,4,4.65,2.8,7.32s-3.61,5.11-5.64,7.34c-4,4.36-8.22,8.47-12.5,12.52-8.4,8-17.09,15.73-24.23,24.88a74.89,74.89,0,0,0-9.9,16.35.65.65,0,0,0,.23.86l21.93,11.58L200,235.65a88.683,88.683,0,0,0,10.07,5c3.51,1.32,7.27,1.84,10.76.21.73-.33.1-1.41-.63-1.08Z" transform="translate(2462.52 1469.3)" fill="#231f20"/>
    <path id="Path_539" data-name="Path 539" d="M222.63,114.06c-4.63,2.06-7.29,6.84-8,11.7-.89,6.32,1.53,12.54,3.89,18.28l.29-.71q-8.7,4.77-17.05,10.14l.92.38c-1.27-7-2.55-14.09-3.28-21.18-.35-3.35.22-6.27,2.65-8.72a36.449,36.449,0,0,1,7.27-5.14,30.26,30.26,0,0,1,8.43-3.82,20.08,20.08,0,0,1,9.77.34c6.14,1.6,11.66,4.92,17.64,7a57.25,57.25,0,0,0,22,3l-.32-1.17a94.66,94.66,0,0,1-38,17.72c-2.12.46-4.41.6-6.48,1.23-1.9.57-2.17,2.07-1.92,3.85a32.44,32.44,0,0,0,4.51,12.55c.79,1.29,1.89,3.51,3.71,3.35a3.92,3.92,0,0,0,2-1.08c1-.82,2-1.64,3-2.42a81.49,81.49,0,0,1,24.73-12.78c2.51-.78,5.05-1.43,7.62-2,1.73-.38,3.69-.86,4.94-2.2,1.62-1.74.83-4,.31-6l-2.4-9.17-.77.76c1.83.59,2.25,2.61,2.54,4.29a26.132,26.132,0,0,0,1.08,5.26,16.28,16.28,0,0,0,8,8.25,32.73,32.73,0,0,0,6.6,2.39c1.08.28,2.17.52,3.26.75a6.49,6.49,0,0,1,2.8,1c1.29,1.06,0,2.34-.81,3.28s-1.66,2-2.5,3c-1.59,1.84-3.21,3.65-4.84,5.46-3.68,4.12-7.36,8.25-10.64,12.7-.48.65.61,1.28,1.08.63,3.26-4.42,6.93-8.52,10.6-12.61,1.77-2,3.55-4,5.28-6,.84-1,1.67-2,2.48-3a4.21,4.21,0,0,0,1.19-2.44c0-1.63-1.62-2.52-3-2.95-2.42-.77-5-1.08-7.38-1.89-4.58-1.53-9.24-4.4-11-9.13-1.23-3.26-.28-8.9-4.43-10.24a.62.62,0,0,0-.76.77l1.82,7c.32,1.21.64,2.42,1,3.63s.49,2.45-.47,3.42c-1.2,1.2-3.11,1.52-4.69,1.86q-3,.66-6,1.54a82.559,82.559,0,0,0-22.25,10.43q-2.46,1.63-4.8,3.45c-.79.61-1.55,1.24-2.32,1.87-.57.47-1.19,1-2,.7-.5-.18-1-1.07-1.25-1.51a31.38,31.38,0,0,1-4.82-11.77c-.19-1-.71-2.66.08-3.48.64-.66,2.12-.65,3-.8q3.17-.54,6.3-1.29a94.619,94.619,0,0,0,11.86-3.69,96.189,96.189,0,0,0,24.35-13.68c.44-.34.38-1.2-.31-1.16A56.4,56.4,0,0,1,246,121.25c-6.41-2.15-12.29-5.8-18.91-7.33a21.07,21.07,0,0,0-9.18-.23,29.82,29.82,0,0,0-8.78,3.81c-4.75,2.84-10.61,6.07-11,12.24a28.061,28.061,0,0,0,.44,5.64q.42,3.15.9,6.28.94,6.27,2.08,12.52a.63.63,0,0,0,.92.37q8.34-5.37,17.05-10.14a.61.61,0,0,0,.28-.7c-2.2-5.37-4.52-11.16-3.94-17.08.46-4.76,2.95-9.49,7.46-11.49.73-.32.1-1.4-.63-1.08Z" transform="translate(2462.52 1469.3)" fill="#231f20"/>
    <path id="Path_540" data-name="Path 540" d="M233.09,209.64c-6.61,15.2.72,31.81,7.36,45.63a469.642,469.642,0,0,0,25.26,45.79q3.46,5.54,7.1,11c2.18,3.28,4.31,6.63,6.74,9.73,2,2.51,4.46,5,7.69,5.73a10,10,0,0,0,8.43-2.41c2.8-2.26,4.81-5.35,6.84-8.29l7.94-11.5,15.9-23,7.94-11.5c1.28-1.85,2.59-3.67,3.81-5.55a14.431,14.431,0,0,0,2.32-5.09c.74-4-1.92-7-4.15-10L327.94,239l-33.19-44.47c-4.5-6-8.92-12.53-15.23-16.84a25.23,25.23,0,0,0-20.39-3.53,24.31,24.31,0,0,0-15.61,12.6c-2.93,5.79-3.86,13-1.29,19.11,2.12,5,7.81,10.1,13.42,6.8a8.69,8.69,0,0,0,4.25-6.11c.37-2.84-1.38-4.95-3.89-6-1.55-.67-3.21-1-4.73-1.8a15.35,15.35,0,0,1-3.39-2.3,27.72,27.72,0,0,1-5.13-6.47c-2.89-4.75-5.1-9.95-8.62-14.3a20,20,0,0,0-5.95-5.08c-.71-.39-1.34.69-.63,1.08,9.41,5.12,11.26,17.22,18.32,24.57a17.38,17.38,0,0,0,5.85,4.07c2.7,1.11,6.93,1.74,7,5.45a7.36,7.36,0,0,1-4.4,6.23c-2.84,1.26-6-.07-8-2.14-4.61-4.62-5.06-12.08-3.38-18.05a23.51,23.51,0,0,1,12.67-15,24,24,0,0,1,20.57.39c6.38,3.29,10.89,9.14,15.1,14.76q15.45,20.67,30.87,41.37c5.06,6.78,10.29,13.45,15.18,20.35a8.71,8.71,0,0,1,2,5.38,11.42,11.42,0,0,1-2.17,5.46c-2.28,3.56-4.79,7-7.19,10.45l-29.37,42.51c-3.57,5.15-9.25,12.11-16.07,7.52-2.91-2-4.88-5.07-6.83-7.91q-3.44-5-6.75-10.09a468.672,468.672,0,0,1-24.2-41.83c-3.65-7.12-7.32-14.31-10.26-21.76-2.77-7-4.95-14.49-4.71-22.09a29.84,29.84,0,0,1,2.41-11c.32-.73-.76-1.37-1.08-.63Z" transform="translate(2462.52 1469.3)" fill="#231f20"/>
    <path id="Path_541" data-name="Path 541" d="M293.65,260.54c-5,6.18-14.3,6.08-20.38,1.69-6.74-4.87-11.17-14.15-10.06-22.45a19,19,0,0,1,4.89-10.3,18.49,18.49,0,0,1,11.16-5.63c8.26-1.21,18.45.36,23.78,7.44,2.54,3.39,3.87,8.14,2.26,12.21-.76,1.94-2.44,3.91-4.66,4-1.79.1-4.26-1.1-3.65-3.23h-1.2L301,259.68a.64.64,0,0,0,1,.28,29.45,29.45,0,0,0,8.82-13c.25-.77-1-1.09-1.2-.33a28.21,28.21,0,0,1-8.51,12.47l1.05.28L297,244a.63.63,0,0,0-1.2,0c-1,3.59,3.5,5.55,6.38,4.51,3.95-1.44,5.37-6.23,5-10.05-.95-9.81-10.45-15.08-19.37-16-5-.52-10.62-.18-15.22,2.1a19.65,19.65,0,0,0-9,9.57c-4,8.88-.69,19.3,5.68,26.18a18.71,18.71,0,0,0,12.81,6.36,15.28,15.28,0,0,0,12.48-5.24c.5-.62-.37-1.51-.88-.88Z" transform="translate(2462.52 1469.3)" fill="#231f20"/>
    <g id="Group_59" data-name="Group 59" transform="translate(76 15)">
      <path id="Path_545" data-name="Path 545" d="M739.4,178.83s-5.38-28.92,21.07-57.18C760.47,121.65,770.58,193,739.4,178.83Z" transform="translate(2462.52 1469.3)" fill="#a9d767"/>
      <path id="Path_546" data-name="Path 546" d="M712.09,221.63s40.5,18.08,37.08,29.81c0,0-32.87-1.95-51.16-15S712.09,221.63,712.09,221.63Z" transform="translate(2462.52 1469.3)" fill="#a9d767"/>
      <path id="Path_547" data-name="Path 547" d="M661.82,239.61c9.52-3.59,17.3-10.46,26.62-14.46a29.41,29.41,0,0,1,15-2.48,37.74,37.74,0,0,1,15.15,5.73,111.262,111.262,0,0,1,14.85,11.46l.12-1c-7,4.53-16.06,4.21-23.63,1.22-8.23-3.25-14.91-9.38-21.15-15.48l-.13,1c10.95-7.49,22.29-15.31,29.78-26.5,6.24-9.33,8.87-21.2,5.53-32.11a25.24,25.24,0,0,0-10.19-13.94.64.64,0,0,0-.86.22,90.67,90.67,0,0,0-10.15,61.12.62.62,0,0,0,.77.43c5.65-2.38,9.77-6.91,14.11-11.06a48.59,48.59,0,0,1,14.23-9.63,52.27,52.27,0,0,1,33.47-2.6,47.08,47.08,0,0,1,17.24,8.35l.28-1a52.76,52.76,0,0,1-44.63-8.4v1.08c7.08-3.85,12-10.51,15.07-17.84,3.68-8.77,4.57-18.29,5.1-27.7.33-5.93.54-11.88,1.23-17.79.08-.65-.86-.79-1.16-.31a82,82,0,0,0-11.61,56.46c.12.8,1.33.46,1.2-.33a81.31,81.31,0,0,1,5.64-44.38,79.083,79.083,0,0,1,5.85-11.12l-1.17-.32c-2.09,17.91.3,37.87-10.83,53.34a29.94,29.94,0,0,1-10,8.91.64.64,0,0,0,0,1.08,53.92,53.92,0,0,0,45.59,8.52c.41-.11.66-.75.27-1-18.06-14-45.56-13.72-63.27.8-5.63,4.61-10.11,10.92-17,13.82l.77.44a90,90,0,0,1,4.2-47.66,88.147,88.147,0,0,1,5.82-12.5l-.85.23c9.08,5.92,12,17.41,10.69,27.68-1.59,12.1-9.36,21.92-18.32,29.7a188.269,188.269,0,0,1-17.49,13,.63.63,0,0,0-.12,1c9.69,9.47,21.51,19.38,36,17.94a23.119,23.119,0,0,0,10.4-3.53.63.63,0,0,0,.13-1c-8.13-7.13-17.11-14.77-28-17.09a29,29,0,0,0-15.27.91,66,66,0,0,0-13.76,7c-5.13,3.16-10.21,6.49-15.88,8.62-.74.28-.42,1.49.34,1.21Z" transform="translate(2462.52 1469.3)" fill="#231f20"/>
      <path id="Path_548" data-name="Path 548" d="M747.82,185.06a77.44,77.44,0,0,0,43.94-28.92A74.265,74.265,0,0,0,799.63,143a.64.64,0,0,0-.86-.86,105.35,105.35,0,0,0-30.85,21.19c-2.9,2.86-5.52,5.95-8.24,9-3.08,3.42-6.41,6.67-10.65,8.59-.74.33-.1,1.41.63,1.08,7.33-3.31,11.94-10.33,17.36-16a103.875,103.875,0,0,1,19.7-16,107.2,107.2,0,0,1,12.68-6.79l-.85-.85a76.26,76.26,0,0,1-36.73,36.56,73.222,73.222,0,0,1-14.34,4.94c-.78.18-.45,1.39.34,1.21Z" transform="translate(2462.52 1469.3)" fill="#231f20"/>
    </g>
    <path id="Path_549" data-name="Path 549" d="M146.84,275.58s-12.55,17.91,2.34,29.48,21.57,1.44,19.73-7.64S151.64,262.83,146.84,275.58Z" transform="translate(2462.52 1469.3)" fill="#a9d767"/>
    <path id="Path_550" data-name="Path 550" d="M115.75,295.49s-12.52-20.16-33.95-13.44-14.13,17.76-3,20.94S127.06,306.29,115.75,295.49Z" transform="translate(2462.52 1469.3)" fill="#a9d767"/>
    <path id="Path_551" data-name="Path 551" d="M174.93,264.31a73.13,73.13,0,0,0-29.29,11.27,78,78,0,0,0-11.84,9.77c-3.62,3.6-7.08,7.4-11.12,10.55a30,30,0,0,1-14.87,6.36,45.19,45.19,0,0,1-16.68-1.46c-2.69-.69-5.35-1.54-8-2.49-2.33-.85-5.6-1.68-7-3.91-1.59-2.48.31-5.16,2.34-6.66A15.5,15.5,0,0,1,86,285.17c12.58-1.38,24.22,6.77,33.83,13.83l-.12-1c-5.24,4.66-11.85,10.64-11.61,18.32.17,5.56,4.32,12.06,10.57,11.31,5.67-.67,8.37-7.06,7.83-12.17a12.05,12.05,0,0,0-1.1-4c-.82-1.72-2.09-3.18-3-4.86-2-3.77-.35-7.38,2.33-10.28,3-3.28,6.82-5.74,10.05-8.81a64.919,64.919,0,0,0,9.28-11.1.63.63,0,0,0-.71-.91,28.36,28.36,0,0,1-16.69-.47c-4.91-1.66-10.6-4.92-12.18-10.22a5.37,5.37,0,0,1,2.32-6.46c2-1.05,4.42-.66,6.43.1,4.84,1.85,7.26,6.42,10.44,10.18a16.55,16.55,0,0,0,5.47,4.51c2.37,1.11,5.5,1.2,5.92,4.36s-.26,6.36-.5,9.42a27.75,27.75,0,0,0,.41,9.09c1.09,4.25,4.55,8.64,9.13,9.26,3.93.52,7.19-2,8.4-5.65a14.77,14.77,0,0,0-2.07-12.77c-3.53-5.13-8.9-8.66-12.35-13.86-.44-.67-1.52,0-1.08.63,5.18,7.82,17.43,13.93,14.49,25a7.34,7.34,0,0,1-3.36,4.7,6.79,6.79,0,0,1-7.08-.56c-5.48-3.63-5.7-10.41-5.2-16.31.25-3,.86-6.19.43-9.2-.35-2.5-2.08-3.64-4.33-4.4a14.94,14.94,0,0,1-6.55-4.15c-1.77-1.9-3.22-4.06-4.85-6.08-2.73-3.4-6.71-6.34-11.3-6.14a6.48,6.48,0,0,0-6.06,8.33c1.43,5.62,7.11,9.17,12.19,11.09a29.53,29.53,0,0,0,18.3.8l-.7-.92a64.259,64.259,0,0,1-7.69,9.48c-2.63,2.66-5.56,4.9-8.41,7.31-2.4,2-4.87,4.39-6,7.38a9.43,9.43,0,0,0,1.28,8.63,22.23,22.23,0,0,1,2.55,4.43,11.41,11.41,0,0,1,.62,4,10.79,10.79,0,0,1-2.94,7.43,6.64,6.64,0,0,1-7.57,1.27,10.38,10.38,0,0,1-5.1-6.93c-2.07-8.3,5.33-15,10.88-20a.63.63,0,0,0-.13-1c-9.1-6.68-19.64-14-31.39-14.14-4.89-.07-10.94,1.06-13.82,5.48a5.3,5.3,0,0,0-.23,5.78c1.31,2.06,3.78,2.95,6,3.79,10.58,4.07,22.9,7.14,33.94,3,10.41-4,16.87-13.63,25.14-20.53a71.82,71.82,0,0,1,35.17-15.74c.8-.12.46-1.33-.33-1.21Z" transform="translate(2462.52 1469.3)" fill="#231f20"/>
    <g id="Group_61" data-name="Group 61" transform="translate(-22 39)">
      <path id="Path_552" data-name="Path 552" d="M91.89,113.13s39.79,2.62,16.5-82.43C108.39,30.7,78.55,58,91.89,113.13Z" transform="translate(2462.52 1469.3)" fill="#a9d767"/>
      <g id="Group_60" data-name="Group 60">
        <path id="Path_553" data-name="Path 553" d="M113.27,147c0-11-10.2-19.05-20.2-21.16-6.78-1.43-13.77-.89-20.56.21-7.22,1.17-14.37,2.8-21.53,4.25l-24.71,5a.63.63,0,0,0-.15,1.14c18.22,10,41.2,9.82,59.76.76a60.469,60.469,0,0,0,14.44-9.84.63.63,0,0,0-.28-1A23.37,23.37,0,0,1,87,115.81a33.82,33.82,0,0,1-4.58-18.07c.06-7.38,1.8-14.62,3.73-21.69s4.11-13.91,6.59-20.72q4.24-11.73,9.59-23h-1.08A54.67,54.67,0,0,1,111.6,62a53.83,53.83,0,0,1-7.39,29.33,56.56,56.56,0,0,1-9.29,11.88,54.678,54.678,0,0,1-5.87,5,9.21,9.21,0,0,1-3.39,1.88c-1.61.32-2.82-.72-3.86-1.81a37.83,37.83,0,0,0-11.55-8.6,44.75,44.75,0,0,0-13.84-3.82c-12.85-1.49-25.66,2.21-37.48,6.91a.63.63,0,0,0-.15,1.14,37.95,37.95,0,0,0,28.72,2.85c2.75-.83,6.19-1.94,8.36-3.9s1.71-4.9.16-7C54.17,93.4,51,92.57,48.23,91.5A27.56,27.56,0,0,1,34.87,80.19,27.21,27.21,0,0,1,31.11,61l-.92.37A70,70,0,0,1,55.11,98.12a.624.624,0,1,0,1.2-.34,71.37,71.37,0,0,0-25.49-37.5.62.62,0,0,0-.91.37c-2,10.56,2.6,21.68,11.07,28.18a27.69,27.69,0,0,0,6.92,3.88c2.89,1.12,6.61,2,7.85,5.25a3.51,3.51,0,0,1-1.3,4.43,23.151,23.151,0,0,1-4.61,2.25,36,36,0,0,1-9.25,2.27,36.38,36.38,0,0,1-21.18-4.07L19.26,104c11.19-4.44,23.2-8,35.36-7a43.67,43.67,0,0,1,15.35,4,35,35,0,0,1,6.81,4.24c1.92,1.56,3.41,3.6,5.34,5.12a4.9,4.9,0,0,0,5.89.16,39.6,39.6,0,0,0,6.08-4.72,57.9,57.9,0,0,0,9.76-11.42,55,55,0,0,0-1.53-62.63.64.64,0,0,0-1.08,0,270.237,270.237,0,0,0-16,43.13c-3.64,13.12-6.89,28.1.17,40.69a25,25,0,0,0,14.35,12l-.28-1c-15,13.76-36.87,19.06-56.62,14.83a59.39,59.39,0,0,1-16.06-5.95l-.15,1.14c13.68-2.78,27.35-5.67,41.06-8.35,12.11-2.36,26.05-4.05,36.46,4.1C108.69,135.83,112,141,112,147a.63.63,0,0,0,1.25,0Z" transform="translate(2462.52 1469.3)" fill="#231f20"/>
      </g>
    </g>
  </g>
</svg>
