<svg xmlns="http://www.w3.org/2000/svg" width="32.039" height="31.783" viewBox="0 0 32.039 31.783">
  <path id="Path_57" data-name="Path 57" d="M501.31,292.08c-5.24,2-10.78-1.49-12.74-6.41A17.37,17.37,0,0,1,490.12,270a12.63,12.63,0,0,1,14.61-4.67c5,1.77,10.24,5.66,11.78,11,.87,3,.52,6.55-1.63,8.93a4.576,4.576,0,0,1-4.23,1.73c-1.2-.3-2.69-1.92-1.54-3.08l-1.05-.61-2.17,11a.64.64,0,0,0,.77.77,20.68,20.68,0,0,0,9.86-4.79c.6-.53-.28-1.41-.89-.88a19.47,19.47,0,0,1-9.3,4.47l.77.76,2.17-11a.63.63,0,0,0-1-.61c-1.69,1.71-.29,4.25,1.66,5,2.83,1.11,5.77-1.2,7.06-3.55,3.37-6.17-.36-13-5.44-16.86a20.939,20.939,0,0,0-9.33-4.2,13.64,13.64,0,0,0-9.4,2.28c-5.6,3.78-7.41,11-6.24,17.37a13.47,13.47,0,0,0,5.23,8.73,10.86,10.86,0,0,0,9.88,1.52c.75-.28.43-1.49-.33-1.21Z" transform="translate(-486.241 -263.304)" fill="#231f20"/>
</svg>
