<svg xmlns="http://www.w3.org/2000/svg" width="1920" height="1080" viewBox="0 0 1920 1080">
  <g id="Group_8" data-name="Group 8" transform="translate(-3495 -1861)">
    <rect id="Rectangle_2" data-name="Rectangle 2" width="1920" height="1080" transform="translate(3495 1861)" fill="#fff"/>
    <g id="Group_5" data-name="Group 5" transform="translate(-255 2843)">
      <path id="Path_111" data-name="Path 111" d="M712.09,221.63s40.5,18.08,37.08,29.81c0,0-32.87-1.95-51.16-15S712.09,221.63,712.09,221.63Z" transform="translate(4530.52 -327.7)" fill="#a9d767"/>
      <path id="Path_112" data-name="Path 112" d="M661.82,239.61c9.52-3.59,17.3-10.46,26.62-14.46a29.41,29.41,0,0,1,15-2.48,37.74,37.74,0,0,1,15.15,5.73,111.262,111.262,0,0,1,14.85,11.46l.12-1c-7,4.53-16.06,4.21-23.63,1.22-8.23-3.25-14.91-9.38-21.15-15.48l-.13,1c10.95-7.49,22.29-15.31,29.78-26.5,6.24-9.33,8.87-21.2,5.53-32.11a25.24,25.24,0,0,0-10.19-13.94.64.64,0,0,0-.86.22,90.67,90.67,0,0,0-10.15,61.12.62.62,0,0,0,.77.43c5.65-2.38,9.77-6.91,14.11-11.06a48.59,48.59,0,0,1,14.23-9.63,52.27,52.27,0,0,1,33.47-2.6,47.08,47.08,0,0,1,17.24,8.35l.28-1a52.76,52.76,0,0,1-44.63-8.4v1.08c7.08-3.85,12-10.51,15.07-17.84,3.68-8.77,4.57-18.29,5.1-27.7.33-5.93.54-11.88,1.23-17.79.08-.65-.86-.79-1.16-.31a82,82,0,0,0-11.61,56.46c.12.8,1.33.46,1.2-.33a81.31,81.31,0,0,1,5.64-44.38,79.083,79.083,0,0,1,5.85-11.12l-1.17-.32c-2.09,17.91.3,37.87-10.83,53.34a29.94,29.94,0,0,1-10,8.91.64.64,0,0,0,0,1.08,53.92,53.92,0,0,0,45.59,8.52c.41-.11.66-.75.27-1-18.06-14-45.56-13.72-63.27.8-5.63,4.61-10.11,10.92-17,13.82l.77.44a90,90,0,0,1,4.2-47.66,88.147,88.147,0,0,1,5.82-12.5l-.85.23c9.08,5.92,12,17.41,10.69,27.68-1.59,12.1-9.36,21.92-18.32,29.7a188.269,188.269,0,0,1-17.49,13,.63.63,0,0,0-.12,1c9.69,9.47,21.51,19.38,36,17.94a23.119,23.119,0,0,0,10.4-3.53.63.63,0,0,0,.13-1c-8.13-7.13-17.11-14.77-28-17.09a29,29,0,0,0-15.27.91,66,66,0,0,0-13.76,7c-5.13,3.16-10.21,6.49-15.88,8.62-.74.28-.42,1.49.34,1.21Z" transform="translate(4530.52 -327.7)" fill="#231f20"/>
      <path id="Path_113" data-name="Path 113" d="M747.82,185.06a77.44,77.44,0,0,0,43.94-28.92A74.265,74.265,0,0,0,799.63,143a.64.64,0,0,0-.86-.86,105.35,105.35,0,0,0-30.85,21.19c-2.9,2.86-5.52,5.95-8.24,9-3.08,3.42-6.41,6.67-10.65,8.59-.74.33-.1,1.41.63,1.08,7.33-3.31,11.94-10.33,17.36-16a103.875,103.875,0,0,1,19.7-16,107.2,107.2,0,0,1,12.68-6.79l-.85-.85a76.26,76.26,0,0,1-36.73,36.56,73.222,73.222,0,0,1-14.34,4.94c-.78.18-.45,1.39.34,1.21Z" transform="translate(4530.52 -327.7)" fill="#231f20"/>
    </g>
    <g id="Group_7" data-name="Group 7" transform="translate(3368 -508)">
      <circle id="Ellipse_1" data-name="Ellipse 1" cx="28.69" cy="28.69" r="28.69" transform="translate(541.85 3211.772)" fill="#a9d767"/>
      <path id="Path_2" data-name="Path 2" d="M95.12,200.81s32.18-32.37,23-91.72C118.11,109.09,42.78,191.68,95.12,200.81Z" transform="translate(367.91 2928.212)" fill="#a9d767"/>
      <path id="Path_3" data-name="Path 3" d="M92.7,279.58S25,267.34,19.09,285.37c0,0,43.86,26.25,78.72,25.51S92.7,279.58,92.7,279.58Z" transform="translate(367.91 2928.212)" fill="#a9d767"/>
      <path id="Path_6" data-name="Path 6" d="M142.73,345.64c-9.38-13.29-13.24-29.53-22.28-43a46.15,46.15,0,0,0-17.6-16c-7.47-3.72-15.8-5.28-24.08-5.71-9.9-.51-19.81.51-29.62,1.71-.35,0-.78.38-.6.79,3.66,8.73,10.9,15.31,19.33,19.37,9.87,4.75,20.92,5.84,31.75,5.19a179.127,179.127,0,0,0,20.63-2.7.64.64,0,0,0,.44-.77c-7.57-19.36-15.43-39.6-14.88-60.73.44-16.48,7.3-32.91,20.31-43.4a37.38,37.38,0,0,1,24.25-8.67l-.62-.63a140,140,0,0,1-26,69.75,136.872,136.872,0,0,1-13.93,16.37l1,.13c-5.73-8.82-6.52-19.55-9-29.52a73.28,73.28,0,0,0-10.8-24.09,82.92,82.92,0,0,0-40.83-31.2,74.24,74.24,0,0,0-29.1-4.09.64.64,0,0,0-.45,1.07,83.41,83.41,0,0,0,49.42,27.75,80.379,80.379,0,0,0,16.25,1,.63.63,0,0,0,.54-.94c-6.29-12.21-6-26.52-2.52-39.52,3.67-13.72,11-26,18.33-38.06,4.15-6.83,8.35-13.64,12.06-20.73l-1.17-.32a126.65,126.65,0,0,1-21.49,65.8,122.71,122.71,0,0,1-12.48,15.63c-.55.59.33,1.48.89.89a128,128,0,0,0,32-62.53,125.241,125.241,0,0,0,2.29-19.79.63.63,0,0,0-1.16-.31c-13,24.93-33.46,48.37-33,78.07A48.32,48.32,0,0,0,85.78,218l.54-.94A82.14,82.14,0,0,1,33,199.65a79.38,79.38,0,0,1-11.49-11l-.44,1.07c17.45-1.11,34.83,4.47,49,14.54s25.32,24.81,30,41.69c3,10.75,3.41,22.48,9.65,32.07a.63.63,0,0,0,1,.12,141,141,0,0,0,36.84-65.86A138.8,138.8,0,0,0,151,191.11a.63.63,0,0,0-.63-.62c-16.33-.38-30.14,10.66-37.94,24.31a59.31,59.31,0,0,0-7.51,23.41c-1.07,10.61.23,21.32,2.73,31.65,2.9,12,7.35,23.54,11.83,35l.44-.77c-20.45,3.62-44.28,6-61.17-8.72a33.72,33.72,0,0,1-9-12.26l-.6.79c16.49-2,34.52-4,50.29,2.56a44.06,44.06,0,0,1,18.92,15.32c4.52,6.34,7.75,13.49,10.9,20.59,3.63,8.2,7.19,16.52,12.39,23.89.46.65,1.54,0,1.08-.63Z" transform="translate(367.91 2928.212)" fill="#231f20"/>
      <path id="Path_7" data-name="Path 7" d="M80.07,200.37a115.32,115.32,0,0,1-22-34.78,119.35,119.35,0,0,1-8.7-40,113.75,113.75,0,0,1,1.41-23.17l-1.14.15A162.72,162.72,0,0,1,66,138.39a163.115,163.115,0,0,1,4.77,19c1.16,6.23,1.77,12.52,2.65,18.78,1,6.83,2.49,13.67,6.14,19.61a.63.63,0,0,0,1.08-.63c-3.33-5.41-4.84-11.6-5.79-17.82s-1.51-12.67-2.64-18.95A162.94,162.94,0,0,0,61,121.46a163,163,0,0,0-10.2-19.52.634.634,0,0,0-1.14.15,117.29,117.29,0,0,0,.63,41.4A120.46,120.46,0,0,0,65.1,182.4a115.13,115.13,0,0,0,14.08,18.86C79.73,201.85,80.61,200.96,80.07,200.37Z" transform="translate(367.91 2928.212)" fill="#231f20"/>
    </g>
    <path id="Path_178" data-name="Path 178" d="M455.44,312.69c-3.59-.63-5.71,4.16-4,6.95,2,3.25,6.89,2.42,8.49-.7a7.74,7.74,0,0,0-3.49-10.11,8.62,8.62,0,0,0-9.61,2.08c-2.84,3-3,7.56-1.51,11.22a11.46,11.46,0,0,0,9.14,7.3,14.31,14.31,0,0,0,12.27-5.06c3.6-4,5.75-9.15,9.15-13.36a129.011,129.011,0,0,1,12.26-12.49l14-13.3,13.65-13,7-6.65a34,34,0,0,0,5.5-5.82,11.08,11.08,0,0,0-.14-11.67,12.18,12.18,0,0,0-11.06-6C506,242.42,499,253.45,492.47,261a417.917,417.917,0,0,1-49.84,49.36q-3.3,2.76-6.65,5.44l1,.13a100.882,100.882,0,0,0-7-11.62,59,59,0,0,0-8.28-9.89c-6.23-5.66-14.3-7.2-22.49-6.62-9,.64-17.66,3.55-26.68,3.54a29.36,29.36,0,0,1-12.85-2.77,35.53,35.53,0,0,1-9.05-6.47c-6.37-6.13-11-13.86-15.28-21.54l-.22.86a386.441,386.441,0,0,0,36.22-20.38q8.82-5.61,17.33-11.7c2.91-2.08,5.78-4.2,8.64-6.35,1.31-1,2.59-1.92,4.3-1.88a10,10,0,0,1,4.46,1.38c4.71,2.59,7.79,7.4,11.41,11.22a26.3,26.3,0,0,0,14.3,8.07,24.83,24.83,0,0,0,16.11-2.57c5.42-2.81,10.14-6.94,15.86-9.17,15.32-6,29.82,5.89,40.78,15.12.61.52,1.5-.36.88-.88-9.89-8.33-21.44-18.05-35.27-17-12.67,1-20.77,13.55-33.66,13.64a24.1,24.1,0,0,1-16.61-6.61c-3.92-3.7-6.87-8.41-11.22-11.66a12.77,12.77,0,0,0-7-2.82c-3.21-.09-5.89,2.78-8.29,4.57q-8.61,6.36-17.55,12.25a385.071,385.071,0,0,1-41.29,23.66.65.65,0,0,0-.22.86c7,12.58,16.16,27.56,31.41,30.72,9,1.86,18-.59,26.84-2.05,8.29-1.37,17.47-1.86,24.88,2.81,4.26,2.69,7.51,6.77,10.46,10.8a99.783,99.783,0,0,1,8.08,13.08.63.63,0,0,0,1,.12,415.309,415.309,0,0,0,44.6-41.44q5.22-5.62,10.25-11.44c3.26-3.77,6.35-7.71,9.7-11.41s7-7,11.71-8.39c4.35-1.33,9.27-.78,12.48,2.68,2.69,2.92,4,7.5,2.32,11.23a18.41,18.41,0,0,1-4.38,5.25l-6.11,5.8-24.07,22.84c-3.85,3.65-7.72,7.27-11.52,11a68,68,0,0,0-9.61,11.08c-2.54,3.83-4.52,8.27-8.09,11.29-3.39,2.87-8.38,4.12-12.52,2.18-6.93-3.24-8.84-15.86.09-17.79a6.28,6.28,0,0,1,7.68,6.12c.05,2.1-1,4.25-3.2,4.72a3.26,3.26,0,0,1-4.12-2.85c-.06-1.62,1.11-4,3-3.64.79.14,1.13-1.07.34-1.21Z" transform="translate(4054.842 2423.09)" fill="#231f20"/>
  </g>
</svg>
