<svg id="Layer_1" data-name="Layer 1" xmlns="http://www.w3.org/2000/svg" viewBox="0 0 1099.73 373.1"><defs><style>.cls-1{fill:#b9ddd5;}.cls-2{fill:#a9d767;}.cls-3{fill:#f9e76f;}.cls-4{fill:#231f20;}</style></defs><path class="cls-1" d="M852.84,301.64s12.9-20.55,36.39-22.67,20,3.53,42.39,2.71,31.37-7.35,43.51-5.58,30.53,10.41,62.19,5.58,40.85,20,40.85,20-52.08,22-75.57,12.89-36.92-4.2-43.48,0-14.35,18.67-32.58,7.69-42.82-16.53-54.87-10S852.84,301.64,852.84,301.64Z"/><path class="cls-2" d="M702.26,256.43s-20-3.08-20.35-13.57-1.71-21.92,0-30.7,3.94-13,4.59-22.48,1.66-15.36,8.2-15.06,14.61-8.73,18.13,0,9.07,21.37,9.07,31.13,4,14.17,0,18.29-4,11-3,15.19S714.34,264.67,702.26,256.43Z"/><path class="cls-3" d="M648.67,216.89l-12.9,25.25v3.41l-9.85,18.74,10.76-8.11-8.75,19a21,21,0,0,0-2.37,8.71H671.2l-5.53-9.33,5.53-7.89-5.63-1.51,1.62-6.49-2.71-8.26V236.9s-8.05.7-8.05-4.5S648.67,216.89,648.67,216.89Z"/><path class="cls-3" d="M73.46,269.11s-14.29,10.45-16,0,5-10.12,0-14.32-7.16-3.24-5-6.64,3.81-4.87,2.17-6.34-2.9-8.56,0-7.36-2-12.41,2.81-15.34,7.71-2.13,7.08-8.75,4.19-9.2,3.41-3.52S77.17,232,78.42,237.28s2.88,3.26,5.6,7.92-4.9,2.07-3.27,9.59,5.44,2.4,1.64,7.52A20.16,20.16,0,0,1,73.46,269.11Z"/><path class="cls-2" d="M116.43,236.44s-32.21-4.95-32.7-21.8-2.75-35.24,0-49.35,6.33-20.87,7.38-36.13,2.66-24.68,13.18-24.21,23.47-14,29.14,0S148,139.3,148,155s6.47,22.78,0,29.4-6.49,17.64-4.86,24.42S135.86,249.68,116.43,236.44Z"/><circle class="cls-3" cx="503.63" cy="170.01" r="38.36"/><circle class="cls-2" cx="501.49" cy="280.41" r="19.69"/><circle class="cls-1" cx="275.58" cy="209.4" r="85.71"/><circle class="cls-3" cx="1015.51" cy="100.38" r="38.36"/><path class="cls-4" d="M172,281q-1.27-33.5-1.1-67,.09-16.56.55-33.12.22-8.46.54-16.91c.1-2.89.22-5.78.34-8.67a43,43,0,0,1,.56-7.35,6.32,6.32,0,0,1,4.19-5.06c2.28-.75,4.81-.66,7.18-.77q8.59-.39,17.18-.74,17.07-.71,34.13-1.29,34.26-1.16,68.52-1.81t68.54-.78c2.36,0,5-.25,7.23.61s3.38,3,3.82,5.33a47.94,47.94,0,0,1,.48,7.58l.27,8.47q.51,17.06.81,34.13.6,34.28.37,68.54c0,2.91-.05,5.82-.07,8.73,0,2.12.62,6-1.67,7.15a7.94,7.94,0,0,1-3.28.56l-4.39.21q-4.15.17-8.31.29c-11.26.33-22.52.34-33.78.21-22.38-.25-44.74-1.08-67.12-1.21s-44.75.44-67,3q-8,.92-15.89,2.19l.79.6q-1-18.3-.62-36.65c.13-5.89.13-11.88.7-17.74.13-1.24.42-2.68,1.6-3.36a3.62,3.62,0,0,1,3.49.21c2.34,1.29,2.86,4.26,3.15,6.68.37,3.06.81,6.39-.23,9.37-.94,2.67-3.65,5.06-6.62,4.36l-.17,1.22,20.53,1a.64.64,0,0,0,.54-.31c1.48-3.4.78-7,.06-10.47-.69-3.31-1.59-7.94,1.28-10.51a5.21,5.21,0,0,1,4-1.39c2,.25,2.66,2,3,3.76a26.11,26.11,0,0,1,.51,8.36c-.36,3-1.63,6.06-4.77,7a.63.63,0,0,0,.17,1.23l16,.88a.6.6,0,0,0,.54-.31c2-4,.44-8.35-.31-12.48-.56-3.15.15-8.37,3.82-9.48,4.42-1.34,5.22,5.15,5.42,8,.17,2.34.29,5-1,7.06a4.43,4.43,0,0,1-5.3,2.08l-.34,1.2,17.45,3.8a.62.62,0,0,0,.61-.16c3.43-3.86,1.21-9.42,1.16-14,0-2.57.86-5.39,3.65-6.09s5.94,1.07,7.43,3.4c2.36,3.67,1.66,8.57,1.1,12.64l.6-.46-6.5.79a.63.63,0,0,0,0,1.25l17.32.65a.62.62,0,0,0,.62-.62l-.34-11.67c0-1.36-.27-3.31.75-4.4,1.37-1.46,3.76-.21,5,.86a7.74,7.74,0,0,1,2.4,7.94,7.84,7.84,0,0,1-6.91,5.37c-.66,0-.91,1.11-.17,1.23l14.19,2.2c.82.13,1.27.37,1.82-.29a5.39,5.39,0,0,0,1-2,10.16,10.16,0,0,0-.1-4.84c-.68-3.16-2.5-6.72-1-10a3.3,3.3,0,0,1,4.28-1.76,7,7,0,0,1,3.59,4.22c.75,2.1.5,4.46.49,6.66a15.61,15.61,0,0,0,1,6.46l.54-.94-4.63-.58c-.76-.09-.76,1-.17,1.23,2.94,1.16,6.41,2.15,9.57,1.37,3.52-.86,4.93-4.08,4.52-7.47-.25-2.07-1.13-4.2-1-6.29.1-1.67,1-3.86,2.63-4.57s3.12.79,4,1.88a8.94,8.94,0,0,1,1.85,4.08c.65,3.43-.48,7.28-3.53,9.2a.65.65,0,0,0-.13,1c1.86,2,4.69,1.93,7,.76,2.9-1.48,4.29-4.3,4.61-7.44a28.79,28.79,0,0,0-.22-6.08c-.16-1.44-1.14-5.26.94-5.74,1.7-.38,3.53,1.8,4.31,3a22.09,22.09,0,0,1,2.7,5.78c.64,2.24.62,4.68-1,6.51-1.29,1.46-3.34,2.39-5.15,1.33l-.32,1.16,15.36-.21a.61.61,0,0,0,.54-.31c1.63-3.28.53-6.75.45-10.22-.05-2.57,2.52-8.33,5.84-5.61,1.38,1.14,2.21,3.33,3,4.91a14,14,0,0,1,1.55,6c-.06,3.14-3.16,7.24-6.68,5.66L346,244.5l12.36.11a40.39,40.39,0,0,0,5.39,0,3.47,3.47,0,0,0,2.79-1.76,9.44,9.44,0,0,0,.67-4.18,58.17,58.17,0,0,0-.18-6.19c-.29-3.71-.85-7.4-1.4-11.08-.59-3.89-1.17-7.79-1.39-11.72a94.87,94.87,0,0,1,.21-12.39c.57-7.94,1.47-15.87,2.22-23.8q4.57-48.42,8.31-96.9.54-7,1.05-13.93c.16-2.08.35-4.17.46-6.26a7.72,7.72,0,0,0-.95-4.81,7.83,7.83,0,0,0-3.89-2.6,57.93,57.93,0,0,0-5.74-1.82A69.18,69.18,0,0,0,353.3,45a.63.63,0,0,0-.62.63q-1.86,34-2.17,68.05-.09,9.61-.06,19.21a.66.66,0,0,0,.63.63q7.49,1,15,1.33c2.6.12,5.19.18,7.79.18,2,0,4.37.31,6.23-.47a4.19,4.19,0,0,0,2.34-3.72,51,51,0,0,0-.11-7q-.24-7.69-.62-15.38-.74-15.37-2-30.72-.63-7.8-1.39-15.58c-.22-2.25-.36-4.54-.71-6.77a5.51,5.51,0,0,0-2.84-4.36c-3.53-1.8-8.5-1.34-12.19-.34a22.65,22.65,0,0,0-10.94,6.71.64.64,0,0,0,.13,1c7.93,4.73,17.78.24,25.66,4.94a.63.63,0,0,0,.64-1.08c-7.94-4.73-17.79-.24-25.67-4.94l.12,1c4.88-5.45,12.95-8.47,20.18-6.68,2.36.59,3.43,2.07,3.74,4.42s.48,4.58.7,6.87q.69,7,1.26,14.1,1.14,13.85,1.87,27.74c.24,4.63.45,9.25.62,13.89q.13,3.59.25,7.19c.05,1.89.45,4.2-.18,6-.86,2.52-4.52,1.92-6.61,1.92q-3.9,0-7.79-.16c-5.19-.22-10.37-.68-15.52-1.35l.62.62q-.12-34.05,1.3-68.08.4-9.6.93-19.18l-.63.62a67.47,67.47,0,0,1,11.39,1.86c1.67.42,3.32.91,4.95,1.45s3.75,1.12,4.84,2.63c.94,1.31.85,3,.76,4.58-.13,1.95-.29,3.91-.44,5.86q-.42,5.72-.86,11.44-1.77,23.13-3.73,46.23t-4.11,46.21q-1.07,11.41-2.18,22.84c-.75,7.7-1.43,15.42-.69,23.16.79,8.25,2.77,16.38,2.77,24.7,0,1.6.35,4.44-1,5.6a4,4,0,0,1-2.66.58l-3.21,0-13.1-.12c-.58,0-.9.9-.31,1.16,2.61,1.17,5.34,0,7-2.21,2.17-2.82,1.74-6.47.51-9.6a34.7,34.7,0,0,0-2.47-5,5,5,0,0,0-3.28-2.67c-2.74-.48-4.82,2.24-5.62,4.53-1.41,4.08,1.27,8.54-.71,12.51l.54-.31-15.36.21A.63.63,0,0,0,326,243c2.92,1.7,6.4-.35,7.75-3.14,1.88-3.88-.44-8.55-2.44-11.91-1.24-2.1-5-5.78-7.32-2.94-1.28,1.54-.65,4-.45,5.79a24.16,24.16,0,0,1,.07,7.4,7.22,7.22,0,0,1-3.68,5.19c-1.84,1-4.1,1.13-5.61-.5l-.13,1c5.35-3.37,5.8-12,1.07-16.13-1.08-.93-2.48-1.83-4-1.47a5.33,5.33,0,0,0-3.24,3.08,8.45,8.45,0,0,0-.46,5.41c.47,2.48,1.53,5.41.2,7.78-2.32,4.11-8.58,2.18-12,.85l-.17,1.22,4.63.58c.53.06.7-.57.54-.94-1.8-4.2.13-9-1.51-13.16-1.1-2.82-4-6-7.34-4.84-3.12,1.07-3.62,4.67-3.25,7.52.47,3.63,3.41,8.35.65,11.69l.61-.16-15.17-2.36-.16,1.23c5.7-.35,9.91-6.07,8-11.59A8.63,8.63,0,0,0,277,227c-2.9-.71-4.58,1.35-4.77,4-.15,2.17.08,4.4.14,6.58l.21,7.2.63-.63-17.32-.65v1.25l6.5-.79c.25,0,.57-.17.61-.45.54-3.94,1.1-8.16-.41-12a9.19,9.19,0,0,0-6.52-5.63,6.08,6.08,0,0,0-6.73,2.77c-1.37,2.39-1,5.36-.69,8,.39,3.13,1.23,7.05-1.09,9.65l.61-.16-17.44-3.8a.62.62,0,0,0-.34,1.2c3.28,1.36,6.54-1.36,7.5-4.39a17.24,17.24,0,0,0,.36-6.6,17.78,17.78,0,0,0-.93-4.9c-1-2.64-3.72-4.7-6.59-3.42s-4.13,4.64-4.37,7.47c-.43,5,3.12,10,.68,14.85l.54-.31-16-.88.16,1.23c6.48-1.95,6.27-10.4,5.35-15.77-.29-1.72-.62-3.63-2-4.82a4.66,4.66,0,0,0-3.81-.95c-3.57.56-5.55,3.62-5.82,7-.41,5.28,3,10.78.75,15.9l.54-.3-20.53-1a.63.63,0,0,0-.16,1.23,6.57,6.57,0,0,0,6.4-2.26,11,11,0,0,0,2.42-7.66,27.31,27.31,0,0,0-1.24-9.08,6.29,6.29,0,0,0-4.93-4.37,4.11,4.11,0,0,0-4.66,3.14,16.11,16.11,0,0,0-.41,3.66q-.17,3-.28,5.94-.45,10.89-.41,21.8.06,12.39.72,24.76a.65.65,0,0,0,.8.61c22.75-3.66,45.81-4.92,68.84-5.13s45.86.58,68.79,1c11.51.21,23,.34,34.54.2,5.7-.07,11.41-.2,17.11-.42,2.74-.11,5.5-.13,8.22-.4,1.77-.17,3.49-.75,4.25-2.49,1-2.19.55-5.06.58-7.38,0-2.82.05-5.65.06-8.47q.06-8.85.06-17.7,0-17.56-.21-35.14t-.65-34.89q-.21-8.73-.48-17.44c-.09-3-.18-6-.29-9a19.19,19.19,0,0,0-.93-6.07c-1.66-4.38-5.8-5-10-5q-8.85,0-17.7.1-17.44.13-34.89.39-35.15.52-70.28,1.6c-23.31.71-46.63,1.52-69.93,2.66-4.08.2-8.09,1.11-9.56,5.4a22.78,22.78,0,0,0-.84,6.42c-.12,3-.25,6-.36,8.94q-.65,17.08-1,34.17-.6,34.13.34,68.26.22,8.42.55,16.84c0,.8,1.28.8,1.25,0Z"/><path class="cls-4" d="M532.61,218.45c-3.76-.67-6,4.37-4.19,7.29,2.07,3.37,7.2,2.54,8.89-.73a8.1,8.1,0,0,0-3.79-10.68,9.07,9.07,0,0,0-10,2.24c-3,3.16-3.14,8-1.55,11.86a12.06,12.06,0,0,0,10,7.65c4.91.49,9.58-1.93,12.74-5.58,3.75-4.33,6.05-9.71,9.68-14.15a143.59,143.59,0,0,1,12.6-12.8l14.86-14.1,14.49-13.75,7.25-6.88c2.1-2,4.45-3.91,6-6.39,2.41-3.84,1.88-8.7-.47-12.44a12.83,12.83,0,0,0-11.72-6c-11.66.58-19,12.1-25.77,20.08A441.6,441.6,0,0,1,519.13,216q-3.48,2.9-7,5.72l1,.13a107.86,107.86,0,0,0-7.55-12.44A62.15,62.15,0,0,0,497,199.29c-6.54-6-15-7.66-23.67-7.06-9.49.65-18.7,3.75-28.25,3.74a31,31,0,0,1-13.52-2.91,37.19,37.19,0,0,1-9.65-6.89c-6.7-6.47-11.58-14.6-16.08-22.68l-.22.86a403.94,403.94,0,0,0,38.54-21.72q9.19-5.85,18.06-12.2,4.54-3.26,9-6.62c1.32-1,2.63-2,4.35-2a10.37,10.37,0,0,1,4.78,1.38c5,2.67,8.24,7.73,12,11.76a27.91,27.91,0,0,0,15.39,8.7,26.23,26.23,0,0,0,16.91-2.8c5.72-3,10.7-7.33,16.75-9.66,16.14-6.22,31.38,6.28,42.93,16,.61.52,1.5-.36.88-.88-10.48-8.82-22.79-19.19-37.46-17.87-13.24,1.19-21.73,14.3-35.27,14.38a25.5,25.5,0,0,1-17.47-7c-4.21-4-7.36-9-12.07-12.48a13.05,13.05,0,0,0-7.39-2.81c-3.22,0-5.91,2.88-8.33,4.67q-9.15,6.78-18.65,13a405.34,405.34,0,0,1-43.6,25,.64.64,0,0,0-.22.85c7.4,13.3,17.08,29.13,33.22,32.41,9.53,1.94,19.12-.71,28.5-2.23,8.73-1.42,18.38-1.85,26.13,3.13,4.37,2.82,7.73,7,10.77,11.17A106.54,106.54,0,0,1,512,222.51a.64.64,0,0,0,1,.13,437.93,437.93,0,0,0,47.27-44q5.46-5.88,10.71-12c3.46-4,6.72-8.19,10.29-12.09s7.47-7.31,12.49-8.75c4.55-1.3,9.64-.61,12.94,3,2.8,3.08,4.21,7.89,2.39,11.81-1.1,2.36-3.11,4.11-5,5.87l-6.53,6.19L572.05,197c-4.1,3.89-8.26,7.75-12.3,11.71A68.24,68.24,0,0,0,550,220.18c-2.68,4.15-4.88,9-9,12-3.7,2.71-8.87,3.69-13,1.44A11.86,11.86,0,0,1,522.23,223a8.25,8.25,0,0,1,7.12-8,6.65,6.65,0,0,1,7.46,7.1c-.12,2.26-1.48,4.33-3.86,4.59a3.41,3.41,0,0,1-3.92-3.28c0-1.69,1.26-4.07,3.24-3.71.79.14,1.13-1.06.34-1.21Z"/><path class="cls-4" d="M170.79,280.81c-.55,1.89.44,4.2,1.09,5.94s1.28,4.05,2.39,5.53c1.47,1.94,5.31,2.44,7.55,2.72,4.56.57,9.25.44,13.84.55q29.43.75,58.86.85,58.44.23,116.86-2Q404.58,293,437.72,291a.64.64,0,0,0,.54-.94l-29.94-66.11-.71.92c11.62,2.9,14.86,17.35,21.56,25.68,9.1,11.3,24.42,11.09,37.65,11.3l55,.84c8,.13,16.28.65,24.19-1a35.12,35.12,0,0,0,16.68-8.78c9.49-8.63,16.89-22.39,30.59-24.68l-.71-.91A104.36,104.36,0,0,0,577,256.42a103,103,0,0,0-4.23,16.68q-.6,3.61-.95,7.28c-.25,2.65-.24,5.4-1,8-2,7-10.3,6.07-16.14,6.44q-9.59.63-19.17,1.1-19.6,1-39.22,1.36-22.12.44-44.26.11a.63.63,0,0,0,0,1.25q40.5.58,81-1.35,10.43-.5,20.85-1.16c2.93-.19,5.88-.32,8.8-.61,2.31-.22,4.7-.64,6.54-2.15,3.55-2.91,3.44-8.1,3.8-12.26a101.77,101.77,0,0,1,3.09-17.48,103.6,103.6,0,0,1,17.54-35.7c.37-.49-.24-1-.7-.92-11.5,1.92-18.73,11.95-26.14,20-4.09,4.42-8.56,8.72-14.11,11.25-7.56,3.44-16.13,3.41-24.28,3.29q-27.22-.37-54.45-.83c-14-.22-32.53,1.78-42.9-9.86-7.68-8.62-10.53-24-23.12-27.18a.63.63,0,0,0-.7.91l29.94,66.11.54-.94q-56.64,3.57-113.41,4.81-56.32,1.23-112.67.14-8-.15-16-.36c-5.07-.13-10.41.18-15.41-.8-1.45-.28-3.93-.74-4.9-1.85a10.69,10.69,0,0,1-1.23-2.68c-.89-2.05-2.79-5.52-2.13-7.83a.62.62,0,0,0-1.2-.33Z"/><path class="cls-4" d="M501.31,292.08c-5.24,2-10.78-1.49-12.74-6.41A17.37,17.37,0,0,1,490.12,270a12.63,12.63,0,0,1,14.61-4.67c5,1.77,10.24,5.66,11.78,11,.87,3,.52,6.55-1.63,8.93-1,1.13-2.64,2.12-4.23,1.73-1.2-.3-2.69-1.92-1.54-3.08l-1.05-.61-2.17,11a.64.64,0,0,0,.77.77,20.68,20.68,0,0,0,9.86-4.79c.6-.53-.28-1.41-.89-.88a19.47,19.47,0,0,1-9.3,4.47l.77.76,2.17-11a.63.63,0,0,0-1-.61c-1.69,1.71-.29,4.25,1.66,5,2.83,1.11,5.77-1.2,7.06-3.55,3.37-6.17-.36-13-5.44-16.86a20.94,20.94,0,0,0-9.33-4.2,13.64,13.64,0,0,0-9.4,2.28c-5.6,3.78-7.41,11-6.24,17.37a13.47,13.47,0,0,0,5.23,8.73,10.86,10.86,0,0,0,9.88,1.52c.75-.28.43-1.49-.33-1.21Z"/><path class="cls-4" d="M127.3,298.05l-4.2-45.53c-1.38-15-3.06-30-3.81-45a210,210,0,0,1,0-22.72c.44-7.5,1.22-15,1.61-22.48a126.46,126.46,0,0,0-.54-21.84,177.7,177.7,0,0,0-4-21.12c-1.38-5.64-3.6-11.69-9-14.6-4.27-2.29-9.67-1.89-12.72,2.16-2.73,3.61-2.77,8.67-2.82,13,0,2.51,0,5-.21,7.55a38,38,0,0,1-2.16,9.15c-1.94,5.68-4.63,11.47-4.36,17.61a26.05,26.05,0,0,0,2.38,8.63c1.16,2.85,2.3,6,.92,9-2,4.26-7,6.07-10,9.5A9.74,9.74,0,0,0,76,187.7a18.92,18.92,0,0,0,2.1,7.7c1.24,2.78,2.71,5.51,3.33,8.51.68,3.28.18,6.67-.07,10a20.81,20.81,0,0,0,.93,9.24,16.2,16.2,0,0,0,4.3,6c4.05,3.64,9.39,5.53,14.72,6.28,6.37.9,13.8.76,18.47,5.93a8.68,8.68,0,0,1,2.34,8,.63.63,0,0,0,1,.61,140,140,0,0,0,13.53-16,110.15,110.15,0,0,0,10.91-17.74c1.31-2.8,2.1-5.81,1.11-8.85a26.35,26.35,0,0,0-3.64-6.48c-1.25-1.81-2.76-3.78-3.16-6-.54-3,1.86-4.62,4.2-5.84,2.51-1.3,4.44-2.81,5.18-5.67.79-3,.52-6.36.57-9.46q.16-11.88.33-23.75a30.78,30.78,0,0,0-.82-9.23c-.95-3.15-3-5.35-5.3-7.61a23.68,23.68,0,0,1-5.58-8.57c-1.12-2.94-1.88-6-2.82-9-1.75-5.57-4.67-12.14-10.64-14.2-4.66-1.61-10.94,0-12.54,5.08-.24.77,1,1.1,1.21.34,1.5-4.81,7.9-5.8,11.95-3.82,5.27,2.56,7.59,8.81,9.15,14,1.68,5.6,3.12,11.42,7.22,15.81,2.3,2.47,4.92,4.54,6,7.86,1,3,.94,6.19.9,9.29-.09,7.42-.21,14.84-.31,22.26-.05,3.24.23,6.7-.39,9.89a6.91,6.91,0,0,1-1.91,3.87,15.62,15.62,0,0,1-3.48,2.11c-2,1-3.75,2.46-4.18,4.74a8.13,8.13,0,0,0,1.3,5.35c2.41,4.31,6.89,8.34,5.76,13.73-.76,3.68-3.07,7.12-5,10.31s-3.88,6.27-6,9.28a137.81,137.81,0,0,1-14.49,17.32l1,.61c1.41-5.25-2.44-10.26-7-12.5-5.74-2.83-12.39-2.16-18.46-3.7-5.09-1.29-10.3-3.94-13.21-8.47-3.71-5.77-1.36-12.37-1.7-18.7-.31-6-4.26-10.66-5.48-16.38a8.66,8.66,0,0,1,1.68-7.49A28.8,28.8,0,0,1,84.31,178a18.9,18.9,0,0,0,4.59-4.42,9.08,9.08,0,0,0,1.21-7c-.61-3-2.24-5.75-3.1-8.72a19,19,0,0,1-.11-9.17c1.25-5.95,4.11-11.41,5.42-17.34,1.09-5,.61-10.11.93-15.17.28-4.42,1.36-9.61,6.07-11.29,6.18-2.2,11.71,3.29,14,8.48a52.25,52.25,0,0,1,2.66,9.19c.8,3.6,1.55,7.22,2.18,10.85A119,119,0,0,1,119.92,155c-.14,14.66-2.38,29.19-2.17,43.86s1.87,29.56,3.23,44.28l4.07,44,1,10.89c.08.79,1.33.8,1.25,0Z"/><path class="cls-4" d="M68.3,299.11l.07-11,0-5.24a18.36,18.36,0,0,0-.14-4.57c-.73-2.76-4.27-2.4-6.49-2.59l-10.75-1,.32,1.16A39,39,0,0,1,62,271.79a.63.63,0,0,0-.16-1.23c-3.22-.14-8.36-.63-8.35-4.93,0-2,1.44-2.76,3.29-2.68,1.62.06,3.17.41,4.64-.49a2.62,2.62,0,0,0,1.41-2.8c-.33-1.32-1.68-1.83-2.86-2.17-4.39-1.28-8.82-2.44-13.23-3.66l.37.92c2.23-4.27,9.81-1.88,11.4-7,.71-2.29-1-4.1-2.72-5.32-2.84-2-5.82-3.83-8.72-5.74l.29.71c.29-1.38,1.65-1.54,2.86-1.65a29.93,29.93,0,0,0,3.9-.37,4.21,4.21,0,0,0,3.6-4.75c-.32-2.73-2.14-5.25-2-8,.12-1.91,1.72-3,2.78-4.39a12.13,12.13,0,0,0,2-4.4c1-3.93.47-8.07-.11-12l-1.15.48c4,5.68,5.29,12.52,5.71,19.32.43,7.14.13,14.32.45,21.48a225.41,225.41,0,0,0,2.39,24c.41,2.7.34,6.46,3.78,6.83a49.45,49.45,0,0,0,5.58,0c1.94,0,3.93.12,5.86-.06a3.84,3.84,0,0,0,3.15-1.55c.86-1.5-.14-3.12-1-4.33a43.29,43.29,0,0,0-8.34-8.6l-.44,1.07a5.55,5.55,0,0,0,5.16-4.5,4.93,4.93,0,0,0-.48-3.43c-.74-1.31-2.44-2.42-2.7-3.95s1.74-2.51,2-4a3.07,3.07,0,0,0-1.29-2.87c-1.07-.91-2.46-1.49-3.38-2.58-1.24-1.46-1.28-3.59-1.46-5.4-.27-2.83-1.37-6.39-4.71-6.67-.8-.06-.79,1.19,0,1.25,3.9.32,3.3,6.27,3.92,8.9A6.41,6.41,0,0,0,75.9,241c1,.77,3.36,1.72,3.27,3.23,0,.91-.93,1.51-1.42,2.19a3.19,3.19,0,0,0-.67,1.78c0,1.43,1,2.59,1.89,3.62,1.14,1.38,1.84,2.77,1.18,4.56a4.21,4.21,0,0,1-3.76,2.87c-.49,0-.89.71-.44,1.07a43.21,43.21,0,0,1,7.17,7.07c.8,1,3.07,3.33,1.74,4.65-1,1-3.45.67-4.72.67l-4.92,0c-1.71,0-4.72.6-5.41-1.5a30.37,30.37,0,0,1-.85-4.94q-.43-2.82-.78-5.66-1.35-10.81-1.64-21.72c-.17-6.32.1-12.65-.42-19-.53-6.47-2-12.93-5.76-18.32a.63.63,0,0,0-1.14.48c.53,3.6,1,7.4.2,11a11.15,11.15,0,0,1-2.37,4.9c-1,1.17-2.17,2.15-2.48,3.74-.52,2.61.89,5.15,1.58,7.58.33,1.18.63,2.63-.21,3.68s-2.39,1.25-3.67,1.35c-2.2.17-5.55-.09-6.15,2.7a.65.65,0,0,0,.29.7l7.49,4.93c2,1.3,5,3.54,2.53,6-2.93,2.84-8.34,1.48-10.42,5.48a.63.63,0,0,0,.37.92c4.41,1.22,8.84,2.36,13.23,3.65.92.27,2.5.79,1.83,2.07-.46.89-1.78,1.1-2.66,1.09-1.66,0-3.39-.51-4.9.43-2.15,1.35-2,4.51-.74,6.41,1.85,2.76,5.68,3,8.67,3.12l-.17-1.23a39.88,39.88,0,0,0-10.93,4.29A.63.63,0,0,0,51,276l9,.8c1.55.13,3.1.23,4.64.41a2.53,2.53,0,0,1,2.12.91,4.06,4.06,0,0,1,.35,2.24c0,6.24-.08,12.48-.12,18.72a.63.63,0,0,0,1.25,0Z"/><path class="cls-4" d="M632.83,282.9l-13.36-4,.15,1.14a57.22,57.22,0,0,1,12.71-6.53.63.63,0,0,0,.15-1.14l-9.28-6.09-.15,1.14,9.77-3.85a.63.63,0,0,0,.15-1.14l-6.79-4.31v1.08a14.93,14.93,0,0,0,4.71-3.42.64.64,0,0,0,0-.89l-3.5-3.55-.27,1,11-3.89a.64.64,0,0,0,.46-.6c-.19-1.52-1.18-2.55-2-3.76-.49-.7-1-1.46,0-2,.65-.4,1.47-.34,2.11-.83a2.81,2.81,0,0,0,.6-3.48c-.81-1.66-2.73-2.2-4.38-2.59l.37.92a23,23,0,0,1,8.86-7.7.63.63,0,0,0,.12-1c-1-1-.71-2.48-.37-3.7.41-1.45.89-2.88,1.33-4.31l2.85-9.14h-1.21a77.68,77.68,0,0,0,6.19,13.42,31.5,31.5,0,0,0,4.51,5.71c.92.91,1.68,1.58,1,2.91a11.26,11.26,0,0,0-1.23,2.39c-.4,1.6.73,2.63,1.93,3.44.81.55,1.83,1.11,1.61,2.26-.18,1-1,1.79-1.31,2.76-.53,1.84.68,3.28,2.07,4.32a16.86,16.86,0,0,1,2.65,2,2.21,2.21,0,0,1,.7,2.41c-.28.58-.91,1-1.26,1.52a5.19,5.19,0,0,0,.59,5.73c1.58,2.08,4.28,2.88,6.68,3.57l-.28-1c-2.22,1.76-4.48,4.35-4.15,7.4.27,2.42,2.2,4.67,4.75,4.55l-.32-1.16q-4,2.17-7.87,4.55a.64.64,0,0,0-.13,1c1.38,1.34,3.14,2,4.78,2.9s3.8,3.12,2.26,4.92c-1.28,1.51-4.17.79-5.8.49a63.89,63.89,0,0,1-6.54-1.66c-1.52-.45-3.15-.57-4.41.53a5.59,5.59,0,0,0-1.67,3.51c-.45,3.1,1.59,7.57-1.19,9.94l1.05.28a220.69,220.69,0,0,1-2.85-52.6q.51-7.68,1.54-15.31c.11-.78-1.09-1.12-1.2-.33a222.06,222.06,0,0,0-.8,53.73c.53,5,1.24,9.92,2.1,14.84a.63.63,0,0,0,1,.28c2.2-1.88,1.89-4.95,1.58-7.53-.36-3,.13-7.29,4.25-6.21,3.42.9,7,2.31,10.6,2.16,2.45-.1,4.61-1.8,3.86-4.45-1.06-3.71-5.28-4-7.71-6.38l-.13,1q3.89-2.37,7.87-4.55a.63.63,0,0,0-.31-1.17c-2.34.11-3.81-2.39-3.48-4.52s2.07-4,3.77-5.3a.63.63,0,0,0-.28-1c-2.33-.67-5.16-1.44-6.41-3.73a3.83,3.83,0,0,1-.27-3.45c.48-1,1.5-1.48,1.71-2.6.34-1.83-1.25-3.41-2.62-4.34a9.73,9.73,0,0,1-2.61-2.11c-.83-1.17-.22-2.18.38-3.27.73-1.33,1-2.72-.18-3.9s-3.62-1.78-2.38-4c.74-1.35,1.73-2.65.81-4.18a14.21,14.21,0,0,0-2-2.16,29.83,29.83,0,0,1-2.47-3c-3.19-4.51-5.22-9.7-7.19-14.82a.63.63,0,0,0-1.21,0l-3.42,11c-.69,2.22-2.14,5.44-.06,7.35l.12-1a24.22,24.22,0,0,0-9.3,8.15.63.63,0,0,0,.38.92c1.46.34,4.41,1.13,3.75,3.27-.4,1.29-2.61,1-3.31,2.22-1.24,2.2,2.13,4,2.38,6l.46-.6-11,3.89a.63.63,0,0,0-.27,1l3.5,3.56v-.89a14.09,14.09,0,0,1-4.46,3.23.63.63,0,0,0,0,1.08l6.79,4.31.15-1.15-9.77,3.86a.63.63,0,0,0-.15,1.14l9.28,6.09.15-1.15A59.05,59.05,0,0,0,619,279a.63.63,0,0,0,.15,1.14l13.37,4a.63.63,0,0,0,.33-1.21Z"/><path class="cls-4" d="M696.87,301l2.73-29.58c.91-9.82,2-19.65,2.55-29.51a144.92,144.92,0,0,0,.15-14.59c-.22-4.79-.7-9.56-1-14.35a95.07,95.07,0,0,1-.08-14.32,107,107,0,0,1,2.4-14.54c.89-3.95,1.87-8.66,5.59-10.93,3.28-2,7.24-1,8.5,2.76,1,3.05.68,6.45.78,9.62.13,3.81,1.29,7.25,2.57,10.81,1.37,3.83,2.63,7.82,1.23,11.84-1.16,3.36-3.23,6.82-.81,10.15,1.77,2.42,4.79,3.53,6.54,6,2.46,3.39-.19,7.37-1.56,10.62a14.43,14.43,0,0,0-1.25,5.52c0,2.12.35,4.22.35,6.34,0,4.19-2.26,7.35-5.86,9.32s-7.53,2.11-11.49,2.69c-3.68.54-7.46,1.91-9.3,5.39a6.31,6.31,0,0,0-.59,4.62l1-.6a91.37,91.37,0,0,1-15.45-20.92c-1.07-2-2.07-4.2-1.31-6.48a17.48,17.48,0,0,1,2.41-4.19c1.36-2,3.09-4.55,1.64-7-.84-1.38-2.37-1.92-3.7-2.7-2-1.17-2.32-3.21-2.38-5.37-.12-4.83-.14-9.66-.2-14.49-.06-4.23-1-9.77,1.89-13.3,1.26-1.54,2.85-2.75,4-4.41a20.19,20.19,0,0,0,2.34-5.08c1.34-4.09,2.1-8.84,5.43-11.89,2.57-2.34,8.1-2.8,9.41,1.22.24.76,1.45.44,1.2-.33-.94-2.9-4-4.21-6.9-3.91-3.68.38-6.2,3.37-7.66,6.55-1.78,3.86-2.23,8.25-4.37,12-1.2,2.08-3.11,3.46-4.57,5.33a10.28,10.28,0,0,0-2,5.4,60,60,0,0,0,0,7.22l.11,7.92c0,2.61,0,5.21.11,7.81.05,1.77.2,3.7,1.37,5.13s3.37,1.75,4.6,3.19.54,3-.27,4.4c-1.69,2.88-4.41,5.55-3.88,9.18.36,2.49,1.84,4.78,3.08,6.92s2.73,4.48,4.23,6.64a94.59,94.59,0,0,0,10,12,.63.63,0,0,0,1-.61,5.89,5.89,0,0,1,2.08-5.72,11.83,11.83,0,0,1,6.27-2.65c4-.67,7.94-.73,11.67-2.52a12.49,12.49,0,0,0,6.77-7.13c1.35-4.24-.64-8.69.54-13,1-3.58,3.84-6.94,3.4-10.84-.36-3.2-3-5-5.37-6.78a8.12,8.12,0,0,1-3.12-3.65c-.69-2.15.41-4.36,1.2-6.31a14.17,14.17,0,0,0,1.23-5.84,21.64,21.64,0,0,0-1.13-5.74c-1.27-4-3.06-7.77-3.28-12-.18-3.2.14-6.48-.55-9.63-.62-2.79-2.4-5.26-5.35-5.78-3.55-.63-6.9,1.72-8.67,4.63-2.23,3.66-2.87,8.31-3.69,12.44a86.24,86.24,0,0,0-1.76,14.5c-.27,10,1.4,20,1.43,30s-1.09,20.18-2,30.23l-2.84,30.82-.69,7.46c-.07.8,1.18.79,1.25,0Z"/><path class="cls-4" d="M768.53,296.74l-.17-26.6,0-6.47c0-1.85-.23-4.41,1.55-5.57s4.18-.92,6.07-1.08l6.47-.57,15.17-1.34a.63.63,0,0,0,.32-1.16,69.75,69.75,0,0,0-19.37-7.59l-.17,1.23c4.65-.19,9.84-.49,13.55-3.66a9,9,0,0,0,2.55-9.69,5.76,5.76,0,0,0-3.59-3.35c-2.55-.84-5.22,0-7.82-.06-1.89-.06-5.37-1.44-4.81-3.9s4.81-2.94,6.8-3.49l20.69-5.72a.63.63,0,0,0,.37-.92c-2.83-5.67-10.05-5.16-15.07-7.44-2.67-1.22-5.78-3.55-5.23-6.89.58-3.56,4.67-5.61,7.38-7.39L805.56,187a.66.66,0,0,0,.28-.71c-.85-4.37-6.12-4.17-9.58-4.39-2.24-.14-4.75-.29-6.66-1.59s-2.46-3.53-2.14-5.77c.7-4.74,3.61-9,3.5-13.92-.06-2.75-1.38-4.78-3.22-6.72a21,21,0,0,1-5.06-8.27c-2.21-7-1.23-14.74-.18-21.9a.63.63,0,0,0-1.14-.48c-13,18.54-10.43,42.86-10.9,64.29q-.44,19.84-2.84,39.58-.61,5.06-1.36,10.09a95.12,95.12,0,0,1-1.57,9.53,3.93,3.93,0,0,1-2.59,3.12,13.41,13.41,0,0,1-4.24.33l-9.8,0-5.63,0a12.65,12.65,0,0,1-4-.48,3.06,3.06,0,0,1-2.36-3.52c.29-1.64,1.47-3.07,2.44-4.37a76.17,76.17,0,0,1,14.27-14.54c.45-.35.06-1.07-.44-1.07-4.52,0-8.11-4.65-7.63-9s6.65-7,5.84-11.77c-.41-2.43-2.94-3.55-3.57-5.82s1.59-3.79,3.19-4.89,3.68-2.3,5-4a14,14,0,0,0,2.34-6.79c.37-2.79.37-5.64,1.32-8.32s2.73-5.23,5.71-5.42c.8,0,.8-1.29,0-1.25-5.19.32-7.32,6-7.81,10.47-.33,2.95-.34,6.07-1.56,8.84-1.12,2.56-3.41,3.89-5.62,5.41-1.6,1.09-3.49,2.43-3.85,4.47-.47,2.6,1.67,4.07,3,6,1.91,2.79-.64,5.39-2.37,7.48-1.53,1.85-2.8,3.73-2.86,6.21-.12,4.88,3.91,9.71,8.92,9.7l-.44-1.06a76.33,76.33,0,0,0-13.31,13.27c-1.63,2.09-4.08,4.7-3.81,7.57.2,2.14,2,3.38,3.94,3.85,2.75.67,5.78.36,8.58.37l10.53,0c2.38,0,5.23.16,6.88-1.89a7.21,7.21,0,0,0,1.32-3.22c.33-1.7.58-3.42.85-5.13a404.46,404.46,0,0,0,4.37-41.83c.65-12.72.22-25.46.79-38.18.59-13,2.7-26.41,10.37-37.31l-1.15-.48c-.92,6.31-1.72,12.8-.63,19.15a23.12,23.12,0,0,0,3.17,8.53c1.69,2.64,4.81,4.62,5.64,7.72,1.26,4.75-1.94,9.73-3,14.23a8.84,8.84,0,0,0,.28,5.92,7.26,7.26,0,0,0,4.8,3.57c2.51.68,5.15.6,7.72.83,2.28.2,4.84.67,5.35,3.27l.29-.7-11.76,7.72c-2.87,1.89-6.59,3.77-8.1,7a6.47,6.47,0,0,0,1.93,7.63c2.38,2.12,5.4,3,8.43,3.75,3.58.84,7.8,1.83,9.59,5.41l.38-.92-18.29,5.06c-2.48.68-5.2,1.14-7.53,2.26a4,4,0,0,0-2.61,4c.22,1.78,1.81,3,3.36,3.7,2.29,1,4.66.42,7,.31s5,.49,6,3a7.53,7.53,0,0,1-.38,5.63c-2.45,5.34-9.55,5.67-14.61,5.88a.63.63,0,0,0-.16,1.23A68.31,68.31,0,0,1,797.27,255l.31-1.17-14.43,1.27-7.21.64c-1.92.17-4.08.12-5.89.85-3.67,1.47-3,6.11-3,9.29l.1,14.42.1,16.41a.63.63,0,0,0,1.25,0Z"/><path class="cls-2" d="M640.47,91.44s-3-16.27,11.85-32.16C652.32,59.28,658,99.39,640.47,91.44Z"/><path class="cls-2" d="M625.11,115.51s22.78,10.17,20.86,16.77c0,0-18.49-1.09-28.78-8.43S625.11,115.51,625.11,115.51Z"/><path class="cls-4" d="M596.91,125.89c6.67-2.54,12.11-8.26,19.29-9.44,8.1-1.32,15.09,4.55,20.75,9.51l.13-1c-3.94,2.49-8.9,2.32-13.13.64-4.56-1.82-8.26-5.24-11.73-8.62l-.12,1c6.26-4.29,12.74-8.76,17-15.2,3.49-5.3,4.91-12.09,3-18.24a14.48,14.48,0,0,0-5.81-7.84.62.62,0,0,0-.85.22,51.82,51.82,0,0,0-5.74,34.59.63.63,0,0,0,.92.37c3.1-1.33,5.39-3.81,7.77-6.1a27.38,27.38,0,0,1,7.92-5.43,29.12,29.12,0,0,1,18.93-1.47,26.55,26.55,0,0,1,9.55,4.69l.15-1.15A29.46,29.46,0,0,1,640,97.74v1.08c12.68-7,10.78-23.73,12.17-35.85.08-.66-.86-.8-1.16-.32a47,47,0,0,0-6.56,32c.12.79,1.33.46,1.21-.33a45.66,45.66,0,0,1,6.43-31L650.9,63c-.79,6.94-.36,14.07-2.06,20.9-1.39,5.57-4.31,11-9.49,13.87a.64.64,0,0,0,0,1.08,30.68,30.68,0,0,0,25.85,4.82.63.63,0,0,0,.15-1.14c-10.23-7.91-25.75-7.67-35.78.49-3.22,2.62-5.74,6.14-9.65,7.82l.92.38a50.42,50.42,0,0,1,5.61-33.63l-.86.23c5.07,3.34,6.67,9.77,5.86,15.51-1,6.64-5.25,12-10.17,16.3a107.61,107.61,0,0,1-9.81,7.31.63.63,0,0,0-.13,1c3.71,3.62,7.71,7.23,12.64,9.07,4.45,1.66,9.64,1.69,13.73-.9a.63.63,0,0,0,.13-1c-5.7-5-12.57-10.73-20.68-10-7.82.71-13.51,6.91-20.58,9.6-.75.29-.43,1.5.33,1.21Z"/><path class="cls-4" d="M645.28,95.21a43.77,43.77,0,0,0,29.3-23.8.63.63,0,0,0-.85-.85,60.07,60.07,0,0,0-15,9.69,71.36,71.36,0,0,0-6.14,6.28c-2,2.28-4.05,4.54-6.85,5.83-.73.33-.1,1.41.63,1.08a20.29,20.29,0,0,0,6.43-5.26A88,88,0,0,1,659,81.7a59.13,59.13,0,0,1,15.37-10.06l-.86-.86A42.54,42.54,0,0,1,645,94c-.78.18-.45,1.39.33,1.21Z"/><path class="cls-2" d="M543.31,79.11s.49-12.92-10.61-13.89-11.17,6.2-7.35,10.12S545,87,543.31,79.11Z"/><path class="cls-2" d="M552.36,59.26s12.68,6,21.17-4.21,1.32-13.35-5.21-11.36S543.29,57.53,552.36,59.26Z"/><path class="cls-4" d="M533.14,93.9a43.46,43.46,0,0,0,11.24-15.64,51.61,51.61,0,0,0,2.8-9.43c.69-3.3,1.3-6.71,2.8-9.77,2.82-5.78,8.64-8.85,14.58-10.59,1.45-.42,2.92-.77,4.39-1.07s4-.73,4.44,1.37c.65,2.88-2.4,5.56-4.54,6.9-5.73,3.61-13.16,3.3-19.64,2.91l.6.8c1.17-4.21,2.55-9.55-.38-13.37-2-2.58-5.95-4.27-8.82-2.11-2.66,2-2.34,5.88-.67,8.42a9,9,0,0,0,4.27,3.23A5.32,5.32,0,0,1,547,57.76a5.87,5.87,0,0,1,.39,3.56c-.36,2.55-1.46,4.93-2.1,7.42a39.39,39.39,0,0,0-1.18,9,.63.63,0,0,0,1.07.44,16.63,16.63,0,0,1,8.43-5.09c2.83-.69,6.4-.88,8.83,1a3,3,0,0,1,1.12,3.57,4.33,4.33,0,0,1-3.26,2.09c-3.19.63-6-1.21-9-1.94a9.1,9.1,0,0,0-4-.18c-.95.18-2.09.77-3,.22a6.43,6.43,0,0,1-1.81-2.53c-1.48-2.65-2.68-5.71-5.14-7.63a7.46,7.46,0,0,0-6.91-1.45,4.79,4.79,0,0,0-3,5.17,8.69,8.69,0,0,0,4.82,6.37c3.51,1.68,7.55,1.63,11.12,3.16.73.31,1.36-.76.63-1.08-3.24-1.39-6.79-1.53-10.08-2.74-2.69-1-5.57-3.61-5.28-6.76.34-3.82,4.93-3.66,7.38-2.08,2.92,1.86,4.11,5.53,5.79,8.38.66,1.12,1.42,2.36,2.8,2.61,1.64.3,3.26-.67,4.94-.52,3.32.29,6.2,2.49,9.58,2.39,2.14-.07,4.66-.88,5.61-3s-.29-4.41-2.21-5.55c-2.73-1.62-6.22-1.47-9.2-.74a17.76,17.76,0,0,0-9,5.41l1.07.44a37.58,37.58,0,0,1,.82-7.33c.44-2.07,1.15-4,1.76-6,.89-2.92,1.56-6.7-1.2-8.86-1.5-1.16-3.49-1.45-4.86-2.8a6.75,6.75,0,0,1-2-4.38A3.89,3.89,0,0,1,542,44.5a5,5,0,0,1,4.87.79c4.49,3.14,2.92,9.34,1.7,13.75a.63.63,0,0,0,.6.79c6.23.37,13,.57,18.78-2.25,2.52-1.24,5.16-3.25,6.24-5.94,1-2.43.35-5.43-2.66-5.75a14.74,14.74,0,0,0-4.78.71,46.48,46.48,0,0,0-4.9,1.42,27.27,27.27,0,0,0-8.37,4.56A18.62,18.62,0,0,0,548,60.66c-1.31,3.59-1.79,7.4-2.72,11.1a42.42,42.42,0,0,1-13,21.26c-.61.53.28,1.41.88.88Z"/><path class="cls-2" d="M449.45,85.39s14.39,14.56,34.4-26C483.85,59.34,463.1,59.66,449.45,85.39Z"/><path class="cls-4" d="M446.34,105.9A11,11,0,0,0,448.42,96a18.09,18.09,0,0,0-6.57-9.66c-3.5-2.86-7.55-5-11.45-7.24l-13.54-7.83c-.44-.25-1.11.18-.92.71a34.1,34.1,0,0,0,31.88,22,.63.63,0,0,0,.54-.94c-2.31-3.8-2-8.56,0-12.44s5.25-6.72,8.67-9.16a129.52,129.52,0,0,1,24.18-13.36l-.94-.54A27.6,27.6,0,0,1,461,81.1a28.59,28.59,0,0,1-8.11,1.25,16.24,16.24,0,0,1-3.94-.27c-1.81-.45-1.33-2.46-1.48-3.91a21.64,21.64,0,0,0-6.87-13.1c-4.37-4.18-10-6.77-15.59-8.81a.62.62,0,0,0-.77.77A19.59,19.59,0,0,0,438,69.35c3.24.67,4.44-2.5,3.35-5.12a35.79,35.79,0,0,1-2.14-5,14.15,14.15,0,0,1,4.87-14.42l-1.05-.28a35.8,35.8,0,0,1-2.89,22.37c-.35.72.72,1.35,1.08.63a37.32,37.32,0,0,0,3-23.33c-.1-.52-.71-.54-1-.28a15.37,15.37,0,0,0-4.1,18.57c.56,1.13,1.41,2.28,1.47,3.58s-.68,2.29-2,2.08a15.6,15.6,0,0,1-5.65-2.31,18.44,18.44,0,0,1-7.51-9.17l-.77.76c5.67,2.06,11.34,4.71,15.62,9.07a21.73,21.73,0,0,1,4.88,7.41,17.13,17.13,0,0,1,1,4c.14,1.21-.09,2.59.4,3.73.94,2.2,4.35,1.91,6.29,1.89a29.6,29.6,0,0,0,8.25-1.24,28.57,28.57,0,0,0,13.59-8.74,29.23,29.23,0,0,0,6.81-16c.05-.53-.56-.71-.94-.54a138.19,138.19,0,0,0-21,11.23c-5.66,3.68-11.7,8.14-13.52,15a13.38,13.38,0,0,0,1.27,10.43l.54-.94a32.82,32.82,0,0,1-30.67-21.09l-.92.7,12.27,7.1c3.57,2.06,7.25,4,10.62,6.39,3.18,2.23,6.17,5,7.57,8.75,1.28,3.42,1.27,7.52-1.23,10.38-.53.61.35,1.5.88.89Z"/><path class="cls-4" d="M830.33,276.17c5.09-4.09,10.65-8.28,17.1-9.84a17.84,17.84,0,0,1,9.56.24,34.74,34.74,0,0,1,7.62,3.85c4.47,2.75,9.2,5.73,14.68,5.22,4.74-.44,8.82-3.11,12.67-5.71,4-2.74,8.38-5.93,13.44-6.22,5.67-.33,10.42,3.23,15.23,5.67a21.91,21.91,0,0,0,7,2.37,15.17,15.17,0,0,0,8-1.35c5.71-2.5,10.29-7.31,16.68-8.23a10.26,10.26,0,0,1,5.21.47,11.47,11.47,0,0,1,4.21,3.5,15.42,15.42,0,0,0,6.69,4.71A16.32,16.32,0,0,0,984.32,268l-1.05-.61c-1.78,4.78-6.57,7.73-11.41,8.63a16.14,16.14,0,0,1-7.44-.34c-2.69-.8-4.69-2.57-6.93-4.17s-4.76-2.66-7.52-2c-2.59.66-4.6,2.64-6.4,4.5a27.71,27.71,0,0,1-6.28,5.3,22.49,22.49,0,0,1-8.42,2.66,23.31,23.31,0,0,1-8.68-.64,25.24,25.24,0,0,1-7.67-3.89c-2.49-1.72-5-3.49-8.12-3.9a13.21,13.21,0,0,0-7.93,1.73c-2.63,1.39-5,3.25-7.44,4.87a29.38,29.38,0,0,1-8.64,3.89,31.74,31.74,0,0,1-18.63-.72c-3.46-1.23-6.36-3.55-9.79-4.82s-6.74-.44-10,1c-8.09,3.63-16,7.68-24,11.52a.63.63,0,0,0,0,1.08,22.26,22.26,0,0,0,17.89,2.92,24,24,0,0,0,8.29-4.26c1.45-1.06,3.05-2.18,4.9-2.29s3.82.89,5.46,1.91c6,3.71,12.31,6.74,19.31,8a32.63,32.63,0,0,0,19.54-2c3.2-1.46,6.13-3.44,9.3-5a19.53,19.53,0,0,1,10-2.07c6.57.47,12.56,3.66,18.93,5a21,21,0,0,0,8.65.32,19.58,19.58,0,0,0,7.84-3.88c4.79-3.59,9.58-8.18,16-6,3,1,5.59,3,8.22,4.75a22.11,22.11,0,0,0,8.29,3.61,19.85,19.85,0,0,0,15.8-4.13,16.27,16.27,0,0,0,2.81-3.05c.47-.65-.62-1.27-1.08-.63-3.5,4.86-9.79,7.22-15.65,6.79a19.06,19.06,0,0,1-8.75-3.16c-2.59-1.63-5-3.55-7.84-4.8a12.36,12.36,0,0,0-8-.93,19.63,19.63,0,0,0-7.09,3.82,49.56,49.56,0,0,1-7.14,5.06,15.6,15.6,0,0,1-8.92,1.5c-6.33-.67-12.12-3.72-18.3-5a22.33,22.33,0,0,0-9-.25,31.36,31.36,0,0,0-9,3.83,44.2,44.2,0,0,1-9.38,4.43,30.9,30.9,0,0,1-10.22,1.09,47,47,0,0,1-20.23-6.32c-2.74-1.56-5.48-4-8.75-4.2s-5.73,2.11-8.26,3.84a21.06,21.06,0,0,1-18.73,2.17,19.18,19.18,0,0,1-4.29-2.22v1.08l21.53-10.35c3.36-1.61,6.9-3.42,10.7-2.3,3.21.94,5.91,3.15,9,4.45a32.52,32.52,0,0,0,17.82,2,30.41,30.41,0,0,0,8.68-2.75,69,69,0,0,0,7.82-5c2.56-1.71,5.41-3.37,8.58-3.45,3.37-.08,6.17,1.76,8.83,3.6a27.78,27.78,0,0,0,7.62,4.05,24.06,24.06,0,0,0,8.26,1,22.94,22.94,0,0,0,14.77-6.15c2-2,3.86-4.4,6.4-5.8,3.06-1.68,5.95-.54,8.55,1.37s4.66,3.55,7.67,4.27a17.58,17.58,0,0,0,8,0c5.08-1.12,9.82-4.38,11.68-9.37.23-.63-.62-1-1.05-.61-4.08,3.59-10.29,4.24-15.25,2.26-2.83-1.13-4.54-3.2-6.56-5.35a9.93,9.93,0,0,0-7.13-3.27c-6.22-.17-11.14,3.87-16.21,6.85a18,18,0,0,1-8.71,3,17.4,17.4,0,0,1-8-2.16c-4.68-2.31-9.16-5.65-14.55-6-4.89-.31-9.29,2.13-13.24,4.73s-8,5.85-12.81,6.93c-5.75,1.29-10.72-1.68-15.42-4.59a37.5,37.5,0,0,0-8.24-4.16,18.8,18.8,0,0,0-9.42-.42c-7,1.42-13,5.95-18.45,10.34-.63.5.26,1.38.88.88Z"/><path class="cls-4" d="M919.8,313.31c5.08-4.1,10.64-8.28,17.1-9.84a17.74,17.74,0,0,1,9.56.24,34.74,34.74,0,0,1,7.62,3.85c4.47,2.75,9.2,5.73,14.68,5.22,4.74-.44,8.82-3.12,12.67-5.72,4.05-2.73,8.38-5.92,13.44-6.22,5.67-.33,10.41,3.24,15.23,5.67a21.69,21.69,0,0,0,7,2.38,15.23,15.23,0,0,0,8-1.35c5.72-2.51,10.3-7.31,16.69-8.23a10,10,0,0,1,5.2.47,11.5,11.5,0,0,1,4.22,3.49,15.39,15.39,0,0,0,6.68,4.71,16.28,16.28,0,0,0,15.84-2.81l-1-.61c-1.78,4.78-6.57,7.73-11.42,8.62a16,16,0,0,1-7.43-.33c-2.69-.8-4.7-2.57-6.94-4.17s-4.75-2.67-7.51-2c-2.59.67-4.6,2.64-6.4,4.5a27.71,27.71,0,0,1-6.28,5.31,22.61,22.61,0,0,1-8.42,2.66,23.29,23.29,0,0,1-8.68-.64,25.32,25.32,0,0,1-7.68-3.9c-2.48-1.72-5-3.48-8.11-3.9a13.26,13.26,0,0,0-7.94,1.74c-2.62,1.38-5,3.24-7.43,4.87a29.58,29.58,0,0,1-8.65,3.89,31.63,31.63,0,0,1-18.62-.73c-3.46-1.23-6.36-3.55-9.79-4.81s-6.74-.45-10,1c-8.09,3.63-16,7.68-24,11.52a.63.63,0,0,0,0,1.08,22.3,22.3,0,0,0,17.89,2.92,24.12,24.12,0,0,0,8.29-4.26,9.54,9.54,0,0,1,4.9-2.29c2-.12,3.81.89,5.45,1.9,6,3.71,12.32,6.75,19.32,8a32.72,32.72,0,0,0,19.54-2c3.2-1.46,6.13-3.45,9.3-5a19.53,19.53,0,0,1,10-2.07c6.57.47,12.56,3.65,18.93,5.05a21.21,21.21,0,0,0,8.65.32,19.71,19.71,0,0,0,7.84-3.88c4.79-3.59,9.57-8.18,16-6,3,1,5.59,3,8.22,4.75a22,22,0,0,0,8.28,3.6,19.87,19.87,0,0,0,15.81-4.12,16.61,16.61,0,0,0,2.81-3c.47-.65-.62-1.28-1.08-.63-3.5,4.86-9.79,7.22-15.65,6.78a18.79,18.79,0,0,1-8.75-3.16c-2.59-1.63-5-3.55-7.84-4.8a12.42,12.42,0,0,0-8-.92,19.48,19.48,0,0,0-7.09,3.82,49.26,49.26,0,0,1-7.14,5.05,15.7,15.7,0,0,1-8.92,1.51c-6.33-.67-12.12-3.72-18.3-5a22.32,22.32,0,0,0-9-.24,31.09,31.09,0,0,0-9,3.83,44.4,44.4,0,0,1-9.38,4.42A30.41,30.41,0,0,1,968.36,335a46.7,46.7,0,0,1-20.23-6.32c-2.74-1.55-5.48-4-8.75-4.19s-5.73,2.1-8.26,3.84a21.05,21.05,0,0,1-18.73,2.16,18.94,18.94,0,0,1-4.29-2.21v1.08L929.63,319c3.36-1.61,6.9-3.42,10.7-2.3,3.21.93,5.9,3.15,9,4.44a32.51,32.51,0,0,0,17.82,2,31.26,31.26,0,0,0,8.68-2.75,69.42,69.42,0,0,0,7.81-5c2.57-1.71,5.42-3.38,8.59-3.46,3.37-.08,6.17,1.77,8.83,3.61a28,28,0,0,0,7.62,4,23.79,23.79,0,0,0,8.26,1,22.9,22.9,0,0,0,14.77-6.14c2-2,3.86-4.4,6.4-5.8,3.06-1.68,5.94-.54,8.55,1.37,2.45,1.79,4.66,3.54,7.66,4.27a17.87,17.87,0,0,0,8,0c5.08-1.12,9.82-4.39,11.68-9.38.24-.63-.62-1-1-.6-4.08,3.58-10.29,4.24-15.25,2.25-2.83-1.13-4.54-3.19-6.56-5.34a9.89,9.89,0,0,0-7.13-3.27c-6.23-.17-11.15,3.86-16.21,6.85a18.12,18.12,0,0,1-8.72,3,17.52,17.52,0,0,1-8-2.16c-4.69-2.32-9.16-5.66-14.55-6-4.89-.31-9.3,2.13-13.25,4.73s-8,5.85-12.8,6.92c-5.75,1.29-10.72-1.68-15.43-4.58a37.46,37.46,0,0,0-8.23-4.17,19,19,0,0,0-9.43-.41c-7,1.41-13,6-18.44,10.33-.63.51.26,1.39.88.89Z"/><path class="cls-4" d="M125.36,296.16c-3.74-1.62-7.78-1.06-11.64-.19s-8.31,2.46-12.44,1.66c-2.26-.44-3.69-1.84-5.53-3.08-1.49-1-3.43-1.34-4.62.3-.88,1.21-.82,4.19-2.47,4.62-1.41.37-2.6-1.75-3.34-2.64-1-1.24-2.36-2.56-4.13-2.32-1.33.19-2.29,1.14-3.36,1.85-.8.52-2.78,1.11-3-.33-.07-.52-.73-.53-1-.27a39.34,39.34,0,0,1-11.56,6.11,83.65,83.65,0,0,1-11.38,3.31c-3.57.71-7.31.55-9.21-3-1.24-2.29-2-5.33-5-5.73a.64.64,0,0,0-.61.46,142.52,142.52,0,0,0-2.94,20.14l.79-.61c-6.95-2.36-15.35-4.81-22.08-.52-.67.43-.05,1.51.64,1.08,6.42-4.1,14.48-1.6,21.11.65a.64.64,0,0,0,.79-.6,139.33,139.33,0,0,1,2.9-19.81l-.6.46c1.71.23,2.46,2.08,3.11,3.45a11.77,11.77,0,0,0,2.34,3.77c2.52,2.36,6.33,2.05,9.45,1.39a86.75,86.75,0,0,0,12.22-3.67,39.71,39.71,0,0,0,10.92-6l-1-.28c.24,1.69,2.21,2.06,3.61,1.66,2-.57,3.64-3.42,5.88-1.66,1.8,1.41,3.84,6.05,6.75,3.88,1.48-1.11,1.24-3.13,2.19-4.55,1.56-2.34,4.87,1.57,6.5,2.35,3.57,1.72,7.69,1,11.39.11,4.71-1.09,10.06-2.95,14.77-.91.73.31,1.37-.77.63-1.08Z"/><path class="cls-4" d="M817.28,316.71a128.2,128.2,0,0,0-27.36-14.78,126.63,126.63,0,0,0-14.74-4.77c-2.54-.65-5.1-1.23-7.67-1.72a7.81,7.81,0,0,0-3.26-.16,12.6,12.6,0,0,0-3,1.51c-5.24,2.85-11-2.16-14.55-5.62a.63.63,0,0,0-1.05.61c.87,3.05-2.07,5.43-4.7,6.23-3.16,1-6.63,0-9.84-.17a16.37,16.37,0,0,0-4.68.47c-1.94.46-3.8,1-5.7.06-2.34-1.17-4.1-2.83-6.9-2.48-2.57.31-4.82,1.84-7.05,3a15.92,15.92,0,0,1-3.66,1.53,14.5,14.5,0,0,1-5.94-.08,202,202,0,0,0-21.37-2.59,170.94,170.94,0,0,0-24.79.35c-.8.07-.8,1.32,0,1.25a171.39,171.39,0,0,1,23.33-.43q5.83.29,11.63,1c4,.47,7.87,1.22,11.81,1.8a14.23,14.23,0,0,0,9-1.39c2.41-1.24,4.89-3.17,7.71-3.27,3.12-.11,5.11,2.93,8.19,3.09,1.7.1,3.32-.54,5-.86a19.31,19.31,0,0,1,5.78,0c3.52.36,7.1.85,10.26-1.14,2.29-1.44,4-3.91,3.18-6.68l-1,.61c3.12,3.05,7,6.39,11.55,6.77,2.23.19,4-.65,5.82-1.74,2.4-1.41,5.7-.13,8.24.45a126.61,126.61,0,0,1,29.92,10.94,127.92,127.92,0,0,1,15.28,9.31c.66.47,1.28-.62.63-1.08Z"/><path class="cls-4" d="M999.34,78.68c-4.56,3.54-8.93,7.67-11.13,13.12a22.43,22.43,0,0,0,0,16c4,10.78,14.59,17,25.56,18.57,10.66,1.46,22.52-1.72,27.7-11.92,4.38-8.62,3.46-19.75-1.91-27.73-6.79-10.11-19-15.15-30.92-15.45a.63.63,0,0,0,0,1.25c10.09.25,20.41,4,27.29,11.57a27.35,27.35,0,0,1,5.89,26.18c-6.9,22.2-41.09,18.26-50.87.55A22.42,22.42,0,0,1,988.77,94c1.78-6.09,6.59-10.62,11.45-14.4.64-.49-.26-1.37-.88-.88Z"/><path class="cls-4" d="M930.93,103.27l15.83-.51c.8,0,.8-1.28,0-1.25l-15.83.51c-.8,0-.81,1.28,0,1.25Z"/><path class="cls-4" d="M908.35,57.77a374.52,374.52,0,0,0,52.3,15.17c.79.17,1.12-1,.33-1.2a377.25,377.25,0,0,1-52.3-15.17c-.76-.28-1.08.93-.33,1.2Z"/><path class="cls-4" d="M951.81,36.44l9,4.63c.72.36,1.35-.71.63-1.08l-9-4.63c-.71-.36-1.34.71-.63,1.08Z"/><path class="cls-4" d="M992,191.78l8.13-13.59a.63.63,0,0,0-1.08-.63L991,191.15a.63.63,0,0,0,1.08.63Z"/><path class="cls-4" d="M941.43,186.27a376.66,376.66,0,0,0,41.17-35.89.63.63,0,0,0-.88-.89,375.28,375.28,0,0,1-40.92,35.7c-.63.48,0,1.57.63,1.08Z"/><path class="cls-4" d="M947.12,138.08l8.78-5.1a.63.63,0,0,0-.63-1.08l-8.78,5.1a.63.63,0,0,0,.63,1.08Z"/></svg>