<svg xmlns="http://www.w3.org/2000/svg" width="350" height="350" viewBox="0 0 350 350">
  <g id="Group_66" data-name="Group 66" transform="translate(-3767 525)">
    <rect id="Rectangle_5" data-name="Rectangle 5" width="350" height="350" transform="translate(3767 -525)" fill="none"/>
    <g id="Group_17" data-name="Group 17" transform="translate(-450.348 -1910.871) rotate(30)">
      <ellipse id="Ellipse_12" data-name="Ellipse 12" cx="31.93" cy="31.84" rx="31.93" ry="31.84" transform="translate(4553.734 -819.294) rotate(-64.64)" fill="#f9e76f"/>
      <path id="Path_21" data-name="Path 21" d="M180.84,93.86A117.181,117.181,0,0,1,164,118.76h.88a241.932,241.932,0,0,0-23.6-19.06c-1.76-1.24-3.58-2.77-5.78-3.08s-4.32.78-6.36,1.52a26.49,26.49,0,0,1-12.33,1.25A31.68,31.68,0,0,1,95.24,86.15a42.35,42.35,0,0,1-7.31-25c.26-16.72,9.95-33.9,25.79-40.42,15-6.16,35.29-2.43,43.7,12.48a20.27,20.27,0,0,1,2.76,12.32c-.57,4.55-3.54,8.24-4.61,12.63s1,8,3.89,11.22q5.13,5.85,10.72,11.25,2.7,2.63,5.51,5.14c.59.54,1.48-.35.88-.89q-6-5.35-11.46-11.16c-1.81-1.92-3.61-3.85-5.32-5.85s-3.26-4.17-3.32-6.85c-.11-4.72,3.35-8.7,4.52-13.12a19.56,19.56,0,0,0-1-12.24c-6.43-15.92-25.91-21.8-41.52-17.81-16.62,4.25-28.26,19.46-31.08,36-2.88,16.89,3.61,36.5,20,44.05a31.58,31.58,0,0,0,12,2.95,28,28,0,0,0,6.13-.43,40.419,40.419,0,0,0,6.36-2,7,7,0,0,1,3.81-.52,10,10,0,0,1,3.48,1.8c2.16,1.5,4.29,3.05,6.39,4.62q6.45,4.83,12.54,10.07,3,2.56,5.9,5.24a.63.63,0,0,0,.88,0,118.15,118.15,0,0,0,17.08-25.15c.36-.71-.72-1.35-1.08-.63Z" transform="translate(4473.842 -891.91)" fill="#231f20"/>
      <path id="Path_22" data-name="Path 22" d="M124,84.74a32.52,32.52,0,0,1-9.69.73c-3-.22-6.42-.73-9-2.26-5.25-3.07-3.38-10.3-.56-14.43s8-6.93,13.09-5a9.08,9.08,0,0,1,5.08,4.56c.51,1.12,1.25,3.37-.77,3a7.58,7.58,0,0,1-2.79-1.26,11.36,11.36,0,0,1-4.48-10.49,8.77,8.77,0,0,1,8-7.75c3.89-.39,8.23,1.26,10.4,4.63,1,1.6,2.15,4.87-.82,4.81-2.48,0-4.13-1.95-5.16-4a14.38,14.38,0,0,1-1.3-8.2c.36-2.9,1.41-6.32,3.4-8.54,2.83-3.16,6.62.46,8.41,2.91a19.55,19.55,0,0,1,3.63,9.08c.1.79,1.35.8,1.25,0a20.81,20.81,0,0,0-3.8-9.71c-1.68-2.3-4.28-5.07-7.42-4.75s-4.78,4.07-5.71,6.69a18.47,18.47,0,0,0-.91,9.23c.45,2.68,1.73,5.84,4.08,7.41,1.58,1.06,4.35,1.79,5.88.26,1.8-1.8.16-5-1.1-6.59a12,12,0,0,0-6-4c-4.65-1.42-10.19-.16-12.8,4.21-2.51,4.21-1.63,9.92,1.35,13.64a9.61,9.61,0,0,0,5.94,3.68c3.45.42,2.45-3.61,1.4-5.47-2.88-5.14-9.7-6.56-14.72-3.9-5.24,2.78-9.11,9.59-8.11,15.56.56,3.36,3,5.44,6.11,6.5a31,31,0,0,0,11.52,1.46,35.15,35.15,0,0,0,5.87-.82c.79-.18.45-1.38-.33-1.21Z" transform="translate(4473.842 -891.91)" fill="#231f20"/>
    </g>
    <path id="Path_119" data-name="Path 119" d="M273.48,88.31l11.29,11.1a.63.63,0,0,0,.89-.88l-11.3-11.1c-.57-.57-1.46.32-.88.88Z" transform="translate(3546.434 -327.458) rotate(-20)" fill="#231f20"/>
    <path id="Path_120" data-name="Path 120" d="M290.83,40.58a377.1,377.1,0,0,0,25.11,48.33.63.63,0,0,0,1.08-.63A377.105,377.105,0,0,1,291.91,40c-.32-.74-1.39-.1-1.08.63Z" transform="translate(3545.817 -349.868) rotate(-20)" fill="#231f20"/>
    <path id="Path_121" data-name="Path 121" d="M336.26,57.33l2.89,9.73a.622.622,0,1,0,1.2-.33L337.46,57a.622.622,0,0,0-1.2.33Z" transform="translate(3559.706 -353.252) rotate(-20)" fill="#231f20"/>
    <path id="Path_122" data-name="Path 122" d="M383.63,31.84l1,31.35a.63.63,0,0,0,1.25,0l-1-31.35c0-.8-1.28-.8-1.25,0Z" transform="translate(3558.52 -484.7)" fill="#231f20"/>
    <path id="Path_123" data-name="Path 123" d="M428.52,57.75,424.1,68.22a.62.62,0,0,0,.44.77.64.64,0,0,0,.76-.44l4.43-10.47a.63.63,0,0,0-.44-.77.65.65,0,0,0-.77.44Z" transform="translate(3563.52 -476.7)" fill="#231f20"/>
    <path id="Path_124" data-name="Path 124" d="M496.36,55q-16.25,13.09-31.17,27.7c-.58.57.31,1.45.88.89Q481,69,497.24,55.87c.63-.51-.26-1.39-.88-.89Z" transform="matrix(0.985, 0.174, -0.174, 0.985, 3576.864, -554.212)" fill="#231f20"/>
    <path id="Path_125" data-name="Path 125" d="M479.52,103.19l11.25-6.63a.63.63,0,0,0-.63-1.08l-11.25,6.63a.63.63,0,0,0,.63,1.08Z" transform="translate(3626.733 -620.531) rotate(20)" fill="#231f20"/>
  </g>
</svg>
