<svg xmlns="http://www.w3.org/2000/svg" width="700" height="700" viewBox="0 0 700 700">
  <g id="Group_48" data-name="Group 48" transform="translate(-3565 -738)">
    <rect id="Rectangle_9" data-name="Rectangle 9" width="700" height="700" transform="translate(3565 738)" fill="none"/>
    <g id="linkedin" transform="translate(3604 782.668)">
      <path id="Path_462" data-name="Path 462" d="M77.613-.668C30.684-.668,0,30.148,0,70.652c0,39.609,29.77,71.3,75.813,71.3H76.7c47.848,0,77.625-31.7,77.625-71.3-.895-40.5-29.777-71.32-76.715-71.32Zm0,0" fill="none" stroke="#231f20" stroke-width="10"/>
      <path id="Path_463" data-name="Path 463" d="M8.109,198.313H145.3V611.07H8.109Zm0,0" fill="none" stroke="#231f20" stroke-width="10"/>
      <path id="Path_464" data-name="Path 464" d="M482.055,188.625c-74.012,0-123.641,69.547-123.641,69.547V198.313h-137.2V611.07H358.406V380.57c0-12.34.895-24.66,4.52-33.484,9.918-24.641,32.488-50.168,70.391-50.168,49.645,0,69.5,37.852,69.5,93.34V611.07H640V374.4C640,247.621,572.313,188.625,482.055,188.625Zm0,0" fill="none" stroke="#231f20" stroke-width="10"/>
    </g>
  </g>
</svg>
