<svg id="Layer_1" data-name="Layer 1" xmlns="http://www.w3.org/2000/svg" viewBox="0 0 130.21 108.77"><defs><style>.cls-1{fill:#231f20;}</style></defs><path class="cls-1" d="M71.2,101.12l-.28-14.76-.15-7.62a52.61,52.61,0,0,1-.06-7.32c.27-2.27,2.32-3.49,3.86-4.93a37.59,37.59,0,0,0,4.19-4.63c1.19-1.54,4.62-6,1.59-7.62-1.71-.9-3.89.88-5.2,1.8A26.6,26.6,0,0,0,70,60.76l1.07.44c-.33-2.89-.53-5.83-1-8.7-.26-1.64-1.19-3.61-3.18-3.31s-2.89,2.46-3.16,4.1a16.8,16.8,0,0,0,.91,8.48l1.14-.48a11.21,11.21,0,0,0-6.42-5.38c-2-.65-5-.55-6.25,1.45-1.57,2.44.6,5,2.5,6.43a49.12,49.12,0,0,0,9.84,5.67V68.38C60.17,71,54.26,72,48.39,72.12c-5.44.15-11.07-.05-16.31-1.68-5-1.55-9.48-4.61-11.95-9.35a12.31,12.31,0,0,1,1.16-13.78c4.18-5,11.07-6,17.11-4.42a.63.63,0,0,0,.7-.92,17.92,17.92,0,0,1-1-16.13,22.47,22.47,0,0,1,12-11.79c9.54-4.27,23.19-4,30.66,4.2C85.52,23.51,86,31,85.64,37.79a.63.63,0,0,0,.94.54c7.38-4.13,16.13-.41,20.55,6.2,2.19,3.28,3.66,7.42,2.87,11.39s-3.89,6.45-7.34,8a40.13,40.13,0,0,1-14.28,3.22c-.8,0-.81,1.29,0,1.25a43.09,43.09,0,0,0,14.13-3c3.66-1.54,7.11-4,8.39-8,2.64-8.08-3.71-17.46-11-20.66a15.73,15.73,0,0,0-14,.5l.94.54c.36-6.46-.07-13.52-4-18.92C79.43,14.25,74,11.6,68.46,10.61c-11.39-2-25.39,2.28-30.82,13.2-2.91,5.88-3.16,13.13.38,18.79l.71-.92c-5.65-1.49-11.9-.87-16.51,3a13.31,13.31,0,0,0-4.53,13.56A18.76,18.76,0,0,0,27.54,70c5.39,2.74,11.56,3.36,17.51,3.43,7.2.09,14.54-.66,21-3.93a.62.62,0,0,0,0-1.08A53.26,53.26,0,0,1,59,64.61c-1.81-1.15-5.64-3.19-5.13-5.83.46-2.4,3.78-2.17,5.5-1.55a10,10,0,0,1,5.32,4.69c.33.61,1.39.2,1.14-.48a16.55,16.55,0,0,1-1-6.15c0-1.46.31-4.4,2.15-4.84C69,50,69,53.88,69.12,55l.69,6.16c0,.48.68.9,1.06.44a26.67,26.67,0,0,1,4.13-4c.88-.67,4.8-3.7,5.2-1.63.31,1.62-1.08,3.25-2,4.44a37.82,37.82,0,0,1-4,4.53,39.87,39.87,0,0,0-3.72,3.51,6.71,6.71,0,0,0-1.17,4.55c.06,4.35.17,8.69.25,13l.29,15a.63.63,0,0,0,1.25,0Z"/><path class="cls-1" d="M93.33,61.59a54.33,54.33,0,0,0-6.8,6,.62.62,0,0,0,0,.88,32.71,32.71,0,0,0,9.24,5.93c.73.31,1.37-.77.63-1.08a31.77,31.77,0,0,1-9-5.73v.88A52.82,52.82,0,0,1,94,62.67c.64-.48,0-1.56-.63-1.08Z"/></svg>