<svg id="Layer_1" data-name="Layer 1" xmlns="http://www.w3.org/2000/svg" viewBox="0 0 230 230"><defs><style>.cls-1{fill:#231f20;}</style></defs><path class="cls-1" d="M125.78,184.71l-.38-21c-.13-6.92-.52-13.89-.37-20.81a5.83,5.83,0,0,1,1.1-3.64,24.65,24.65,0,0,1,2.92-2.86,56.16,56.16,0,0,0,6.07-6.73c1.64-2.14,3.51-4.47,4.31-7.09.64-2.08.65-4.82-1.34-6.18-2.81-1.93-6.19.72-8.44,2.38a38.16,38.16,0,0,0-7.27,7l3.2,1.33c-.43-4.11-.78-8.23-1.3-12.33-.4-3-2.21-6.89-6-5.88-3.07.81-4.48,4.43-4.83,7.26a26.88,26.88,0,0,0,1.34,12l3.43-1.45c-2.66-5.24-9.16-10.3-15.36-8.4a6.15,6.15,0,0,0-4.47,7c.62,3.54,3.85,5.91,6.58,7.87a71,71,0,0,0,11.4,6.65v-3.23c-6.93,3.7-14.78,5-22.57,5.25s-15.59-.06-22.88-2.59a25.79,25.79,0,0,1-15.22-13.14c-2.86-6-2.57-13.16,1.63-18.48,5.35-6.76,14.32-8.32,22.31-6.06a1.89,1.89,0,0,0,2.12-2.75c-4-6.64-4-14.87-1.46-22,2.69-7.49,8.54-13.26,15.6-16.72,13-6.36,31.81-5.72,41.52,6.15,6.09,7.46,6.51,17.87,6,27a1.89,1.89,0,0,0,2.83,1.62,17.71,17.71,0,0,1,15.18-1.2,23.76,23.76,0,0,1,11.47,9.78c2.84,4.47,4.82,10.1,3.89,15.45s-4.77,8.9-9.46,11.2a50.66,50.66,0,0,1-19.15,4.58c-2.39.14-2.41,3.89,0,3.75a57.32,57.32,0,0,0,20-4.61c5.4-2.41,10.17-6.47,11.84-12.33,1.76-6.18.06-12.94-3-18.42A28.57,28.57,0,0,0,164.56,91a21.62,21.62,0,0,0-20.17.71l2.82,1.61c.5-9.17-.05-19.17-5.2-27.1-4.54-7-12.1-11.31-20.15-12.95-16.61-3.38-36.58,3.57-44,19.69-4,8.74-4.37,19.38.65,27.8L80.67,98c-8.16-2.3-17.19-1.15-23.66,4.61a20.76,20.76,0,0,0-6.27,20.65,27.74,27.74,0,0,0,13.93,17.37c7.59,4,16.34,5,24.8,5.06,9.89.09,20-1.09,28.83-5.82a1.88,1.88,0,0,0,0-3.23,71.71,71.71,0,0,1-10.12-5.76c-2-1.39-7-4.27-6-7.39.79-2.45,4.5-1.86,6.26-1.14a12.93,12.93,0,0,1,6.59,6.3c.95,1.87,4.13.57,3.42-1.45a24,24,0,0,1-1.37-9,10.9,10.9,0,0,1,.59-3.59c.24-.6.78-1.88,1.5-2.07,1.52-.4,1.58,4,1.66,4.85l1,9.7c.15,1.4,2.08,2.74,3.2,1.32a37.33,37.33,0,0,1,5.57-5.67c.62-.49,4.78-3.84,5.38-3.24.35.36,0,1.53-.12,1.93a10.9,10.9,0,0,1-1.54,2.92,49.61,49.61,0,0,1-5.14,6.59c-1.76,1.92-3.9,3.53-5.58,5.52-1.95,2.3-2.36,4.83-2.31,7.77.1,6.33.23,12.66.35,19l.39,21.48c0,2.41,3.8,2.42,3.75,0Z"/><path class="cls-1" d="M158.78,180.44A133.79,133.79,0,0,0,143,195.92a1.92,1.92,0,0,0,0,2.65,77.47,77.47,0,0,0,22,15.64c2.17,1,4.08-2.21,1.9-3.24a74.45,74.45,0,0,1-21.24-15.05v2.65a133.12,133.12,0,0,1,15.84-15.48c1.86-1.53-.81-4.17-2.66-2.65Z"/><path class="cls-1" d="M122,184.71c.25,4.92-.5,10.44-3.89,14.27s-9.32,6.05-14.32,7.18c-5.53,1.25-11.49,1-17.13,1A81.52,81.52,0,0,1,73,206a62.88,62.88,0,0,1-23.11-9.53c-9.13-6.06-16.65-14.72-22.37-24a73.75,73.75,0,0,1-7.1-14.83A78.11,78.11,0,0,1,17.24,143a127.54,127.54,0,0,1-.2-30.81c2.25-20.25,9-40.59,21-57.17A70.74,70.74,0,0,1,58.27,36a91,91,0,0,1,26.54-10.6c19.16-4.57,39.61-4.57,58.93-.93a99.87,99.87,0,0,1,13.11,3.21,101.41,101.41,0,0,1,13.79,6c8.91,4.54,17.31,9.82,24.29,17a96,96,0,0,1,17.81,26.57,95.21,95.21,0,0,1,8.51,30.8,88.48,88.48,0,0,1-18.66,62.53c-6.66,8.45-14.7,16-24.51,20.64A51.6,51.6,0,0,1,156.77,196c-2.94.05-5.87-.09-8.8-.32-2.41-.18-2.4,3.57,0,3.75a71,71,0,0,0,20.42-1A57.85,57.85,0,0,0,193.05,186a91.79,91.79,0,0,0,31.83-61.13c2.21-22.8-4.65-45.88-17.52-64.7a82,82,0,0,0-22-22.31,129.25,129.25,0,0,0-13.86-7.94A100.59,100.59,0,0,0,157,23.76a130.11,130.11,0,0,0-28.86-5.13,149.7,149.7,0,0,0-31.17.75C77.44,22,57.47,28.7,43.38,43,28.58,58,19.69,78.34,15.43,98.76a137.29,137.29,0,0,0-2.9,32.35c.33,10.46,1.66,21.31,5.6,31.07a86.82,86.82,0,0,0,19.52,29,70.22,70.22,0,0,0,25,15.84c8.82,3.26,18.25,3.93,27.58,3.85,6,0,12-.13,17.74-2,5.31-1.68,10.93-4.33,14.19-9,3-4.37,3.89-10,3.63-15.19-.12-2.4-3.87-2.42-3.75,0Z"/></svg>