<svg xmlns="http://www.w3.org/2000/svg" width="261" height="225" viewBox="0 0 261 225">
  <g id="Group_72" data-name="Group 72" transform="translate(-7404 6611)">
    <rect id="Rectangle_19" data-name="Rectangle 19" width="261" height="225" transform="translate(7404 -6611)" fill="none"/>
    <path id="Path_561" data-name="Path 561" d="M62.39,43.64q47.06-.82,94.11-.3l5.47.07h2.85c.63,0,1,0,1.16.66a9.73,9.73,0,0,1,0,2v9l-.17,23.61-.08,11.68v5.47c0,1.76.26,3.86-.89,5.35a21.33,21.33,0,0,1-3.49,3.08q-2.15,1.76-4.24,3.54c-2.82,2.38-5.59,4.8-8.34,7.25a408,408,0,0,0-34.32,34.64H117c-18.7-15-37.46-30.09-54.34-47.19q-7.2-7.29-13.85-15.07a1.9,1.9,0,0,0-3.14.83,34.91,34.91,0,0,0-1.32,9.87c-.06,3.41-.07,6.83-.11,10.24l-.21,21.32c-.14,14.09-.43,28.19-.37,42.28a221.335,221.335,0,0,0,1.17,23.74,1.93,1.93,0,0,0,1.88,1.88l97.89.21,24.48.05h12.48c1.52,0,3.11.05,4.1-1.31,1.13-1.56.45-3.82.21-5.56-.53-3.92-1.2-7.82-1.63-11.75a81.09,81.09,0,0,1-.37-12c.33-8.07,1.19-16.1,1.36-24.19.38-18.21-1-36.39-2.42-54.54-.11-1.41-2.11-2.73-3.2-1.32a70.551,70.551,0,0,1-8.11,8.29c-2.85,2.62-5.77,5.2-8.83,7.57a1.88,1.88,0,0,0,0,2.65,1.91,1.91,0,0,0,2.65,0c3.06-2.37,6-5,8.83-7.57a70.55,70.55,0,0,0,8.11-8.29l-3.2-1.33c1.22,15.84,2.45,31.7,2.48,47.6,0,7.94-.36,15.84-.95,23.75-.3,3.93-.58,7.87-.55,11.81a90.61,90.61,0,0,0,1,11.64c.24,1.77.51,3.52.77,5.28.14,1,.28,1.92.41,2.88a30.621,30.621,0,0,0,.34,3.13l.48-.54a1.681,1.681,0,0,1-.45,0,5.78,5.78,0,0,0-1.5,0H172.1l-24-.05-47.45-.1-53.94-.11,1.87,1.87c-1.55-13.85-1.19-27.81-1-41.72L48,111.85l.12-11.9a34.731,34.731,0,0,1,1.21-10.69l-3.13.83c15.56,18.3,33.68,34.17,52.23,49.36q7.93,6.5,16,12.9a1.91,1.91,0,0,0,2.65,0,408.059,408.059,0,0,1,31.59-32.17c5.55-5.05,11.27-9.88,17-14.68a10,10,0,0,0,3.11-3.82,15.76,15.76,0,0,0,.64-5.84l.08-11.93.17-24.36.09-12.42a14.211,14.211,0,0,0-.29-4.51,4.34,4.34,0,0,0-3.92-2.87c-1.83-.2-3.72-.09-5.56-.12l-6.22-.07q-6.1-.06-12.2-.1-12.19-.09-24.4-.08-27.39,0-54.77.51c-2.41,0-2.42,3.79,0,3.75Z" transform="translate(7419.348 -6612.29)" fill="#231f20"/>
    <path id="Path_562" data-name="Path 562" d="M60.14,42.94c.26,3.74.43,7.5.8,11.23a4.8,4.8,0,0,0,1.78,3.74c1.41.94,3.29.8,4.92.87,7.6.32,15.21.45,22.83.49,15.06.07,30.12-.25,45.19-.25q6.45,0,12.91.1a34.609,34.609,0,0,1,5.19.21c1,.17,2.22.44,2.5,1.49l.48-1.82a4.88,4.88,0,0,1-3.15,1.49c-1.6.27-3.25.38-4.86.56q-5.17.54-10.36,1-10.49.94-21,1.53Q96.22,64.76,75,64.5C69.77,64.43,61.56,63,58.91,69a5.51,5.51,0,0,0,2.26,7c2.33,1.42,5.3,1.45,7.94,1.67,14,1.17,28.05,1.27,42.08,1.19,7.94,0,15.88-.16,23.82-.17,4,0,7.93,0,11.9.09,1.87,0,3.76,0,5.63.13a3.84,3.84,0,0,1,3.13,1.24l.38-3c-4.15,2.54-8.93,3.49-13.73,3.86-5.35.42-10.74.37-16.11.48l-34.77.73-17.39.36a80.829,80.829,0,0,0-8.24.28,8.12,8.12,0,0,0-6.15,3.31,5.27,5.27,0,0,0,.09,6.2c1.4,1.74,3.67,2.21,5.78,2.37,5.63.44,11.33.38,17,.4,11.52,0,23-.23,34.55-.19q8.625,0,17.25.4,4.3.19,8.6.54c1.39.11,2.79.23,4.18.36.94.1,2.41,0,3.2.67s.12.81-.49,1.15a14.3,14.3,0,0,1-3.63,1.35,35.941,35.941,0,0,1-7.25.8c-5.8.23-11.6.26-17.41.23-11.61-.08-23.22-.46-34.83-.34q-4.23,0-8.45.19c-2.56.1-5.52-.07-7.77,1.34a5.13,5.13,0,0,0-2.38,5.41c.43,1.64,1.48,1.9,3,2l4.43.41q17.19,1.63,34.25,4.36c2.76.44,5.51.91,8.27,1.39l-.83-3.14c-3.32,2.83-7.79,3.47-11.94,4.17a11.21,11.21,0,0,0-6,2.51,6.26,6.26,0,0,0-2,5.81,1.88,1.88,0,0,0,1.81,1.37l13.22.64c1,0,9.65,0,9.62,1l1.87-1.88a11.17,11.17,0,0,0-8.7,16.67c1.14,2.13,4.38.24,3.24-1.89a7.54,7.54,0,0,1,5.46-11,1.94,1.94,0,0,0,1.88-1.87c.16-5-7.19-4.42-10.38-4.57l-16.21-.78,1.8,1.38c-.31-1.69,1.71-2.8,3-3.2,1.83-.55,3.76-.7,5.63-1.07a22.26,22.26,0,0,0,10.29-4.56,1.89,1.89,0,0,0-.82-3.14q-24.32-4.26-48.93-6.37l1.62.93c-.72-1.44,2.47-1.93,3.18-2,2.34-.17,4.69-.2,7-.26,4.9-.12,9.79-.12,14.68-.08,9.79.08,19.57.37,29.36.35,4.73,0,9.47-.06,14.2-.29,4.07-.21,8.48-.67,12-2.91a4.05,4.05,0,0,0,2-4.77,5.45,5.45,0,0,0-4.5-3.43,115.681,115.681,0,0,0-14.17-1.15c-19.31-1-38.65-.05-58-.31q-3.69,0-7.4-.17a28.241,28.241,0,0,1-6-.41c-1.44-.36-2.23-1.34-1.23-2.7,1.14-1.57,3.52-1.57,5.26-1.62,9.74-.27,19.49-.41,29.24-.61l29.06-.6c4.58-.1,9.18-.11,13.75-.34a46.11,46.11,0,0,0,12.24-2,26.31,26.31,0,0,0,5.49-2.54,1.9,1.9,0,0,0,.38-2.94,7,7,0,0,0-5.09-2.29c-2.5-.24-5.06-.16-7.56-.2q-8.055-.12-16.12,0c-10.58.06-21.16.24-31.74.15-5.37,0-10.74-.17-16.1-.4S71.16,74.42,66,73.71c-1.22-.16-3.39-.49-3.79-1.92-.48-1.73,1.58-3,2.95-3.36,2.29-.59,4.84-.26,7.17-.22q4,.06,7.93.08a620.9,620.9,0,0,0,63.81-3q4.08-.41,8.13-.86c2-.23,4.11-.43,5.84-1.55.85-.55,1.93-1.44,1.93-2.55a4.27,4.27,0,0,0-1.17-2.59,7.61,7.61,0,0,0-4.65-2.11,57.178,57.178,0,0,0-7.29-.27q-4-.06-7.94-.07H122.77c-10.67.09-21.35.23-32,.19q-8.05,0-16.13-.25c-2.64-.07-5.29-.17-7.93-.29-.69,0-1.61.2-1.89-.46a5,5,0,0,1-.15-1.44l-.16-2.22-.56-7.92c-.17-2.39-3.93-2.41-3.75,0Z" transform="translate(7419.348 -6612.29)" fill="#231f20"/>
    <path id="Path_563" data-name="Path 563" d="M115.44,143c15.82,13.82,30.86,28.5,46.34,42.69,4.29,3.93,8.61,7.83,13,11.65l1.33-3.2c-15.3.71-30.62.86-45.94.81-15.67-.05-31.33-.32-47-.53-8.53-.12-17.06-.23-25.6-.26L59.18,197c1.82-3.38,5.26-5.89,8.18-8.26,3.33-2.71,6.57-5.5,9.64-8.51a197,197,0,0,0,19.84-23.05q5.05-6.78,9.71-13.85c1.33-2-1.91-3.9-3.24-1.89-10.72,16.21-22.86,31.91-38,44.19-3.36,2.72-7.23,5.59-9.32,9.48a1.9,1.9,0,0,0,1.62,2.82c15.33.06,30.65.34,46,.55,15.66.21,31.33.36,47,.15,8.53-.11,17.06-.33,25.58-.72,1.51-.07,2.62-2.07,1.32-3.2-15.82-13.82-30.86-28.49-46.34-42.69q-6.42-5.89-13-11.65c-1.81-1.58-4.47,1.06-2.65,2.65Z" transform="translate(7419.348 -6612.29)" fill="#231f20"/>
  </g>
</svg>
