<svg xmlns="http://www.w3.org/2000/svg" width="400" height="400" viewBox="0 0 400 400">
  <g id="Group_64" data-name="Group 64" transform="translate(-3682 1074)">
    <rect id="Rectangle_4" data-name="Rectangle 4" width="400" height="400" transform="translate(3682 -1074)" fill="none"/>
    <circle id="Ellipse_39" data-name="Ellipse 39" cx="27.34" cy="27.34" r="27.34" transform="translate(3835.64 -827.579)" fill="#a9d767"/>
    <circle id="Ellipse_40" data-name="Ellipse 40" cx="72.79" cy="72.79" r="72.79" transform="translate(3792.59 -1011.208)" fill="rgba(135,196,242,0.3)"/>
    <path id="Path_187" data-name="Path 187" d="M831.72,237.45l27.63,13.23c.72.34,1.36-.73.63-1.08l-27.63-13.23C831.63,236.02,830.99,237.1,831.72,237.45Z" transform="translate(3057.91 -1096.789)" fill="#231f20"/>
    <path id="Path_188" data-name="Path 188" d="M841.32,218.41l25.18,10c.75.3,1.07-.91.33-1.2l-25.18-10C840.91,216.91,840.58,218.12,841.32,218.41Z" transform="translate(3057.91 -1096.789)" fill="#231f20"/>
    <path id="Path_189" data-name="Path 189" d="M845.06,251.05a95.331,95.331,0,0,0,11.45-35.32c.09-.8-1.16-.8-1.25,0A93.661,93.661,0,0,1,844,250.42a.63.63,0,0,0,1.08.63Z" transform="translate(3057.91 -1096.789)" fill="#231f20"/>
    <path id="Path_198" data-name="Path 198" d="M792.56,114.89a84.81,84.81,0,0,0-19.91,1.93,83.233,83.233,0,0,0-9.56,2.7,44.43,44.43,0,0,0-7.91,3.36c-3.95,2.31-7.41,6.55-5,11.24a13.769,13.769,0,0,0,4.92,4.82c2.76,1.79,5.72,3.29,8.61,4.84q10.5,5.67,21.33,10.7l.15-1.14L738.5,172.75l.77.77,8.14-44.86a.64.64,0,0,0-.44-.77c-4.81-1.4-9.41,1.17-13,4.13a73.555,73.555,0,0,0-10.54,10.85,84.942,84.942,0,0,0-14.3,26c-3.71,11-5,22.64-6.52,34.08l-5,36.47-4.93,36.22-.6,4.4a12.651,12.651,0,0,0-.22,3.68c.33,2.13,2,3.2,3.86,3.95a83.893,83.893,0,0,0,16.44,4.63c2.72.49,5.46.86,8.2,1.1,1.39.12,2.78.21,4.18.27,1.13,0,2.08.38,2.74-.64,2.35-3.62,4.63-8.4,1.87-12.44a4.89,4.89,0,0,0-8.47.17,4.631,4.631,0,0,0,4,7c5,.26,5.69-5.75,6.75-9.36l5.15-17.51L747,225.61l2.5-8.51h-1.2c3.06,17.66,6.29,35.32,10.7,52.7,4.35,17.13,9.85,34,17.47,50a181.748,181.748,0,0,0,15,25.86.64.64,0,0,0,1.08,0l22.12-31.5c6-8.58,13.72-17.76,14.08-28.76a19,19,0,0,0-5-14,.65.65,0,0,0-.76-.09,5.36,5.36,0,0,0-2.82,3.48c-.32,1.3,0,2.29,1.44,2.56a3.51,3.51,0,0,0,3.16-1.24,4.82,4.82,0,0,0,.59-4.35,51.322,51.322,0,0,0-2.52-6.43l-2.75-6.73-5.51-13.45a.64.64,0,0,0-.77-.44,6.93,6.93,0,0,0-4.87,5.81,2.77,2.77,0,0,0,.77,2.67,2.93,2.93,0,0,0,2.87.18c2.8-1.2,2-4.65,1.11-6.88-1.53-4.09-3.11-8.16-4.67-12.24-.93-2.44-2-5.52-4.75-6.48a4.08,4.08,0,0,0-5.11,2.63c-.54,2.37,2,3.55,4,2.92,2.72-.88,3.2-3.78,2.78-6.29-.38-2.26-1.13-4.48-1.73-6.68l-1.77-6.49-3.81-14a.64.64,0,0,0-.77-.44,8.7,8.7,0,0,0-5.41,4.88c-.79,1.81-1.44,4.54.78,5.52a4.67,4.67,0,0,0,5.24-1.61c1.76-2.27,1-5.51.12-8-1.22-3.54-2.56-7-3.84-10.56-1.13-3.1-2.09-6.33-3.5-9.32-1-2-2.55-4.31-4.94-4.69a4.72,4.72,0,0,0-4.75,2.58,2.86,2.86,0,0,0-.13,2.36,2.51,2.51,0,0,0,2.44,1.38,6.75,6.75,0,0,0,5.92-3.18c1.53-2.39,1.4-5.51.53-8.11-1.07-3.24-4-6.07-2.09-9.58.73-1.35,1.68-2.58,2.47-3.89q1.33-2.2,2.44-4.52a55.689,55.689,0,0,0,5.37-28.13c-.15-1.89-.72-4.09-.14-5.94s2.39-2.7,4.13-3.17a28.28,28.28,0,0,1,10.33-.62,32.28,32.28,0,0,1,18.9,8.8l.13-1c-6.64,4.94-14.49,7.92-21.15,12.82-5.51,4-10.5,9.68-11.48,16.68-.57,4.13.38,8.25,1.51,12.2,1.27,4.51,2.62,9,3.94,13.49l8,27.15,15.82,54,4,13.58,2,6.79a33.632,33.632,0,0,0,1.85,5.45c1.78,3.59,5.38,4.47,8.95,5.49q6.57,1.89,13.22,3.57A442.605,442.605,0,0,0,911.57,304c2.27.29,4.53.56,6.8.81.51.06.73-.56.54-.94-8.74-17.38-17.48-34.77-27.16-51.66-4.82-8.43-9.88-16.72-15.27-24.8-5.24-7.84-10.94-15.32-16.57-22.88-6.12-8.21-11.95-16.83-15-26.71l-1,.6c22.65,20.45,54.88,20.87,83.38,25.14a150.81,150.81,0,0,1,26.63,6.14.63.63,0,0,0,.79-.61l.87-28.51a.62.62,0,0,0-.46-.6c-5.75-1-10.36-6.88-16.61-5.45a5.14,5.14,0,0,0-4.13,4,5.21,5.21,0,0,0,1.38,4.78,3.39,3.39,0,0,0,4.53-.12,5.48,5.48,0,0,0,1.28-5.49c-.74-2.33-3-3.84-5.09-4.85-3.13-1.51-6.42-2.7-9.61-4.06q-19.85-8.46-39.05-18.35c-6.18-3.18-12.42-6.33-18.31-10a58.8,58.8,0,0,1-8.32-6.15c-2.57-2.31-4.89-4.87-7.32-7.32A50.891,50.891,0,0,0,837,115.44a48.16,48.16,0,0,0-20.37-3.51c-.81,0-.81,1.29,0,1.25a47.15,47.15,0,0,1,31.58,10.27c4.7,3.79,8.45,8.6,13,12.52a83.639,83.639,0,0,0,14.57,9.54q16.8,9.15,34.19,17.15,8.77,4.05,17.67,7.82c2.73,1.16,5.54,2.18,8.21,3.47,2.19,1.05,4.71,2.7,4.73,5.42,0,2-2.2,5-4.18,2.83a4,4,0,0,1,1-5.88c2.81-1.59,6.37-.31,9,1.09s5.32,3.25,8.44,3.8l-.46-.6-.87,28.51.79-.6c-28.94-9.93-60.82-6.59-89.25-18.43a70.51,70.51,0,0,1-20.21-12.52.63.63,0,0,0-1,.61c2.62,8.59,7.34,16.29,12.55,23.54,5.48,7.64,11.34,15,16.66,22.73,11.09,16.17,20.75,33.27,29.85,50.61,5.13,9.77,10.08,19.62,15,29.47l.54-.94a442.826,442.826,0,0,1-52.28-9q-6.42-1.51-12.79-3.22c-4-1.07-8.27-1.94-12.12-3.51-4.23-1.72-4.91-6.3-6.06-10.24l-3.83-13.07L816,212.23l-7.65-26.15L804.5,173c-1.22-4.17-2.61-8.34-3.56-12.59a20.48,20.48,0,0,1,.53-12.08,24.761,24.761,0,0,1,6.2-8.75c5.71-5.42,13.07-8.5,19.74-12.5a58.2,58.2,0,0,0,5-3.33.63.63,0,0,0,.12-1,33.54,33.54,0,0,0-28.12-9c-2.18.33-4.63.86-6.2,2.54-1.78,1.92-1.39,4.52-1.15,6.9a54.56,54.56,0,0,1-7.4,33.17c-1.29,2.15-3.38,4.35-3.48,7s1.93,5,2.79,7.44c.93,2.67,1.09,6-1,8.18a5.52,5.52,0,0,1-3.34,1.73c-1.21.13-2.64-.27-2.1-1.77a3.34,3.34,0,0,1,5.7-.82c1.86,1.82,2.61,4.63,3.48,7l3.71,10.19c.63,1.73,1.29,3.47,1.89,5.22a10.081,10.081,0,0,1,.75,5.41,3.61,3.61,0,0,1-2.59,2.74c-1.26.35-2.62,0-2.54-1.49a7.48,7.48,0,0,1,5.19-6.6l-.76-.44,4.42,16.24,2.17,8c.59,2.17,1.85,5.82-.54,7.37a2.4,2.4,0,0,1-2.51.21c-1.15-.79-.38-2.11.52-2.69,2.21-1.44,4.17.59,5.16,2.46a65.256,65.256,0,0,1,2.88,7.21c1,2.67,2.07,5.35,3.06,8,.48,1.3,1.14,3,.46,4.33-.44.87-2.14,1.65-2.73.53s.18-2.7.72-3.57a5.47,5.47,0,0,1,3.13-2.39l-.77-.44,7.87,19.22q1,2.42,2,4.81c.57,1.4,1.3,2.93,1.11,4.47-.11.95-1.64,3.06-2.84,2-.45-.4.06-1.44.33-1.91a4.12,4.12,0,0,1,1.81-1.67l-.75-.09c7.39,7.56,4.68,19.15,0,27.34a162.154,162.154,0,0,1-9.2,13.7l-10.53,15L791.4,345h1.08a198.541,198.541,0,0,1-23.75-47.15c-6-16.79-10.25-34.14-13.79-51.59-2-9.81-3.76-19.67-5.47-29.53-.11-.64-1-.56-1.2,0l-12.36,42-6,20.52c-.77,2.62-1.25,7.06-4.73,7.2-2.8.11-4.91-2.55-3.38-5.14,2-3.32,5.88-1.92,7,1.24,1.32,3.6-1,7.21-2.84,10.15l.54-.31a89,89,0,0,1-20.73-2.85,82.183,82.183,0,0,1-9.54-3.08c-1.58-.64-3-1.45-3.18-3.34a27.293,27.293,0,0,1,.62-5.68l5.85-42.94c1.94-14.22,3.78-28.45,5.83-42.66a137.59,137.59,0,0,1,4.09-20,83.06,83.06,0,0,1,19.09-33c4.39-4.66,11-11.87,18.13-9.8l-.44-.77-8.14,44.87c-.07.4.29,1,.77.76l46.7-19.41c.43-.18.69-.89.14-1.14q-8.75-4.07-17.3-8.55-4.15-2.17-8.27-4.46a35.74,35.74,0,0,1-6.67-4.25c-1.89-1.68-3.3-4-2.67-6.59.57-2.41,2.68-4.16,4.7-5.4a39.892,39.892,0,0,1,7.7-3.35,82.839,82.839,0,0,1,29.37-4.66.63.63,0,0,0,0-1.25Z" transform="translate(3057.91 -1096.789)" fill="#231f20"/>
  </g>
</svg>
