<svg xmlns="http://www.w3.org/2000/svg" width="1920" height="1080" viewBox="0 0 1920 1080">
  <g id="Group_2" data-name="Group 2" transform="translate(-39 -1332)">
    <rect id="Rectangle_1" data-name="Rectangle 1" width="1920" height="1080" transform="translate(39 1332)" fill="#fff"/>
    <g id="icons-and-graphic-02" transform="translate(470.932 1689.084)">
      <ellipse id="Ellipse_29" data-name="Ellipse 29" cx="9.38" cy="8.83" rx="9.38" ry="8.83" transform="matrix(0.017, -1, 1, 0.017, 912.298, 313.062)" fill="#f9e76f"/>
      <ellipse id="Ellipse_30" data-name="Ellipse 30" cx="13.15" cy="12.37" rx="13.15" ry="12.37" transform="translate(713.995 316.59) rotate(-88.854)" fill="#f9e76f"/>
      <circle id="Ellipse_31" data-name="Ellipse 31" cx="22.65" cy="22.65" r="22.65" transform="translate(848.48 169.81)" fill="#a9d767"/>
      <circle id="Ellipse_32" data-name="Ellipse 32" cx="44.41" cy="44.41" r="44.41" transform="translate(717.07 148.05)" fill="#b9ddd5"/>
      <circle id="Ellipse_33" data-name="Ellipse 33" cx="58.5" cy="58.5" r="58.5" transform="translate(239.63 72.52)" fill="#f9e76f"/>
      <path id="Path_128" data-name="Path 128" d="M134.2,223s-16.55-8.35-24.45,5.54,1.4,18.27,8.79,15.63S145.48,225.47,134.2,223Z" fill="#a9d767"/>
      <path id="Path_129" data-name="Path 129" d="M113.74,199.3s15.39-12.94,7.16-30.11-16.62-9.71-17.94,0S106,210.1,113.74,199.3Z" fill="#a9d767"/>
      <path id="Path_130" data-name="Path 130" d="M77.2,269.91s2.22-27.63-25.33-51.54C51.87,218.37,49.34,286.22,77.2,269.91Z" fill="#a9d767"/>
      <path id="Path_131" data-name="Path 131" d="M107,307.38S70.77,328.29,75.12,339c0,0,30.64-5,46.51-19.06S107,307.38,107,307.38Z" fill="#a9d767"/>
      <path id="Path_132" data-name="Path 132" d="M156.13,318.14c-10-2.63-18.54-9.14-28.62-11.58a27.76,27.76,0,0,0-14.53.27,39,39,0,0,0-12.45,6.76A106.76,106.76,0,0,0,87.8,325.75a.63.63,0,0,0,.13,1c7.24,3.65,15.86,2.61,22.94-.94,7.74-3.88,13.66-10.51,19.11-17.06a.63.63,0,0,0-.13-1c-10.38-5.62-21.09-11.45-29-20.38-7-7.86-11.07-18.44-9.28-29a22.77,22.77,0,0,1,7.93-14.15l-1-.13a84.22,84.22,0,0,1,15.3,55.55l.79-.61c-6.08-1.85-10.63-6.47-15.63-10.13a45.07,45.07,0,0,0-14.46-6.95,50.65,50.65,0,0,0-31.58,1.61,45.909,45.909,0,0,0-15.07,9.55.63.63,0,0,0,.28,1A50.91,50.91,0,0,0,80.2,281.62a.63.63,0,0,0-.28-1C64,273.93,59.6,255.12,57.18,239.85c-.83-5.23-1.59-10.47-2.75-15.64l-1,.6a76.78,76.78,0,0,1,16.1,50.92.625.625,0,0,0,1.25,0A78.09,78.09,0,0,0,61,234a77.888,77.888,0,0,0-6.73-10.08c-.41-.53-1.17.06-1,.61,3.79,17,3.52,36.38,16,50a29.46,29.46,0,0,0,10.31,7.29l-.27-1a49.61,49.61,0,0,1-40.86,12.17l.28,1c15.46-14.82,41.41-16.85,58.93-4.48,5.39,3.81,10.11,8.76,16.58,10.73a.64.64,0,0,0,.8-.6,86.13,86.13,0,0,0-8.65-44.78,83.788,83.788,0,0,0-6.82-11.4.64.64,0,0,0-1-.13c-8.16,6.64-10,17.94-7.8,27.77,2.57,11.42,10.76,20.14,20,26.76a175.538,175.538,0,0,0,18.41,11l-.12-1c-5.14,6.18-10.64,12.37-17.78,16.29-6.86,3.77-15.56,5.14-22.76,1.51l.12,1c6.6-7.12,13.83-14.76,23.19-18.11a26.23,26.23,0,0,1,14.55-.93c4.89,1.07,9.45,3.22,13.93,5.39,5,2.43,10,4.95,15.45,6.37a.63.63,0,0,0,.33-1.21Z" fill="#231f20"/>
      <path id="Path_133" data-name="Path 133" d="M70,275.37A71.71,71.71,0,0,1,26.66,252.8a69.64,69.64,0,0,1-8.41-11.28l-.7.92a98.491,98.491,0,0,1,21.66,10.25,98.088,98.088,0,0,1,9.93,7.17c3,2.46,5.72,5.18,8.62,7.72A30.2,30.2,0,0,0,68,273.92c.76.25,1.09-.95.33-1.21C60.94,270.27,55.83,263.77,50,259a99.78,99.78,0,0,0-19.9-12.78,100.521,100.521,0,0,0-12.24-5,.63.63,0,0,0-.71.92A73,73,0,0,0,56,273.39a70.24,70.24,0,0,0,14,3.23c.8.1.79-1.15,0-1.25Z" fill="#231f20"/>
      <path id="Path_134" data-name="Path 134" d="M182.58,164.26l16.86,58.88c.55,1.92.87,4.36,2.1,6a5.3,5.3,0,0,0,4.39,1.75c2.41,0,4.84-.23,7.25-.34s4.94-.23,7.41-.33q15.18-.6,30.39-.66,30.41-.12,60.76,1.93,15,1,30.05,2.56,7.62.79,15.23,1.71c3.89.47,7.84.91,10.36-2.69a42.47,42.47,0,0,0,3.1-6l3.34-6.94,6.57-13.65,13.24-27.53,3.23-6.72-1.14-.48q-5,26-8.77,52.29-3.79,26.07-6.48,52.29t-4.24,52.6q-.39,6.62-.71,13.24c-.08,1.86.1,4.19-1,5.8s-3.22,1.76-5,1.77c-4.31,0-8.64-.33-12.94-.48q-6.7-.24-13.42-.42-26.85-.75-53.72-.71T236,349q-13.43.42-26.85,1l-6.7.32a18.812,18.812,0,0,1-5.3-.18c-4.56-1.09-4.21-6-4.34-9.74q-1-26.94-2.12-53.88t-2.46-53.88q-1.31-26.81-2.78-53.61-.36-6.6-.74-13.21c0-.8-1.29-.8-1.25,0q1.56,27.42,2.93,54.85T189,275.52q1.2,27.44,2.23,54.88c.17,4.48.24,9,.5,13.45.19,3.18,1.18,6.18,4.45,7.28a13.61,13.61,0,0,0,4.84.49c2.14-.07,4.29-.21,6.43-.31q6.84-.31,13.67-.58,27.35-1.08,54.7-1.33t54.72.33q13.67.28,27.34.77l7,.27a54.005,54.005,0,0,0,5.83.13c3.2-.22,5.46-1.85,5.91-5.14.29-2.09.27-4.24.38-6.34s.23-4.41.35-6.62q.38-6.74.83-13.47.89-13.47,2.09-26.92,2.4-26.9,6-53.67,3.6-26.93,8.38-53.67,1.17-6.52,2.41-13c.12-.65-.82-1.16-1.15-.48l-25.73,53.5c-1,2-1.89,4.09-2.95,6.07a6.339,6.339,0,0,1-5.16,3.74,36.161,36.161,0,0,1-6.64-.56q-3.68-.45-7.37-.85-14.61-1.62-29.28-2.73-29.46-2.22-59-2.41-14.7-.09-29.41.32-7.29.21-14.57.54c-2.47.11-4.94.24-7.41.37-2.1.11-4.86.52-6-1.69a16.138,16.138,0,0,1-1-3.13l-1.09-3.83-2.3-7.22-4-14.12-8.16-28.48-2.05-7.18a.63.63,0,0,0-1.21.33Z" fill="#231f20"/>
      <path id="Path_135" data-name="Path 135" d="M276.46,311.26a26.71,26.71,0,0,1-6.65-39.36,17.84,17.84,0,0,1,6.14-5,28.229,28.229,0,0,1,8-2.06c5.64-.84,11.42-1.08,16.81,1.1a24.2,24.2,0,0,1,11.09,9.12,23.86,23.86,0,0,1,3.67,14.83,24.87,24.87,0,0,1-6,14.07,51.482,51.482,0,0,1-12.91,10.55,4.22,4.22,0,0,1-1.61.67c-1.35.14-1.24-1-1.11-2a42.719,42.719,0,0,1,.9-4.88,48.469,48.469,0,0,1,3.29-9.37.63.63,0,0,0-1.08-.63l-8.92,13-4.46,6.49c-.73,1.05-1.56,2.09-2.19,3.2a2.24,2.24,0,0,0-.26,2.09c.69,1.5,2.88,1.47,4.25,1.61q3.92.39,7.85.51a111.576,111.576,0,0,0,15.72-.69c.79-.08.8-1.34,0-1.25a110.719,110.719,0,0,1-13.75.72c-2.29,0-4.59-.12-6.88-.28-1.14-.09-2.29-.19-3.43-.31s-3-.05-2.42-1.77a14.531,14.531,0,0,1,1.91-2.79l2-2.84,3.9-5.68,7.81-11.35-1.08-.63a50.18,50.18,0,0,0-3.31,9.22c-.37,1.49-.67,3-.9,4.51-.16,1.08-.56,2.51.08,3.51,1.28,2,4,.3,5.37-.59a73.287,73.287,0,0,0,6.62-4.75,33.637,33.637,0,0,0,10.15-12.77,25.39,25.39,0,0,0,.78-16.85c-3.29-10.9-13.76-17.8-24.94-17.63a57.227,57.227,0,0,0-9.59,1.07,20.77,20.77,0,0,0-8.23,3.15c-4.53,3.19-7.64,8.34-9.19,13.59a28.2,28.2,0,0,0,12,31.59c.69.43,1.31-.65.63-1.08Z" fill="#231f20"/>
      <path id="Path_136" data-name="Path 136" d="M313.28,73.69c-4.49,2-7.08,6.63-7.74,11.35-.87,6.14,1.48,12.18,3.77,17.75l.28-.7q-8.44,4.62-16.54,9.84l.92.37c-1.22-6.73-2.42-13.52-3.16-20.32-.35-3.23.08-6.1,2.39-8.52a33.65,33.65,0,0,1,6.91-5,30.189,30.189,0,0,1,8.44-3.87,19.27,19.27,0,0,1,9.24.25c6,1.51,11.41,4.76,17.25,6.79a55.54,55.54,0,0,0,21.44,2.92l-.32-1.16a92.35,92.35,0,0,1-24,13.41A92,92,0,0,1,319,100.68c-1.12.24-2.24.46-3.36.65a15.76,15.76,0,0,0-3,.58c-1.69.66-1.77,2.15-1.55,3.75a31.58,31.58,0,0,0,4.56,12.4c.77,1.22,1.84,3.24,3.59,2.93a4.48,4.48,0,0,0,2-1.16c1-.82,2-1.63,3-2.4a79,79,0,0,1,24.2-12.35c2.39-.74,4.82-1.31,7.26-1.86,1.65-.37,3.56-.92,4.67-2.29,1.41-1.75.56-3.92.06-5.85l-2.26-8.67-.77.77c2.46.8,2.46,4.32,2.78,6.43a13.31,13.31,0,0,0,3.41,7.06,19.45,19.45,0,0,0,7.3,4.77,38.708,38.708,0,0,0,4.7,1.46c1.54.38,3.36.5,4.78,1.24,2.18,1.14.38,2.81-.67,4.08s-2.36,2.79-3.57,4.16c-2.32,2.64-4.69,5.22-7,7.87a137.651,137.651,0,0,0-12.37,16.83,127.829,127.829,0,0,1-12.07,16.46c-4.23,4.76-8.79,9.22-13.21,13.8a125.368,125.368,0,0,0-12.32,14.42c-1.79,2.53-3.25,5.4-5.38,7.67a9.54,9.54,0,0,1-9.17,2.81c-3.81-.74-7.25-2.75-10.64-4.54l-11.25-5.94-22.93-12.12.22.86c9.75-22.58,31.52-36.23,47.15-54.27,2-2.31,4.32-5,4.36-8.24,0-2.55-1.57-5.28-4.25-5.68a.64.64,0,0,0-.7.28,266.519,266.519,0,0,1-23.33,28.9q-6.19,6.67-12.85,12.91c-4.3,4-8.88,7.75-13.23,11.72-4.06,3.69-8.22,8.48-7.55,14.35l.79-.6c-5.63-1-10.62-3.8-15.55-6.54l-16.12-8.94c-2.62-1.45-5.24-2.88-7.85-4.35-1-.58-2.41-1.32-2.52-2.63s1.29-2.46,2.28-3.19a37.56,37.56,0,0,0,4.91-4.08,44,44,0,0,0,4.16-5.17c2.66-3.82,4.91-7.92,7.62-11.71,3.09-4.3,7-7.61,11-11,8.3-6.92,14.92-15.37,21.58-23.81,1.84-2.33,3.69-4.66,5.6-6.94a68.488,68.488,0,0,1,5.79-6.48c1.2-1.11,2.61-2,4.29-1.56a22.73,22.73,0,0,1,4.54,2.09l9.3,4.63c.72.36,1.35-.72.63-1.08l-8.85-4.41c-2.15-1.06-4.8-3-7.33-2.53-2.29.42-3.93,2.39-5.41,4-1.95,2.15-3.81,4.37-5.64,6.62-7.21,8.85-13.86,18.26-22.36,26-4.19,3.79-8.87,7-12.46,11.46-3.09,3.82-5.48,8.12-8.17,12.21a49.941,49.941,0,0,1-4.46,6,39.108,39.108,0,0,1-5.7,4.9c-1.52,1.15-3.12,2.81-2.45,4.88s3.42,3.13,5.16,4.1l19.39,10.75c5.79,3.22,11.62,6.87,18.25,8,.36.06.84-.16.79-.61-.63-5.56,3.35-10,7.18-13.47,4.25-3.86,8.71-7.48,12.91-11.41a267.731,267.731,0,0,0,24.56-26.28q6.36-7.82,12.14-16.08l-.71.28c3,.46,3.81,4,2.94,6.49-1,2.85-3.41,5.18-5.4,7.37-3.83,4.23-7.92,8.22-12.06,12.14-8.23,7.79-16.74,15.39-23.76,24.33a73.089,73.089,0,0,0-9.73,16,.63.63,0,0,0,.23.85l21.61,11.42,10.59,5.59a84.7,84.7,0,0,0,9.65,4.76c2.9,1.09,6.19,1.75,9.22.76s4.9-3.22,6.56-5.65c1.94-2.84,3.73-5.73,5.85-8.43s4.28-5.14,6.55-7.6c4.57-4.92,9.41-9.59,14-14.51a118.36,118.36,0,0,0,12.9-16.61,160.842,160.842,0,0,1,13-18.28c2.38-2.78,4.85-5.48,7.28-8.22q1.82-2,3.59-4.14c.89-1.06,2.27-2.29,2.67-3.66.93-3.2-3.87-3.79-5.87-4.25-3.89-.9-7.88-2.17-11-4.81a13.32,13.32,0,0,1-4.58-8.76c-.35-2.49-.78-5.47-3.52-6.35a.63.63,0,0,0-.77.76l1.78,6.8c.26,1,.53,2,.79,3,.32,1.24.73,2.61-.23,3.67s-2.79,1.5-4.24,1.82c-2,.44-4,.92-5.94,1.49a79.91,79.91,0,0,0-21.53,10q-2.46,1.62-4.78,3.41c-.78.6-1.54,1.22-2.3,1.85-.53.43-.87.81-1.59.81s-1.15-.66-1.6-1.3A30.56,30.56,0,0,1,312.63,107c-.17-.87-.72-2.59-.21-3.41s2.12-.81,2.94-1c2-.32,3.93-.72,5.87-1.18a90.918,90.918,0,0,0,11.84-3.64,93.531,93.531,0,0,0,23.72-13.31c.44-.34.38-1.21-.31-1.17a54.46,54.46,0,0,1-20.89-2.8c-6.18-2.11-11.87-5.65-18.29-7.06a20.29,20.29,0,0,0-8.67-.15,29.23,29.23,0,0,0-8.78,3.87c-4.54,2.73-10,5.82-10.41,11.72a27.518,27.518,0,0,0,.44,5.5q.39,2.88.82,5.76.93,6.24,2.06,12.45a.63.63,0,0,0,.92.38q8.1-5.22,16.54-9.84a.63.63,0,0,0,.29-.71c-2.12-5.18-4.34-10.73-3.84-16.44.42-4.65,2.84-9.3,7.24-11.25.74-.33.1-1.4-.63-1.08Z" fill="#231f20"/>
      <path id="Path_137" data-name="Path 137" d="M140.64,83.4l46.08,32.38c.66.47,1.29-.62.63-1.08L141.27,82.32C140.61,81.86,139.98,82.94,140.64,83.4Z" fill="#231f20"/>
      <path id="Path_138" data-name="Path 138" d="M184.15,74.9,195.45,86a.622.622,0,0,0,.88-.88L185,74a.63.63,0,0,0-.89.88Z" fill="#231f20"/>
      <path id="Path_139" data-name="Path 139" d="M201.51,27.17A375.835,375.835,0,0,0,226.62,75.5c.42.68,1.5,0,1.07-.63a378.382,378.382,0,0,1-25.11-48.33C202.27,25.8,201.19,26.44,201.51,27.17Z" fill="#231f20"/>
      <path id="Path_140" data-name="Path 140" d="M246.93,43.92l2.89,9.73a.63.63,0,0,0,1.21-.33l-2.89-9.74a.63.63,0,0,0-1.21.34Z" fill="#231f20"/>
      <path id="Path_141" data-name="Path 141" d="M294.3,18.43l1,31.35c0,.8,1.28.8,1.25,0l-1-31.35c0-.8-1.28-.81-1.25,0Z" fill="#231f20"/>
      <path id="Path_142" data-name="Path 142" d="M339.19,44.33l-4.42,10.48a.63.63,0,0,0,1.21.33l4.42-10.48a.62.62,0,0,0-.44-.76.63.63,0,0,0-.77.43Z" fill="#231f20"/>
      <path id="Path_143" data-name="Path 143" d="M407,41.57q-16.25,13.11-31.17,27.72c-.57.57.31,1.45.89.89q14.91-14.61,31.16-27.73C408.51,41.95,407.62,41.07,407,41.57Z" fill="#231f20"/>
      <path id="Path_144" data-name="Path 144" d="M390.19,89.78l11.25-6.63a.63.63,0,0,0-.63-1.08L389.56,88.7a.63.63,0,0,0,.63,1.08Z" fill="#231f20"/>
      <path id="Path_145" data-name="Path 145" d="M403.06,125.23q27-12.11,54.87-22.17c.75-.27.42-1.48-.33-1.2q-28,10.11-55.17,22.29c-.73.33-.1,1.4.63,1.08Z" fill="#231f20"/>
      <path id="Path_146" data-name="Path 146" d="M184.61,136.22q-19,2-38,2.71c-.8,0-.8,1.28,0,1.25q19.06-.7,38-2.71C185.4,137.38,185.41,136.13,184.61,136.22Z" fill="#231f20"/>
      <path id="Path_147" data-name="Path 147" d="M400.21,146.77a329.443,329.443,0,0,0,44.28,6.74c.81.06.8-1.19,0-1.25a326.154,326.154,0,0,1-43.95-6.7.627.627,0,0,0-.33,1.21Z" fill="#231f20"/>
      <path id="Path_148" data-name="Path 148" d="M147.17,245.24a61.7,61.7,0,0,0-21.94-31.51c-3.56-2.74-7.33-5.23-10.61-8.32a25.63,25.63,0,0,1-7.31-11.54,36.81,36.81,0,0,1-1-13.55,64.361,64.361,0,0,1,1-7c.4-2,.7-4.39,1.74-6.21,1.29-2.23,3.69-2.17,5.6-.79a11,11,0,0,1,3.73,5.8c3.39,10.58-2.28,21.84-7.15,31l1-.12c-4.61-3.89-10.41-8.71-16.91-7.6-4.7.8-9.68,5.15-8.3,10.34,1.21,4.56,6.57,6.11,10.75,5.3,2.59-.5,4.38-2,6.32-3.68a7.29,7.29,0,0,1,4.67-2.19,9.1,9.1,0,0,1,5,1.76c3.35,2.19,6,5.32,9.18,7.78A54.879,54.879,0,0,0,133,220.87a.63.63,0,0,0,.85-.85,24,24,0,0,1-1.41-14.82c1-4.23,3.39-10,8.18-10.95a4.22,4.22,0,0,1,4.88,2.74,8.25,8.25,0,0,1-.21,5.17c-1.32,4.07-5.07,6.54-7.67,9.76a12.83,12.83,0,0,0-2.62,5,14.21,14.21,0,0,1-.81,3.36c-.74,1.42-2.44,1.58-3.87,1.74-4.74.53-9.94,0-14.34,2.2-3.21,1.62-6.17,5-5.95,8.83a6.81,6.81,0,0,0,6.12,6.19,12.78,12.78,0,0,0,10.4-3.49c3.82-3.58,6.13-8.45,10-11.95.6-.53-.29-1.41-.88-.88-5.9,5.27-9.87,16.86-19.65,15-4.43-.82-6-5.34-3.58-9,3-4.68,8.72-5.12,13.78-5.38,2.28-.12,5.07,0,7.19-.95s2.27-2.89,2.64-4.82c.88-4.58,4.86-7.37,7.74-10.7,2.24-2.57,3.77-6.18,3.08-9.65a5.57,5.57,0,0,0-7.62-4.1c-4.69,1.81-7.1,7.12-8.09,11.71a25.36,25.36,0,0,0,1.57,15.59l.86-.86a54.9,54.9,0,0,1-8.59-5.07,93.047,93.047,0,0,1-7.32-6.27c-2-1.8-4.32-3.66-7-4.33a7.66,7.66,0,0,0-6.92,1.79c-2,1.67-3.69,3.36-6.38,3.88a9.48,9.48,0,0,1-6.52-1,5.6,5.6,0,0,1-2.78-5.87,8.25,8.25,0,0,1,4.79-5.5c6.76-3.21,13.53,2.29,18.43,6.42a.63.63,0,0,0,1-.13c4.57-8.58,9.53-18.5,8.06-28.54-.6-4.06-2.35-9-6.44-10.71a4.52,4.52,0,0,0-4.92.68c-1.5,1.37-2,3.51-2.39,5.41-2.08,9.14-3.14,19.42,1.21,28.09S121.5,211.74,128.5,218A60.78,60.78,0,0,1,146,245.57c.23.77,1.44.44,1.2-.33Z" fill="#231f20"/>
      <path id="Path_149" data-name="Path 149" d="M454.71,224.42s16.54-8.36,24.44,5.53-1.39,18.27-8.79,15.63S443.43,226.9,454.71,224.42Z" fill="#a9d767"/>
      <path id="Path_150" data-name="Path 150" d="M475.17,200.74s-15.4-13-7.17-30.12,16.62-9.71,17.94,0S482.86,211.54,475.17,200.74Z" fill="#a9d767"/>
      <path id="Path_151" data-name="Path 151" d="M511.71,271.35S509.49,243.71,537,219.8C537,219.8,539.56,287.65,511.71,271.35Z" fill="#a9d767"/>
      <path id="Path_152" data-name="Path 152" d="M481.92,308.81s36.21,20.91,31.86,31.57c0,0-30.63-5-46.5-19.06S481.92,308.81,481.92,308.81Z" fill="#a9d767"/>
      <path id="Path_153" data-name="Path 153" d="M433.1,320.78c9.66-2.54,17.89-8.63,27.49-11.29a26.869,26.869,0,0,1,14.64-.13,37.91,37.91,0,0,1,12.89,7,110.133,110.133,0,0,1,12.1,11.66l.13-1c-7.21,3.63-15.9,2.27-22.77-1.51-7.13-3.92-12.63-10.11-17.77-16.29l-.13,1c10.92-5.91,22.27-12.1,30.34-21.78,6.77-8.11,10.41-18.81,8.51-29.37a23.8,23.8,0,0,0-8.2-14.39.64.64,0,0,0-1,.13,86,86,0,0,0-15.48,42.89,84.233,84.233,0,0,0,0,13.29.63.63,0,0,0,.79.6c5.8-1.77,10.23-5.95,15-9.53a44.619,44.619,0,0,1,14.11-7.26A49.37,49.37,0,0,1,535,285.91a44.361,44.361,0,0,1,15.18,9.47l.27-1a49.6,49.6,0,0,1-40.85-12.17l-.28,1c7.1-3,12.42-8.73,16-15.4,4.24-7.81,6-16.57,7.4-25.26.89-5.54,1.67-11.1,2.9-16.58.12-.55-.63-1.14-1-.61a78.22,78.22,0,0,0-16.1,39.43,76.311,76.311,0,0,0-.37,12.37c0,.8,1.29.81,1.25,0a76.8,76.8,0,0,1,16.11-50.91l-1-.61c-3.69,16.5-3.38,35.44-15.2,48.84A28.39,28.39,0,0,1,509,282a.63.63,0,0,0-.28,1,51,51,0,0,0,42.07,12.5.63.63,0,0,0,.28-1.05c-15.49-14.85-41.31-17.28-59.28-5.47-5.8,3.81-10.64,9.32-17.45,11.4l.79.6a84.85,84.85,0,0,1,8.66-44.52,83.3,83.3,0,0,1,6.63-11l-1,.13c8,6.51,9.68,17.62,7.33,27.22-2.75,11.2-11.09,19.64-20.31,26a182.409,182.409,0,0,1-17.42,10.31.64.64,0,0,0-.13,1c5.45,6.55,11.37,13.18,19.11,17.06,7.08,3.55,15.7,4.59,23,.94a.64.64,0,0,0,.13-1c-6.69-7.21-14-14.79-23.38-18.31a27.39,27.39,0,0,0-14.43-1.28c-4.88.88-9.47,2.91-13.92,5-5.42,2.59-10.77,5.41-16.61,6.94a.63.63,0,0,0,.33,1.21Z" fill="#231f20"/>
      <path id="Path_154" data-name="Path 154" d="M518.89,278.05a73,73,0,0,0,44.24-22.94,70.129,70.129,0,0,0,8.6-11.53.63.63,0,0,0-.7-.92,100.222,100.222,0,0,0-21.24,9.92c-6.7,4.15-12.51,9.19-18.32,14.47-3.23,2.93-6.68,5.7-10.86,7.1-.76.25-.44,1.46.33,1.2,7.08-2.36,12-8.25,17.52-13a97.809,97.809,0,0,1,20.19-13.3,98.924,98.924,0,0,1,12.71-5.22l-.71-.92a71.67,71.67,0,0,1-38.06,30.67,69.337,69.337,0,0,1-13.7,3.18c-.79.1-.8,1.35,0,1.25Z" fill="#231f20"/>
      <path id="Path_155" data-name="Path 155" d="M442.94,247a60.779,60.779,0,0,1,14.85-25,95.922,95.922,0,0,1,11.37-9.33c3.69-2.76,7.35-5.67,10-9.46,5.67-8,5.51-18.32,3.82-27.56-.61-3.35-1.11-9.61-5.51-10.14-4.21-.51-7,4.14-8.14,7.52-3.64,11,2.16,22.66,7.21,32.15a.64.64,0,0,0,1,.12c4.44-3.75,10.39-8.76,16.68-7.06a9.47,9.47,0,0,1,6,4.55,5.58,5.58,0,0,1-1,6.51c-3.42,3.4-9.17,2.44-12.5-.48-2-1.79-4.06-3.6-7-3.47-2.65.11-5,1.63-7,3.23-2.84,2.25-5.3,4.92-8.21,7.09a54.158,54.158,0,0,1-9.3,5.6l.86.85a25.38,25.38,0,0,0,1.93-13.8c-.63-4.4-2.36-9.2-5.93-12.07-2.77-2.22-7.05-2.86-9.26.49-1.88,2.84-.94,6.87.63,9.61,2.11,3.69,6,6,8.15,9.68a10,10,0,0,1,1.15,3,13.489,13.489,0,0,0,.78,3.14c.95,2,3.05,2.31,5,2.53,5.09.55,11.05-.21,15.39,3.06,3.28,2.46,5.55,7.95,1.29,10.71-3.57,2.31-8.8.72-11.73-1.92-4-3.59-6.32-8.62-10.33-12.21-.6-.53-1.49.35-.88.89,6,5.33,8.95,14.82,18.06,15.51,3.05.23,6.39-.84,7.82-3.74,1.73-3.51-.14-7.43-2.91-9.78-3.65-3.09-8.54-3.27-13.1-3.51-1.21-.07-2.41-.13-3.61-.26-1.43-.16-3.12-.33-3.87-1.75a12.3,12.3,0,0,1-.76-3.18,10.65,10.65,0,0,0-1.07-2.83c-2-3.71-5.76-6-8-9.47-1.73-2.69-3.11-7.8.17-10,2.33-1.53,5.1-.21,6.91,1.5a16,16,0,0,1,4,7.07,24,24,0,0,1-.93,16.61.63.63,0,0,0,.86.85,53.769,53.769,0,0,0,9.29-5.59c2.77-2.07,5.17-4.54,7.82-6.76s6.25-4.54,9.73-2.73c2.48,1.3,4,3.72,6.73,4.73,4,1.49,9.7.67,11.87-3.41,2.52-4.75-1.38-9.6-5.8-11.23-7.06-2.61-13.79,2.8-18.86,7.07l1,.12c-4.38-8.22-9.19-17.72-8-27.34a17.69,17.69,0,0,1,2.28-7c1-1.66,2.94-3.55,5-3.51,2.55,0,3.36,2.8,3.85,4.83s.95,4.31,1.28,6.49c1.41,9.18.82,19.11-5.54,26.43-2.94,3.39-6.61,6-10.21,8.68a77.183,77.183,0,0,0-9.92,8.4,62.18,62.18,0,0,0-14.76,25.16.63.63,0,0,0,1.21.33Z" fill="#231f20"/>
      <path id="Path_156" data-name="Path 156" d="M698.76,114.37a20.76,20.76,0,0,0-13.62,22.06.62.62,0,0,0,.6.46,29.84,29.84,0,0,1,21.06,6.73.63.63,0,0,0,1-.76A51.192,51.192,0,0,1,702.4,128a49.07,49.07,0,0,1-.87-8c0-1.3-.07-2.81.86-3.84a7.52,7.52,0,0,1,3.28-1.66c4.25-1.4,9.72-1.8,12.88,2,2.7,3.25,2.61,8.12,1.43,12-1.66,5.42-5.37,10-7.46,15.22-.24.63.63,1,1.05.61,6.49-5.88,14.35-12.61,23.75-11.5.42.05.68-.44.6-.8a26.75,26.75,0,0,0-13.59-17.74l-.63,1.08c15,7.58,30.11,15,44.89,22.94.71.38,1.34-.7.64-1.08-14.79-8-29.91-15.36-44.9-22.94-.71-.36-1.34.7-.63,1.08a25.56,25.56,0,0,1,13,17l.6-.79c-9.72-1.15-17.92,5.78-24.64,11.87l1.05.6c2.15-5.41,6-10.06,7.61-15.72,1.14-4.17,1-9.23-1.9-12.68-3.21-3.79-8.55-3.89-13-2.67-2.1.58-4.8,1.33-5.73,3.53-1,2.41-.4,5.68-.1,8.18a52.648,52.648,0,0,0,6.08,18.87l1-.75a31,31,0,0,0-21.94-7.1l.6.46a19.47,19.47,0,0,1,12.75-20.52c.76-.26.43-1.47-.33-1.21Z" fill="#231f20"/>
      <path id="Path_157" data-name="Path 157" d="M696.53,91.27a9.34,9.34,0,0,1,16.12-6,9.47,9.47,0,0,1,1.68,10.31c-.76,1.71-2.15,2.74-3.2,4.22a5.14,5.14,0,0,0-.5,5,.63.63,0,0,0,.77.43,2.38,2.38,0,0,0,1.67-2.3.63.63,0,0,0-1.07-.44,6.64,6.64,0,0,0-1.9,5,.64.64,0,0,0,.62.62,1.77,1.77,0,0,0,1.89-2.25.63.63,0,0,0-.92-.37A5.07,5.07,0,0,0,709.2,109a.65.65,0,0,0,.29.7,1.89,1.89,0,0,0,2.9-1.65.63.63,0,0,0-.94-.54,3.64,3.64,0,0,0-1.6,4.18.63.63,0,0,0,.44.44,1.78,1.78,0,0,0,2.14-1.28.64.64,0,0,0-.61-.79c-3-.12-3.15,3.45-3.4,5.58-.46,4-4.75,2.79-7.6,3.18-.79.11-.45,1.31.34,1.2,2.31-.32,5.29.48,7.19-1.27a5,5,0,0,0,1.36-3.52c.11-1.34.16-4,2.11-3.92l-.6-.79-.6.4.44.44a2.34,2.34,0,0,1,1-2.77l-.94-.54a.64.64,0,0,1-1,.57l.29.71a3.87,3.87,0,0,1,1.91-2.8l-.92-.37-.68.66.63.63a5.389,5.389,0,0,1,1.54-4.08l-1.07-.44a1,1,0,0,1-.75,1.1l.77.44c-1-2.27.13-3.8,1.63-5.41a10.659,10.659,0,0,0,2.33-3.84,10.9,10.9,0,0,0-.69-8.73A10.7,10.7,0,0,0,699.9,83a11,11,0,0,0-4.62,8.28.626.626,0,0,0,1.25,0Z" fill="#231f20"/>
      <path id="Path_158" data-name="Path 158" d="M710.58,111.66a29.644,29.644,0,0,0,1,4,7.851,7.851,0,0,0,1.69,3.46c1.76,1.6,4.14.33,6.19.82a.628.628,0,0,0,.33-1.21,9.56,9.56,0,0,0-3,0,3.51,3.51,0,0,1-2.62-.44,3.329,3.329,0,0,1-.8-1.34c-.23-.59-.45-1.19-.64-1.8a30.631,30.631,0,0,1-1-3.8c-.14-.79-1.35-.45-1.2.34Z" fill="#231f20"/>
      <path id="Path_159" data-name="Path 159" d="M696.25,114.73a103.068,103.068,0,0,0-23.87,11.34A101.631,101.631,0,0,0,661.72,134c-3.26,2.76-6.88,5.7-8.66,9.69a45.668,45.668,0,0,0-2,6.26c-.7,2.49-1.39,5-2.07,7.48q-2,7.38-4,14.78c-2.56,9.86-5,19.76-7,29.74s-3.82,19.94-5.11,30a54.7,54.7,0,0,0-.81,7.2c0,1.82,1.11,2.77,2.8,3.19,5,1.24,10.14,2.18,15.19,3.23,1.82.37,3.83.75,5.56-.14a4.25,4.25,0,0,0-3.88-7.56c-1.22.64-.38,2.17.53,2.72a3,3,0,0,0,3.63-.4c1.4-1.22,2-3.27,2.58-5,.8-2.16,1.5-4.35,2.13-6.57,5.17-18.22,5.22-37.4,9.89-55.72.57-2.24,1.22-4.46,1.93-6.66l-1.22-.16q1,34.42.63,68.87-.09,8.58-.26,17.16c0,1.4-.06,2.81-.1,4.22a20.3,20.3,0,0,0,0,3.82c.41,2.33,3.18,2,5,2.15q17,1.33,34,1.55,19.26.22,38.5-1a.62.62,0,0,0,.62-.62c-1-24.75-.16-49.51-.37-74.27q-.08-10.81-.49-21.62l-1.17.31a139.277,139.277,0,0,1,11.92,28.33c2.82,9.41,4.84,19,6.9,28.62,1.26,5.85,2.54,11.71,4,17.53.19.78,1.4.45,1.21-.34-4.8-19.7-7.71-40-15.3-58.92a132.5,132.5,0,0,0-7.6-15.85.63.63,0,0,0-1.16.32c1,24.75.17,49.51.37,74.26.06,7.22.21,14.42.49,21.63l.63-.63a515.642,515.642,0,0,1-66.13-.12c-2.71-.17-5.42-.38-8.13-.6-.93-.07-1.81,0-2.05-1.19a8.621,8.621,0,0,1,0-1.9l.09-4.22q.18-8.46.28-16.91.19-16.53.07-33.07-.14-18.78-.68-37.54a.63.63,0,0,0-1.23-.17c-6.48,19.82-6.05,41-11.47,61.09q-1.1,4.1-2.56,8.07a11.659,11.659,0,0,1-1.82,3.83,2.06,2.06,0,0,1-1.65.81,1.208,1.208,0,0,1-1.33-1.2l-.31.54a3,3,0,0,1,4.26,3.82c-1.38,3-5.68,1.5-8.11,1l-9.32-2c-1.35-.28-2.77-.47-4.08-.88-2-.63-1.48-2.65-1.3-4.28,1.41-12.39,3.56-24.68,6.16-36.86s5.63-24.11,8.85-36.06c1.59-5.88,3-11.88,4.93-17.66,1.81-5.46,6.47-9.15,10.79-12.67a100.788,100.788,0,0,1,32.36-17.59c.76-.25.43-1.46-.34-1.21Z" fill="#231f20"/>
      <path id="Path_160" data-name="Path 160" d="M770.93,240.41c1.61.4,3.75.72,5.16-.39a2.65,2.65,0,0,0-.13-4.18,3.47,3.47,0,0,0-4.69.37c-1.73,1.67-1.79,4.14-1.5,6.37.23,1.77.49,4.14,2.34,5a5.56,5.56,0,0,0,3.16.09c1.52-.22,3-.46,4.55-.72,2.93-.52,5.89-1.05,8.78-1.8a2.85,2.85,0,0,0,2-1.21c.53-1,0-2.61-.18-3.68l-5.66-36.87c-1.83-12-3.61-24-6-35.84-1.28-6.26-2.76-12.48-4.49-18.63-.61-2.15-1.24-4.29-2-6.38a16.071,16.071,0,0,0-2.82-5.27c-.54-.6-1.43.29-.88.88,2.15,2.35,3,6.06,3.93,9,1.2,4,2.25,8.11,3.22,12.2,2.27,9.64,4,19.4,5.55,29.18,1.59,10,3.08,19.93,4.61,29.9l2.33,15.24,1.14,7.37c.13.86.6,2.1-.36,2.69a5.1,5.1,0,0,1-1.33.34c-1.26.29-2.53.56-3.79.82-2.77.57-5.56,1.06-8.35,1.46-1.54.23-3.13.52-3.83-1.19a12.32,12.32,0,0,1-.67-3.55,6,6,0,0,1,.69-3.88c.71-1.09,2.08-1.9,3.32-1.13,1.43.89.91,2.49-.58,2.81a7,7,0,0,1-3.09-.24.63.63,0,0,0-.33,1.21Z" fill="#231f20"/>
      <path id="Path_161" data-name="Path 161" d="M796.72,114.37a20.76,20.76,0,0,0-13.61,22.06.62.62,0,0,0,.6.46,29.84,29.84,0,0,1,21.06,6.73.63.63,0,0,0,1-.76,50.9,50.9,0,0,1-5.4-14.86,49.078,49.078,0,0,1-.87-8c0-1.3-.07-2.81.86-3.84a7.48,7.48,0,0,1,3.27-1.66c4.26-1.4,9.73-1.8,12.89,2,2.7,3.25,2.61,8.12,1.43,12-1.66,5.42-5.37,10-7.46,15.22-.25.63.63,1,1,.61,6.49-5.88,14.35-12.61,23.75-11.5.42.05.68-.44.6-.8a26.75,26.75,0,0,0-13.59-17.74l-.63,1.08c15,7.58,30.1,15,44.89,22.94.71.38,1.34-.7.63-1.08-14.79-8-29.9-15.36-44.89-22.94-.71-.36-1.35.7-.63,1.08a25.51,25.51,0,0,1,13,17l.61-.79c-9.73-1.15-17.92,5.78-24.64,11.87l1.05.6c2.15-5.41,6-10.06,7.6-15.72,1.15-4.17,1-9.23-1.9-12.68-3.2-3.79-8.54-3.89-13-2.67-2.11.58-4.8,1.33-5.73,3.53-1,2.41-.4,5.68-.1,8.18a52.261,52.261,0,0,0,6.08,18.87l1-.75a31,31,0,0,0-21.94-7.1l.6.46A19.47,19.47,0,0,1,797,115.65c.75-.26.43-1.47-.34-1.21Z" fill="#231f20"/>
      <path id="Path_162" data-name="Path 162" d="M794.5,91.27a9.34,9.34,0,0,1,16.12-6,9.48,9.48,0,0,1,1.68,10.31c-.76,1.71-2.15,2.74-3.2,4.22a5.14,5.14,0,0,0-.5,5,.63.63,0,0,0,.77.43,2.38,2.38,0,0,0,1.67-2.3.63.63,0,0,0-1.07-.44,6.6,6.6,0,0,0-1.9,5,.63.63,0,0,0,.62.62,1.77,1.77,0,0,0,1.89-2.25.63.63,0,0,0-.92-.37,5.07,5.07,0,0,0-2.49,3.55.65.65,0,0,0,.29.7,1.89,1.89,0,0,0,2.9-1.65.63.63,0,0,0-.94-.54,3.64,3.64,0,0,0-1.6,4.18.61.61,0,0,0,.44.44,1.77,1.77,0,0,0,2.13-1.28.63.63,0,0,0-.6-.79c-3-.12-3.15,3.45-3.4,5.58-.47,4-4.75,2.79-7.6,3.18-.79.11-.45,1.31.34,1.2,2.31-.32,5.29.48,7.19-1.27a5,5,0,0,0,1.36-3.52c.11-1.34.15-4,2.11-3.92l-.6-.79-.6.4.43.44a2.36,2.36,0,0,1,1-2.77l-.94-.54a.64.64,0,0,1-1,.57l.29.71a3.87,3.87,0,0,1,1.91-2.8l-.92-.37-.68.66.63.63a5.42,5.42,0,0,1,1.53-4.08l-1.06-.44A1,1,0,0,1,809,104l.76.44c-.95-2.27.14-3.8,1.64-5.41a10.659,10.659,0,0,0,2.33-3.84,10.9,10.9,0,0,0-.69-8.73A10.7,10.7,0,0,0,797.87,83a11,11,0,0,0-4.62,8.28.625.625,0,0,0,1.25,0Z" fill="#231f20"/>
      <path id="Path_163" data-name="Path 163" d="M808.55,111.66a29.635,29.635,0,0,0,1,4,7.851,7.851,0,0,0,1.69,3.46c1.76,1.6,4.14.33,6.19.82a.628.628,0,0,0,.33-1.21,9.56,9.56,0,0,0-3,0,3.51,3.51,0,0,1-2.62-.44,3.331,3.331,0,0,1-.8-1.34c-.23-.59-.45-1.19-.64-1.8a30.609,30.609,0,0,1-1-3.8c-.14-.79-1.35-.45-1.2.34Z" fill="#231f20"/>
      <path id="Path_164" data-name="Path 164" d="M769.35,259.14c0,2,.84,2.88,2.83,3.05,2.7.24,5.41.43,8.12.61q8,.54,16,.82,16.17.58,32.34.15,9.14-.24,18.26-.82a.63.63,0,0,0,.62-.62c-1-24.75-.17-49.51-.37-74.27-.06-7.21-.21-14.42-.49-21.62l-1.17.31a139.277,139.277,0,0,1,11.92,28.33c2.82,9.41,4.84,19,6.9,28.62,1.26,5.85,2.53,11.71,3.95,17.53.19.78,1.4.45,1.21-.34-4.8-19.7-7.72-40-15.3-58.92a132.5,132.5,0,0,0-7.6-15.85.63.63,0,0,0-1.16.32c1,24.75.16,49.51.37,74.26q.08,10.83.49,21.63l.63-.63a517.155,517.155,0,0,1-60,.25q-4.2-.22-8.38-.52l-4.19-.31-2-.16a3.879,3.879,0,0,1-1.06-.12,1.67,1.67,0,0,1-.76-1.7.63.63,0,0,0-1.25,0Z" fill="#231f20"/>
      <path id="Path_165" data-name="Path 165" d="M794.22,114.73c-5.64,1.83-11.42,3.44-16.79,6a55.94,55.94,0,0,0-14.23,10.19c-.59.55.3,1.44.88.89a54.779,54.779,0,0,1,14-10c5.27-2.49,11-4,16.49-5.84.77-.25.44-1.45-.33-1.21Z" fill="#231f20"/>
      <path id="Path_166" data-name="Path 166" d="M868.9,240.41c1.6.4,3.75.72,5.15-.39a2.65,2.65,0,0,0-.12-4.18,3.47,3.47,0,0,0-4.69.37c-1.73,1.67-1.79,4.14-1.5,6.37.23,1.77.49,4.14,2.33,5a5.6,5.6,0,0,0,3.17.09c1.52-.22,3-.46,4.54-.72,2.94-.52,5.9-1.05,8.79-1.8a2.81,2.81,0,0,0,1.95-1.21c.54-1,0-2.61-.18-3.68l-5.65-36.87c-1.84-12-3.61-24-6-35.84-1.28-6.26-2.76-12.48-4.49-18.63-.61-2.15-1.24-4.29-2-6.38a16.071,16.071,0,0,0-2.82-5.27c-.54-.6-1.43.29-.88.88,2.15,2.35,3,6.06,3.93,9,1.2,4,2.25,8.11,3.22,12.2,2.27,9.64,4,19.4,5.55,29.18,1.59,10,3.08,19.93,4.61,29.9l2.33,15.24,1.13,7.37c.13.86.61,2.1-.35,2.69a5.2,5.2,0,0,1-1.33.34c-1.26.29-2.53.56-3.79.82q-4.15.86-8.36,1.46c-1.53.23-3.12.52-3.82-1.19a12.68,12.68,0,0,1-.68-3.55,6.05,6.05,0,0,1,.7-3.88c.71-1.09,2.08-1.9,3.32-1.13,1.43.89.91,2.49-.58,2.81a7,7,0,0,1-3.09-.24.63.63,0,0,0-.33,1.21Z" fill="#231f20"/>
      <path id="Path_167" data-name="Path 167" d="M893.64,114.37A20.76,20.76,0,0,0,880,136.43a.63.63,0,0,0,.6.46,29.83,29.83,0,0,1,21.06,6.73.63.63,0,0,0,1-.76A51.192,51.192,0,0,1,897.28,128a50.193,50.193,0,0,1-.87-8c0-1.3-.07-2.81.86-3.84a7.52,7.52,0,0,1,3.28-1.66c4.25-1.4,9.72-1.8,12.88,2,2.7,3.25,2.61,8.12,1.44,12-1.67,5.42-5.38,10-7.46,15.22-.25.63.62,1,1,.61,6.49-5.88,14.36-12.61,23.75-11.5.43.05.68-.44.6-.8a26.72,26.72,0,0,0-13.59-17.74l-.63,1.08c15,7.58,30.11,15,44.9,22.94.7.38,1.34-.7.63-1.08-14.79-8-29.91-15.36-44.9-22.94-.71-.36-1.34.7-.63,1.08a25.53,25.53,0,0,1,13,17l.6-.79c-9.72-1.15-17.91,5.78-24.63,11.87l1,.6c2.15-5.41,6-10.06,7.61-15.72,1.15-4.17,1-9.23-1.9-12.68-3.21-3.79-8.55-3.89-13-2.67-2.1.58-4.8,1.33-5.72,3.53-1,2.41-.41,5.68-.1,8.18a52.261,52.261,0,0,0,6.08,18.87l1-.75a31,31,0,0,0-22-7.1l.61.46A19.47,19.47,0,0,1,894,115.58c.76-.26.43-1.47-.33-1.21Z" fill="#231f20"/>
      <path id="Path_168" data-name="Path 168" d="M891.41,91.27a9.34,9.34,0,0,1,16.12-6,9.47,9.47,0,0,1,1.68,10.31c-.76,1.71-2.15,2.74-3.2,4.22a5.17,5.17,0,0,0-.5,5,.63.63,0,0,0,.77.43,2.38,2.38,0,0,0,1.67-2.3.63.63,0,0,0-1.07-.44,6.68,6.68,0,0,0-1.9,5,.64.64,0,0,0,.63.62,1.77,1.77,0,0,0,1.88-2.25.63.63,0,0,0-.92-.37,5.1,5.1,0,0,0-2.49,3.55.65.65,0,0,0,.29.7,1.89,1.89,0,0,0,2.9-1.65.63.63,0,0,0-.94-.54,3.64,3.64,0,0,0-1.6,4.18.63.63,0,0,0,.44.44,1.78,1.78,0,0,0,2.14-1.28.63.63,0,0,0-.61-.79c-3-.12-3.14,3.45-3.39,5.58-.47,4-4.76,2.79-7.6,3.18-.8.11-.46,1.31.33,1.2,2.31-.32,5.29.48,7.2-1.27a5.08,5.08,0,0,0,1.35-3.52c.11-1.34.16-4,2.11-3.92l-.6-.79-.6.4.44.44a2.35,2.35,0,0,1,1-2.77l-.94-.54a.64.64,0,0,1-1,.57l.29.71a3.9,3.9,0,0,1,1.91-2.8l-.92-.37-.67.66.62.63a5.39,5.39,0,0,1,1.54-4.08l-1.07-.44A1,1,0,0,1,906,104l.77.44c-1-2.27.13-3.8,1.63-5.41a10.661,10.661,0,0,0,2.33-3.84A10.9,10.9,0,0,0,910,86.5,10.7,10.7,0,0,0,894.78,83a11,11,0,0,0-4.62,8.28.625.625,0,0,0,1.25,0Z" fill="#231f20"/>
      <path id="Path_169" data-name="Path 169" d="M905.46,111.66a29.644,29.644,0,0,0,1,4,8,8,0,0,0,1.69,3.46c1.76,1.6,4.15.33,6.19.82a.627.627,0,0,0,.33-1.21,9.56,9.56,0,0,0-3,0,3.51,3.51,0,0,1-2.62-.44,3.43,3.43,0,0,1-.79-1.34c-.24-.59-.45-1.19-.65-1.8a28.929,28.929,0,0,1-1-3.8c-.15-.79-1.35-.45-1.21.34Z" fill="#231f20"/>
      <path id="Path_170" data-name="Path 170" d="M866.26,259.14c0,2,.85,2.88,2.83,3.05,2.71.24,5.42.43,8.13.61,5.33.36,10.68.63,16,.82q16.17.58,32.35.15,9.13-.24,18.25-.82a.64.64,0,0,0,.63-.62c-1-24.75-.17-49.51-.37-74.27q-.09-10.81-.5-21.62l-1.16.31a139.252,139.252,0,0,1,11.91,28.33c2.82,9.41,4.84,19,6.9,28.62,1.26,5.85,2.54,11.71,4,17.53.19.78,1.39.45,1.2-.34-4.8-19.7-7.71-40-15.29-58.92a135.625,135.625,0,0,0-7.6-15.85.63.63,0,0,0-1.17.32c1,24.75.17,49.51.37,74.26.06,7.22.21,14.42.5,21.63l.62-.63a517.141,517.141,0,0,1-60,.25c-2.79-.15-5.59-.32-8.38-.52l-4.18-.31-2-.16a3.789,3.789,0,0,1-1.06-.12,1.69,1.69,0,0,1-.77-1.7.63.63,0,0,0-1.25,0Z" fill="#231f20"/>
      <path id="Path_171" data-name="Path 171" d="M891.14,114.73c-5.64,1.83-11.42,3.44-16.8,6a55.941,55.941,0,0,0-14.23,10.19c-.58.55.3,1.44.89.89a54.912,54.912,0,0,1,14-10c5.28-2.49,11-4,16.5-5.84.76-.25.43-1.45-.33-1.21Z" fill="#231f20"/>
      <path id="Path_172" data-name="Path 172" d="M965.81,240.41c1.61.4,3.75.72,5.16-.39a2.65,2.65,0,0,0-.12-4.18,3.48,3.48,0,0,0-4.7.37c-1.73,1.67-1.78,4.14-1.49,6.37.23,1.77.48,4.14,2.33,5a5.56,5.56,0,0,0,3.16.09c1.52-.22,3-.46,4.55-.72,2.93-.52,5.9-1.05,8.78-1.8a2.85,2.85,0,0,0,2-1.21c.53-1,0-2.61-.18-3.68l-5.66-36.87c-1.83-12-3.6-24-6-35.84-1.28-6.26-2.76-12.48-4.49-18.63-.61-2.15-1.24-4.29-2-6.38a16.07,16.07,0,0,0-2.82-5.27c-.54-.6-1.42.29-.88.88,2.15,2.35,3,6.06,3.93,9,1.2,4,2.26,8.11,3.22,12.2,2.28,9.64,4,19.4,5.55,29.18,1.59,10,3.08,19.93,4.61,29.9L983,233.7l1.13,7.37c.13.86.6,2.1-.36,2.69a5.1,5.1,0,0,1-1.33.34c-1.26.29-2.52.56-3.79.82q-4.15.86-8.35,1.46c-1.53.23-3.12.52-3.83-1.19a12.318,12.318,0,0,1-.67-3.55,6,6,0,0,1,.69-3.88c.71-1.09,2.08-1.9,3.32-1.13,1.43.89.91,2.49-.57,2.81a7.08,7.08,0,0,1-3.1-.24.63.63,0,0,0-.33,1.21Z" fill="#231f20"/>
      <path id="Path_173" data-name="Path 173" d="M594.22,42.61c-.32-4.88,4.87-7.72,9-8.74a34.37,34.37,0,0,1,17.86.62.63.63,0,0,0,.77-.43,21.38,21.38,0,0,1,14-16.83,20,20,0,0,1,21,5.36,20.43,20.43,0,0,1,5.71,11.58.64.64,0,0,0,.94.54c10.86-5.19,24.77-2.52,33.17,6a34.857,34.857,0,0,1,2.9,3.51,5.32,5.32,0,0,0,3.41,2.41c1.66.26,3.25-.37,4.88-.56a11,11,0,0,1,4.75.51,7.71,7.71,0,0,1,5.55,6.63A6.21,6.21,0,0,1,713.5,60a43.69,43.69,0,0,1-6.37.68l-6.23.54-12.7,1.09-25.4,2.18-25.4,2.17c-7.36.64-15.66,2.3-21.8-2.89-2.38-2-4.4-4.43-7-6.13-2.94-1.9-6.31-2.21-9.72-2.29s-6.81-.08-9.73-1.87c-2.61-1.61-3.77-4.66-2-7.35a3.07,3.07,0,0,1,3.22-1.5.629.629,0,0,0,.34-1.21c-2.46-.53-4.45,1.14-5.29,3.36a6.12,6.12,0,0,0,2.1,7.09c2.55,2.06,6,2.56,9.13,2.68,4.13.14,8.2,0,11.73,2.48,2.87,2,5,4.86,7.91,6.87,3.09,2.15,6.81,2.78,10.51,2.76,4.44,0,8.9-.6,13.32-1l13.94-1.2,55.79-4.78c3.31-.29,6.65-.64,8.44-3.81a8.55,8.55,0,0,0,.25-7.74,10,10,0,0,0-7.22-5.1,12.59,12.59,0,0,0-4.62,0,12.68,12.68,0,0,1-3.35.44,3.93,3.93,0,0,1-2.72-1.76A34.8,34.8,0,0,0,694,36.86,31.48,31.48,0,0,0,667.11,32a28.72,28.72,0,0,0-4.3,1.66l.94.54a22.65,22.65,0,0,0-14.47-18c-7.86-3-16.61-.55-22.46,5.32a21.69,21.69,0,0,0-6.22,12.22l.77-.43c-6.19-1.85-13.28-2.27-19.51-.35-4.32,1.33-9.22,4.57-8.89,9.67,0,.79,1.3.8,1.25,0Z" fill="#231f20"/>
      <path id="Path_174" data-name="Path 174" d="M1015.16,38.1c-6.1-5.16-13.65-10.12-22-9.84a19.86,19.86,0,0,0-16.69,10.82,15.34,15.34,0,0,0-1.3,10.72l.43-.77c-4.44,1.42-8.87-.59-13.36-.42-2.92.11-6.19,1-7.78,3.7-1.7,2.84-.62,6.38,1.49,8.69,2.73,3,7,3.78,10.81,4.44l-.15-1.14q-4.61,3-9,6.34c-2.13,1.65-5.41,3.65-5.78,6.6-.76,6,8.56,5.37,12.09,5.36l46.82-.08h26.4c.49,0,.88-.71.44-1.07a31.121,31.121,0,0,1-8.93-11.31l-.54,1c6.91.48,13.52,6.29,20.62,3.76a7.43,7.43,0,0,0,4.83-5.17,5.62,5.62,0,0,0-1.86-6.13l-.32,1.16c8.81-.92,16.39,4.62,25,5.37,6,.52,13-1.16,15.5-7.2a.61.61,0,0,0-.16-.6l-3-2.76.1.76c1.51-3,5.36-2.88,8.26-2.77a20.12,20.12,0,0,0,4.32,0,9.82,9.82,0,0,0,4-1.73c1.8-1.33,3.51-3.76,2-6a5.59,5.59,0,0,0-3.75-2c-2.24-.46-4.49-.85-6.74-1.27l-55.45-10.4c-4.64-.87-9.53-2-14.17-.55-3.75,1.16-8.3,4.6-12.26,2.49-.71-.38-1.34.7-.63,1.08,3,1.6,6.18.49,9.11-.74a32,32,0,0,1,5.16-1.9,19.289,19.289,0,0,1,6.52-.18c4.54.52,9,1.59,13.54,2.43l13.27,2.4,26.5,5,13.25,2.48c1.63.31,4.2.45,4.89,2.29.5,1.35-.65,2.71-1.62,3.51a8.191,8.191,0,0,1-4.83,1.89c-1.63.05-3.27-.16-4.91-.14-2.89,0-6.08.58-7.5,3.41a.65.65,0,0,0,.1.76l3,2.76-.16-.61c-2.55,6.05-10.35,7-16.06,6.05-7.87-1.31-15-6-23.19-5.14a.63.63,0,0,0-.31,1.17c1.9,1.45,1.77,4.18.74,6.12-1.32,2.5-4.07,3.44-6.78,3.43-5.94,0-11-3.93-16.92-4.34a.63.63,0,0,0-.54.94,32.061,32.061,0,0,0,9.13,11.56l.44-1.07-43.33.07H961.75c-2.41,0-5.33.18-7.4-1.32-3.49-2.54,1.1-6,3.11-7.63,3.15-2.5,6.43-4.83,9.8-7a.631.631,0,0,0-.15-1.14c-3.41-.6-7.3-1.22-9.88-3.74-2.31-2.24-3.44-6.17-.81-8.63,2.12-2,5.42-2.21,8.15-1.93,3.82.39,7.6,1.51,11.39.29a.63.63,0,0,0,.43-.76c-1.6-6.3,1.77-12.69,6.81-16.4,6.08-4.48,13.62-4.32,20.29-1.24A48.321,48.321,0,0,1,1014.28,39c.61.51,1.5-.37.88-.89Z" fill="#231f20"/>
      <path id="Path_175" data-name="Path 175" d="M650.12,342.45c2.8-5.18,9.66-5,13.6-8.9,2.65-2.61,3.57-8.14-.28-10.18l-.48,1.15a12,12,0,0,1,7.48,5.37c.3.48,1.23.34,1.16-.31a83.248,83.248,0,0,0-6.18-23.93l-.7.91A18.29,18.29,0,0,1,676.1,318.1a.63.63,0,0,0,1.23-.16,31.4,31.4,0,0,0-9.05-23.72l-.76,1a212.994,212.994,0,0,1,24.58,19.63.63.63,0,0,0,.89,0A33.35,33.35,0,0,1,721.44,303a.63.63,0,0,0,.54-.94c-2.09-3.84-5.79-10.13-11.14-8.5-4.15,1.27-6.29,6.38-2.33,9.21,4.62,3.29,11.24,3.37,16.24,1,2.87-1.37,5-3.83,7.72-5.36s7.2-1.67,7.76,2.16c.43,2.85-2.08,6-4.84,6.54-4.16.83-8.15-2.25-11.26-4.58l.22.85c4.5-6.54,12.21-9,19.86-8.94A45.67,45.67,0,0,1,755.66,296c3.56,1,7,2.26,10.7,2.59s7.34-.55,9.58-3.74h-1.08l2.71,5.31a.63.63,0,0,0,1.14-.15,7.21,7.21,0,0,1,3.68-4.44l-.94-.54,1.06,9.39a.63.63,0,0,0,1.16.31l4.37-6.25-1.14-.15,1,6.4a.63.63,0,0,0,.92.37A71,71,0,0,1,808,297.34l-.77-.43a8,8,0,0,1-2.55,8.93l.76,1c5.46-6.52,15.84-5.61,23.46-5.28a131.351,131.351,0,0,1,29,4.61.62.62,0,0,0,.77-.43l1.08-6-1.14.15,3.64,6.06a.64.64,0,0,0,1.17-.32l1.14-8.74-1.17.31,4,9c.23.51,1,.32,1.15-.15a57,57,0,0,1,3.32-8.93l-1.14-.15,2.41,10.8a.63.63,0,0,0,1,.28l9.56-12.22-1.06-.44-.81,12.05a.62.62,0,0,0,1.22.16,9.26,9.26,0,0,1,8.11-7.42l-.6-.79-2.13,10a.63.63,0,0,0,.77.77,31.9,31.9,0,0,1,30.39,6.12.64.64,0,0,0,.88,0c1.48-1.53,1.33-3.64.43-5.45-1.15-2.3-3.36-3.34-5.37-4.74-1.2-.82-2.48-1.87-2.76-3.37a3.7,3.7,0,0,1,.92-3.3c1.43-1.16,3,1.42,3.55,2.52a7.8,7.8,0,0,1,.55,5,.622.622,0,1,0,1.2.33,19.289,19.289,0,0,1,4.15-6.58,10.167,10.167,0,0,1,1.09-1c.6-.53.9-1,1.61-.32a3.32,3.32,0,0,1,.8,2.44c0,4.37-4.22,6.7-5.18,10.71-.75,3.15,1.22,5.58,4.18,6.29,3.12.75,7.18,0,9.51,2.69a.63.63,0,0,0,1-.13,114.072,114.072,0,0,0,7.39-19.57h-1.2a38.54,38.54,0,0,1,2.17,17.77h1.25a28.272,28.272,0,0,1,2.25-8.71l-1.17-.31A63.886,63.886,0,0,1,946,321.6a.63.63,0,0,0,1.15.49,44.37,44.37,0,0,1,8.85-9.65l-1-.76-9.58,12.59c-.32.42.22,1.11.71.92a37.3,37.3,0,0,1,22.12-1.87l-.27-1a36.279,36.279,0,0,1-10.29,8.14c-.61.32-.25,1.1.31,1.16l14.21,1.74-.17-1.23a47,47,0,0,0-16.53,10.74.63.63,0,0,0,.89.89,45.28,45.28,0,0,1,16-10.42.63.63,0,0,0-.17-1.23L958,330.18l.32,1.17A37.1,37.1,0,0,0,968.87,323a.63.63,0,0,0-.28-1,38.44,38.44,0,0,0-22.78,1.86l.7.92,9.58-12.59c.46-.61-.48-1.16-1-.75a44.848,44.848,0,0,0-9.05,9.9l1.14.48a66.918,66.918,0,0,0,.87-11.39c0-.58-.9-.92-1.16-.32a30.228,30.228,0,0,0-2.42,9.34c-.07.8,1.16.79,1.25,0a39.331,39.331,0,0,0-2.22-18.11.63.63,0,0,0-1.2,0,113.131,113.131,0,0,1-7.27,19.28l1-.13c-2.46-2.78-6.42-2.25-9.73-2.93-2.4-.51-4.26-2.12-3.63-4.83.59-2.55,2.72-4.33,4-6.51s2.28-7-.8-8.41c-1.71-.77-3.3,1.51-4.3,2.66a21.172,21.172,0,0,0-3.78,6.39l1.2.33a9,9,0,0,0-2.51-8.47c-1.81-1.67-3.88-.85-4.69,1.38-.95,2.62.3,4.87,2.37,6.47,1.39,1.07,3.08,1.81,4.36,3,1.43,1.37,2.69,4,1.07,5.72h.88a33.15,33.15,0,0,0-31.6-6.43l.76.77,2.13-10a.63.63,0,0,0-.6-.79,10.5,10.5,0,0,0-9.31,8.34l1.23.17.81-12.05a.64.64,0,0,0-1.07-.45l-9.57,12.22,1,.28-2.42-10.8a.63.63,0,0,0-1.14-.15,58.449,58.449,0,0,0-3.45,9.22l1.14-.15-4-9c-.28-.64-1.1-.21-1.16.32l-1.14,8.74,1.16-.31-3.64-6.06a.64.64,0,0,0-1.15.15l-1.07,6,.77-.43a132.57,132.57,0,0,0-30.59-4.71c-7.69-.26-17.64-.83-23.12,5.7-.41.5.15,1.44.76,1a9.23,9.23,0,0,0,3.12-10.35.63.63,0,0,0-.77-.43,72.07,72.07,0,0,0-19.4,7.91l.91.38-1-6.4c-.09-.58-.87-.54-1.14-.15l-4.37,6.25,1.17.32-1.06-9.39a.63.63,0,0,0-.94-.54,8.44,8.44,0,0,0-4.25,5.19l1.14-.15-2.71-5.32a.64.64,0,0,0-1.08,0c-4.79,6.83-15.46,1.21-21.66-.08-6.89-1.43-14.45-1.61-21,1.22a20.71,20.71,0,0,0-8.91,7.34.65.65,0,0,0,.23.86c4,3,10,7.11,14.86,3.45,3.1-2.34,4.79-7.78.79-10.17-5.21-3.1-9.93,2.87-13.9,5.2a15.58,15.58,0,0,1-9.45,2c-2.63-.27-7.85-1.54-8.22-4.77s3.91-5.47,6.65-4.34c3.24,1.34,5.08,4.81,6.67,7.73l.54-.94A34.57,34.57,0,0,0,692.1,314h.9a216.353,216.353,0,0,0-24.84-19.83c-.59-.4-1.25.49-.76,1A30.12,30.12,0,0,1,676.09,318l1.23-.17a19.58,19.58,0,0,0-12.26-12.41c-.58-.19-.9.46-.71.92a81,81,0,0,1,6,23.3l1.17-.32a13.3,13.3,0,0,0-8.23-5.95c-.66-.15-1.13.8-.48,1.14,2,1.07,2.31,3.65,1.67,5.65-.76,2.35-2.93,3.8-5.05,4.82-3.82,1.85-8.22,2.89-10.39,6.9-.38.71.7,1.34,1.08.63Z" fill="#231f20"/>
      <path id="Path_176" data-name="Path 176" d="M620.69,101.54a10.9,10.9,0,0,0-21.55-.25l.77-.43c-6.31-2.26-12.15-7.66-19.18-7.33-4.8.22-10.3,3.1-10.39,8.48l.95-.54A16.91,16.91,0,0,0,560,99.31a17.76,17.76,0,0,0-10.35,5.83c-2,2.15-4.36,2.45-7.16,1.69-2.14-.59-4.14-1.62-6.34-2a8.88,8.88,0,0,0-5.13.33c-1.89.82-2.61,2.43-3.21,4.28a4.67,4.67,0,0,1-4.59,3.65,18.83,18.83,0,0,1-5.94-1c-2.94-.85-7-1.46-9.56.74-3,2.59-1.13,6.81,1.68,8.66s6.25,1.7,9.41,1.09c3.72-.71,7.31-2.08,11.08-2.5a12.79,12.79,0,0,1,5.33.38,14.9,14.9,0,0,1,5.64,4c2.72,2.6,7,5.87,10.88,3.45,2.93-1.85,3.89-7.78,8.35-6.23,3.67,1.28,5.93,5,9.72,6.19s7.83-.39,11.37-1.83c4.36-1.76,8.53-3.39,13.28-2.18,4.28,1.09,8.34,3.3,12.89,2.52a7.57,7.57,0,0,0,4.78-2.67c1.43-1.81,2.19-4.5,5.08-3.58,1.13.36,2.14,1,3.25,1.42a10.331,10.331,0,0,0,3.07.6,9.44,9.44,0,0,0,5.72-1.56,8.06,8.06,0,0,0,2.87-9.71c-1.57-3.4-5.4-4.59-8.53-6A11.58,11.58,0,0,1,619,101.6c-.48-.63-1.57,0-1.08.63,2.12,2.79,5.46,3.77,8.49,5.25a9.88,9.88,0,0,1,4.08,3.14,6.36,6.36,0,0,1,.38,6c-1.95,4.62-7.45,5.08-11.48,3.15-1.68-.8-3.6-1.65-5.35-.56-1.52.94-2,2.77-3.19,4-3.1,3.41-8.43,2-12.17.68a30.779,30.779,0,0,0-6.46-1.71,15.36,15.36,0,0,0-5.87.61c-3.81,1.07-7.3,3.1-11.18,3.94a9.53,9.53,0,0,1-5.83-.34,22.521,22.521,0,0,1-4.9-3.38c-2.39-1.9-5.51-4-8.5-2a12.181,12.181,0,0,0-3,3.69c-1.32,2-3.05,3.16-5.52,2.58-4.41-1-6.61-5.57-10.54-7.46-3-1.42-6.28-1.24-9.41-.63-3.41.67-6.7,1.86-10.13,2.37s-7.61.06-9.44-3.32a3.51,3.51,0,0,1,1.51-5.07,9.39,9.39,0,0,1,5.2-.41c3.41.53,6.71,2.23,10.24,1.33a5.3,5.3,0,0,0,3.43-2.64c1-2,1-4.4,3.41-5.27,4-1.43,8,1.53,11.79,2.18a7.12,7.12,0,0,0,5.69-1.13c1.61-1.22,2.73-2.93,4.4-4.09a16.16,16.16,0,0,1,11.63-2.59,15.06,15.06,0,0,1,5.42,2,.63.63,0,0,0,.94-.54c.09-5.24,6.23-7.57,10.7-7.21,3.1.25,6.05,1.73,8.76,3.15a67.572,67.572,0,0,0,8.53,4.11.63.63,0,0,0,.77-.43,9.65,9.65,0,0,1,19.13.24c.12.79,1.33.46,1.21-.33Z" fill="#231f20"/>
    </g>
  </g>
</svg>
