<svg xmlns="http://www.w3.org/2000/svg" width="200" height="200" viewBox="0 0 200 200">
  <g id="Group_68" data-name="Group 68" transform="translate(-6934 6952)">
    <rect id="Rectangle_15" data-name="Rectangle 15" width="200" height="200" transform="translate(6934 -6952)" fill="none"/>
    <path id="Path_555" data-name="Path 555" d="M40.2,15.69l1.11,43.88.56,21.94c.18,7.14.64,14.34.49,21.48-.06,2.91-.44,6-2.27,8.4a6.2,6.2,0,0,1-6.31,2.54c-2.47-.48-4.89-1.57-7.44-1.56a5.44,5.44,0,0,0-5.51,4.33c-.6,3.26,1.49,6.18,3.15,8.77l5.9,9.19,5.89,9.18c1.56,2.43,3.11,6,6,7s5.75-1.09,7.43-3.48c2-2.85,3.1-6.46,4.46-9.65l9.8-22.93a2,2,0,0,0-.67-2.57,1.89,1.89,0,0,0-2.57.67L52,132.16l-4.11,9.63c-.76,1.78-1.91,4.92-4,5.52-1,.29-1.7-.5-2.25-1.25-.95-1.31-1.77-2.74-2.65-4.11l-5.63-8.77-5.62-8.77c-.87-1.35-1.82-2.69-2.55-4.12-.5-1-1.18-2.54-.4-3.56,1.09-1.4,3.91-.23,5.23.13,2.43.67,5,1.36,7.49.68,5.84-1.58,8.2-7.77,8.53-13.23.2-3.26,0-6.57-.11-9.84L45.69,84l-.54-20.94L44,15.69c-.07-2.41-3.82-2.42-3.75,0Z" transform="translate(6991.58 -6934.879)" fill="#231f20"/>
  </g>
</svg>
