<svg xmlns="http://www.w3.org/2000/svg" width="681.47" height="263.111" viewBox="0 0 681.47 263.111">
  <g id="Group_42" data-name="Group 42" transform="translate(-3606.123 -114.889)">
    <g id="Group_39" data-name="Group 39" transform="matrix(0.94, -0.342, 0.342, 0.94, -1140.391, 1839.012)">
      <circle id="Ellipse_17" data-name="Ellipse 17" cx="38.36" cy="38.36" r="38.36" transform="translate(5452.598 177.733)" fill="#f9e76f"/>
      <path id="Path_76" data-name="Path 76" d="M999.34,78.68c-4.56,3.54-8.93,7.67-11.13,13.12a22.429,22.429,0,0,0,0,16c4,10.78,14.59,17,25.56,18.57,10.66,1.46,22.52-1.72,27.7-11.92,4.38-8.62,3.46-19.75-1.91-27.73-6.79-10.11-19-15.15-30.92-15.45a.63.63,0,0,0,0,1.25c10.09.25,20.41,4,27.29,11.57a27.35,27.35,0,0,1,5.89,26.18c-6.9,22.2-41.09,18.26-50.87.55A22.42,22.42,0,0,1,988.77,94c1.78-6.09,6.59-10.62,11.45-14.4.64-.49-.26-1.37-.88-.88Z" transform="translate(4475.448 115.713)" fill="#231f20"/>
      <path id="Path_78" data-name="Path 78" d="M908.35,57.77a374.525,374.525,0,0,0,52.3,15.17.622.622,0,0,0,.33-1.2,377.253,377.253,0,0,1-52.3-15.17c-.76-.28-1.08.93-.33,1.2Z" transform="translate(4475.448 115.713)" fill="#231f20"/>
      <path id="Path_79" data-name="Path 79" d="M951.81,36.44l9,4.63c.72.36,1.35-.71.63-1.08l-9-4.63C951.73,35,951.1,36.07,951.81,36.44Z" transform="translate(4475.448 115.713)" fill="#231f20"/>
      <path id="Path_80" data-name="Path 80" d="M992,191.78l8.13-13.59a.63.63,0,0,0-1.08-.63L991,191.15a.63.63,0,0,0,1.08.63Z" transform="translate(4475.448 115.713)" fill="#231f20"/>
      <path id="Path_81" data-name="Path 81" d="M941.43,186.27a376.674,376.674,0,0,0,41.17-35.89.63.63,0,0,0-.88-.89,375.274,375.274,0,0,1-40.92,35.7C940.17,185.67,940.8,186.76,941.43,186.27Z" transform="translate(4475.448 115.713)" fill="#231f20"/>
      <path id="Path_82" data-name="Path 82" d="M947.12,138.08l8.78-5.1a.63.63,0,0,0-.63-1.08l-8.78,5.1a.63.63,0,0,0,.63,1.08Z" transform="translate(4475.448 115.713)" fill="#231f20"/>
    </g>
    <path id="Path_173" data-name="Path 173" d="M594.22,42.61c-.32-4.88,4.87-7.72,9-8.74a34.37,34.37,0,0,1,17.86.62.63.63,0,0,0,.77-.43,21.38,21.38,0,0,1,14-16.83,20,20,0,0,1,21,5.36,20.43,20.43,0,0,1,5.71,11.58.64.64,0,0,0,.94.54c10.86-5.19,24.77-2.52,33.17,6a34.857,34.857,0,0,1,2.9,3.51,5.32,5.32,0,0,0,3.41,2.41c1.66.26,3.25-.37,4.88-.56a11,11,0,0,1,4.75.51,7.71,7.71,0,0,1,5.55,6.63A6.21,6.21,0,0,1,713.5,60a43.69,43.69,0,0,1-6.37.68l-6.23.54-12.7,1.09-25.4,2.18-25.4,2.17c-7.36.64-15.66,2.3-21.8-2.89-2.38-2-4.4-4.43-7-6.13-2.94-1.9-6.31-2.21-9.72-2.29s-6.81-.08-9.73-1.87c-2.61-1.61-3.77-4.66-2-7.35a3.07,3.07,0,0,1,3.22-1.5.629.629,0,0,0,.34-1.21c-2.46-.53-4.45,1.14-5.29,3.36a6.12,6.12,0,0,0,2.1,7.09c2.55,2.06,6,2.56,9.13,2.68,4.13.14,8.2,0,11.73,2.48,2.87,2,5,4.86,7.91,6.87,3.09,2.15,6.81,2.78,10.51,2.76,4.44,0,8.9-.6,13.32-1l13.94-1.2,55.79-4.78c3.31-.29,6.65-.64,8.44-3.81a8.55,8.55,0,0,0,.25-7.74,10,10,0,0,0-7.22-5.1,12.59,12.59,0,0,0-4.62,0,12.68,12.68,0,0,1-3.35.44,3.93,3.93,0,0,1-2.72-1.76A34.8,34.8,0,0,0,694,36.86,31.48,31.48,0,0,0,667.11,32a28.72,28.72,0,0,0-4.3,1.66l.94.54a22.65,22.65,0,0,0-14.47-18c-7.86-3-16.61-.55-22.46,5.32a21.69,21.69,0,0,0-6.22,12.22l.77-.43c-6.19-1.85-13.28-2.27-19.51-.35-4.32,1.33-9.22,4.57-8.89,9.67,0,.79,1.3.8,1.25,0Z" transform="translate(3570.013 181.009) rotate(3)" fill="#231f20"/>
    <path id="Path_174" data-name="Path 174" d="M1015.16,38.1c-6.1-5.16-13.65-10.12-22-9.84a19.86,19.86,0,0,0-16.69,10.82,15.34,15.34,0,0,0-1.3,10.72l.43-.77c-4.44,1.42-8.87-.59-13.36-.42-2.92.11-6.19,1-7.78,3.7-1.7,2.84-.62,6.38,1.49,8.69,2.73,3,7,3.78,10.81,4.44l-.15-1.14q-4.61,3-9,6.34c-2.13,1.65-5.41,3.65-5.78,6.6-.76,6,8.56,5.37,12.09,5.36l46.82-.08h26.4c.49,0,.88-.71.44-1.07a31.121,31.121,0,0,1-8.93-11.31l-.54,1c6.91.48,13.52,6.29,20.62,3.76a7.43,7.43,0,0,0,4.83-5.17,5.62,5.62,0,0,0-1.86-6.13l-.32,1.16c8.81-.92,16.39,4.62,25,5.37,6,.52,13-1.16,15.5-7.2a.61.61,0,0,0-.16-.6l-3-2.76.1.76c1.51-3,5.36-2.88,8.26-2.77a20.12,20.12,0,0,0,4.32,0,9.82,9.82,0,0,0,4-1.73c1.8-1.33,3.51-3.76,2-6a5.59,5.59,0,0,0-3.75-2c-2.24-.46-4.49-.85-6.74-1.27l-55.45-10.4c-4.64-.87-9.53-2-14.17-.55-3.75,1.16-8.3,4.6-12.26,2.49-.71-.38-1.34.7-.63,1.08,3,1.6,6.18.49,9.11-.74a32,32,0,0,1,5.16-1.9,19.289,19.289,0,0,1,6.52-.18c4.54.52,9,1.59,13.54,2.43l13.27,2.4,26.5,5,13.25,2.48c1.63.31,4.2.45,4.89,2.29.5,1.35-.65,2.71-1.62,3.51a8.191,8.191,0,0,1-4.83,1.89c-1.63.05-3.27-.16-4.91-.14-2.89,0-6.08.58-7.5,3.41a.65.65,0,0,0,.1.76l3,2.76-.16-.61c-2.55,6.05-10.35,7-16.06,6.05-7.87-1.31-15-6-23.19-5.14a.63.63,0,0,0-.31,1.17c1.9,1.45,1.77,4.18.74,6.12-1.32,2.5-4.07,3.44-6.78,3.43-5.94,0-11-3.93-16.92-4.34a.63.63,0,0,0-.54.94,32.061,32.061,0,0,0,9.13,11.56l.44-1.07-43.33.07H961.75c-2.41,0-5.33.18-7.4-1.32-3.49-2.54,1.1-6,3.11-7.63,3.15-2.5,6.43-4.83,9.8-7a.631.631,0,0,0-.15-1.14c-3.41-.6-7.3-1.22-9.88-3.74-2.31-2.24-3.44-6.17-.81-8.63,2.12-2,5.42-2.21,8.15-1.93,3.82.39,7.6,1.51,11.39.29a.63.63,0,0,0,.43-.76c-1.6-6.3,1.77-12.69,6.81-16.4,6.08-4.48,13.62-4.32,20.29-1.24A48.321,48.321,0,0,1,1014.28,39c.61.51,1.5-.37.88-.89Z" transform="translate(2772.932 106.084)" fill="#231f20"/>
    <path id="Path_176" data-name="Path 176" d="M620.69,101.54a10.9,10.9,0,0,0-21.55-.25l.77-.43c-6.31-2.26-12.15-7.66-19.18-7.33-4.8.22-10.3,3.1-10.39,8.48l.95-.54A16.91,16.91,0,0,0,560,99.31a17.76,17.76,0,0,0-10.35,5.83c-2,2.15-4.36,2.45-7.16,1.69-2.14-.59-4.14-1.62-6.34-2a8.88,8.88,0,0,0-5.13.33c-1.89.82-2.61,2.43-3.21,4.28a4.67,4.67,0,0,1-4.59,3.65,18.83,18.83,0,0,1-5.94-1c-2.94-.85-7-1.46-9.56.74-3,2.59-1.13,6.81,1.68,8.66s6.25,1.7,9.41,1.09c3.72-.71,7.31-2.08,11.08-2.5a12.79,12.79,0,0,1,5.33.38,14.9,14.9,0,0,1,5.64,4c2.72,2.6,7,5.87,10.88,3.45,2.93-1.85,3.89-7.78,8.35-6.23,3.67,1.28,5.93,5,9.72,6.19s7.83-.39,11.37-1.83c4.36-1.76,8.53-3.39,13.28-2.18,4.28,1.09,8.34,3.3,12.89,2.52a7.57,7.57,0,0,0,4.78-2.67c1.43-1.81,2.19-4.5,5.08-3.58,1.13.36,2.14,1,3.25,1.42a10.331,10.331,0,0,0,3.07.6,9.44,9.44,0,0,0,5.72-1.56,8.06,8.06,0,0,0,2.87-9.71c-1.57-3.4-5.4-4.59-8.53-6A11.58,11.58,0,0,1,619,101.6c-.48-.63-1.57,0-1.08.63,2.12,2.79,5.46,3.77,8.49,5.25a9.88,9.88,0,0,1,4.08,3.14,6.36,6.36,0,0,1,.38,6c-1.95,4.62-7.45,5.08-11.48,3.15-1.68-.8-3.6-1.65-5.35-.56-1.52.94-2,2.77-3.19,4-3.1,3.41-8.43,2-12.17.68a30.779,30.779,0,0,0-6.46-1.71,15.36,15.36,0,0,0-5.87.61c-3.81,1.07-7.3,3.1-11.18,3.94a9.53,9.53,0,0,1-5.83-.34,22.521,22.521,0,0,1-4.9-3.38c-2.39-1.9-5.51-4-8.5-2a12.181,12.181,0,0,0-3,3.69c-1.32,2-3.05,3.16-5.52,2.58-4.41-1-6.61-5.57-10.54-7.46-3-1.42-6.28-1.24-9.41-.63-3.41.67-6.7,1.86-10.13,2.37s-7.61.06-9.44-3.32a3.51,3.51,0,0,1,1.51-5.07,9.39,9.39,0,0,1,5.2-.41c3.41.53,6.71,2.23,10.24,1.33a5.3,5.3,0,0,0,3.43-2.64c1-2,1-4.4,3.41-5.27,4-1.43,8,1.53,11.79,2.18a7.12,7.12,0,0,0,5.69-1.13c1.61-1.22,2.73-2.93,4.4-4.09a16.16,16.16,0,0,1,11.63-2.59,15.06,15.06,0,0,1,5.42,2,.63.63,0,0,0,.94-.54c.09-5.24,6.23-7.57,10.7-7.21,3.1.25,6.05,1.73,8.76,3.15a67.572,67.572,0,0,0,8.53,4.11.63.63,0,0,0,.77-.43,9.65,9.65,0,0,1,19.13.24c.12.79,1.33.46,1.21-.33Z" transform="translate(3099.932 146.084)" fill="#231f20"/>
    <g id="Group_38" data-name="Group 38" transform="translate(1242 98)">
      <rect id="Rectangle_5" data-name="Rectangle 5" width="195" height="195" transform="translate(2559 85)" fill="none"/>
      <path id="Path_177" data-name="Path 177" d="M455.44,312.69c-3.59-.63-5.71,4.16-4,6.95,2,3.25,6.89,2.42,8.49-.7a7.74,7.74,0,0,0-3.49-10.11,8.62,8.62,0,0,0-9.61,2.08c-2.84,3-3,7.56-1.51,11.22a11.46,11.46,0,0,0,9.14,7.3,14.31,14.31,0,0,0,12.27-5.06c3.6-4,5.75-9.15,9.15-13.36a129.011,129.011,0,0,1,12.26-12.49l14-13.3,13.65-13,7-6.65a34,34,0,0,0,5.5-5.82,11.08,11.08,0,0,0-.14-11.67,12.18,12.18,0,0,0-11.06-6C506,242.42,499,253.45,492.47,261a417.917,417.917,0,0,1-49.84,49.36q-3.3,2.76-6.65,5.44l1,.13a100.882,100.882,0,0,0-7-11.62,59,59,0,0,0-8.28-9.89c-6.23-5.66-14.3-7.2-22.49-6.62-9,.64-17.66,3.55-26.68,3.54a29.36,29.36,0,0,1-12.85-2.77,35.53,35.53,0,0,1-9.05-6.47c-6.37-6.13-11-13.86-15.28-21.54l-.22.86a386.441,386.441,0,0,0,36.22-20.38q8.82-5.61,17.33-11.7c2.91-2.08,5.78-4.2,8.64-6.35,1.31-1,2.59-1.92,4.3-1.88a10,10,0,0,1,4.46,1.38c4.71,2.59,7.79,7.4,11.41,11.22a26.3,26.3,0,0,0,14.3,8.07,24.83,24.83,0,0,0,16.11-2.57c5.42-2.81,10.14-6.94,15.86-9.17,15.32-6,29.82,5.89,40.78,15.12.61.52,1.5-.36.88-.88-9.89-8.33-21.44-18.05-35.27-17-12.67,1-20.77,13.55-33.66,13.64a24.1,24.1,0,0,1-16.61-6.61c-3.92-3.7-6.87-8.41-11.22-11.66a12.77,12.77,0,0,0-7-2.82c-3.21-.09-5.89,2.78-8.29,4.57q-8.61,6.36-17.55,12.25a385.071,385.071,0,0,1-41.29,23.66.65.65,0,0,0-.22.86c7,12.58,16.16,27.56,31.41,30.72,9,1.86,18-.59,26.84-2.05,8.29-1.37,17.47-1.86,24.88,2.81,4.26,2.69,7.51,6.77,10.46,10.8a99.783,99.783,0,0,1,8.08,13.08.63.63,0,0,0,1,.12,415.309,415.309,0,0,0,44.6-41.44q5.22-5.62,10.25-11.44c3.26-3.77,6.35-7.71,9.7-11.41s7-7,11.71-8.39c4.35-1.33,9.27-.78,12.48,2.68,2.69,2.92,4,7.5,2.32,11.23a18.41,18.41,0,0,1-4.38,5.25l-6.11,5.8-24.07,22.84c-3.85,3.65-7.72,7.27-11.52,11a68,68,0,0,0-9.61,11.08c-2.54,3.83-4.52,8.27-8.09,11.29-3.39,2.87-8.38,4.12-12.52,2.18-6.93-3.24-8.84-15.86.09-17.79a6.28,6.28,0,0,1,7.68,6.12c.05,2.1-1,4.25-3.2,4.72a3.26,3.26,0,0,1-4.12-2.85c-.06-1.62,1.11-4,3-3.64.79.14,1.13-1.07.34-1.21Z" transform="translate(2159.959 48.426) rotate(-20)" fill="#231f20"/>
      <line id="Line_1" data-name="Line 1" x1="42" y2="83" transform="translate(2656.5 184.5)" fill="none" stroke="#231f20" stroke-width="1"/>
    </g>
  </g>
</svg>
